<svg width="300" height="240" viewBox="0 0 300 240" fill="none" xmlns="http://www.w3.org/2000/svg">
<path opacity="0.1" d="M292.731 163.18C292.463 163.385 292.215 163.584 291.952 163.777C290.98 164.493 289.962 165.139 288.906 165.712C283.374 168.75 276.554 170.234 269.912 171.242C255.015 173.505 239.805 173.944 224.661 174.375C183.74 175.546 142.72 176.714 101.898 174.017C85.7695 172.953 69.2861 171.172 54.6709 165.712C52.576 164.931 50.5222 164.071 48.5098 163.13C44.4373 161.223 40.5261 158.902 37.2735 156.13C34.2171 153.531 31.7387 150.546 30.2576 147.152C27.169 140.085 28.8033 132.146 32.3301 125.219C33.7948 122.416 35.4467 119.724 37.2735 117.163C39.9966 113.262 42.9992 109.473 45.7383 105.576C55.4854 91.7203 61.8454 74.1913 52.8483 59.9805C50.2624 55.8979 46.5259 52.3137 44.4185 48.0518C41.7304 42.5999 41.9374 36.546 42.7922 30.6656C42.9033 29.9189 43.0207 29.1797 43.1443 28.4479C44.604 19.7282 47.3512 10.3336 55.8214 4.89013C64.6195 -0.766189 77.1138 -0.480573 88.0328 1.52994C105.014 4.68852 120.677 11.2633 136.507 17.1996C152.338 23.136 168.899 28.5599 186.296 29.1423C201.659 29.6576 219.578 25.8017 229.774 15.78C239.676 6.0466 258.292 5.30456 271.708 11.1849C280.917 15.2199 287.788 22.4891 290.686 30.6656C291.273 32.3072 291.695 34.0075 291.947 35.7395C292.179 37.3224 292.254 38.926 292.172 40.525C292.132 41.3146 292.054 42.0959 291.947 42.8687C289.705 59.0032 273.568 71.73 263.759 86.1424C258.966 93.182 255.582 101.638 258.878 109.23C263.904 120.797 281.385 124.911 291.941 133.518C293.928 135.085 295.677 136.954 297.129 139.063C302.25 146.724 300.36 157.07 292.731 163.18Z" fill="#E52F34"/>
<path d="M69.3051 90.9699C69.3051 90.9699 56.9399 68.143 38.306 61.5682C30.4863 58.8072 23.6612 53.6157 18.9947 46.5201C16.7854 43.1513 14.8778 39.5782 13.2959 35.8459" stroke="#535461" stroke-width="2" stroke-miterlimit="10"/>
<path d="M1.57885 31.6205C3.70245 33.757 13.5893 35.9971 13.5893 35.9971C13.5893 35.9971 11.17 25.7709 9.04101 23.6232C8.01763 22.6137 6.65358 22.065 5.24448 22.0959C3.83539 22.1269 2.49475 22.735 1.51311 23.7885C0.531464 24.842 -0.0121025 26.256 0.000204518 27.7241C0.0125116 29.1922 0.5797 30.5962 1.57885 31.6317V31.6205Z" fill="#E52F34"/>
<path d="M7.17292 50.1267C10.0734 50.726 19.5382 46.9933 19.5382 46.9933C19.5382 46.9933 12.1593 39.7801 9.2562 39.1809C7.87643 38.9278 6.45639 39.2478 5.30041 40.0723C4.14443 40.8968 3.34449 42.1602 3.07203 43.5917C2.79957 45.0233 3.07628 46.509 3.84284 47.7306C4.6094 48.9521 5.80483 49.8123 7.17292 50.1267Z" fill="#E52F34"/>
<path d="M27.5357 70.1591C30.3313 69.151 36.6752 60.9549 36.6752 60.9549C36.6752 60.9549 26.8153 58.6056 24.0224 59.6136C23.3371 59.8354 22.7015 60.1983 22.1535 60.6809C21.6054 61.1634 21.156 61.7557 20.8319 62.4227C20.5078 63.0896 20.3157 63.8175 20.2668 64.5633C20.218 65.3091 20.3135 66.0575 20.5476 66.7641C20.7818 67.4707 21.1498 68.1211 21.6299 68.6767C22.11 69.2323 22.6923 69.6817 23.3424 69.9984C23.9924 70.315 24.6969 70.4924 25.414 70.52C26.1311 70.5476 26.8462 70.4249 27.5169 70.1591H27.5357Z" fill="#E52F34"/>
<path d="M46.2172 81.6929C49.1365 81.1889 56.7277 74.2305 56.7277 74.2305C56.7277 74.2305 47.3919 70.1787 44.4727 70.6799C43.0707 70.9209 41.8181 71.7322 40.9903 72.9352C40.1625 74.1383 39.8275 75.6346 40.0588 77.0951C40.2902 78.5555 41.069 79.8604 42.2239 80.7226C43.3788 81.5849 44.8153 81.9339 46.2172 81.6929Z" fill="#E52F34"/>
<path d="M27.774 39.0017C27.774 42.0819 22.4246 51.0228 22.4246 51.0228C22.4246 51.0228 17.0646 42.0875 17.0619 39.0073C17.0459 38.2641 17.1726 37.525 17.4346 36.8336C17.6966 36.1421 18.0886 35.5121 18.5875 34.9806C19.0864 34.4491 19.6823 34.0267 20.3401 33.7384C20.9978 33.4501 21.7043 33.3016 22.4179 33.3016C23.1316 33.3016 23.838 33.4501 24.4958 33.7384C25.1536 34.0267 25.7494 34.4491 26.2484 34.9806C26.7473 35.5121 27.1393 36.1421 27.4012 36.8336C27.6632 37.525 27.7899 38.2641 27.774 39.0073V39.0017Z" fill="#E52F34"/>
<path d="M49.4624 52.7981C48.578 55.7382 40.9035 62.5986 40.9035 62.5986C40.9035 62.5986 38.3552 52.392 39.2288 49.4379C39.6983 48.0853 40.6511 46.9738 41.8883 46.3352C43.1255 45.6966 44.5516 45.5802 45.8691 46.0104C47.1867 46.4405 48.2939 47.384 48.9599 48.644C49.6259 49.9039 49.7991 51.3831 49.4436 52.7729L49.4624 52.7981Z" fill="#E52F34"/>
<path d="M68.7729 69.193C68.3804 72.248 61.929 80.36 61.929 80.36C61.929 80.36 57.7625 70.7611 58.1657 67.7061C58.3744 66.2571 59.1219 64.9517 60.2467 64.0718C61.3715 63.1919 62.7834 62.8082 64.1775 63.0034C65.5716 63.1986 66.8361 63.9571 67.6979 65.1152C68.5597 66.2733 68.9497 67.738 68.7837 69.193H68.7729Z" fill="#E52F34"/>
<path opacity="0.25" d="M1.57885 31.6205C3.70245 33.757 13.5893 35.9971 13.5893 35.9971C13.5893 35.9971 11.17 25.7709 9.04101 23.6232C8.01763 22.6137 6.65358 22.065 5.24448 22.0959C3.83539 22.1269 2.49475 22.735 1.51311 23.7885C0.531464 24.842 -0.0121025 26.256 0.000204518 27.7241C0.0125116 29.1922 0.5797 30.5962 1.57885 31.6317V31.6205Z" fill="black"/>
<path opacity="0.25" d="M7.17292 50.1267C10.0734 50.726 19.5382 46.9933 19.5382 46.9933C19.5382 46.9933 12.1593 39.7801 9.2562 39.1809C7.87643 38.9278 6.45639 39.2478 5.30041 40.0723C4.14443 40.8968 3.34449 42.1602 3.07203 43.5917C2.79957 45.0233 3.07628 46.509 3.84284 47.7306C4.6094 48.9521 5.80483 49.8123 7.17292 50.1267Z" fill="black"/>
<path opacity="0.25" d="M27.5357 70.1591C30.3313 69.151 36.6752 60.9549 36.6752 60.9549C36.6752 60.9549 26.8153 58.6056 24.0224 59.6136C23.3371 59.8354 22.7015 60.1983 22.1535 60.6809C21.6054 61.1634 21.156 61.7557 20.8319 62.4227C20.5078 63.0896 20.3157 63.8175 20.2668 64.5633C20.218 65.3091 20.3135 66.0575 20.5476 66.7641C20.7818 67.4707 21.1498 68.1211 21.6299 68.6767C22.11 69.2323 22.6923 69.6817 23.3424 69.9984C23.9924 70.315 24.6969 70.4924 25.414 70.52C26.1311 70.5476 26.8462 70.4249 27.5169 70.1591H27.5357Z" fill="black"/>
<path opacity="0.25" d="M46.2172 81.6929C49.1365 81.1889 56.7277 74.2305 56.7277 74.2305C56.7277 74.2305 47.3919 70.1787 44.4727 70.6799C43.0707 70.9209 41.8181 71.7322 40.9903 72.9352C40.1625 74.1383 39.8275 75.6346 40.0588 77.0951C40.2902 78.5555 41.069 79.8604 42.2239 80.7226C43.3788 81.5849 44.8153 81.9339 46.2172 81.6929Z" fill="black"/>
<path opacity="0.25" d="M27.774 39.0017C27.774 42.0819 22.4246 51.0228 22.4246 51.0228C22.4246 51.0228 17.0646 42.0875 17.0619 39.0073C17.0459 38.2641 17.1726 37.525 17.4346 36.8336C17.6966 36.1421 18.0886 35.5121 18.5875 34.9806C19.0864 34.4491 19.6823 34.0267 20.3401 33.7384C20.9978 33.4501 21.7043 33.3016 22.4179 33.3016C23.1316 33.3016 23.838 33.4501 24.4958 33.7384C25.1536 34.0267 25.7494 34.4491 26.2484 34.9806C26.7473 35.5121 27.1393 36.1421 27.4012 36.8336C27.6632 37.525 27.7899 38.2641 27.774 39.0073V39.0017Z" fill="black"/>
<path opacity="0.25" d="M49.4624 52.7981C48.578 55.7382 40.9035 62.5986 40.9035 62.5986C40.9035 62.5986 38.3552 52.392 39.2288 49.4379C39.6983 48.0853 40.6511 46.9738 41.8883 46.3352C43.1255 45.6966 44.5516 45.5802 45.8691 46.0104C47.1867 46.4405 48.2939 47.384 48.9599 48.644C49.6259 49.9039 49.7991 51.3831 49.4436 52.7729L49.4624 52.7981Z" fill="black"/>
<path opacity="0.25" d="M68.7729 69.193C68.3804 72.248 61.929 80.36 61.929 80.36C61.929 80.36 57.7625 70.7611 58.1657 67.7061C58.3744 66.2571 59.1219 64.9517 60.2467 64.0718C61.3715 63.1919 62.7834 62.8082 64.1775 63.0034C65.5716 63.1986 66.8361 63.9571 67.6979 65.1152C68.5597 66.2733 68.9497 67.738 68.7837 69.193H68.7729Z" fill="black"/>
<path d="M68.5933 90.5162C68.5933 90.5162 66.174 64.4243 51.6905 50.5467C45.6181 44.7224 41.3978 37.106 39.8898 28.6383C39.1819 24.6248 38.8292 20.5522 38.836 16.4716" stroke="#535461" stroke-width="2" stroke-miterlimit="10"/>
<path d="M29.7638 7.67068C30.8713 10.5296 39.0458 16.732 39.0458 16.732C39.0458 16.732 40.8065 6.35741 39.7017 3.49845C39.1706 2.12455 38.1373 1.0267 36.8291 0.446433C35.5209 -0.133838 34.045 -0.149005 32.7261 0.404269C31.4072 0.957542 30.3533 2.03393 29.7962 3.39665C29.2392 4.75937 29.2246 6.29678 29.7558 7.67068H29.7638Z" fill="#E52F34"/>
<path d="M27.6698 26.9498C30.0891 28.7223 40.1883 29.3019 40.1883 29.3019C40.1883 29.3019 36.2718 19.5966 33.8525 17.8241C32.6908 16.97 31.2509 16.6317 29.8497 16.8835C28.4485 17.1353 27.2008 17.9566 26.3809 19.1667C25.561 20.3769 25.2362 21.8767 25.478 23.3363C25.7197 24.7959 26.5081 26.0957 27.6698 26.9498Z" fill="#E52F34"/>
<path d="M38.5053 53.8537C41.4622 54.1141 50.4512 49.3007 50.4512 49.3007C50.4512 49.3007 42.3519 42.9919 39.4031 42.7343C38.6936 42.6556 37.9761 42.7253 37.2928 42.9394C36.6095 43.1535 35.9742 43.5076 35.424 43.981C34.8739 44.4543 34.4201 45.0374 34.0893 45.6959C33.7584 46.3545 33.5572 47.0752 33.4974 47.8159C33.4376 48.5566 33.5204 49.3022 33.741 50.0091C33.9616 50.7159 34.3155 51.3697 34.782 51.9322C35.2485 52.4946 35.8182 52.9543 36.4575 53.2843C37.0969 53.6142 37.7931 53.8078 38.5053 53.8537Z" fill="#E52F34"/>
<path d="M51.097 72.29C53.9625 73.0628 63.6101 69.9042 63.6101 69.9042C63.6101 69.9042 56.6506 62.2598 53.7878 61.487C52.4212 61.1421 50.9793 61.3707 49.7731 62.1234C48.5669 62.8762 47.6931 64.0927 47.3403 65.5105C46.9875 66.9284 47.184 68.4339 47.8873 69.7022C48.5906 70.9705 49.7444 71.8999 51.0997 72.29H51.097Z" fill="#E52F34"/>
<path d="M50.8411 25.4769C49.6449 28.2939 41.2741 34.205 41.2741 34.205C41.2741 34.205 39.8494 23.7772 41.0456 20.9575C41.3227 20.2752 41.7273 19.6573 42.236 19.1397C42.7446 18.622 43.3471 18.2151 44.0083 17.9425C44.6695 17.6699 45.3762 17.5372 46.0872 17.5521C46.7981 17.5669 47.4991 17.7291 48.1493 18.029C48.7995 18.329 49.3858 18.7608 49.8742 19.2993C50.3625 19.8378 50.743 20.4721 50.9935 21.1654C51.2441 21.8586 51.3596 22.5969 51.3335 23.3371C51.3073 24.0773 51.1399 24.8048 50.8411 25.4769Z" fill="#E52F34"/>
<path d="M65.3028 47.2285C63.3512 49.5443 53.666 52.5768 53.666 52.5768C53.666 52.5768 55.3004 42.1827 57.2546 39.8669C57.7186 39.3164 58.2822 38.8666 58.9131 38.543C59.5441 38.2194 60.23 38.0284 60.9318 37.9809C61.6336 37.9335 62.3375 38.0305 63.0033 38.2664C63.6691 38.5023 64.2838 38.8725 64.8122 39.3559C65.3407 39.8393 65.7725 40.4263 66.0832 41.0836C66.3938 41.7408 66.5772 42.4553 66.6227 43.1864C66.6683 43.9174 66.5752 44.6507 66.3487 45.3442C66.1222 46.0378 65.7668 46.6781 65.3028 47.2285Z" fill="#E52F34"/>
<path d="M76.5927 70.3831C75.0443 73.0096 65.9908 77.7027 65.9908 77.7027C65.9908 77.7027 65.9156 67.1685 67.4639 64.5419C68.2075 63.2794 69.4021 62.3763 70.7849 62.0313C72.1677 61.6863 73.6254 61.9276 74.8374 62.7022C76.0493 63.4768 76.9163 64.7212 77.2475 66.1616C77.5787 67.6021 77.347 69.1206 76.6034 70.3831H76.5927Z" fill="#E52F34"/>
<path opacity="0.1" d="M109.673 238.494C126.23 238.494 139.653 236.673 139.653 234.428C139.653 232.182 126.23 230.362 109.673 230.362C93.115 230.362 79.6924 232.182 79.6924 234.428C79.6924 236.673 93.115 238.494 109.673 238.494Z" fill="#E52F34"/>
<path opacity="0.1" d="M49.1146 235.738C54.1444 235.738 58.2219 235.011 58.2219 234.114C58.2219 233.217 54.1444 232.49 49.1146 232.49C44.0848 232.49 40.0073 233.217 40.0073 234.114C40.0073 235.011 44.0848 235.738 49.1146 235.738Z" fill="#E52F34"/>
<path d="M51.0934 216.031C51.0934 216.031 52.5692 218.044 50.4106 221.071C48.2521 224.098 46.4726 226.671 47.1849 228.567C47.1849 228.567 50.4402 222.925 53.0987 222.846C55.7573 222.768 54.0127 219.424 51.0934 216.031Z" fill="#E52F34"/>
<path opacity="0.1" d="M51.0936 216.031C51.2225 216.225 51.3239 216.439 51.3947 216.663C53.9806 219.828 55.3596 222.782 52.8731 222.855C50.5587 222.925 47.7792 227.237 47.1152 228.326C47.1372 228.41 47.1632 228.494 47.1932 228.575C47.1932 228.575 50.4485 222.933 53.107 222.855C55.7655 222.776 54.0129 219.424 51.0936 216.031Z" fill="black"/>
<path d="M53.8375 218.596C53.8375 219.304 53.7622 219.878 53.6681 219.878C53.574 219.878 53.4961 219.318 53.4961 218.596C53.4961 217.873 53.5929 218.22 53.6869 218.22C53.781 218.22 53.8375 217.887 53.8375 218.596Z" fill="#FFD037"/>
<path d="M54.7814 219.441C54.1846 219.78 53.6632 219.984 53.6175 219.898C53.5718 219.811 54.0207 219.466 54.6174 219.128C55.2142 218.789 54.9776 219.035 55.0233 219.128C55.069 219.22 55.3782 219.102 54.7814 219.441Z" fill="#FFD037"/>
<path d="M43.2925 216.031C43.2925 216.031 41.8168 218.044 43.9753 221.071C46.1339 224.098 47.9134 226.671 47.201 228.567C47.201 228.567 43.9457 222.925 41.2872 222.846C38.6287 222.768 40.3786 219.424 43.2925 216.031Z" fill="#E52F34"/>
<path opacity="0.1" d="M43.292 216.031C43.1631 216.225 43.0617 216.439 42.991 216.663C40.405 219.828 39.026 222.782 41.5125 222.855C43.8297 222.925 46.6065 227.237 47.2704 228.326C47.2497 228.411 47.2237 228.494 47.1925 228.575C47.1925 228.575 43.9372 222.933 41.2786 222.855C38.6201 222.776 40.3781 219.424 43.292 216.031Z" fill="black"/>
<path d="M40.5479 218.596C40.5479 219.304 40.6231 219.878 40.7172 219.878C40.8113 219.878 40.8892 219.318 40.8892 218.596C40.8892 217.873 40.7925 218.22 40.6984 218.22C40.6043 218.22 40.5479 217.887 40.5479 218.596Z" fill="#FFD037"/>
<path d="M39.6069 219.441C40.2037 219.78 40.7225 219.984 40.7682 219.898C40.8139 219.811 40.365 219.466 39.7682 219.128C39.1715 218.789 39.408 219.035 39.3623 219.128C39.3166 219.22 39.0102 219.102 39.6069 219.441Z" fill="#FFD037"/>
<path d="M41.0186 228.312C41.0186 228.312 45.1475 228.178 46.3947 227.256C47.642 226.335 52.744 225.229 53.0532 226.71C53.3623 228.192 59.2573 234.072 54.5961 234.111C49.935 234.15 43.7658 233.355 42.5239 232.568C41.282 231.782 41.0186 228.312 41.0186 228.312Z" fill="#A8A8A8"/>
<path opacity="0.2" d="M54.6768 233.596C50.0156 233.635 43.8464 232.84 42.6045 232.053C41.6583 231.451 41.282 229.298 41.1556 228.307H41.0186C41.0186 228.307 41.2874 231.773 42.5212 232.563C43.755 233.352 49.9323 234.145 54.5934 234.106C55.9375 234.106 56.4052 233.596 56.3783 232.857C56.1929 233.31 55.6794 233.588 54.6768 233.596Z" fill="black"/>
<path d="M178.902 228.147C178.902 228.147 167.536 227.433 168.878 235.73C168.878 235.73 168.609 237.194 169.886 237.861C169.886 237.861 169.907 237.247 171.052 237.455C171.46 237.526 171.874 237.547 172.286 237.516C172.844 237.478 173.375 237.25 173.797 236.867C173.797 236.867 176.99 235.495 178.232 230.054C178.232 230.054 179.152 228.867 179.117 228.561L177.197 229.401C177.197 229.401 177.853 230.843 177.337 232.042C177.337 232.042 177.275 229.455 176.907 229.522C176.832 229.522 175.91 230.02 175.91 230.02C175.91 230.02 177.039 232.54 176.178 234.355C176.178 234.355 176.501 231.275 175.549 230.202L174.205 231.023C174.205 231.023 175.523 233.616 174.63 235.733C174.63 235.733 174.859 232.487 173.923 231.221L172.7 232.216C172.7 232.216 173.937 234.772 173.181 236.528C173.181 236.528 173.084 232.75 172.434 232.465C172.434 232.465 171.359 233.448 171.2 233.865C171.2 233.865 172.047 235.719 171.523 236.699C171.523 236.699 171.2 234.178 170.934 234.178C170.934 234.178 169.859 235.859 169.757 236.979C169.757 236.979 169.805 235.279 170.676 234.008C170.061 234.13 169.494 234.436 169.044 234.89C169.044 234.89 169.211 233.711 170.926 233.607C170.926 233.607 171.808 232.342 172.044 232.266C172.044 232.266 170.324 232.115 169.281 232.596C169.281 232.596 170.197 231.476 172.359 231.989L173.566 230.964C173.566 230.964 171.302 230.639 170.34 230.997C170.34 230.997 171.447 230.012 173.891 230.717L175.208 229.9C175.208 229.9 173.275 229.466 172.125 229.62C172.125 229.62 173.34 228.937 175.592 229.676L176.533 229.236C176.533 229.236 175.117 228.956 174.703 228.903C174.289 228.85 174.267 228.738 174.267 228.738C175.164 228.582 176.084 228.689 176.926 229.046C176.926 229.046 178.936 228.279 178.902 228.147Z" fill="#E52F34"/>
<path opacity="0.1" d="M171.074 240C175.515 240 179.116 239.366 179.116 238.583C179.116 237.801 175.515 237.166 171.074 237.166C166.632 237.166 163.031 237.801 163.031 238.583C163.031 239.366 166.632 240 171.074 240Z" fill="#E52F34"/>
<path d="M158.991 228.589C158.991 228.589 152.582 228.186 153.346 232.865C153.307 233.102 153.342 233.346 153.444 233.562C153.546 233.778 153.711 233.954 153.916 234.066C153.916 234.066 153.916 233.719 154.574 233.837C154.803 233.876 155.036 233.888 155.268 233.873C155.582 233.849 155.881 233.721 156.12 233.506C156.12 233.506 157.921 232.731 158.623 229.665C158.623 229.665 159.139 228.995 159.12 228.825L158.045 229.303C158.045 229.303 158.413 230.118 158.123 230.793C158.123 230.793 158.088 229.334 157.881 229.368C157.838 229.368 157.319 229.648 157.319 229.648C157.319 229.648 157.953 231.048 157.475 232.092C157.475 232.092 157.655 230.348 157.12 229.749L156.359 230.213C156.359 230.213 157.101 231.675 156.598 232.868C156.598 232.868 156.728 231.037 156.198 230.325L155.51 230.885C155.51 230.885 156.206 232.328 155.779 233.316C155.779 233.316 155.722 231.185 155.357 231.025C155.095 231.255 154.861 231.518 154.66 231.807C154.66 231.807 155.139 232.854 154.843 233.406C154.843 233.406 154.66 231.986 154.513 231.98C154.513 231.98 153.91 232.921 153.849 233.565C153.876 232.968 154.054 232.388 154.365 231.885C154.018 231.953 153.699 232.126 153.445 232.381C153.445 232.381 153.539 231.714 154.521 231.658C154.521 231.658 155.015 230.944 155.15 230.902C155.15 230.902 154.179 230.815 153.59 231.087C153.59 231.087 154.109 230.46 155.327 230.745L156.007 230.166C156.007 230.166 154.73 229.984 154.19 230.185C154.19 230.185 154.814 229.625 156.193 230.034L156.932 229.575C156.362 229.443 155.778 229.391 155.195 229.418C155.195 229.418 155.881 229.035 157.15 229.449L157.687 229.203C157.687 229.203 156.881 229.037 156.658 229.012C156.434 228.987 156.41 228.92 156.41 228.92C156.916 228.832 157.435 228.892 157.91 229.093C157.91 229.093 159.01 228.665 158.991 228.589Z" fill="#E52F34"/>
<path opacity="0.1" d="M154.577 235.273C157.081 235.273 159.112 234.916 159.112 234.475C159.112 234.035 157.081 233.677 154.577 233.677C152.072 233.677 150.042 234.035 150.042 234.475C150.042 234.916 152.072 235.273 154.577 235.273Z" fill="#E52F34"/>
<path d="M171.187 218.674C171.187 218.674 163.453 218.187 164.364 223.835C164.317 224.121 164.359 224.416 164.482 224.676C164.606 224.937 164.805 225.15 165.052 225.285C165.052 225.285 165.052 224.868 165.845 225.005C166.123 225.051 166.404 225.065 166.684 225.047C167.064 225.019 167.425 224.864 167.714 224.605C167.714 224.605 169.888 223.669 170.732 219.965C170.732 219.965 171.359 219.158 171.334 218.951L170.028 219.531C170.028 219.531 170.474 220.514 170.125 221.329C170.125 221.329 170.082 219.567 169.829 219.609C169.781 219.609 169.152 219.948 169.152 219.948C169.152 219.948 169.92 221.659 169.34 222.899C169.34 222.899 169.56 220.794 168.912 220.071L167.993 220.631C167.993 220.631 168.891 222.395 168.283 223.837C168.283 223.837 168.439 221.628 167.8 220.757L166.966 221.432C166.966 221.432 167.81 223.171 167.297 224.367C167.297 224.367 167.23 221.796 166.786 221.6C166.786 221.6 166.058 222.269 165.947 222.544C165.947 222.544 166.525 223.807 166.165 224.473C166.165 224.473 165.947 222.762 165.767 222.754C165.767 222.754 165.042 223.874 164.961 224.666C164.996 223.947 165.211 223.25 165.585 222.645C165.166 222.727 164.781 222.936 164.474 223.244C164.474 223.244 164.587 222.44 165.765 222.37C165.765 222.37 166.364 221.511 166.525 221.457C166.525 221.457 165.353 221.357 164.644 221.684C164.644 221.684 165.267 220.925 166.74 221.27L167.563 220.572C167.563 220.572 166.02 220.351 165.367 220.595C165.367 220.595 166.12 219.926 167.786 220.413L168.681 219.853C168.681 219.853 167.367 219.573 166.585 219.665C166.585 219.665 167.41 219.2 168.945 219.702L169.584 219.405C169.584 219.405 168.619 219.206 168.337 219.175C168.055 219.144 168.042 219.063 168.042 219.063C168.652 218.957 169.278 219.03 169.851 219.273C169.851 219.273 171.213 218.764 171.187 218.674Z" fill="#E52F34"/>
<path opacity="0.1" d="M165.862 226.741C168.886 226.741 171.338 226.31 171.338 225.778C171.338 225.246 168.886 224.815 165.862 224.815C162.838 224.815 160.386 225.246 160.386 225.778C160.386 226.31 162.838 226.741 165.862 226.741Z" fill="#E52F34"/>
<path d="M292.514 163.905V26.9403H36.7817V156.047C40.0478 158.887 43.9751 161.275 48.0717 163.238C50.0896 164.207 52.1505 165.093 54.2544 165.895H289.463L292.514 163.905Z" fill="url(#paint0_linear)"/>
<path d="M292.019 163.96V30.8605H37.3408V156.336C40.5934 159.097 44.5046 161.418 48.5771 163.336C50.5878 164.269 52.6415 165.13 54.7382 165.918H288.974L292.019 163.96Z" fill="white"/>
<path d="M292.019 27.3295H37.3438V34.3691H292.019V27.3295Z" fill="#4E4EA2"/>
<path d="M42.3625 32.4857C43.3275 32.4857 44.1098 31.6708 44.1098 30.6656C44.1098 29.6604 43.3275 28.8455 42.3625 28.8455C41.3975 28.8455 40.6152 29.6604 40.6152 30.6656C40.6152 31.6708 41.3975 32.4857 42.3625 32.4857Z" fill="white"/>
<path d="M47.0671 32.4857C48.0321 32.4857 48.8144 31.6708 48.8144 30.6656C48.8144 29.6604 48.0321 28.8455 47.0671 28.8455C46.1021 28.8455 45.3198 29.6604 45.3198 30.6656C45.3198 31.6708 46.1021 32.4857 47.0671 32.4857Z" fill="white"/>
<path d="M51.7712 32.4857C52.7362 32.4857 53.5185 31.6708 53.5185 30.6656C53.5185 29.6604 52.7362 28.8455 51.7712 28.8455C50.8062 28.8455 50.0239 29.6604 50.0239 30.6656C50.0239 31.6708 50.8062 32.4857 51.7712 32.4857Z" fill="white"/>
<path d="M144.428 49.6563H102.359V77.1931H144.428V49.6563Z" fill="#7070AC"/>
<path opacity="0.2" d="M86.1796 49.6563H44.1108V77.1931H86.1796V49.6563Z" fill="#5A5773"/>
<path opacity="0.2" d="M202.676 49.6563H160.607V77.1931H202.676V49.6563Z" fill="#5A5773"/>
<path opacity="0.2" d="M86.1791 89.0237H44.1104V116.561H86.1791V89.0237Z" fill="#5A5773"/>
<path opacity="0.2" d="M144.428 89.0237H102.359V116.561H144.428V89.0237Z" fill="#5A5773"/>
<path opacity="0.2" d="M202.676 89.0237H160.607V116.561H202.676V89.0237Z" fill="#5A5773"/>
<path opacity="0.2" d="M86.1791 128.388H44.1104V155.925H86.1791V128.388Z" fill="#5A5773"/>
<path opacity="0.2" d="M144.428 128.388H102.359V155.925H144.428V128.388Z" fill="#5A5773"/>
<path opacity="0.2" d="M202.676 128.388H160.607V155.925H202.676V128.388Z" fill="#5A5773"/>
<path d="M134.118 73.7769L131.215 74.8465L130.161 73.0264C129.355 71.6264 128.237 69.711 127.411 68.3194C125.954 65.872 127.86 62.1422 127.86 62.1422C127.86 62.1422 128.204 58.3984 129.43 57.2447C130.656 56.0911 130.997 62.1422 130.997 62.1422C135.919 64.4719 133.282 69.9519 133.282 69.9519L133.761 72.1248L134.118 73.7769Z" fill="#EFB7B9"/>
<path opacity="0.1" d="M134.118 73.7769L131.215 74.8466L130.162 73.0264V72.8668C130.162 72.8668 131.826 71.6768 133.766 72.1248L134.118 73.7769Z" fill="black"/>
<path d="M129.431 86.0416L130.885 84.7591L130.156 73.2169C130.156 73.2169 133.92 70.5343 136.705 74.7317C136.705 74.7317 136.592 77.2967 136.705 77.9967C136.818 78.6968 135.922 79.3968 136.705 80.0941C137.487 80.7913 136.705 83.1266 136.705 83.1266C136.705 83.1266 137.589 84.7591 138.148 85.2239C138.707 85.6888 139.269 89.539 138.148 90.3538C137.027 91.1687 134.925 93.0364 134.925 93.8512C134.925 94.6661 132.237 96.6514 132.237 96.6514L129.877 93.4004L129.431 86.0416Z" fill="#FF6484"/>
<path d="M97.98 156.107C92.5554 153.71 93.7597 147.855 94.7812 144.907C94.9853 144.309 95.225 143.726 95.4989 143.159L98.5418 141.236C98.5418 141.236 99.1628 142.885 99.8267 145.097C101.367 150.244 103.138 158.389 97.98 156.107Z" fill="#EFB7B9"/>
<path d="M105.437 209.531C105.07 210.277 104.799 211.07 104.63 211.889C104.362 213.208 104.245 214.555 104.281 215.902C104.303 216.834 104.378 217.445 104.378 217.445L98.335 221.774C98.335 221.774 98.3699 221.267 98.429 220.522C98.585 218.54 98.9102 214.86 99.2167 214.384C99.429 214.054 99.5769 212.726 99.6709 211.494C99.765 210.262 99.8027 209.181 99.8027 209.181C99.8027 209.181 107.074 206.342 105.437 209.531Z" fill="#EFB7B9"/>
<path d="M119.707 212.637C119.707 212.637 119.707 213.841 119.664 215.241C119.621 216.641 119.541 218.293 119.371 219.063C119.215 219.769 119.205 221.065 119.234 222.261C119.275 223.661 119.371 224.921 119.371 224.921C119.371 224.921 113.202 218.845 113.831 218.363C114.001 218.234 114.167 217.716 114.32 217.027C114.509 216.187 114.678 215.067 114.804 214.115C114.955 212.981 115.049 212.068 115.049 212.068L119.707 212.637Z" fill="#EFB7B9"/>
<path opacity="0.1" d="M105.437 209.531C105.069 210.277 104.798 211.07 104.63 211.889C102.976 211.844 101.325 211.712 99.6841 211.494C99.7755 210.29 99.8158 209.181 99.8158 209.181C99.8158 209.181 107.074 206.342 105.437 209.531Z" fill="black"/>
<path opacity="0.1" d="M119.708 212.637C119.708 212.637 119.708 213.841 119.665 215.241C117.74 215.753 115.762 214.729 114.805 214.121C114.955 212.987 115.049 212.074 115.049 212.074L119.708 212.637Z" fill="black"/>
<path d="M132.339 153.077C129.876 158.678 128.868 165.32 128.868 165.32L127.973 170.92C127.973 170.92 128.422 173.367 127.973 174.3C127.524 175.232 126.629 176.75 126.629 176.75C126.629 176.75 127.301 182.462 126.629 183.045C125.957 183.627 126.629 187.125 126.629 187.125L124.39 198.885L121.256 214.04C118.234 216.607 114.213 213.342 114.213 213.342L115.1 203.433C115.1 203.433 116.444 186.072 115.885 185.36C115.326 184.649 116.108 182.445 116.108 182.445C116.108 182.445 116.893 180.345 116.334 179.531C115.775 178.716 116.444 176.966 116.444 176.966C116.444 176.966 116.221 169.853 116.893 168.221C117.565 166.588 116.893 156.491 116.893 156.491L116.624 153.346L116.468 151.605L116.455 151.434C116.455 151.434 116.352 152.131 116.186 153.212C115.691 156.502 114.637 163.32 114.221 164.723C113.938 165.734 113.553 166.711 113.073 167.638C113.073 167.638 113.654 171.136 113.073 172.068C112.492 173.001 112.984 174.051 112.984 174.051C112.984 174.051 113.543 176.966 111.863 178.13C110.183 179.295 111.863 179.881 111.863 179.881C111.863 179.881 110.632 182.681 110.186 183.843C109.74 185.005 110.186 186.643 110.186 186.643L109.291 196.085C109.291 196.085 108.506 200.047 108.619 202.73C108.732 205.412 107.611 211.59 107.611 211.59C107.611 211.59 98.9928 211.59 97.6648 210.54C96.3369 209.489 99.8825 199.246 99.8825 199.246C99.8825 199.246 100.891 181.292 100.665 180.827C100.439 180.362 100.665 176.862 101.45 176.165C102.235 175.467 101.45 174.065 101.45 174.065C101.45 174.065 101.227 171.264 101.45 170.567C101.673 169.87 101.415 167.535 101.415 167.535C101.415 167.535 100.665 161.822 100.555 158.557C100.444 155.292 99.8825 147.95 99.8825 147.95C99.8825 147.95 100.469 143.408 100.557 141.247C100.589 140.451 100.931 139.457 101.364 138.522C101.848 137.466 102.405 136.448 103.03 135.476C103.03 135.476 129.548 127.31 130.661 128.122C130.957 128.338 131.387 129.802 131.812 131.922C132.994 137.845 134.15 148.961 132.339 153.077Z" fill="#444053"/>
<path d="M116.001 81.8217C120.266 81.8217 123.724 78.2199 123.724 73.7769C123.724 69.3338 120.266 65.732 116.001 65.732C111.736 65.732 108.278 69.3338 108.278 73.7769C108.278 78.2199 111.736 81.8217 116.001 81.8217Z" fill="#A1616A"/>
<path opacity="0.1" d="M131.812 131.928C130.922 132.404 130.326 132.731 130.326 132.731C130.326 132.731 117.791 138.911 114.227 138.561C111.469 138.281 104.428 138.441 101.361 138.519C101.846 137.463 102.403 136.445 103.028 135.473C103.028 135.473 129.549 127.31 130.662 128.122C130.957 128.344 131.387 129.802 131.812 131.928Z" fill="black"/>
<path d="M110.627 86.624C110.627 86.624 103.474 87.8001 101.786 88.9537C100.098 90.1074 96.7539 92.3363 96.7539 97.1162C96.7539 101.896 95.9717 106.794 95.5228 108.191C95.0739 109.588 102.574 120.898 102.574 120.898L99.8856 138.038C99.8856 138.038 110.638 137.688 114.219 138.038C117.799 138.388 130.328 132.208 130.328 132.208C130.328 132.208 137.715 128.128 139.282 128.008C140.849 127.887 136.148 119.03 136.148 119.03C136.148 119.03 128.871 104.693 130.102 102.361C131.334 100.028 132.237 96.6486 132.237 96.6486L130.893 84.7591C130.893 84.7591 128.879 84.0591 127.199 85.3415C125.519 86.624 119.812 85.924 119.812 85.924L110.627 86.624Z" fill="#E53035"/>
<path opacity="0.1" d="M98.4853 107.376L95.6789 108.191L94.902 119.162C94.902 119.162 95.9101 122.077 94.902 123.009C93.894 123.942 93.6709 143.879 93.6709 143.879C93.6709 143.879 96.9181 146.326 100.722 144.461C100.722 144.461 100.163 142.246 101.843 134.202C103.523 126.157 103.52 122.077 103.52 122.077C103.52 122.077 103.52 112.049 104.305 110.417C105.09 108.784 104.305 104.705 104.305 104.705C104.305 104.705 102.738 102.49 102.848 101.675C102.958 100.86 98.4853 107.376 98.4853 107.376Z" fill="black"/>
<path opacity="0.1" d="M99.8263 145.105C98.1782 145.683 96.3844 145.616 94.7808 144.915C94.9849 144.318 95.2246 143.734 95.4985 143.168L98.5414 141.244C98.5414 141.244 99.1731 142.893 99.8263 145.105Z" fill="black"/>
<path d="M98.3156 107.376L95.5173 108.191L94.7351 119.162C94.7351 119.162 95.7431 122.077 94.7351 123.009C93.727 123.942 93.5039 143.879 93.5039 143.879C93.5039 143.879 96.7538 146.323 100.555 144.45C100.555 144.45 99.9957 142.235 101.673 134.19C103.35 126.145 103.353 122.066 103.353 122.066C103.353 122.066 103.353 112.038 104.135 110.406C104.918 108.773 104.135 104.693 104.135 104.693C104.135 104.693 102.568 102.479 102.681 101.664C102.794 100.849 98.3156 107.376 98.3156 107.376Z" fill="#E53035"/>
<path opacity="0.1" d="M126.968 109.123C126.968 109.123 125.514 122.18 121.259 124.631C121.259 124.631 130.772 121.833 126.968 109.123Z" fill="black"/>
<path opacity="0.1" d="M105.593 110.291C105.593 110.291 110.851 112.971 109.625 114.836C108.399 116.701 105.593 110.291 105.593 110.291Z" fill="black"/>
<path opacity="0.1" d="M105.593 115.653C105.593 115.653 108.95 119.268 108.281 120.551C107.612 121.833 105.593 115.653 105.593 115.653Z" fill="black"/>
<path opacity="0.1" d="M132.675 85.6916C132.675 85.6916 133.992 88.0213 134.119 89.539C134.245 91.0567 132.675 85.6916 132.675 85.6916Z" fill="black"/>
<path opacity="0.1" d="M132.675 82.5442C132.675 82.5442 133.337 81.9589 135.025 82.5442C136.713 83.1294 132.675 82.5442 132.675 82.5442Z" fill="black"/>
<path opacity="0.1" d="M126.212 150.686C123.439 151.096 120.612 150.719 118.027 149.594L116.616 153.357L116.46 151.616C116.691 150.154 117.14 148.589 118.027 148.194C118.027 148.194 121.135 150.773 126.212 150.686Z" fill="black"/>
<path opacity="0.1" d="M103.254 155.584C103.254 155.584 110.138 157.07 112.068 156.807L103.254 155.584Z" fill="black"/>
<path opacity="0.1" d="M103.969 157.462C103.969 157.462 106.907 157.331 108.375 157.944L103.969 157.462Z" fill="black"/>
<path opacity="0.1" d="M104.305 158.731C105.646 159.028 107.006 159.215 108.375 159.291L104.305 158.731Z" fill="black"/>
<path opacity="0.1" d="M104.136 174.776C104.262 174.689 110.012 173.289 110.727 174.294L104.136 174.776Z" fill="black"/>
<path opacity="0.1" d="M104.136 176.613C104.136 176.613 109.13 176 109.257 176.613C109.383 177.226 104.136 176.613 104.136 176.613Z" fill="black"/>
<path opacity="0.1" d="M104.136 178.273C104.136 178.273 109.466 177.125 110.095 177.405C110.724 177.685 104.136 178.273 104.136 178.273Z" fill="black"/>
<path opacity="0.1" d="M104.388 217.447L98.3452 221.777C98.3452 221.777 98.3802 221.27 98.4393 220.525C99.7833 217.081 101.533 215.263 101.533 215.263C102.896 214.894 103.756 215.235 104.291 215.905C104.313 216.834 104.388 217.447 104.388 217.447Z" fill="black"/>
<path d="M104.977 221.337C104.123 223.366 103.693 225.562 103.716 227.777C103.75 229.594 103.307 231.386 102.436 232.96C102.31 233.182 102.168 233.394 102.012 233.593C102.012 233.593 97.8128 233.557 96.3424 232.288C96.1772 232.152 96.0423 231.98 95.9472 231.784C95.1059 230.037 97.5843 223.347 97.5843 223.347C98.8853 218.19 101.528 215.434 101.528 215.434C106.235 214.166 104.977 221.337 104.977 221.337Z" fill="#444053"/>
<path opacity="0.1" d="M102.437 232.946C102.311 233.168 102.169 233.38 102.012 233.579C102.012 233.579 97.8132 233.543 96.3428 232.274C97.0659 229.782 99.3723 222.241 100.453 223.524C101.469 224.728 102.176 230.521 102.437 232.946Z" fill="black"/>
<path d="M101.862 223.991L101.569 235.287H102.977C102.977 235.287 103.206 225.378 103.835 223.991C104.464 222.605 101.862 223.991 101.862 223.991Z" fill="#444053"/>
<path opacity="0.1" d="M119.371 224.921C119.371 224.921 113.202 218.845 113.831 218.363C114.001 218.234 114.167 217.716 114.32 217.027C115.506 216.812 117.546 217.327 119.234 222.261C119.275 223.661 119.371 224.921 119.371 224.921Z" fill="black"/>
<path d="M120.294 231.697C120.247 231.719 120.197 231.734 120.146 231.742C119.42 231.874 116.746 231.798 115.248 231.742C114.974 231.733 114.714 231.613 114.523 231.408C114.332 231.202 114.225 230.928 114.224 230.642C114.224 230.222 114.224 229.709 114.192 229.163C114.122 227.438 113.923 225.386 113.329 224.924C112.278 224.084 111.447 221.233 113.329 217.624C113.329 217.624 116.936 214.754 119.539 223.381C119.539 223.381 119.791 225.842 120.923 226.716C122.055 227.59 120.799 231.448 120.294 231.697Z" fill="#444053"/>
<path opacity="0.1" d="M120.14 231.742C119.414 231.874 116.74 231.798 115.242 231.742C114.968 231.733 114.708 231.613 114.517 231.408C114.326 231.202 114.219 230.928 114.218 230.642C114.218 230.222 114.218 229.709 114.186 229.163C114.64 227.074 115.294 224.924 116.135 224.434C116.14 224.431 118.686 224.131 120.14 231.742Z" fill="black"/>
<path d="M113.786 224.179L114.464 233.579H115.324V223.378L113.786 224.179Z" fill="#444053"/>
<path opacity="0.1" d="M115.888 60.9577C113.449 61.1468 111.089 61.9367 109.001 63.2623C108.463 63.6011 107.925 64.0127 107.702 64.6203C107.509 65.1468 107.589 65.7404 107.597 66.3004C107.67 71.1223 102.509 74.7709 102.67 79.59C102.735 81.5025 103.657 83.2834 103.826 85.1903C104.108 88.3713 102.302 91.2975 100.571 93.9324C102.354 94.0455 104.111 93.4388 105.477 92.2383C107.303 98.5808 107.539 105.305 106.162 111.769H108.638C108.882 111.751 109.128 111.782 109.361 111.862C109.578 111.969 109.773 112.121 109.933 112.307C112.248 114.707 113.799 118.255 112.915 121.531L118.183 119.473C119.444 118.98 120.723 118.479 121.82 117.667C122.917 116.855 123.836 115.676 124.067 114.292C124.21 113.452 124.164 112.45 124.828 111.963C125.155 111.781 125.504 111.647 125.866 111.562C127.312 111.03 127.952 109.289 128.247 107.72C128.607 105.797 128.72 103.831 128.583 101.876C128.35 98.6003 127.42 95.2737 128.186 92.0759C128.618 90.281 129.581 88.6093 129.659 86.7556C129.785 83.7006 127.492 81.0685 127.151 78.0303C126.911 75.9134 127.645 73.7713 127.406 71.6543C127.273 70.5617 126.889 69.5186 126.287 68.6134C125.685 67.7081 124.882 66.9676 123.946 66.4544C123.299 66.1072 122.602 65.8748 121.963 65.4912C120.503 64.6091 119.57 63.0215 118.245 61.9294C116.92 60.8373 114.713 60.4257 113.716 61.8454L115.888 60.9577Z" fill="black"/>
<path d="M115.888 60.6077C113.449 60.7968 111.089 61.5867 109.001 62.9123C108.463 63.2511 107.925 63.6627 107.702 64.2703C107.509 64.7968 107.589 65.3904 107.597 65.9504C107.67 70.7723 102.509 74.4209 102.67 79.2428C102.735 81.1525 103.657 82.9334 103.826 84.8431C104.108 88.0241 102.302 90.9503 100.571 93.588C102.354 93.697 104.109 93.0908 105.477 91.8939C107.303 98.2345 107.539 104.957 106.162 111.419H108.638C108.882 111.402 109.128 111.434 109.361 111.515C109.579 111.62 109.773 111.771 109.933 111.957C112.248 114.36 113.799 117.905 112.915 121.181L118.183 119.123C119.444 118.63 120.723 118.129 121.82 117.317C122.917 116.505 123.836 115.326 124.067 113.942C124.21 113.102 124.164 112.1 124.828 111.613C125.155 111.431 125.504 111.297 125.866 111.212C127.312 110.68 127.952 108.938 128.247 107.37C128.611 105.445 128.726 103.478 128.592 101.521C128.358 98.2447 127.428 94.9181 128.194 91.7203C128.626 89.9254 129.589 88.2537 129.667 86.4C129.793 83.345 127.5 80.7129 127.159 77.6747C126.92 75.5578 127.653 73.4185 127.414 71.2987C127.281 70.2063 126.897 69.1633 126.295 68.2582C125.692 67.353 124.89 66.6124 123.955 66.0988C123.307 65.7516 122.611 65.5192 121.971 65.1384C120.511 64.2535 119.578 62.6658 118.253 61.5738C116.928 60.4817 114.721 60.0701 113.724 61.4898L115.888 60.6077Z" fill="#3D3A4B"/>
<g opacity="0.1">
<path opacity="0.1" d="M107.593 64.7856C107.582 64.8935 107.576 65.0019 107.576 65.1104C107.584 65.004 107.59 64.8948 107.593 64.7856Z" fill="black"/>
<path opacity="0.1" d="M127.129 75.9946C127.226 74.5105 127.543 73.0208 127.425 71.5424C127.336 73.0264 127.019 74.5161 127.129 75.9946Z" fill="black"/>
<path opacity="0.1" d="M103.826 83.373C103.67 81.6369 102.894 80.0129 102.711 78.2796C102.674 78.5973 102.661 78.9174 102.67 79.2372C102.735 81.1273 103.636 82.8942 103.818 84.7759C103.863 84.3096 103.865 83.8399 103.826 83.373Z" fill="black"/>
<path opacity="0.1" d="M128.205 90.2698C127.953 91.4093 127.862 92.5809 127.936 93.7476C127.963 93.0672 128.053 92.3911 128.205 91.7287C128.637 89.9338 129.6 88.2621 129.678 86.4084C129.69 86.0792 129.676 85.7494 129.635 85.4228C129.425 87.0889 128.589 88.6401 128.205 90.2698Z" fill="black"/>
<path opacity="0.1" d="M105.477 90.4211C104.355 91.3998 102.968 91.9874 101.509 92.1011C101.203 92.5996 100.885 93.0868 100.571 93.5684C102.354 93.6775 104.109 93.0713 105.477 91.8743C106.459 95.2783 106.985 98.8071 107.041 102.361C107.121 98.3203 106.593 94.2916 105.477 90.4211Z" fill="black"/>
<path opacity="0.1" d="M128.256 105.903C127.96 107.471 127.32 109.213 125.874 109.742C125.512 109.826 125.163 109.962 124.837 110.145C124.173 110.633 124.218 111.641 124.076 112.475C123.845 113.858 122.928 115.034 121.829 115.835C120.729 116.636 119.452 117.151 118.192 117.644L113.165 119.604C113.139 120.13 113.058 120.651 112.923 121.158L118.192 119.1C119.452 118.607 120.732 118.106 121.829 117.294C122.925 116.482 123.845 115.303 124.076 113.92C124.218 113.08 124.173 112.077 124.837 111.59C125.164 111.409 125.513 111.274 125.874 111.19C127.32 110.658 127.96 108.916 128.256 107.348C128.562 105.716 128.689 104.053 128.635 102.392C128.599 103.571 128.473 104.745 128.256 105.903Z" fill="black"/>
<path opacity="0.1" d="M109.942 110.481C109.782 110.294 109.587 110.143 109.369 110.036C109.136 109.957 108.891 109.924 108.646 109.941H106.45C106.364 110.428 106.273 110.915 106.181 111.4H108.657C108.902 111.382 109.147 111.415 109.38 111.495C109.598 111.601 109.793 111.751 109.953 111.937C111.646 113.696 112.928 116.065 113.149 118.495C113.42 115.589 111.974 112.598 109.942 110.481Z" fill="black"/>
</g>
<path opacity="0.1" d="M97.6597 120.024C97.6597 120.024 99.6596 119.151 100.106 120.024C100.552 120.898 97.6597 120.024 97.6597 120.024Z" fill="black"/>
<path opacity="0.1" d="M98.3667 121.522C98.3667 121.522 100.367 120.649 100.816 121.522C101.264 122.396 98.3667 121.522 98.3667 121.522Z" fill="black"/>
<path opacity="0.1" d="M222.317 8.4659C222.317 8.4659 212.089 7.82466 213.296 15.2899C213.296 15.2899 213.057 16.6088 214.204 17.208C214.204 17.208 214.223 16.648 215.253 16.8412C215.619 16.9055 215.992 16.9243 216.363 16.8972C216.864 16.8611 217.339 16.6556 217.718 16.3119C217.718 16.3119 220.591 15.0771 221.71 10.1824C221.71 10.1824 222.537 9.11274 222.516 8.83832L220.79 9.60837C220.79 9.60837 221.379 10.9048 220.914 11.9829C220.914 11.9829 220.86 9.65317 220.527 9.70917C220.46 9.70917 219.632 10.1572 219.632 10.1572C219.632 10.1572 220.645 12.4169 219.879 14.0606C219.879 14.0606 220.169 11.2773 219.314 10.3224L218.094 11.0756C218.094 11.0756 219.279 13.4082 218.476 15.3123C218.476 15.3123 218.683 12.3917 217.839 11.2549L216.737 12.1481C216.737 12.1481 217.852 14.4358 217.18 16.0151C217.18 16.0151 217.091 12.6129 216.505 12.3581C216.505 12.3581 215.543 13.243 215.398 13.607C215.398 13.607 216.159 15.2871 215.685 16.1551C215.685 16.1551 215.395 13.8926 215.148 13.8814C215.148 13.8814 214.188 15.3823 214.089 16.4016C214.135 15.4505 214.42 14.5286 214.914 13.7274C214.36 13.8366 213.85 14.1132 213.446 14.5226C213.446 14.5226 213.594 13.4614 215.151 13.3662C215.151 13.3662 215.944 12.2293 216.156 12.1593C216.156 12.1593 214.608 12.0249 213.669 12.4589C213.669 12.4589 214.495 11.4565 216.441 11.8989L217.516 10.9748C217.516 10.9748 215.479 10.6948 214.613 11.0056C214.613 11.0056 215.608 10.1208 217.809 10.7648L218.992 10.0284C218.992 10.0284 217.255 9.63637 216.22 9.77918C216.22 9.77918 217.312 9.16594 219.339 9.82958L220.185 9.43476C220.185 9.43476 218.911 9.17434 218.54 9.13234C218.169 9.09034 218.148 8.98393 218.148 8.98393C218.954 8.84418 219.781 8.94114 220.538 9.26395C220.538 9.26395 222.347 8.58351 222.317 8.4659Z" fill="#E52F34"/>
<path opacity="0.1" d="M207.74 2.41196C207.74 2.41196 199.138 8.21109 204.355 13.4782C204.355 13.4782 204.912 14.6879 206.178 14.4638C206.178 14.4638 205.877 14.0046 206.815 13.5202C207.147 13.3458 207.459 13.1305 207.742 12.879C208.125 12.5406 208.392 12.0816 208.503 11.5713C208.503 11.5713 210.116 8.79912 208.234 4.16766C208.234 4.16766 208.293 2.79558 208.111 2.59397L207.159 4.27406C207.159 4.27406 208.371 4.9545 208.611 6.10817C208.611 6.10817 207.242 4.26846 206.998 4.51768C206.949 4.56808 206.53 5.43333 206.53 5.43333C206.53 5.43333 208.635 6.6262 208.949 8.4211C208.949 8.4211 207.605 5.99896 206.366 5.76095L205.807 7.10503C205.807 7.10503 208.092 8.25309 208.527 10.2832C208.527 10.2832 207.03 7.80227 205.705 7.40744L205.328 8.80752C205.328 8.80752 207.533 9.97239 207.885 11.6637C207.885 11.6637 205.879 8.98113 205.261 9.14354C205.261 9.14354 204.992 10.4484 205.078 10.8236C205.078 10.8236 206.643 11.6973 206.761 12.6997C206.761 12.6997 205.24 11.0561 205.043 11.1933C205.043 11.1933 205.124 12.9938 205.627 13.8842C205.124 13.0892 204.83 12.1713 204.772 11.2213C204.388 11.6508 204.134 12.1883 204.041 12.7669C204.041 12.7669 203.557 11.8205 204.758 10.7844C204.758 10.7844 204.758 9.38436 204.879 9.19114C204.879 9.19114 203.557 10.0312 203.046 10.9664C203.046 10.9664 203.143 9.65037 204.968 8.81592L205.318 7.40184C205.318 7.40184 203.511 8.4267 202.998 9.21915C202.998 9.21915 203.296 7.89187 205.433 7.05182L205.971 5.72735C205.971 5.72735 204.358 6.48619 203.595 7.23943C203.595 7.23943 204.132 6.06897 206.137 5.35493L206.594 4.51488C206.594 4.51488 205.42 5.09171 205.097 5.28772C204.775 5.48373 204.697 5.41093 204.697 5.41093C205.266 4.80053 205.988 4.36715 206.78 4.15926C206.78 4.15926 207.831 2.49036 207.74 2.41196Z" fill="#E52F34"/>
<path opacity="0.1" d="M194.649 9.16874C194.649 9.16874 189.506 18.4093 196.45 20.6298C196.45 20.6298 197.474 21.4446 198.503 20.6298C198.503 20.6298 198.038 20.3666 198.662 19.4901C198.878 19.1773 199.059 18.839 199.199 18.4821C199.394 17.9992 199.432 17.4637 199.31 16.956C199.31 16.956 199.538 13.7246 195.842 10.4848C195.842 10.4848 195.304 9.23594 195.036 9.14354L194.92 11.1037C194.92 11.1037 196.296 11.1373 197.014 12.0529C197.014 12.0529 194.993 11.0588 194.89 11.3921C194.869 11.4593 194.872 12.4281 194.872 12.4281C194.872 12.4281 197.288 12.5037 198.363 13.9542C198.363 13.9542 196.105 12.4337 194.904 12.8033L194.99 14.265C194.99 14.265 197.525 14.209 198.796 15.8135C198.796 15.8135 196.377 14.3098 195.033 14.5843L195.302 16.0095C195.302 16.0095 197.775 16.0095 198.823 17.348C198.823 17.348 195.866 15.9031 195.385 16.3316C195.385 16.3316 195.71 17.6252 195.958 17.9248C195.958 17.9248 197.732 17.964 198.275 18.8013C198.275 18.8013 196.202 18.0536 196.087 18.2721C196.087 18.2721 196.944 19.8374 197.78 20.3918C196.987 19.9234 196.325 19.2478 195.858 18.4317C195.704 18.9955 195.711 19.5943 195.88 20.1538C195.88 20.1538 195.036 19.5405 195.654 18.048C195.654 18.048 195.036 16.7992 195.071 16.5724C195.071 16.5724 194.264 17.9528 194.21 19.0197C194.21 19.0197 193.721 17.8016 194.985 16.1971L194.681 14.7691C194.681 14.7691 193.517 16.536 193.404 17.4852C193.404 17.4852 193.092 16.1607 194.632 14.405L194.53 12.9742C194.53 12.9742 193.417 14.4162 193.073 15.4439C193.073 15.4439 193.036 14.1502 194.517 12.5625L194.557 11.5965C194.557 11.5965 193.751 12.6633 193.56 12.9966C193.369 13.3298 193.256 13.2822 193.256 13.2822C193.498 12.4684 193.952 11.7405 194.568 11.1793C194.568 11.1793 194.761 9.19394 194.649 9.16874Z" fill="#E52F34"/>
<path d="M252.817 94.148H249.591V90.7878H247.172V94.148H243.946V96.6682H247.172V100.028H249.591V96.6682H252.817V94.148Z" fill="white"/>
<path d="M258.754 238.197C278.809 238.197 295.066 236.087 295.066 233.485C295.066 230.882 278.809 228.773 258.754 228.773C238.699 228.773 222.442 230.882 222.442 233.485C222.442 236.087 238.699 238.197 258.754 238.197Z" fill="#E6E6E6"/>
<path d="M260.756 217.078C260.756 217.078 262.708 223.798 264.008 225.533C265.309 227.267 266.393 230.086 265.743 230.519C265.092 230.953 263.792 236.156 265.526 236.373C267.26 236.59 271.163 230.736 271.38 228.785C271.596 226.834 272.464 219.896 272.464 219.896C272.464 219.896 273.981 213.826 271.596 213.392C269.212 212.959 265.526 212.742 265.526 212.742L260.756 217.078Z" fill="#2F2E41"/>
<path d="M251.651 224.232C251.651 224.232 248.833 231.603 248.182 232.037C247.532 232.47 245.147 236.373 249.917 236.373C254.686 236.373 257.288 235.072 257.288 235.072L258.805 233.338C258.805 233.338 258.805 228.785 258.372 228.134C257.938 227.484 258.372 224.232 258.372 224.232H251.651Z" fill="#2F2E41"/>
<path d="M232.356 156.807C232.356 156.807 228.887 180.222 231.922 187.81C234.958 195.398 237.993 197.566 237.993 197.566L260.973 219.029C260.973 219.029 268.128 215.343 267.477 212.958C267.477 212.958 265.96 212.091 265.743 211.441C265.526 210.79 262.708 210.574 262.708 210.574C262.708 210.574 261.407 209.056 261.407 208.189C261.407 207.322 250.134 191.929 246.448 190.845C246.448 190.845 244.497 188.46 244.714 188.027C244.93 187.593 244.063 186.075 244.063 186.075L246.231 177.62L259.889 175.452C259.889 175.452 265.526 155.507 260.757 153.989C255.987 152.471 232.356 156.807 232.356 156.807Z" fill="#2F2E41"/>
<path d="M259.456 171.983L259.889 175.452C259.889 175.452 259.889 184.558 259.456 185.425C259.022 186.292 258.805 187.593 259.456 188.46C260.106 189.327 261.19 191.495 260.757 192.363C260.323 193.23 261.624 217.728 259.889 219.463C258.155 221.197 258.805 223.365 259.022 223.582C259.239 223.798 258.805 224.666 258.805 224.666C258.805 224.666 249.917 226.183 250.567 224.666C251.217 223.148 251.217 222.281 251.651 221.847C252.085 221.414 251.651 220.763 251.651 220.763C251.651 220.763 252.301 213.826 251.651 213.392C251.001 212.959 249.049 192.146 249.049 191.929C249.049 191.712 248.399 191.279 248.399 190.411C248.399 189.544 248.399 186.726 247.315 186.292C246.231 185.859 246.448 175.235 246.448 175.235L259.456 171.983Z" fill="#2F2E41"/>
<path d="M244.063 94.5858C244.063 94.5858 244.93 101.09 247.532 102.391C250.134 103.691 251.868 104.342 251.868 104.342L249.7 111.93L248.833 118.434H238.86L233.44 114.098L235.174 106.943L236.042 105.643C236.042 105.643 237.126 100.873 236.258 99.3554C235.391 97.8378 244.063 94.5858 244.063 94.5858Z" fill="#FFB9B9"/>
<path d="M239.727 110.412L241.245 113.231C241.245 113.231 242.329 109.328 243.846 108.678C245.364 108.027 249.05 106.943 249.05 106.076C249.05 105.209 248.833 103.041 249.7 103.041C250.567 103.041 259.022 105.643 260.323 106.51C261.624 107.377 261.841 108.244 261.841 108.244L259.456 133.176C259.456 133.176 262.925 144.883 261.841 149.436C260.757 153.989 259.89 154.639 257.288 155.29C254.686 155.94 256.204 153.772 248.616 155.94C241.028 158.108 236.258 157.458 234.524 157.458C232.79 157.458 231.706 158.325 231.272 158.542C230.838 158.759 231.055 157.458 232.573 155.507C234.09 153.555 233.44 150.303 233.44 150.303C233.44 150.303 231.706 144.667 232.79 142.499C233.874 140.331 235.391 137.512 234.09 136.645C232.79 135.778 231.055 129.274 231.055 129.274L226.286 112.363L236.042 105.643C236.042 105.643 235.608 108.678 237.126 109.328C238.643 109.979 239.727 110.412 239.727 110.412Z" fill="#E52F34"/>
<path d="M227.586 112.147H226.286C226.286 112.147 224.118 115.832 224.118 118.434C224.118 121.035 225.202 135.778 225.202 135.778L231.489 142.282L233.006 137.295L233.44 126.239L227.586 112.147Z" fill="#E52F34"/>
<path d="M231.055 135.127C231.055 135.127 223.9 133.176 224.117 136.211C224.334 139.247 225.418 142.932 228.887 143.799C232.356 144.667 233.44 139.897 233.44 139.897C233.44 139.897 233.873 135.561 231.055 135.127Z" fill="#E52F34"/>
<path d="M257.938 145.1C257.938 145.1 257.504 155.073 254.903 156.157L261.19 157.675C261.19 157.675 264.225 147.268 263.792 146.835C263.358 146.401 257.938 145.1 257.938 145.1Z" fill="#FFB9B9"/>
<path d="M220.753 124.8L224.476 123.174C224.615 123.113 224.773 123.11 224.914 123.165C225.055 123.221 225.169 123.33 225.229 123.469L229.369 132.944C229.443 133.114 229.447 133.307 229.379 133.479C229.311 133.652 229.178 133.79 229.008 133.865L225.517 135.39C225.347 135.464 225.155 135.467 224.982 135.4C224.81 135.332 224.671 135.199 224.597 135.029L220.458 125.554C220.427 125.485 220.411 125.411 220.41 125.336C220.408 125.261 220.422 125.186 220.449 125.116C220.477 125.046 220.518 124.982 220.57 124.928C220.622 124.874 220.684 124.83 220.753 124.8Z" fill="#2F2E41"/>
<path opacity="0.1" d="M220.753 124.8L224.476 123.174C224.615 123.113 224.773 123.11 224.914 123.165C225.055 123.221 225.169 123.33 225.229 123.469L229.369 132.944C229.443 133.114 229.447 133.307 229.379 133.479C229.311 133.652 229.178 133.79 229.008 133.865L225.517 135.39C225.347 135.464 225.155 135.467 224.982 135.4C224.81 135.332 224.671 135.199 224.597 135.029L220.458 125.554C220.427 125.485 220.411 125.411 220.41 125.336C220.408 125.261 220.422 125.186 220.449 125.116C220.477 125.046 220.518 124.982 220.57 124.928C220.622 124.874 220.684 124.83 220.753 124.8Z" fill="black"/>
<path d="M220.964 125.284L224.21 123.866C224.349 123.805 224.506 123.802 224.648 123.858C224.789 123.913 224.902 124.022 224.963 124.161L228.891 133.153C228.965 133.323 228.969 133.515 228.901 133.688C228.834 133.86 228.7 133.999 228.53 134.073L225.517 135.39C225.347 135.464 225.154 135.467 224.982 135.4C224.809 135.332 224.671 135.199 224.596 135.029L220.668 126.037C220.608 125.898 220.605 125.741 220.66 125.6C220.715 125.458 220.825 125.345 220.964 125.284Z" fill="#2F2E41"/>
<path d="M223.949 129.119C224.476 128.889 224.715 128.27 224.481 127.735C224.248 127.201 223.631 126.955 223.104 127.185C222.577 127.415 222.339 128.035 222.572 128.569C222.806 129.103 223.422 129.35 223.949 129.119Z" fill="#F2F2F2"/>
<path opacity="0.1" d="M259.565 111.171L260.974 109.111C260.974 109.111 266.177 117.133 265.743 122.553C265.31 127.973 264.876 128.19 264.876 129.057C264.876 129.924 263.792 129.924 264.876 131.008C265.96 132.092 267.478 133.61 266.611 134.477C265.743 135.344 265.093 135.344 265.31 136.428C265.448 137.216 265.521 138.013 265.527 138.813C265.527 138.813 263.684 142.39 263.033 142.39C262.383 142.39 256.204 148.135 256.204 147.485C256.204 146.835 256.855 142.282 256.855 141.631C256.855 140.981 257.071 138.813 257.505 138.163C257.939 137.512 257.939 137.729 257.505 137.079C257.071 136.428 257.071 137.079 257.071 136.428C257.071 135.778 257.288 134.911 256.638 134.694C255.987 134.477 255.337 134.694 255.771 133.61C256.204 132.526 255.771 131.659 255.554 131.659C255.337 131.659 254.253 131.442 254.903 130.791C255.554 130.141 253.603 117.567 253.603 117.567C253.603 117.567 253.928 114.423 259.565 111.171Z" fill="black"/>
<path d="M258.372 106.51L262.057 108.244C262.057 108.244 267.26 116.266 266.827 121.686C266.393 127.106 265.96 127.323 265.96 128.19C265.96 129.057 264.876 129.057 265.96 130.141C267.044 131.225 268.561 132.743 267.694 133.61C266.827 134.477 266.176 134.477 266.393 135.561C266.532 136.348 266.604 137.146 266.61 137.946C266.61 137.946 264.659 148.352 264.008 148.352C263.358 148.352 257.288 147.268 257.288 146.618C257.288 145.967 257.938 141.415 257.938 140.764C257.938 140.114 258.155 137.946 258.588 137.295C259.022 136.645 259.022 136.862 258.588 136.211C258.155 135.561 258.155 136.211 258.155 135.561C258.155 134.911 258.372 134.043 257.721 133.827C257.071 133.61 256.42 133.827 256.854 132.743C257.288 131.659 256.854 130.791 256.637 130.791C256.42 130.791 255.336 130.575 255.987 129.924C256.637 129.274 254.686 116.699 254.686 116.699C254.686 116.699 252.735 109.762 258.372 106.51Z" fill="#E52F34"/>
<path d="M225.475 136.676C225.273 136.729 225.059 136.711 224.869 136.626C224.679 136.54 224.524 136.391 224.43 136.204C223.434 134.212 220.734 128.369 223.251 128.19C225.572 128.024 227.64 132.551 228.484 134.689C228.538 134.825 228.562 134.97 228.556 135.116C228.549 135.262 228.511 135.405 228.445 135.535C228.379 135.665 228.286 135.78 228.173 135.872C228.059 135.964 227.927 136.03 227.786 136.068L225.475 136.676Z" fill="#FFB9B9"/>
<path d="M237.993 100.656C242.423 100.656 246.014 97.0647 246.014 92.6345C246.014 88.2043 242.423 84.6129 237.993 84.6129C233.563 84.6129 229.971 88.2043 229.971 92.6345C229.971 97.0647 233.563 100.656 237.993 100.656Z" fill="#FFB9B9"/>
<path d="M235.045 88.0147C234.044 88.3601 233.011 88.604 231.961 88.7427C231.171 88.866 230.247 88.9291 229.691 88.3537C229.147 87.7891 229.235 86.8472 229.606 86.1561C229.978 85.465 230.573 84.9232 231.02 84.2781C231.723 83.2634 232.137 81.9182 233.26 81.407C233.726 81.2288 234.22 81.1365 234.718 81.1347C237.633 80.9488 240.667 80.7814 243.367 81.8968C244.381 82.2832 245.279 82.9226 245.977 83.7541C246.434 84.3664 246.786 85.05 247.02 85.7773C247.742 87.9173 247.902 90.2066 247.486 92.4263C247.07 94.6461 246.092 96.722 244.645 98.4557C243.661 97.5694 244.089 95.5213 242.844 95.0697C242.436 94.9215 241.974 95.0246 241.556 94.9073C240.241 94.5387 240.307 92.507 239.213 91.6907C238.974 91.5621 238.762 91.3881 238.59 91.1786C238.493 90.9776 238.452 90.7549 238.468 90.5327C238.46 89.7716 238.818 87.8382 238.092 87.3165C237.353 86.7855 235.755 87.7583 235.045 88.0147Z" fill="#2F2E41"/>
<path d="M230.678 219.394C230.678 219.394 230.089 206.711 218 208.186L230.678 219.394Z" fill="#E6E6E6"/>
<path d="M281.65 189.693C281.65 189.693 282.24 177.01 294.329 178.484L281.65 189.693Z" fill="#E6E6E6"/>
<path d="M281.401 230.155C281.385 230.022 279.949 216.722 285.764 209.683C287.909 207.085 290.785 205.63 294.309 205.359L294.348 205.861C290.965 206.121 288.207 207.514 286.152 210.002C280.474 216.875 281.885 229.967 281.9 230.098L281.401 230.155Z" fill="#E6E6E6"/>
<path d="M230.733 204.634H230.23V232.292H230.733V204.634Z" fill="#E6E6E6"/>
<path d="M281.523 176.725H281.021V232.292H281.523V176.725Z" fill="#E6E6E6"/>
<path d="M230.679 205.532C232.958 205.532 234.806 203.684 234.806 201.404C234.806 199.124 232.958 197.276 230.679 197.276C228.399 197.276 226.551 199.124 226.551 201.404C226.551 203.684 228.399 205.532 230.679 205.532Z" fill="#E52F34"/>
<path d="M281.651 177.01C283.931 177.01 285.779 175.162 285.779 172.882C285.779 170.602 283.931 168.754 281.651 168.754C279.371 168.754 277.523 170.602 277.523 172.882C277.523 175.162 279.371 177.01 281.651 177.01Z" fill="#E52F34"/>
<path d="M294.329 209.738C296.608 209.738 298.456 207.89 298.456 205.61C298.456 203.33 296.608 201.482 294.329 201.482C292.049 201.482 290.201 203.33 290.201 205.61C290.201 207.89 292.049 209.738 294.329 209.738Z" fill="#E6E6E6"/>
<defs>
<linearGradient id="paint0_linear" x1="164.646" y1="165.895" x2="164.646" y2="26.9403" gradientUnits="userSpaceOnUse">
<stop stop-color="#808080" stop-opacity="0.25"/>
<stop offset="0.54" stop-color="#808080" stop-opacity="0.12"/>
<stop offset="1" stop-color="#808080" stop-opacity="0.1"/>
</linearGradient>
</defs>
</svg>
