<svg width="165" height="19" viewBox="0 0 165 19" fill="none" xmlns="http://www.w3.org/2000/svg">
<path d="M2.10938 18.3281C1.95312 18.3281 1.71094 18.3047 1.38281 18.2578C1.13281 17.9922 0.90625 17.6328 0.703125 17.1797C0.515625 16.7109 0.367188 16.2188 0.257812 15.7031C0.164062 15.1719 0.117188 14.6484 0.117188 14.1328C0.132812 13.6016 0.226562 13.1328 0.398438 12.7266C0.398438 12.7109 0.46875 12.5234 0.609375 12.1641C0.765625 11.8047 0.960938 11.3516 1.19531 10.8047C1.42969 10.2422 1.69531 9.625 1.99219 8.95312C2.28906 8.26562 2.58594 7.59375 2.88281 6.9375C3.17969 6.28125 3.46094 5.6875 3.72656 5.15625C4.00781 4.60938 4.25 4.1875 4.45312 3.89062C4.59375 3.67188 4.71875 3.46094 4.82812 3.25781C4.95312 3.05469 5.07031 2.86719 5.17969 2.69531C5.35156 2.41406 5.50781 2.15625 5.64844 1.92188C5.80469 1.67188 5.96875 1.45312 6.14062 1.26562C6.32812 1.0625 6.53125 0.890625 6.75 0.75C6.96875 0.59375 7.23438 0.460938 7.54688 0.351562C7.73438 0.429688 7.89844 0.515625 8.03906 0.609375C8.17969 0.6875 8.30469 0.789062 8.41406 0.914062L8.48438 1.24219C8.51562 1.35156 8.5625 1.42969 8.625 1.47656C8.70312 1.50781 8.76562 1.52344 8.8125 1.52344C9.01562 1.57031 9.1875 1.625 9.32812 1.6875C9.48438 1.73438 9.64844 1.76562 9.82031 1.78125C9.88281 1.875 9.9375 1.96875 9.98438 2.0625C10.0469 2.15625 10.1094 2.24219 10.1719 2.32031C10.4844 2.77344 10.7422 3.21094 10.9453 3.63281C11.1484 4.05469 11.1484 4.51562 10.9453 5.01562L10.9688 5.27344C11.0469 5.38281 11.0859 5.48438 11.0859 5.57812C11.0859 5.67188 11.0703 5.80469 11.0391 5.97656C11.0234 6.10156 11.0078 6.24219 10.9922 6.39844C10.9922 6.53906 11.0156 6.69531 11.0625 6.86719L11.2266 7.05469C11.4766 7.17969 11.7188 7.24219 11.9531 7.24219C12.2656 7.24219 12.5469 7.17188 12.7969 7.03125C13.0469 6.89062 13.2812 6.75 13.5 6.60938C13.6719 6.48438 13.8281 6.38281 13.9688 6.30469C14.125 6.22656 14.2734 6.17188 14.4141 6.14062C14.7422 5.82812 15.0391 5.55469 15.3047 5.32031C15.5859 5.07031 15.875 4.82031 16.1719 4.57031C16.7344 4.11719 17.2812 3.63281 17.8125 3.11719C18.3438 2.58594 18.7656 1.92969 19.0781 1.14844C19.25 1.03906 19.4453 0.984375 19.6641 0.984375C19.8828 0.984375 20.1016 1.03125 20.3203 1.125C20.5391 1.20312 20.7578 1.29688 20.9766 1.40625C21.0234 1.4375 21.0625 1.46094 21.0938 1.47656C21.1406 1.49219 21.1875 1.51562 21.2344 1.54688C21.2344 1.71875 21.3047 1.875 21.4453 2.01562C21.5234 2.07812 21.5781 2.11719 21.6094 2.13281C21.6406 2.14844 21.6719 2.16406 21.7031 2.17969C21.8281 2.25781 21.9297 2.32812 22.0078 2.39062C22.1016 2.45312 22.1719 2.53906 22.2188 2.64844C22.3594 3.07031 22.5938 3.39844 22.9219 3.63281C22.8906 3.80469 22.8984 3.97656 22.9453 4.14844C22.9922 4.30469 23.0469 4.46094 23.1094 4.61719C23.1406 4.67969 23.1641 4.74219 23.1797 4.80469C23.1953 4.85156 23.2188 4.91406 23.25 4.99219L22.7344 4.94531L22.8047 5.46094C22.8516 5.72656 22.8281 6.02344 22.7344 6.35156C22.6562 6.67969 22.5625 6.9375 22.4531 7.125C22.4844 7.59375 22.5 7.96875 22.5 8.25C22.5 8.51562 22.4844 8.76562 22.4531 9C22.4219 9.23438 22.3672 9.46094 22.2891 9.67969C22.2266 9.88281 22.1406 10.1016 22.0312 10.3359C22.0938 11.5234 21.9531 12.6094 21.6094 13.5938C21.2812 14.5781 20.9219 15.5 20.5312 16.3594C20.4844 16.4688 20.4375 16.5703 20.3906 16.6641C20.3438 16.7578 20.3047 16.8516 20.2734 16.9453C20.1016 16.9922 19.9453 17.0469 19.8047 17.1094C19.6641 17.1719 19.5312 17.2422 19.4062 17.3203C19.2344 17.4297 19.0625 17.5234 18.8906 17.6016C18.7188 17.6641 18.5391 17.6953 18.3516 17.6953C17.6016 17.1484 17.2109 16.2031 17.1797 14.8594C17.1641 13.5156 17.4531 11.8047 18.0469 9.72656C18.1562 9.64844 18.2031 9.53125 18.1875 9.375V9.11719L17.9531 9.09375C17.875 9.09375 17.8047 9.10156 17.7422 9.11719C17.6797 9.13281 17.6328 9.20312 17.6016 9.32812C17.1016 9.6875 16.5547 10.0625 15.9609 10.4531C15.3828 10.8281 14.7812 11.1797 14.1562 11.5078C13.5312 11.8203 12.8906 12.0859 12.2344 12.3047C11.5938 12.5078 10.9688 12.6094 10.3594 12.6094C8.79688 12.6094 7.61719 11.8125 6.82031 10.2188L6.60938 9.79688L6.375 10.1719C6.32812 10.25 6.24219 10.4062 6.11719 10.6406C6.00781 10.8594 5.89062 11.1172 5.76562 11.4141C5.65625 11.7109 5.55469 12.0156 5.46094 12.3281C5.38281 12.6406 5.35938 12.9141 5.39062 13.1484C5.20312 13.3203 5.01562 13.5156 4.82812 13.7344C4.65625 13.9531 4.53125 14.2031 4.45312 14.4844C4.42188 14.5625 4.41406 14.6406 4.42969 14.7188C4.44531 14.7812 4.46875 14.8516 4.5 14.9297C4.48438 15.0391 4.45312 15.1172 4.40625 15.1641C4.35938 15.2109 4.30469 15.2578 4.24219 15.3047C4.16406 15.3828 4.08594 15.4688 4.00781 15.5625C3.92969 15.6406 3.85938 15.7344 3.79688 15.8438C3.76562 15.9375 3.74219 16.0391 3.72656 16.1484C3.71094 16.2422 3.69531 16.3281 3.67969 16.4062C3.67969 16.5781 3.65625 16.6953 3.60938 16.7578C3.45312 17.0859 3.3125 17.3594 3.1875 17.5781C3.07812 17.7812 2.96875 17.9375 2.85938 18.0469C2.75 18.1562 2.63281 18.2266 2.50781 18.2578C2.39844 18.3047 2.26562 18.3281 2.10938 18.3281ZM37.1953 4.66406C37.2266 5.00781 37.2812 5.30469 37.3594 5.55469C37.4375 5.80469 37.5234 6.04688 37.6172 6.28125C37.6953 6.5 37.7656 6.71875 37.8281 6.9375C37.9062 7.14062 37.9609 7.39062 37.9922 7.6875C37.8672 8.09375 37.7734 8.46875 37.7109 8.8125C37.6641 9.15625 37.6094 9.51562 37.5469 9.89062C37.2969 10.4375 37.0547 10.9219 36.8203 11.3438C36.5859 11.7656 36.3984 12.1328 36.2578 12.4453C36.1797 12.5234 36.1094 12.6172 36.0469 12.7266C36 12.8203 35.9453 12.9219 35.8828 13.0312C35.8516 13.0781 35.8125 13.1484 35.7656 13.2422C35.7188 13.3359 35.6797 13.3984 35.6484 13.4297L35.1797 13.2656L35.0859 13.8516L34.7578 13.9453L34.5234 14.2266C34.2266 14.7422 33.9141 15.1797 33.5859 15.5391C33.2578 15.8828 32.8828 16.1953 32.4609 16.4766C32.0547 16.7422 31.5859 16.9922 31.0547 17.2266C30.5391 17.4609 29.9531 17.7188 29.2969 18C29.0312 17.9688 28.7969 17.9531 28.5938 17.9531C28.4062 17.9375 28.2266 17.9219 28.0547 17.9062C27.7578 17.9062 27.3906 17.8828 26.9531 17.8359C26.9062 17.7109 26.8359 17.625 26.7422 17.5781C26.6484 17.5312 26.5625 17.5078 26.4844 17.5078C26.2188 17.3828 26.0156 17.2031 25.875 16.9688C25.75 16.7188 25.625 16.4531 25.5 16.1719C25.4219 16 25.3438 15.8438 25.2656 15.7031C25.1875 15.5469 25.1016 15.3906 25.0078 15.2344L25.4062 15.1172L24.8906 14.5547C24.8594 14.5078 24.8203 14.4688 24.7734 14.4375C24.7266 14.3906 24.6875 14.3438 24.6562 14.2969L24.6328 13.9219C24.5859 12.8438 24.5625 11.8594 24.5625 10.9688C24.5781 10.0625 24.7031 9.25781 24.9375 8.55469V8.29688C24.9844 7.95312 25.0312 7.67188 25.0781 7.45312C25.125 7.21875 25.1641 7 25.1953 6.79688C25.2422 6.45312 25.3125 6.13281 25.4062 5.83594C25.625 5.78906 25.7891 5.70312 25.8984 5.57812C26.0078 5.4375 26.1016 5.3125 26.1797 5.20312C26.3984 5.1875 26.5469 5.21875 26.625 5.29688C26.7031 5.375 26.7812 5.5 26.8594 5.67188C26.9375 5.8125 27.0312 5.96875 27.1406 6.14062C27.2656 6.3125 27.4453 6.44531 27.6797 6.53906C27.7109 6.66406 27.75 6.79688 27.7969 6.9375C27.8594 7.0625 27.9219 7.20312 27.9844 7.35938C28.1094 7.625 28.2188 7.90625 28.3125 8.20312C28.4219 8.48438 28.4844 8.75781 28.5 9.02344C28.3438 9.32031 28.2188 9.66406 28.125 10.0547C28.0469 10.4453 27.9922 10.8438 27.9609 11.25C27.9453 11.6406 27.9531 12.0234 27.9844 12.3984C28.0312 12.7578 28.1016 13.0625 28.1953 13.3125L28.3359 13.6172L28.7344 13.5703C29.2031 13.4453 29.625 13.3125 30 13.1719C30.3906 13.0156 30.75 12.8359 31.0781 12.6328C31.4062 12.4297 31.7188 12.1953 32.0156 11.9297C32.3125 11.6484 32.625 11.3281 32.9531 10.9688C33.2812 10.6094 33.5625 10.2031 33.7969 9.75C34.0469 9.28125 34.25 8.79688 34.4062 8.29688C34.5781 7.79688 34.7031 7.30469 34.7812 6.82031C34.875 6.32031 34.9375 5.85156 34.9688 5.41406C35.2344 5.32031 35.3672 5.13281 35.3672 4.85156L35.3203 4.59375C35.2578 4.5 35.2578 4.39062 35.3203 4.26562C35.4141 3.96875 35.6328 3.74219 35.9766 3.58594C36.2266 3.74219 36.4453 3.91406 36.6328 4.10156C36.8359 4.28906 37.0234 4.47656 37.1953 4.66406ZM41.1797 15.5625C41.0078 16.1875 40.8516 16.6641 40.7109 16.9922C40.5859 17.3047 40.3906 17.6328 40.125 17.9766C39.9219 17.9453 39.7812 17.9688 39.7031 18.0469C39.625 18.125 39.5391 18.1953 39.4453 18.2578C39.3047 18.2891 39.2031 18.2891 39.1406 18.2578C39.0781 18.2266 39.0234 18.1875 38.9766 18.1406C38.9297 18.1094 38.8672 18.0703 38.7891 18.0234C38.7266 17.9922 38.625 17.9766 38.4844 17.9766C38.4531 17.8516 38.4141 17.7344 38.3672 17.625C38.3359 17.5156 38.2344 17.4766 38.0625 17.5078C38.0938 17.3828 38.1016 17.2812 38.0859 17.2031C38.0703 17.1094 38.0469 17.0312 38.0156 16.9688C38 16.8906 37.9844 16.8203 37.9688 16.7578C37.9531 16.6797 37.9609 16.5859 37.9922 16.4766C37.9141 16.4766 37.8516 16.4219 37.8047 16.3125C37.7578 16.2031 37.7031 16.0938 37.6406 15.9844C37.6875 15.7031 37.7344 15.4375 37.7812 15.1875C37.8281 14.9375 37.8828 14.7031 37.9453 14.4844C38.0234 14.2656 38.0859 14.0469 38.1328 13.8281C38.1797 13.6094 38.1562 13.3828 38.0625 13.1484C38.125 13.1953 38.1719 13.1875 38.2031 13.125C38.2344 13.0469 38.2578 12.9531 38.2734 12.8438C38.2891 12.7188 38.2969 12.6016 38.2969 12.4922C38.2969 12.3672 38.2891 12.2656 38.2734 12.1875C38.4297 11.7812 38.5547 11.3672 38.6484 10.9453C38.7578 10.5078 38.8516 10.0781 38.9297 9.65625C39.0234 9.23438 39.1172 8.82031 39.2109 8.41406C39.3047 8.00781 39.4297 7.63281 39.5859 7.28906C39.7578 7.25781 39.9453 7.28125 40.1484 7.35938C40.3672 7.42188 40.5 7.50781 40.5469 7.61719C40.9531 7.30469 41.3125 6.92969 41.625 6.49219C41.9375 6.03906 42.2578 5.60156 42.5859 5.17969C42.9141 4.75781 43.2734 4.38281 43.6641 4.05469C44.0703 3.72656 44.5781 3.53125 45.1875 3.46875C45.5 3.70312 45.8438 3.94531 46.2188 4.19531C46.6094 4.42969 46.9297 4.74219 47.1797 5.13281C47.3047 5.19531 47.4062 5.26562 47.4844 5.34375C47.5781 5.40625 47.6875 5.47656 47.8125 5.55469V5.83594C48 6.00781 48.1484 6.21094 48.2578 6.44531C48.3828 6.66406 48.4922 6.90625 48.5859 7.17188C48.6797 7.42188 48.7734 7.67969 48.8672 7.94531C48.9609 8.19531 49.0703 8.4375 49.1953 8.67188C49.1641 8.75 49.1484 8.82031 49.1484 8.88281C49.1484 8.92969 49.1562 8.98438 49.1719 9.04688C49.2031 9.10938 49.2266 9.17188 49.2422 9.23438C49.2578 9.29688 49.2578 9.38281 49.2422 9.49219C49.1953 10.1797 48.9688 10.7344 48.5625 11.1562C48.1719 11.5781 47.6953 11.9297 47.1328 12.2109C46.5703 12.4766 45.9688 12.7031 45.3281 12.8906C44.6875 13.0781 44.1094 13.2812 43.5938 13.5C43.5938 13.5625 43.6172 13.5938 43.6641 13.5938C43.7266 13.5938 43.75 13.6328 43.7344 13.7109C44.1094 13.9453 44.4062 14.1328 44.625 14.2734C44.8438 14.4141 45.0469 14.5312 45.2344 14.625C45.4375 14.7188 45.6484 14.8047 45.8672 14.8828C46.1016 14.9453 46.4219 15.0234 46.8281 15.1172C47.2344 15.2109 47.5469 15.2891 47.7656 15.3516C48 15.3984 48.2109 15.4453 48.3984 15.4922C48.5859 15.5234 48.7734 15.5547 48.9609 15.5859C49.1641 15.6016 49.4453 15.625 49.8047 15.6562C49.9453 15.7969 50.0625 15.9688 50.1562 16.1719C50.2656 16.3594 50.3359 16.5547 50.3672 16.7578C50.3984 16.9453 50.4062 17.1328 50.3906 17.3203C50.375 17.4922 50.3203 17.6328 50.2266 17.7422C50.2422 17.7891 50.2734 17.8125 50.3203 17.8125C50.3828 17.7969 50.4453 17.7969 50.5078 17.8125C50.4141 17.875 50.3359 17.9531 50.2734 18.0469C50.2109 18.1406 50.1484 18.2344 50.0859 18.3281C50.0234 18.4219 49.9531 18.5 49.875 18.5625C49.7969 18.6406 49.6875 18.6875 49.5469 18.7031C49.0625 18.8906 48.4531 18.8984 47.7188 18.7266C46.9844 18.5703 46.0547 18.2734 44.9297 17.8359C44.3672 17.6172 43.9062 17.4297 43.5469 17.2734C43.2031 17.1016 42.8984 16.9375 42.6328 16.7812C42.3828 16.6094 42.1484 16.4297 41.9297 16.2422C41.7266 16.0547 41.4766 15.8281 41.1797 15.5625ZM44.5312 7.52344C44.3594 7.77344 44.1641 8 43.9453 8.20312C43.7422 8.40625 43.5391 8.61719 43.3359 8.83594C43.1484 9.03906 42.9766 9.27344 42.8203 9.53906C42.6641 9.78906 42.5547 10.0859 42.4922 10.4297C43.0391 10.3672 43.6094 10.2188 44.2031 9.98438C44.7969 9.73438 45.3594 9.5 45.8906 9.28125C45.8281 8.79688 45.6562 8.40625 45.375 8.10938C45.1094 7.8125 44.8281 7.61719 44.5312 7.52344ZM62.7891 16.0312C62.6953 16.2969 62.5547 16.5703 62.3672 16.8516C62.1953 17.1172 61.9844 17.3594 61.7344 17.5781C61.5 17.7812 61.2344 17.9531 60.9375 18.0938C60.6406 18.2344 60.3281 18.3125 60 18.3281C59.7969 18.2812 59.6562 18.2266 59.5781 18.1641C59.5156 18.1172 59.4453 18.0703 59.3672 18.0234C59.3203 17.9922 59.2734 17.9688 59.2266 17.9531C59.1953 17.9219 59.1641 17.8984 59.1328 17.8828L58.8516 17.7656L58.9453 17.4609C58.9766 17.3359 58.9688 17.2422 58.9219 17.1797C58.875 17.1016 58.7812 17 58.6406 16.875C58.5938 16.8281 58.5469 16.7812 58.5 16.7344C58.4531 16.6875 58.4141 16.6406 58.3828 16.5938L57.9844 16.1484L58.6172 15.9844C59.0078 15.875 59.2656 15.7344 59.3906 15.5625C59.5312 15.3906 59.5859 15.1016 59.5547 14.6953C59.2422 14.6328 58.9766 14.625 58.7578 14.6719C58.5547 14.7188 58.3438 14.7734 58.125 14.8359C57.8438 14.9141 57.5547 14.9844 57.2578 15.0469C56.9766 15.0938 56.6641 15.1172 56.3203 15.1172C56.1953 15.1172 56.0781 15.1172 55.9688 15.1172C55.8594 15.1016 55.7422 15.0859 55.6172 15.0703L55.3828 15.0234C55.3516 14.8516 55.3203 14.7578 55.2891 14.7422C55.2578 14.7109 55.2266 14.6797 55.1953 14.6484C55.1172 14.5703 55.0312 14.4688 54.9375 14.3438C54.8594 14.2031 54.8438 14.0312 54.8906 13.8281C54.8125 13.6875 54.7656 13.5469 54.75 13.4062C54.6562 13.5938 54.5859 13.7891 54.5391 13.9922L54.4453 14.2266L54.2109 14.2734C54.1797 14.2891 54.1562 14.3281 54.1406 14.3906C54.125 14.4375 54.1172 14.4766 54.1172 14.5078L54 14.9062C53.9688 14.9375 53.9375 14.9688 53.9062 15C53.875 15.0156 53.8438 15.0391 53.8125 15.0703C53.7812 15.2109 53.7422 15.3516 53.6953 15.4922C53.6484 15.6328 53.6016 15.7656 53.5547 15.8906C53.4766 16.0938 53.4062 16.2969 53.3438 16.5C53.2969 16.6875 53.2812 16.875 53.2969 17.0625L53.2031 17.3203C53.125 17.4141 53.0391 17.4922 52.9453 17.5547C52.8516 17.6016 52.7578 17.6484 52.6641 17.6953C52.6328 17.7266 52.5859 17.7578 52.5234 17.7891C52.4766 17.8047 52.4375 17.8203 52.4062 17.8359L52.3359 18.0938L52.0547 18.1406C51.8828 18.1719 51.7578 18.1953 51.6797 18.2109C51.6172 18.2266 51.5391 18.2344 51.4453 18.2344L51.2109 18.2109C51.0391 18.0703 50.9062 17.9609 50.8125 17.8828C50.7188 17.7891 50.6094 17.7031 50.4844 17.625C50.3438 17.4375 50.2656 17.2969 50.25 17.2031C50.2344 17.1094 50.2188 17.0234 50.2031 16.9453C50.1719 16.8516 50.1562 16.7734 50.1562 16.7109C50.1406 16.6484 50.1172 16.6016 50.0859 16.5703L49.7812 16.2891L50.0391 16.0781L50.0625 15.6797C50.375 14.8828 50.7031 14.1172 51.0469 13.3828C51.4062 12.6484 51.7734 11.8984 52.1484 11.1328C52.2734 10.8828 52.3906 10.6328 52.5 10.3828C52.625 10.1328 52.75 9.88281 52.875 9.63281C52.8594 9.58594 52.8516 9.53125 52.8516 9.46875C52.8516 9.40625 52.8672 9.33594 52.8984 9.25781C53.0703 8.99219 53.2109 8.75781 53.3203 8.55469C53.4297 8.33594 53.5391 8.11719 53.6484 7.89844C53.7734 7.63281 53.8984 7.375 54.0234 7.125C54.1641 6.875 54.3359 6.61719 54.5391 6.35156L54.9141 6.1875C54.9609 6.17188 55.0156 6.15625 55.0781 6.14062C55.1406 6.10938 55.2109 6.09375 55.2891 6.09375L55.6406 6.14062C56.0781 5.9375 56.4609 5.65625 56.7891 5.29688C57.1172 4.92188 57.4531 4.47656 57.7969 3.96094L58.0312 3.63281L58.3359 3.82031C58.4141 3.86719 58.5234 3.91406 58.6641 3.96094C58.8047 3.99219 58.9531 4.03125 59.1094 4.07812C59.3906 4.14062 59.6562 4.21094 59.9062 4.28906C60.1562 4.36719 60.3594 4.48438 60.5156 4.64062C60.6094 4.89062 60.6641 5.07812 60.6797 5.20312C60.6953 5.32812 60.7188 5.45312 60.75 5.57812C60.7969 5.84375 60.8359 6.10938 60.8672 6.375C60.9141 6.64062 60.9453 6.9375 60.9609 7.26562C61.0391 7.53125 61.1016 7.79688 61.1484 8.0625C61.2109 8.3125 61.2656 8.57031 61.3125 8.83594C61.3906 9.21094 61.4688 9.57812 61.5469 9.9375C61.625 10.2812 61.7266 10.6094 61.8516 10.9219C61.9766 10.9219 62.0547 10.9297 62.0859 10.9453C62.1641 10.9141 62.2422 10.8906 62.3203 10.875C62.4141 10.8594 62.5156 10.8438 62.625 10.8281L62.8828 10.8047L62.9766 11.0391C62.9922 11.1172 63.0703 11.1953 63.2109 11.2734C63.4141 11.2891 63.5625 11.3359 63.6562 11.4141C63.75 11.4766 63.8359 11.5469 63.9141 11.625C63.9766 11.6875 64.0391 11.7344 64.1016 11.7656L64.4531 11.9062L64.2656 12.2578C64.1094 12.5391 63.8828 12.8125 63.5859 13.0781C63.3047 13.3281 62.9844 13.5391 62.625 13.7109C62.6406 13.8047 62.6484 13.8984 62.6484 13.9922C62.6641 14.0703 62.6875 14.1562 62.7188 14.25C62.7656 14.5156 62.8047 14.7891 62.8359 15.0703C62.8672 15.3516 62.8672 15.6406 62.8359 15.9375L62.7891 16.0312ZM56.0156 11.9766C56.4844 11.9453 56.9062 11.9141 57.2812 11.8828C57.6719 11.8359 58.1016 11.7656 58.5703 11.6719C58.4609 11.2031 58.3438 10.7188 58.2188 10.2188C58.0938 9.70312 57.9609 9.19531 57.8203 8.69531L57.6797 8.92969C57.3672 9.25781 57.0625 9.625 56.7656 10.0312C56.4844 10.4375 56.2422 10.8203 56.0391 11.1797C55.9453 11.3203 55.8516 11.4609 55.7578 11.6016C55.6641 11.7422 55.5781 11.8828 55.5 12.0234C55.5938 12.0078 55.6797 12 55.7578 12C55.8516 12 55.9375 11.9922 56.0156 11.9766ZM70.5234 17.7422C70.0859 17.8828 69.6094 18.0234 69.0938 18.1641C68.5781 18.3047 68.0625 18.375 67.5469 18.375C66.7656 18.375 66.1484 18.1797 65.6953 17.7891C65.6172 17.6172 65.5469 17.5 65.4844 17.4375C65.4375 17.375 65.3906 17.3125 65.3438 17.25C65.3125 17.1719 65.2891 17.0703 65.2734 16.9453C65.0859 16.7266 64.9375 16.4766 64.8281 16.1953C64.7188 15.8984 64.6406 15.6016 64.5938 15.3047C64.5625 14.9922 64.5547 14.6797 64.5703 14.3672C64.6016 14.0547 64.6562 13.7578 64.7344 13.4766C64.7656 13.4141 64.7812 13.3516 64.7812 13.2891C64.7969 13.2266 64.8125 13.1562 64.8281 13.0781C64.8906 12.8281 64.9531 12.5859 65.0156 12.3516C65.0938 12.1172 65.1953 11.9141 65.3203 11.7422C65.2578 11.6016 65.2578 11.4453 65.3203 11.2734C65.3828 11.1016 65.4531 10.9453 65.5312 10.8047C65.75 10.2109 65.9297 9.71094 66.0703 9.30469C66.2266 8.88281 66.3828 8.46875 66.5391 8.0625C66.8047 7.35938 67.0547 6.66406 67.2891 5.97656C67.5234 5.28906 67.7344 4.54688 67.9219 3.75C68.0469 3.67188 68.1406 3.61719 68.2031 3.58594C68.2969 3.55469 68.375 3.53125 68.4375 3.51562C68.7188 3.65625 69.0469 3.79688 69.4219 3.9375C69.7969 4.0625 70.1094 4.125 70.3594 4.125C70.4844 4.20312 70.5625 4.26562 70.5938 4.3125C70.625 4.34375 70.6562 4.375 70.6875 4.40625C70.8594 4.60938 71.0078 4.82031 71.1328 5.03906C71.2578 5.24219 71.2969 5.51562 71.25 5.85938C71.1562 6 71.0859 6.07031 71.0391 6.07031C70.9609 6.38281 70.875 6.64844 70.7812 6.86719C70.7031 7.08594 70.6172 7.30469 70.5234 7.52344C70.4141 7.75781 70.3125 7.99219 70.2188 8.22656C70.125 8.46094 70.0469 8.75 69.9844 9.09375C69.9219 9.17188 69.875 9.24219 69.8438 9.30469C69.8281 9.36719 69.8047 9.4375 69.7734 9.51562C69.7422 9.59375 69.7031 9.67969 69.6562 9.77344C69.625 9.85156 69.5703 9.92188 69.4922 9.98438C69.4453 10.3906 69.3672 10.7188 69.2578 10.9688C69.1641 11.2188 69.0625 11.4688 68.9531 11.7188C68.7656 12.1719 68.5938 12.625 68.4375 13.0781C68.2969 13.5312 68.2109 14.0469 68.1797 14.625C68.2578 14.5938 68.3281 14.5781 68.3906 14.5781C68.4688 14.5781 68.5391 14.5781 68.6016 14.5781C68.7422 14.5781 68.9062 14.6016 69.0938 14.6484C69.5625 14.3984 70.0703 14.25 70.6172 14.2031C71.1797 14.1562 71.7344 14.125 72.2812 14.1094C72.5 14.1094 72.7188 14.1094 72.9375 14.1094C73.1562 14.1094 73.3594 14.0938 73.5469 14.0625C73.6875 14.1406 73.7734 14.1875 73.8047 14.2031C73.8516 14.2031 73.9141 14.2031 73.9922 14.2031C74.1016 14.2031 74.1953 14.2109 74.2734 14.2266C74.4609 14.3984 74.6406 14.5234 74.8125 14.6016C74.9844 14.6797 75.1641 14.75 75.3516 14.8125C75.5234 14.875 75.6875 14.9453 75.8438 15.0234C76.0156 15.0859 76.1797 15.1797 76.3359 15.3047L76.5 16.3125C76.6094 16.4531 76.6562 16.5469 76.6406 16.5938C76.6406 16.7188 76.6094 16.8125 76.5469 16.875L76.5938 17.1328C76.3594 17.1797 76.1953 17.2344 76.1016 17.2969C76.0234 17.3594 75.9453 17.4297 75.8672 17.5078C75.7422 17.5234 75.6484 17.5312 75.5859 17.5312C75.5391 17.5312 75.4922 17.5312 75.4453 17.5312C75.2266 17.5312 74.9609 17.5703 74.6484 17.6484C74.2266 17.5078 73.7891 17.4375 73.3359 17.4375C73.1641 17.4375 72.9844 17.4453 72.7969 17.4609C72.6094 17.4766 72.4219 17.4922 72.2344 17.5078C72.0469 17.5391 71.8516 17.5625 71.6484 17.5781C71.4609 17.5938 71.2656 17.6016 71.0625 17.6016L70.5234 17.7422ZM88.3125 18.2578C87.8594 18.1484 87.5078 17.9688 87.2578 17.7188C87.0234 17.4531 86.8438 17.1484 86.7188 16.8047C86.6094 16.4453 86.5312 16.0547 86.4844 15.6328C86.4531 15.2109 86.4141 14.7734 86.3672 14.3203C86.4297 14.1172 86.5078 13.9453 86.6016 13.8047C86.7109 13.6641 86.7578 13.4688 86.7422 13.2188C86.9141 12.7188 87.0703 12.2344 87.2109 11.7656C87.3516 11.2969 87.4453 10.8125 87.4922 10.3125C87.5859 10.1719 87.6797 10.0781 87.7734 10.0312C87.8984 9.14062 87.9141 8.22656 87.8203 7.28906C87.7266 6.35156 87.5703 5.48438 87.3516 4.6875C87.3672 4.51562 87.3906 4.39062 87.4219 4.3125C87.4531 4.21875 87.4531 4.14062 87.4219 4.07812C87.3906 3.9375 87.4375 3.86719 87.5625 3.86719C87.6875 3.86719 87.8125 3.86719 87.9375 3.86719C87.9375 3.58594 87.8828 3.3125 87.7734 3.04688C87.6797 2.76562 87.5859 2.44531 87.4922 2.08594C87.6172 1.80469 87.7031 1.53125 87.75 1.26562C87.7969 1 87.8828 0.757812 88.0078 0.539062C88.5078 0.695312 89 0.875 89.4844 1.07812C89.9688 1.28125 90.4453 1.48438 90.9141 1.6875C91.3828 1.875 91.8438 2.0625 92.2969 2.25C92.75 2.42188 93.1953 2.5625 93.6328 2.67188C94.3047 3.15625 94.9922 3.64062 95.6953 4.125C96.4141 4.59375 97.0625 5.11719 97.6406 5.69531C98.2344 6.25781 98.7266 6.90625 99.1172 7.64062C99.5078 8.375 99.7344 9.24219 99.7969 10.2422C99.7656 10.3359 99.7422 10.4141 99.7266 10.4766C99.7109 10.5391 99.6953 10.6016 99.6797 10.6641C99.6641 10.7266 99.6562 10.7969 99.6562 10.875C99.6562 10.9531 99.6562 11.0625 99.6562 11.2031C99.0938 12.1875 98.3828 13.0156 97.5234 13.6875C96.6641 14.3594 95.7266 14.9531 94.7109 15.4688C93.6953 15.9844 92.6328 16.4609 91.5234 16.8984C90.4297 17.3203 89.3594 17.7734 88.3125 18.2578ZM90.6094 4.96875C90.4688 4.96875 90.3672 5 90.3047 5.0625C90.4922 5.76562 90.6328 6.42969 90.7266 7.05469C90.8203 7.67969 90.8672 8.30469 90.8672 8.92969C90.8828 9.55469 90.8516 10.1953 90.7734 10.8516C90.6953 11.5078 90.5859 12.2188 90.4453 12.9844C90.6484 12.9688 90.8281 12.9297 90.9844 12.8672C91.1406 12.8047 91.2969 12.7344 91.4531 12.6562C91.625 12.5781 91.7969 12.5078 91.9688 12.4453C92.1562 12.3828 92.3672 12.3438 92.6016 12.3281C92.6641 12.2031 92.7422 12.1094 92.8359 12.0469C92.9453 11.9688 93.0391 11.8906 93.1172 11.8125C93.5078 11.6562 93.8984 11.4922 94.2891 11.3203C94.6797 11.1484 95.0391 10.9531 95.3672 10.7344C95.6953 10.5156 95.9922 10.2656 96.2578 9.98438C96.5234 9.70312 96.7422 9.36719 96.9141 8.97656C96.7891 8.74219 96.6328 8.54688 96.4453 8.39062C96.2734 8.21875 96.0859 8.05469 95.8828 7.89844C95.6953 7.72656 95.5078 7.55469 95.3203 7.38281C95.1484 7.19531 95.0078 6.98438 94.8984 6.75C94.6484 6.71875 94.4297 6.65625 94.2422 6.5625C94.0547 6.45312 93.875 6.35156 93.7031 6.25781C93.5312 6.14844 93.3438 6.04688 93.1406 5.95312C92.9531 5.85938 92.7266 5.80469 92.4609 5.78906C92.0547 5.57031 91.6875 5.42188 91.3594 5.34375C91.0312 5.25 90.7812 5.125 90.6094 4.96875ZM102.961 16.3594C103.039 16.8281 103.008 17.1953 102.867 17.4609C102.742 17.7266 102.555 17.9219 102.305 18.0469C102.07 18.1875 101.797 18.2656 101.484 18.2812C101.172 18.2969 100.875 18.2812 100.594 18.2344C100.438 18.0156 100.297 17.7422 100.172 17.4141C100.047 17.0859 99.9297 16.75 99.8203 16.4062C99.7109 16.0469 99.6094 15.6953 99.5156 15.3516C99.4375 15.0078 99.3672 14.7031 99.3047 14.4375C99.3828 14.25 99.4297 14.0391 99.4453 13.8047C99.4766 13.5547 99.4922 13.3047 99.4922 13.0547C99.5078 12.8047 99.5156 12.5547 99.5156 12.3047C99.5312 12.0391 99.5547 11.7891 99.5859 11.5547C99.6953 10.8984 99.8516 10.2734 100.055 9.67969C100.273 9.08594 100.445 8.46875 100.57 7.82812C100.602 7.6875 100.586 7.55469 100.523 7.42969C100.477 7.30469 100.469 7.1875 100.5 7.07812C100.516 7.01562 100.562 6.97656 100.641 6.96094C100.719 6.92969 100.766 6.875 100.781 6.79688C100.828 6.625 100.836 6.48438 100.805 6.375C100.789 6.26562 100.82 6.13281 100.898 5.97656C100.977 5.85156 101.07 5.67188 101.18 5.4375C101.305 5.1875 101.352 4.92969 101.32 4.66406C101.461 4.57031 101.594 4.46094 101.719 4.33594C101.844 4.21094 101.969 4.10156 102.094 4.00781C102.234 3.89844 102.383 3.80469 102.539 3.72656C102.711 3.64844 102.914 3.60938 103.148 3.60938C103.273 3.76562 103.352 3.9375 103.383 4.125C103.43 4.3125 103.469 4.5 103.5 4.6875C103.547 4.875 103.609 5.05469 103.688 5.22656C103.766 5.38281 103.898 5.50781 104.086 5.60156C104.086 5.72656 104.086 5.88281 104.086 6.07031C104.086 6.25781 104.094 6.44531 104.109 6.63281C104.125 6.80469 104.156 6.96875 104.203 7.125C104.266 7.26562 104.359 7.35938 104.484 7.40625C104.203 8.15625 103.938 8.89844 103.688 9.63281C103.453 10.3672 103.258 11.1094 103.102 11.8594C102.945 12.5938 102.844 13.3359 102.797 14.0859C102.766 14.8359 102.82 15.5938 102.961 16.3594ZM122.297 13.7812C121.922 14.4531 121.43 14.9766 120.82 15.3516C120.211 15.7109 119.539 16.0156 118.805 16.2656C118.07 16.5 117.297 16.7109 116.484 16.8984C115.688 17.0859 114.914 17.3281 114.164 17.625C113.945 17.625 113.75 17.6328 113.578 17.6484C113.422 17.6641 113.266 17.6875 113.109 17.7188C112.969 17.7344 112.828 17.7578 112.688 17.7891C112.547 17.8047 112.391 17.8203 112.219 17.8359C112.156 17.8203 112.117 17.8359 112.102 17.8828C112.086 17.9141 112.062 17.9453 112.031 17.9766C111.766 18.0234 111.523 18.0469 111.305 18.0469C111.102 18.0469 110.93 18.0469 110.789 18.0469C110.602 18.0469 110.406 18.0703 110.203 18.1172C110.016 18.1797 109.844 18.2031 109.688 18.1875C108.516 18.125 107.594 17.7109 106.922 16.9453C106.266 16.1641 105.898 15.0859 105.82 13.7109C105.836 13.6328 105.82 13.5859 105.773 13.5703C105.742 13.5547 105.711 13.5312 105.68 13.5C105.68 13.3438 105.695 13.2109 105.727 13.1016C105.773 12.9922 105.781 12.8516 105.75 12.6797C106.156 11.8203 106.617 11.0234 107.133 10.2891C107.648 9.53906 108.266 8.88281 108.984 8.32031C109.094 8.22656 109.188 8.13281 109.266 8.03906C109.344 7.94531 109.414 7.85156 109.477 7.75781C109.555 7.66406 109.641 7.58594 109.734 7.52344C109.828 7.44531 109.945 7.39062 110.086 7.35938C110.414 6.98438 110.805 6.64062 111.258 6.32812C111.711 6.01562 112.188 5.71875 112.688 5.4375C113.188 5.14062 113.68 4.85156 114.164 4.57031C114.664 4.27344 115.117 3.94531 115.523 3.58594C115.695 3.66406 115.82 3.6875 115.898 3.65625C115.977 3.625 116.062 3.625 116.156 3.65625C116.266 3.89062 116.414 4.05469 116.602 4.14844C116.805 4.24219 117 4.34375 117.188 4.45312C117.391 4.54688 117.578 4.66406 117.75 4.80469C117.922 4.94531 118.055 5.13281 118.148 5.36719C118.055 5.36719 118.008 5.40625 118.008 5.48438C118.023 5.54688 118.047 5.61719 118.078 5.69531C118.109 5.75781 118.117 5.82812 118.102 5.90625C118.102 5.96875 118.047 6 117.938 6C117.953 6.07812 118 6.125 118.078 6.14062C118.172 6.14062 118.219 6.17969 118.219 6.25781C118.219 6.33594 118.195 6.39844 118.148 6.44531C118.117 6.49219 118.117 6.57031 118.148 6.67969C117.836 6.88281 117.484 7.07812 117.094 7.26562C116.719 7.45312 116.32 7.65625 115.898 7.875C115.492 8.07812 115.062 8.30469 114.609 8.55469C114.172 8.78906 113.742 9.0625 113.32 9.375C112.898 9.6875 112.469 10.0391 112.031 10.4297C111.594 10.8047 111.172 11.2031 110.766 11.625C110.359 12.0469 109.977 12.4844 109.617 12.9375C109.258 13.375 108.953 13.8125 108.703 14.25C108.734 14.3281 108.766 14.3906 108.797 14.4375C108.844 14.4688 108.883 14.5234 108.914 14.6016C109.414 14.6328 109.875 14.6328 110.297 14.6016C110.734 14.5547 111.172 14.5781 111.609 14.6719C111.656 14.6406 111.688 14.5938 111.703 14.5312C111.719 14.4688 111.758 14.4219 111.82 14.3906C112.711 14.2969 113.539 14.1562 114.305 13.9688C115.07 13.7656 115.852 13.5547 116.648 13.3359C116.523 13.2891 116.406 13.25 116.297 13.2188C116.203 13.1719 116.109 13.1328 116.016 13.1016C115.938 13.0234 115.938 12.9609 116.016 12.9141C116.109 12.8516 116.188 12.7891 116.25 12.7266C116.031 12.6016 115.852 12.4453 115.711 12.2578C115.586 12.0703 115.508 11.8203 115.477 11.5078C115.57 11.4297 115.617 11.3359 115.617 11.2266C115.617 11.1172 115.57 11.0312 115.477 10.9688C115.414 10.9531 115.375 10.9531 115.359 10.9688C115.344 10.9844 115.328 11.0078 115.312 11.0391C115.312 11.0703 115.305 11.1016 115.289 11.1328C115.273 11.1484 115.234 11.1406 115.172 11.1094C115.188 10.9688 115.219 10.8516 115.266 10.7578C115.328 10.6641 115.375 10.5547 115.406 10.4297L117.023 9.35156C117.195 9.47656 117.406 9.61719 117.656 9.77344C117.906 9.91406 118.164 10.0625 118.43 10.2188C118.711 10.3594 118.992 10.5078 119.273 10.6641C119.57 10.8047 119.844 10.9453 120.094 11.0859C120.312 11.1797 120.508 11.3047 120.68 11.4609C120.852 11.6172 121.016 11.7812 121.172 11.9531C121.328 12.1094 121.484 12.2656 121.641 12.4219C121.812 12.5781 122.008 12.7109 122.227 12.8203C122.195 13.0234 122.203 13.1875 122.25 13.3125C122.297 13.4375 122.312 13.5938 122.297 13.7812ZM125.109 16.3594C125.188 16.8281 125.156 17.1953 125.016 17.4609C124.891 17.7266 124.703 17.9219 124.453 18.0469C124.219 18.1875 123.945 18.2656 123.633 18.2812C123.32 18.2969 123.023 18.2812 122.742 18.2344C122.586 18.0156 122.445 17.7422 122.32 17.4141C122.195 17.0859 122.078 16.75 121.969 16.4062C121.859 16.0469 121.758 15.6953 121.664 15.3516C121.586 15.0078 121.516 14.7031 121.453 14.4375C121.531 14.25 121.578 14.0391 121.594 13.8047C121.625 13.5547 121.641 13.3047 121.641 13.0547C121.656 12.8047 121.664 12.5547 121.664 12.3047C121.68 12.0391 121.703 11.7891 121.734 11.5547C121.844 10.8984 122 10.2734 122.203 9.67969C122.422 9.08594 122.594 8.46875 122.719 7.82812C122.75 7.6875 122.734 7.55469 122.672 7.42969C122.625 7.30469 122.617 7.1875 122.648 7.07812C122.664 7.01562 122.711 6.97656 122.789 6.96094C122.867 6.92969 122.914 6.875 122.93 6.79688C122.977 6.625 122.984 6.48438 122.953 6.375C122.938 6.26562 122.969 6.13281 123.047 5.97656C123.125 5.85156 123.219 5.67188 123.328 5.4375C123.453 5.1875 123.5 4.92969 123.469 4.66406C123.609 4.57031 123.742 4.46094 123.867 4.33594C123.992 4.21094 124.117 4.10156 124.242 4.00781C124.383 3.89844 124.531 3.80469 124.688 3.72656C124.859 3.64844 125.062 3.60938 125.297 3.60938C125.422 3.76562 125.5 3.9375 125.531 4.125C125.578 4.3125 125.617 4.5 125.648 4.6875C125.695 4.875 125.758 5.05469 125.836 5.22656C125.914 5.38281 126.047 5.50781 126.234 5.60156C126.234 5.72656 126.234 5.88281 126.234 6.07031C126.234 6.25781 126.242 6.44531 126.258 6.63281C126.273 6.80469 126.305 6.96875 126.352 7.125C126.414 7.26562 126.508 7.35938 126.633 7.40625C126.352 8.15625 126.086 8.89844 125.836 9.63281C125.602 10.3672 125.406 11.1094 125.25 11.8594C125.094 12.5938 124.992 13.3359 124.945 14.0859C124.914 14.8359 124.969 15.5938 125.109 16.3594ZM141.164 6.72656C140.773 6.72656 140.352 6.75781 139.898 6.82031C139.445 6.86719 139 6.92188 138.562 6.98438C138.25 7.03125 137.945 7.07031 137.648 7.10156C137.367 7.13281 137.109 7.15625 136.875 7.17188C136.766 7.51562 136.656 7.82031 136.547 8.08594C136.438 8.35156 136.32 8.60938 136.195 8.85938C136.07 9.125 135.953 9.39844 135.844 9.67969C135.75 9.94531 135.656 10.2344 135.562 10.5469C135.406 10.7969 135.273 11.0312 135.164 11.25C135.07 11.4531 134.992 11.6875 134.93 11.9531C134.742 12.1875 134.602 12.4375 134.508 12.7031C134.414 12.9531 134.344 13.1719 134.297 13.3594L134.203 13.6406C134.109 13.7344 134.055 13.8125 134.039 13.875C134.023 13.9219 133.984 13.9688 133.922 14.0156C133.906 14.1875 133.852 14.3594 133.758 14.5312C133.727 14.6094 133.703 14.6875 133.688 14.7656C133.672 14.8281 133.664 14.875 133.664 14.9062C133.664 15.0625 133.625 15.1641 133.547 15.2109C133.562 15.2891 133.562 15.375 133.547 15.4688C133.531 15.5469 133.516 15.625 133.5 15.7031C133.453 15.8906 133.438 16.0391 133.453 16.1484C133.5 16.2109 133.539 16.2656 133.57 16.3125C133.617 16.3594 133.648 16.4219 133.664 16.5C133.758 16.5625 133.828 16.6016 133.875 16.6172C133.938 16.6641 134.031 16.7188 134.156 16.7812L134.367 17.0156C134.445 17.4688 134.375 17.8281 134.156 18.0938C133.922 18.3906 133.523 18.5391 132.961 18.5391H132.68C132.602 18.4609 132.555 18.3984 132.539 18.3516C132.414 18.3047 132.312 18.2656 132.234 18.2344C132.156 18.2031 132.086 18.1406 132.023 18.0469C131.82 17.9531 131.656 17.875 131.531 17.8125L131.32 17.6953C131.32 17.5234 131.32 17.4297 131.32 17.4141C131.211 17.2734 131.125 17.1172 131.062 16.9453C131.016 16.7734 130.977 16.6016 130.945 16.4297C130.914 16.2891 130.875 16.1562 130.828 16.0312C130.797 15.9062 130.75 15.7969 130.688 15.7031C130.656 14.7969 130.742 14.0312 130.945 13.4062C131.148 12.7812 131.359 12.1797 131.578 11.6016C131.703 11.2891 131.828 10.9766 131.953 10.6641C132.078 10.3359 132.188 10 132.281 9.65625L132.492 9.42188C132.602 9.17188 132.688 8.96875 132.75 8.8125C132.828 8.64062 132.906 8.46875 132.984 8.29688C133.031 8.1875 133.07 8.08594 133.102 7.99219C133.148 7.88281 133.188 7.78906 133.219 7.71094C133.125 7.71094 133.039 7.71875 132.961 7.73438C132.883 7.73438 132.805 7.74219 132.727 7.75781C132.633 7.77344 132.547 7.78906 132.469 7.80469C132.391 7.80469 132.312 7.80469 132.234 7.80469C132.125 7.80469 132.047 7.79688 132 7.78125C131.828 7.85938 131.641 7.89844 131.438 7.89844H131.203C131.156 7.89844 131.109 7.89844 131.062 7.89844C131.031 7.88281 131 7.875 130.969 7.875C130.812 7.875 130.688 7.89844 130.594 7.94531C130.406 7.94531 130.227 7.94531 130.055 7.94531H129.82C129.789 7.94531 129.75 7.95312 129.703 7.96875C129.656 7.96875 129.617 7.96875 129.586 7.96875C129.477 7.96875 129.359 7.96094 129.234 7.94531C129.109 7.91406 128.977 7.85938 128.836 7.78125C128.648 7.53125 128.523 7.39844 128.461 7.38281L128.25 7.10156C128.234 7.00781 128.211 6.92188 128.18 6.84375C128.148 6.75 128.117 6.64844 128.086 6.53906C128.023 6.38281 127.961 6.21875 127.898 6.04688C127.852 5.85938 127.828 5.64062 127.828 5.39062C127.844 5.26562 127.875 5.17188 127.922 5.10938C127.969 5.04688 128.008 4.99219 128.039 4.94531L128.109 4.59375L128.414 4.61719H129.07C129.57 4.61719 130.078 4.60156 130.594 4.57031C131.109 4.52344 131.641 4.47656 132.188 4.42969C132.5 4.39844 132.812 4.36719 133.125 4.33594C133.453 4.30469 133.789 4.27344 134.133 4.24219C134.195 4.10156 134.258 3.96875 134.32 3.84375L134.555 3.72656C134.836 3.71094 135.031 3.75 135.141 3.84375C135.266 3.92188 135.367 4 135.445 4.07812C135.789 4.04688 136.133 4.01562 136.477 3.98438C136.836 3.9375 137.195 3.88281 137.555 3.82031C138.086 3.74219 138.617 3.67188 139.148 3.60938C139.695 3.54688 140.219 3.51562 140.719 3.51562C140.938 3.51562 141.148 3.52344 141.352 3.53906C141.555 3.55469 141.742 3.57812 141.914 3.60938L142.148 3.77344C142.195 3.86719 142.258 3.95312 142.336 4.03125C142.43 4.10938 142.523 4.1875 142.617 4.26562C142.805 4.4375 142.992 4.64062 143.18 4.875C143.367 5.10938 143.438 5.45312 143.391 5.90625C143.266 6.09375 143.172 6.20312 143.109 6.23438L142.898 6.51562L142.664 6.49219C142.57 6.49219 142.484 6.50781 142.406 6.53906C142.328 6.55469 142.25 6.57812 142.172 6.60938C142.109 6.64062 142.047 6.67188 141.984 6.70312C141.922 6.71875 141.852 6.73438 141.773 6.75C141.633 6.75 141.516 6.75 141.422 6.75C141.344 6.73438 141.258 6.72656 141.164 6.72656ZM150.539 16.0312C150.445 16.2969 150.305 16.5703 150.117 16.8516C149.945 17.1172 149.734 17.3594 149.484 17.5781C149.25 17.7812 148.984 17.9531 148.688 18.0938C148.391 18.2344 148.078 18.3125 147.75 18.3281C147.547 18.2812 147.406 18.2266 147.328 18.1641C147.266 18.1172 147.195 18.0703 147.117 18.0234C147.07 17.9922 147.023 17.9688 146.977 17.9531C146.945 17.9219 146.914 17.8984 146.883 17.8828L146.602 17.7656L146.695 17.4609C146.727 17.3359 146.719 17.2422 146.672 17.1797C146.625 17.1016 146.531 17 146.391 16.875C146.344 16.8281 146.297 16.7812 146.25 16.7344C146.203 16.6875 146.164 16.6406 146.133 16.5938L145.734 16.1484L146.367 15.9844C146.758 15.875 147.016 15.7344 147.141 15.5625C147.281 15.3906 147.336 15.1016 147.305 14.6953C146.992 14.6328 146.727 14.625 146.508 14.6719C146.305 14.7188 146.094 14.7734 145.875 14.8359C145.594 14.9141 145.305 14.9844 145.008 15.0469C144.727 15.0938 144.414 15.1172 144.07 15.1172C143.945 15.1172 143.828 15.1172 143.719 15.1172C143.609 15.1016 143.492 15.0859 143.367 15.0703L143.133 15.0234C143.102 14.8516 143.07 14.7578 143.039 14.7422C143.008 14.7109 142.977 14.6797 142.945 14.6484C142.867 14.5703 142.781 14.4688 142.688 14.3438C142.609 14.2031 142.594 14.0312 142.641 13.8281C142.562 13.6875 142.516 13.5469 142.5 13.4062C142.406 13.5938 142.336 13.7891 142.289 13.9922L142.195 14.2266L141.961 14.2734C141.93 14.2891 141.906 14.3281 141.891 14.3906C141.875 14.4375 141.867 14.4766 141.867 14.5078L141.75 14.9062C141.719 14.9375 141.688 14.9688 141.656 15C141.625 15.0156 141.594 15.0391 141.562 15.0703C141.531 15.2109 141.492 15.3516 141.445 15.4922C141.398 15.6328 141.352 15.7656 141.305 15.8906C141.227 16.0938 141.156 16.2969 141.094 16.5C141.047 16.6875 141.031 16.875 141.047 17.0625L140.953 17.3203C140.875 17.4141 140.789 17.4922 140.695 17.5547C140.602 17.6016 140.508 17.6484 140.414 17.6953C140.383 17.7266 140.336 17.7578 140.273 17.7891C140.227 17.8047 140.188 17.8203 140.156 17.8359L140.086 18.0938L139.805 18.1406C139.633 18.1719 139.508 18.1953 139.43 18.2109C139.367 18.2266 139.289 18.2344 139.195 18.2344L138.961 18.2109C138.789 18.0703 138.656 17.9609 138.562 17.8828C138.469 17.7891 138.359 17.7031 138.234 17.625C138.094 17.4375 138.016 17.2969 138 17.2031C137.984 17.1094 137.969 17.0234 137.953 16.9453C137.922 16.8516 137.906 16.7734 137.906 16.7109C137.891 16.6484 137.867 16.6016 137.836 16.5703L137.531 16.2891L137.789 16.0781L137.812 15.6797C138.125 14.8828 138.453 14.1172 138.797 13.3828C139.156 12.6484 139.523 11.8984 139.898 11.1328C140.023 10.8828 140.141 10.6328 140.25 10.3828C140.375 10.1328 140.5 9.88281 140.625 9.63281C140.609 9.58594 140.602 9.53125 140.602 9.46875C140.602 9.40625 140.617 9.33594 140.648 9.25781C140.82 8.99219 140.961 8.75781 141.07 8.55469C141.18 8.33594 141.289 8.11719 141.398 7.89844C141.523 7.63281 141.648 7.375 141.773 7.125C141.914 6.875 142.086 6.61719 142.289 6.35156L142.664 6.1875C142.711 6.17188 142.766 6.15625 142.828 6.14062C142.891 6.10938 142.961 6.09375 143.039 6.09375L143.391 6.14062C143.828 5.9375 144.211 5.65625 144.539 5.29688C144.867 4.92188 145.203 4.47656 145.547 3.96094L145.781 3.63281L146.086 3.82031C146.164 3.86719 146.273 3.91406 146.414 3.96094C146.555 3.99219 146.703 4.03125 146.859 4.07812C147.141 4.14062 147.406 4.21094 147.656 4.28906C147.906 4.36719 148.109 4.48438 148.266 4.64062C148.359 4.89062 148.414 5.07812 148.43 5.20312C148.445 5.32812 148.469 5.45312 148.5 5.57812C148.547 5.84375 148.586 6.10938 148.617 6.375C148.664 6.64062 148.695 6.9375 148.711 7.26562C148.789 7.53125 148.852 7.79688 148.898 8.0625C148.961 8.3125 149.016 8.57031 149.062 8.83594C149.141 9.21094 149.219 9.57812 149.297 9.9375C149.375 10.2812 149.477 10.6094 149.602 10.9219C149.727 10.9219 149.805 10.9297 149.836 10.9453C149.914 10.9141 149.992 10.8906 150.07 10.875C150.164 10.8594 150.266 10.8438 150.375 10.8281L150.633 10.8047L150.727 11.0391C150.742 11.1172 150.82 11.1953 150.961 11.2734C151.164 11.2891 151.312 11.3359 151.406 11.4141C151.5 11.4766 151.586 11.5469 151.664 11.625C151.727 11.6875 151.789 11.7344 151.852 11.7656L152.203 11.9062L152.016 12.2578C151.859 12.5391 151.633 12.8125 151.336 13.0781C151.055 13.3281 150.734 13.5391 150.375 13.7109C150.391 13.8047 150.398 13.8984 150.398 13.9922C150.414 14.0703 150.438 14.1562 150.469 14.25C150.516 14.5156 150.555 14.7891 150.586 15.0703C150.617 15.3516 150.617 15.6406 150.586 15.9375L150.539 16.0312ZM143.766 11.9766C144.234 11.9453 144.656 11.9141 145.031 11.8828C145.422 11.8359 145.852 11.7656 146.32 11.6719C146.211 11.2031 146.094 10.7188 145.969 10.2188C145.844 9.70312 145.711 9.19531 145.57 8.69531L145.43 8.92969C145.117 9.25781 144.812 9.625 144.516 10.0312C144.234 10.4375 143.992 10.8203 143.789 11.1797C143.695 11.3203 143.602 11.4609 143.508 11.6016C143.414 11.7422 143.328 11.8828 143.25 12.0234C143.344 12.0078 143.43 12 143.508 12C143.602 12 143.688 11.9922 143.766 11.9766ZM158.273 17.7422C157.836 17.8828 157.359 18.0234 156.844 18.1641C156.328 18.3047 155.812 18.375 155.297 18.375C154.516 18.375 153.898 18.1797 153.445 17.7891C153.367 17.6172 153.297 17.5 153.234 17.4375C153.188 17.375 153.141 17.3125 153.094 17.25C153.062 17.1719 153.039 17.0703 153.023 16.9453C152.836 16.7266 152.688 16.4766 152.578 16.1953C152.469 15.8984 152.391 15.6016 152.344 15.3047C152.312 14.9922 152.305 14.6797 152.32 14.3672C152.352 14.0547 152.406 13.7578 152.484 13.4766C152.516 13.4141 152.531 13.3516 152.531 13.2891C152.547 13.2266 152.562 13.1562 152.578 13.0781C152.641 12.8281 152.703 12.5859 152.766 12.3516C152.844 12.1172 152.945 11.9141 153.07 11.7422C153.008 11.6016 153.008 11.4453 153.07 11.2734C153.133 11.1016 153.203 10.9453 153.281 10.8047C153.5 10.2109 153.68 9.71094 153.82 9.30469C153.977 8.88281 154.133 8.46875 154.289 8.0625C154.555 7.35938 154.805 6.66406 155.039 5.97656C155.273 5.28906 155.484 4.54688 155.672 3.75C155.797 3.67188 155.891 3.61719 155.953 3.58594C156.047 3.55469 156.125 3.53125 156.188 3.51562C156.469 3.65625 156.797 3.79688 157.172 3.9375C157.547 4.0625 157.859 4.125 158.109 4.125C158.234 4.20312 158.312 4.26562 158.344 4.3125C158.375 4.34375 158.406 4.375 158.438 4.40625C158.609 4.60938 158.758 4.82031 158.883 5.03906C159.008 5.24219 159.047 5.51562 159 5.85938C158.906 6 158.836 6.07031 158.789 6.07031C158.711 6.38281 158.625 6.64844 158.531 6.86719C158.453 7.08594 158.367 7.30469 158.273 7.52344C158.164 7.75781 158.062 7.99219 157.969 8.22656C157.875 8.46094 157.797 8.75 157.734 9.09375C157.672 9.17188 157.625 9.24219 157.594 9.30469C157.578 9.36719 157.555 9.4375 157.523 9.51562C157.492 9.59375 157.453 9.67969 157.406 9.77344C157.375 9.85156 157.32 9.92188 157.242 9.98438C157.195 10.3906 157.117 10.7188 157.008 10.9688C156.914 11.2188 156.812 11.4688 156.703 11.7188C156.516 12.1719 156.344 12.625 156.188 13.0781C156.047 13.5312 155.961 14.0469 155.93 14.625C156.008 14.5938 156.078 14.5781 156.141 14.5781C156.219 14.5781 156.289 14.5781 156.352 14.5781C156.492 14.5781 156.656 14.6016 156.844 14.6484C157.312 14.3984 157.82 14.25 158.367 14.2031C158.93 14.1562 159.484 14.125 160.031 14.1094C160.25 14.1094 160.469 14.1094 160.688 14.1094C160.906 14.1094 161.109 14.0938 161.297 14.0625C161.438 14.1406 161.523 14.1875 161.555 14.2031C161.602 14.2031 161.664 14.2031 161.742 14.2031C161.852 14.2031 161.945 14.2109 162.023 14.2266C162.211 14.3984 162.391 14.5234 162.562 14.6016C162.734 14.6797 162.914 14.75 163.102 14.8125C163.273 14.875 163.438 14.9453 163.594 15.0234C163.766 15.0859 163.93 15.1797 164.086 15.3047L164.25 16.3125C164.359 16.4531 164.406 16.5469 164.391 16.5938C164.391 16.7188 164.359 16.8125 164.297 16.875L164.344 17.1328C164.109 17.1797 163.945 17.2344 163.852 17.2969C163.773 17.3594 163.695 17.4297 163.617 17.5078C163.492 17.5234 163.398 17.5312 163.336 17.5312C163.289 17.5312 163.242 17.5312 163.195 17.5312C162.977 17.5312 162.711 17.5703 162.398 17.6484C161.977 17.5078 161.539 17.4375 161.086 17.4375C160.914 17.4375 160.734 17.4453 160.547 17.4609C160.359 17.4766 160.172 17.4922 159.984 17.5078C159.797 17.5391 159.602 17.5625 159.398 17.5781C159.211 17.5938 159.016 17.6016 158.812 17.6016L158.273 17.7422Z" fill="#2F2E41"/>
</svg>
