<svg width="224" height="29" viewBox="0 0 224 29" fill="none" xmlns="http://www.w3.org/2000/svg">
<path d="M0.984375 23.9766C0.867188 24 0.761719 23.918 0.667969 23.7305C0.574219 23.5195 0.46875 23.3203 0.351562 23.1328H0.738281C0.574219 22.6172 0.527344 22.1484 0.597656 21.7266C0.691406 21.2812 0.796875 20.8594 0.914062 20.4609C1.03125 20.0391 1.125 19.6406 1.19531 19.2656C1.28906 18.8672 1.25391 18.457 1.08984 18.0352C1.20703 18.1055 1.28906 18.082 1.33594 17.9648C1.40625 17.8242 1.45312 17.6602 1.47656 17.4727C1.52344 17.2617 1.53516 17.0508 1.51172 16.8398C1.51172 16.6055 1.5 16.418 1.47656 16.2773C1.78125 15.5508 2.01562 14.8008 2.17969 14.0273C2.36719 13.2539 2.53125 12.4922 2.67188 11.7422C2.8125 10.9688 2.96484 10.2305 3.12891 9.52734C3.31641 8.80078 3.55078 8.12109 3.83203 7.48828C4.16016 7.44141 4.5 7.48828 4.85156 7.62891C5.22656 7.74609 5.47266 7.89844 5.58984 8.08594C6.31641 7.52344 6.96094 6.84375 7.52344 6.04688C8.08594 5.25 8.64844 4.47656 9.21094 3.72656C9.79688 2.95312 10.4531 2.27344 11.1797 1.6875C11.9062 1.10156 12.8086 0.75 13.8867 0.632812C14.4492 1.03125 15.082 1.46484 15.7852 1.93359C16.4883 2.37891 17.0625 2.94141 17.5078 3.62109C17.6953 3.73828 17.8711 3.86719 18.0352 4.00781C18.2227 4.125 18.4102 4.24219 18.5977 4.35938V4.88672C18.9258 5.19141 19.1953 5.55469 19.4062 5.97656C19.6406 6.375 19.8398 6.80859 20.0039 7.27734C20.1914 7.72266 20.3672 8.17969 20.5312 8.64844C20.6953 9.11719 20.8828 9.55078 21.0938 9.94922C21.0469 10.0898 21.0234 10.2188 21.0234 10.3359C21.0469 10.4297 21.0703 10.5352 21.0938 10.6523C21.1406 10.7461 21.1758 10.8633 21.1992 11.0039C21.2227 11.1211 21.2344 11.2734 21.2344 11.4609C21.1406 12.7031 20.7305 13.7109 20.0039 14.4844C19.3008 15.2344 18.4336 15.8555 17.4023 16.3477C16.3945 16.8164 15.3164 17.2266 14.168 17.5781C13.0195 17.9062 11.9766 18.2695 11.0391 18.668C11.0391 18.7617 11.0859 18.8086 11.1797 18.8086C11.2969 18.8086 11.332 18.8789 11.2852 19.0195C11.9883 19.4414 12.5273 19.7812 12.9023 20.0391C13.3008 20.2969 13.6641 20.5195 13.9922 20.707C14.3438 20.8711 14.7188 21.0117 15.1172 21.1289C15.5391 21.2461 16.1133 21.3867 16.8398 21.5508C17.5664 21.7148 18.1289 21.8555 18.5273 21.9727C18.9492 22.0664 19.3242 22.1484 19.6523 22.2188C19.9805 22.2656 20.332 22.3125 20.707 22.3594C21.082 22.4062 21.5859 22.4648 22.2188 22.5352C22.4766 22.793 22.6875 23.0977 22.8516 23.4492C23.0156 23.8008 23.1328 24.1523 23.2031 24.5039C23.2734 24.8555 23.2852 25.1953 23.2383 25.5234C23.2148 25.8281 23.1211 26.0742 22.957 26.2617C22.9805 26.3555 23.0391 26.4023 23.1328 26.4023C23.25 26.3789 23.3672 26.3789 23.4844 26.4023C23.3203 26.5195 23.1797 26.6602 23.0625 26.8242C22.9453 26.9883 22.8281 27.1523 22.7109 27.3164C22.5938 27.4805 22.4531 27.6328 22.2891 27.7734C22.1484 27.9141 21.9609 27.9961 21.7266 28.0195C20.8828 28.3477 19.8047 28.3594 18.4922 28.0547C17.1797 27.75 15.5039 27.2109 13.4648 26.4375C12.457 26.0625 11.6367 25.7227 11.0039 25.418C10.3711 25.1133 9.82031 24.8203 9.35156 24.5391C8.88281 24.2344 8.44922 23.918 8.05078 23.5898C7.65234 23.2383 7.19531 22.8281 6.67969 22.3594C6.60938 22.3828 6.5625 22.4297 6.53906 22.5C6.53906 22.5703 6.50391 22.6172 6.43359 22.6406C6.31641 23.5781 6.12891 24.3398 5.87109 24.9258C5.63672 25.5117 5.28516 26.1094 4.81641 26.7188C4.44141 26.6484 4.18359 26.6836 4.04297 26.8242C3.92578 26.9648 3.77344 27.0938 3.58594 27.2109C3.35156 27.2578 3.17578 27.2461 3.05859 27.1758C2.94141 27.1289 2.83594 27.0703 2.74219 27C2.64844 26.9297 2.54297 26.8594 2.42578 26.7891C2.30859 26.7188 2.12109 26.6953 1.86328 26.7188C1.79297 26.5078 1.72266 26.3086 1.65234 26.1211C1.58203 25.9102 1.39453 25.8164 1.08984 25.8398C1.16016 25.6289 1.18359 25.4531 1.16016 25.3125C1.13672 25.1484 1.10156 25.0078 1.05469 24.8906C1.00781 24.75 0.960938 24.6094 0.914062 24.4688C0.890625 24.3281 0.914062 24.1641 0.984375 23.9766ZM12.7266 7.91016C12.4219 8.35547 12.082 8.76562 11.707 9.14062C11.332 9.49219 10.957 9.86719 10.582 10.2656C10.2305 10.6406 9.91406 11.0625 9.63281 11.5312C9.35156 11.9766 9.15234 12.5156 9.03516 13.1484C10.0195 13.0312 11.0508 12.7617 12.1289 12.3398C13.207 11.8945 14.2266 11.4727 15.1875 11.0742C15.0703 10.207 14.7656 9.51562 14.2734 9C13.7812 8.46094 13.2656 8.09766 12.7266 7.91016ZM41.8711 24.0469C41.7305 24.4453 41.5195 24.8555 41.2383 25.2773C40.9805 25.6758 40.6641 26.0391 40.2891 26.3672C39.9375 26.6719 39.5391 26.9297 39.0938 27.1406C38.6484 27.3516 38.1797 27.4688 37.6875 27.4922C37.3828 27.4219 37.1719 27.3398 37.0547 27.2461C36.9609 27.1758 36.8555 27.1055 36.7383 27.0352C36.668 26.9883 36.5977 26.9531 36.5273 26.9297C36.4805 26.8828 36.4336 26.8477 36.3867 26.8242L35.9648 26.6484L36.1055 26.1914C36.1523 26.0039 36.1406 25.8633 36.0703 25.7695C36 25.6523 35.8594 25.5 35.6484 25.3125C35.5781 25.2422 35.5078 25.1719 35.4375 25.1016C35.3672 25.0312 35.3086 24.9609 35.2617 24.8906L34.6641 24.2227L35.6133 23.9766C36.1992 23.8125 36.5859 23.6016 36.7734 23.3438C36.9844 23.0859 37.0664 22.6523 37.0195 22.043C36.5508 21.9492 36.1523 21.9375 35.8242 22.0078C35.5195 22.0781 35.2031 22.1602 34.875 22.2539C34.4531 22.3711 34.0195 22.4766 33.5742 22.5703C33.1523 22.6406 32.6836 22.6758 32.168 22.6758C31.9805 22.6758 31.8047 22.6758 31.6406 22.6758C31.4766 22.6523 31.3008 22.6289 31.1133 22.6055L30.7617 22.5352C30.7148 22.2773 30.668 22.1367 30.6211 22.1133C30.5742 22.0664 30.5273 22.0195 30.4805 21.9727C30.3633 21.8555 30.2344 21.7031 30.0938 21.5156C29.9766 21.3047 29.9531 21.0469 30.0234 20.7422C29.9062 20.5312 29.8359 20.3203 29.8125 20.1094C29.6719 20.3906 29.5664 20.6836 29.4961 20.9883L29.3555 21.3398L29.0039 21.4102C28.957 21.4336 28.9219 21.4922 28.8984 21.5859C28.875 21.6562 28.8633 21.7148 28.8633 21.7617L28.6875 22.3594C28.6406 22.4062 28.5938 22.4531 28.5469 22.5C28.5 22.5234 28.4531 22.5586 28.4062 22.6055C28.3594 22.8164 28.3008 23.0273 28.2305 23.2383C28.1602 23.4492 28.0898 23.6484 28.0195 23.8359C27.9023 24.1406 27.7969 24.4453 27.7031 24.75C27.6328 25.0312 27.6094 25.3125 27.6328 25.5938L27.4922 25.9805C27.375 26.1211 27.2461 26.2383 27.1055 26.332C26.9648 26.4023 26.8242 26.4727 26.6836 26.543C26.6367 26.5898 26.5664 26.6367 26.4727 26.6836C26.4023 26.707 26.3438 26.7305 26.2969 26.7539L26.1914 27.1406L25.7695 27.2109C25.5117 27.2578 25.3242 27.293 25.207 27.3164C25.1133 27.3398 24.9961 27.3516 24.8555 27.3516L24.5039 27.3164C24.2461 27.1055 24.0469 26.9414 23.9062 26.8242C23.7656 26.6836 23.6016 26.5547 23.4141 26.4375C23.2031 26.1562 23.0859 25.9453 23.0625 25.8047C23.0391 25.6641 23.0156 25.5352 22.9922 25.418C22.9453 25.2773 22.9219 25.1602 22.9219 25.0664C22.8984 24.9727 22.8633 24.9023 22.8164 24.8555L22.3594 24.4336L22.7461 24.1172L22.7812 23.5195C23.25 22.3242 23.7422 21.1758 24.2578 20.0742C24.7969 18.9727 25.3477 17.8477 25.9102 16.6992C26.0977 16.3242 26.2734 15.9492 26.4375 15.5742C26.625 15.1992 26.8125 14.8242 27 14.4492C26.9766 14.3789 26.9648 14.2969 26.9648 14.2031C26.9648 14.1094 26.9883 14.0039 27.0352 13.8867C27.293 13.4883 27.5039 13.1367 27.668 12.832C27.832 12.5039 27.9961 12.1758 28.1602 11.8477C28.3477 11.4492 28.5352 11.0625 28.7227 10.6875C28.9336 10.3125 29.1914 9.92578 29.4961 9.52734L30.0586 9.28125C30.1289 9.25781 30.2109 9.23438 30.3047 9.21094C30.3984 9.16406 30.5039 9.14062 30.6211 9.14062L31.1484 9.21094C31.8047 8.90625 32.3789 8.48438 32.8711 7.94531C33.3633 7.38281 33.8672 6.71484 34.3828 5.94141L34.7344 5.44922L35.1914 5.73047C35.3086 5.80078 35.4727 5.87109 35.6836 5.94141C35.8945 5.98828 36.1172 6.04688 36.3516 6.11719C36.7734 6.21094 37.1719 6.31641 37.5469 6.43359C37.9219 6.55078 38.2266 6.72656 38.4609 6.96094C38.6016 7.33594 38.6836 7.61719 38.707 7.80469C38.7305 7.99219 38.7656 8.17969 38.8125 8.36719C38.8828 8.76562 38.9414 9.16406 38.9883 9.5625C39.0586 9.96094 39.1055 10.4062 39.1289 10.8984C39.2461 11.2969 39.3398 11.6953 39.4102 12.0938C39.5039 12.4688 39.5859 12.8555 39.6562 13.2539C39.7734 13.8164 39.8906 14.3672 40.0078 14.9062C40.125 15.4219 40.2773 15.9141 40.4648 16.3828C40.6523 16.3828 40.7695 16.3945 40.8164 16.418C40.9336 16.3711 41.0508 16.3359 41.168 16.3125C41.3086 16.2891 41.4609 16.2656 41.625 16.2422L42.0117 16.207L42.1523 16.5586C42.1758 16.6758 42.293 16.793 42.5039 16.9102C42.8086 16.9336 43.0312 17.0039 43.1719 17.1211C43.3125 17.2148 43.4414 17.3203 43.5586 17.4375C43.6523 17.5312 43.7461 17.6016 43.8398 17.6484L44.3672 17.8594L44.0859 18.3867C43.8516 18.8086 43.5117 19.2188 43.0664 19.6172C42.6445 19.9922 42.1641 20.3086 41.625 20.5664C41.6484 20.707 41.6602 20.8477 41.6602 20.9883C41.6836 21.1055 41.7188 21.2344 41.7656 21.375C41.8359 21.7734 41.8945 22.1836 41.9414 22.6055C41.9883 23.0273 41.9883 23.4609 41.9414 23.9062L41.8711 24.0469ZM31.7109 17.9648C32.4141 17.918 33.0469 17.8711 33.6094 17.8242C34.1953 17.7539 34.8398 17.6484 35.543 17.5078C35.3789 16.8047 35.2031 16.0781 35.0156 15.3281C34.8281 14.5547 34.6289 13.793 34.418 13.043L34.207 13.3945C33.7383 13.8867 33.2812 14.4375 32.8359 15.0469C32.4141 15.6562 32.0508 16.2305 31.7461 16.7695C31.6055 16.9805 31.4648 17.1914 31.3242 17.4023C31.1836 17.6133 31.0547 17.8242 30.9375 18.0352C31.0781 18.0117 31.207 18 31.3242 18C31.4648 18 31.5938 17.9883 31.7109 17.9648ZM53.4727 26.6133C52.8164 26.8242 52.1016 27.0352 51.3281 27.2461C50.5547 27.457 49.7812 27.5625 49.0078 27.5625C47.8359 27.5625 46.9102 27.2695 46.2305 26.6836C46.1133 26.4258 46.0078 26.25 45.9141 26.1562C45.8438 26.0625 45.7734 25.9688 45.7031 25.875C45.6562 25.7578 45.6211 25.6055 45.5977 25.418C45.3164 25.0898 45.0938 24.7148 44.9297 24.293C44.7656 23.8477 44.6484 23.4023 44.5781 22.957C44.5312 22.4883 44.5195 22.0195 44.543 21.5508C44.5898 21.082 44.6719 20.6367 44.7891 20.2148C44.8359 20.1211 44.8594 20.0273 44.8594 19.9336C44.8828 19.8398 44.9062 19.7344 44.9297 19.6172C45.0234 19.2422 45.1172 18.8789 45.2109 18.5273C45.3281 18.1758 45.4805 17.8711 45.668 17.6133C45.5742 17.4023 45.5742 17.168 45.668 16.9102C45.7617 16.6523 45.8672 16.418 45.9844 16.207C46.3125 15.3164 46.582 14.5664 46.793 13.957C47.0273 13.3242 47.2617 12.7031 47.4961 12.0938C47.8945 11.0391 48.2695 9.99609 48.6211 8.96484C48.9727 7.93359 49.2891 6.82031 49.5703 5.625C49.7578 5.50781 49.8984 5.42578 49.9922 5.37891C50.1328 5.33203 50.25 5.29688 50.3438 5.27344C50.7656 5.48438 51.2578 5.69531 51.8203 5.90625C52.3828 6.09375 52.8516 6.1875 53.2266 6.1875C53.4141 6.30469 53.5312 6.39844 53.5781 6.46875C53.625 6.51562 53.6719 6.5625 53.7188 6.60938C53.9766 6.91406 54.1992 7.23047 54.3867 7.55859C54.5742 7.86328 54.6328 8.27344 54.5625 8.78906C54.4219 9 54.3164 9.10547 54.2461 9.10547C54.1289 9.57422 54 9.97266 53.8594 10.3008C53.7422 10.6289 53.6133 10.957 53.4727 11.2852C53.3086 11.6367 53.1562 11.9883 53.0156 12.3398C52.875 12.6914 52.7578 13.125 52.6641 13.6406C52.5703 13.7578 52.5 13.8633 52.4531 13.957C52.4297 14.0508 52.3945 14.1562 52.3477 14.2734C52.3008 14.3906 52.2422 14.5195 52.1719 14.6602C52.125 14.7773 52.043 14.8828 51.9258 14.9766C51.8555 15.5859 51.7383 16.0781 51.5742 16.4531C51.4336 16.8281 51.2812 17.2031 51.1172 17.5781C50.8359 18.2578 50.5781 18.9375 50.3438 19.6172C50.1328 20.2969 50.0039 21.0703 49.957 21.9375C50.0742 21.8906 50.1797 21.8672 50.2734 21.8672C50.3906 21.8672 50.4961 21.8672 50.5898 21.8672C50.8008 21.8672 51.0469 21.9023 51.3281 21.9727C52.0312 21.5977 52.793 21.375 53.6133 21.3047C54.457 21.2344 55.2891 21.1875 56.1094 21.1641C56.4375 21.1641 56.7656 21.1641 57.0938 21.1641C57.4219 21.1641 57.7266 21.1406 58.0078 21.0938C58.2188 21.2109 58.3477 21.2812 58.3945 21.3047C58.4648 21.3047 58.5586 21.3047 58.6758 21.3047C58.8398 21.3047 58.9805 21.3164 59.0977 21.3398C59.3789 21.5977 59.6484 21.7852 59.9062 21.9023C60.1641 22.0195 60.4336 22.125 60.7148 22.2188C60.9727 22.3125 61.2188 22.418 61.4531 22.5352C61.7109 22.6289 61.957 22.7695 62.1914 22.957L62.4375 24.4688C62.6016 24.6797 62.6719 24.8203 62.6484 24.8906C62.6484 25.0781 62.6016 25.2188 62.5078 25.3125L62.5781 25.6992C62.2266 25.7695 61.9805 25.8516 61.8398 25.9453C61.7227 26.0391 61.6055 26.1445 61.4883 26.2617C61.3008 26.2852 61.1602 26.2969 61.0664 26.2969C60.9961 26.2969 60.9258 26.2969 60.8555 26.2969C60.5273 26.2969 60.1289 26.3555 59.6602 26.4727C59.0273 26.2617 58.3711 26.1562 57.6914 26.1562C57.4336 26.1562 57.1641 26.168 56.8828 26.1914C56.6016 26.2148 56.3203 26.2383 56.0391 26.2617C55.7578 26.3086 55.4648 26.3438 55.1602 26.3672C54.8789 26.3906 54.5859 26.4023 54.2812 26.4023L53.4727 26.6133ZM72.668 26.6133C72.0117 26.8242 71.2969 27.0352 70.5234 27.2461C69.75 27.457 68.9766 27.5625 68.2031 27.5625C67.0312 27.5625 66.1055 27.2695 65.4258 26.6836C65.3086 26.4258 65.2031 26.25 65.1094 26.1562C65.0391 26.0625 64.9688 25.9688 64.8984 25.875C64.8516 25.7578 64.8164 25.6055 64.793 25.418C64.5117 25.0898 64.2891 24.7148 64.125 24.293C63.9609 23.8477 63.8438 23.4023 63.7734 22.957C63.7266 22.4883 63.7148 22.0195 63.7383 21.5508C63.7852 21.082 63.8672 20.6367 63.9844 20.2148C64.0312 20.1211 64.0547 20.0273 64.0547 19.9336C64.0781 19.8398 64.1016 19.7344 64.125 19.6172C64.2188 19.2422 64.3125 18.8789 64.4062 18.5273C64.5234 18.1758 64.6758 17.8711 64.8633 17.6133C64.7695 17.4023 64.7695 17.168 64.8633 16.9102C64.957 16.6523 65.0625 16.418 65.1797 16.207C65.5078 15.3164 65.7773 14.5664 65.9883 13.957C66.2227 13.3242 66.457 12.7031 66.6914 12.0938C67.0898 11.0391 67.4648 9.99609 67.8164 8.96484C68.168 7.93359 68.4844 6.82031 68.7656 5.625C68.9531 5.50781 69.0938 5.42578 69.1875 5.37891C69.3281 5.33203 69.4453 5.29688 69.5391 5.27344C69.9609 5.48438 70.4531 5.69531 71.0156 5.90625C71.5781 6.09375 72.0469 6.1875 72.4219 6.1875C72.6094 6.30469 72.7266 6.39844 72.7734 6.46875C72.8203 6.51562 72.8672 6.5625 72.9141 6.60938C73.1719 6.91406 73.3945 7.23047 73.582 7.55859C73.7695 7.86328 73.8281 8.27344 73.7578 8.78906C73.6172 9 73.5117 9.10547 73.4414 9.10547C73.3242 9.57422 73.1953 9.97266 73.0547 10.3008C72.9375 10.6289 72.8086 10.957 72.668 11.2852C72.5039 11.6367 72.3516 11.9883 72.2109 12.3398C72.0703 12.6914 71.9531 13.125 71.8594 13.6406C71.7656 13.7578 71.6953 13.8633 71.6484 13.957C71.625 14.0508 71.5898 14.1562 71.543 14.2734C71.4961 14.3906 71.4375 14.5195 71.3672 14.6602C71.3203 14.7773 71.2383 14.8828 71.1211 14.9766C71.0508 15.5859 70.9336 16.0781 70.7695 16.4531C70.6289 16.8281 70.4766 17.2031 70.3125 17.5781C70.0312 18.2578 69.7734 18.9375 69.5391 19.6172C69.3281 20.2969 69.1992 21.0703 69.1523 21.9375C69.2695 21.8906 69.375 21.8672 69.4688 21.8672C69.5859 21.8672 69.6914 21.8672 69.7852 21.8672C69.9961 21.8672 70.2422 21.9023 70.5234 21.9727C71.2266 21.5977 71.9883 21.375 72.8086 21.3047C73.6523 21.2344 74.4844 21.1875 75.3047 21.1641C75.6328 21.1641 75.9609 21.1641 76.2891 21.1641C76.6172 21.1641 76.9219 21.1406 77.2031 21.0938C77.4141 21.2109 77.543 21.2812 77.5898 21.3047C77.6602 21.3047 77.7539 21.3047 77.8711 21.3047C78.0352 21.3047 78.1758 21.3164 78.293 21.3398C78.5742 21.5977 78.8438 21.7852 79.1016 21.9023C79.3594 22.0195 79.6289 22.125 79.9102 22.2188C80.168 22.3125 80.4141 22.418 80.6484 22.5352C80.9062 22.6289 81.1523 22.7695 81.3867 22.957L81.6328 24.4688C81.7969 24.6797 81.8672 24.8203 81.8438 24.8906C81.8438 25.0781 81.7969 25.2188 81.7031 25.3125L81.7734 25.6992C81.4219 25.7695 81.1758 25.8516 81.0352 25.9453C80.918 26.0391 80.8008 26.1445 80.6836 26.2617C80.4961 26.2852 80.3555 26.2969 80.2617 26.2969C80.1914 26.2969 80.1211 26.2969 80.0508 26.2969C79.7227 26.2969 79.3242 26.3555 78.8555 26.4727C78.2227 26.2617 77.5664 26.1562 76.8867 26.1562C76.6289 26.1562 76.3594 26.168 76.0781 26.1914C75.7969 26.2148 75.5156 26.2383 75.2344 26.2617C74.9531 26.3086 74.6602 26.3438 74.3555 26.3672C74.0742 26.3906 73.7812 26.4023 73.4766 26.4023L72.668 26.6133ZM92.7422 17.7891C92.5781 17.9297 92.4375 18.1055 92.3203 18.3164C92.2031 18.5039 92.0859 18.7031 91.9688 18.9141C91.8516 19.1719 91.7227 19.418 91.582 19.6523C91.4414 19.8867 91.2656 20.0977 91.0547 20.2852C90.9375 20.6367 90.8203 20.918 90.7031 21.1289C90.5859 21.3164 90.3984 21.5391 90.1406 21.7969C89.9062 22.7344 89.3555 23.7539 88.4883 24.8555C88.4648 25.0664 88.3945 25.2773 88.2773 25.4883C88.1836 25.6758 88.0781 25.8633 87.9609 26.0508C87.9141 26.1211 87.8672 26.2031 87.8203 26.2969C87.7734 26.3672 87.7383 26.4258 87.7148 26.4727L87.6445 26.8242C87.5273 27.0117 87.3984 27.1758 87.2578 27.3164C87.1172 27.457 86.9883 27.5859 86.8711 27.7031C86.8242 27.7734 86.7422 27.8672 86.625 27.9844L86.0977 28.1953C84.3867 27.9609 83.3438 27.0469 82.9688 25.4531L83.0039 25.1016C83.0508 24.9844 83.0859 24.8672 83.1094 24.75C83.1562 24.6094 83.2031 24.4688 83.25 24.3281C83.3438 24 83.4492 23.6719 83.5664 23.3438C83.707 23.0156 83.9062 22.7227 84.1641 22.4648C84.2109 22.3008 84.3164 22.043 84.4805 21.6914C84.6445 21.3164 84.9258 20.7656 85.3242 20.0391C85.6523 19.4766 85.9102 19.0312 86.0977 18.7031C86.2852 18.375 86.4375 18.1172 86.5547 17.9297C86.3203 17.5547 86.0391 17.2148 85.7109 16.9102C85.4062 16.3242 85.1367 15.7617 84.9023 15.2227C84.6914 14.6836 84.5273 14.2031 84.4102 13.7812C84.3867 13.4766 84.3516 13.2188 84.3047 13.0078C84.2578 12.7969 84.2109 12.5742 84.1641 12.3398C84.0938 12.082 84.0352 11.8242 83.9883 11.5664C83.9414 11.3086 83.918 11.0391 83.918 10.7578C83.8008 10.5938 83.7305 10.4297 83.707 10.2656L83.7773 9.91406C83.8477 9.75 83.8594 9.53906 83.8125 9.28125C83.7656 9 83.707 8.71875 83.6367 8.4375C83.5898 8.20312 83.5312 7.94531 83.4609 7.66406C83.4141 7.38281 83.4023 7.10156 83.4258 6.82031C83.4492 6.53906 83.5195 6.28125 83.6367 6.04688C83.7773 5.78906 84 5.56641 84.3047 5.37891L84.9023 5.34375C85.1133 5.46094 85.3125 5.57812 85.5 5.69531C85.7109 5.78906 85.9102 5.89453 86.0977 6.01172C86.3555 6.12891 86.6016 6.24609 86.8359 6.36328C87.0703 6.48047 87.3164 6.63281 87.5742 6.82031L87.8203 7.3125L88.2773 7.69922V8.08594C88.3008 8.17969 88.3125 8.30859 88.3125 8.47266C88.3125 8.77734 88.3594 8.96484 88.4531 9.03516L88.5938 9.45703C88.5938 9.78516 88.6289 10.1016 88.6992 10.4062C88.7695 10.6875 88.8398 10.957 88.9102 11.2148C88.9805 11.4727 89.0508 11.7422 89.1211 12.0234C89.1914 12.3047 89.2031 12.6094 89.1562 12.9375C89.2969 12.8672 89.4141 12.7852 89.5078 12.6914C89.5547 12.6445 89.6016 12.6094 89.6484 12.5859C89.6953 12.5625 89.7422 12.5273 89.7891 12.4805L91.8633 9.66797L91.793 9.31641L92.5312 8.61328C92.7188 8.42578 92.8945 8.25 93.0586 8.08594C93.2461 7.92188 93.3984 7.74609 93.5156 7.55859L93.9023 7.27734C94.6523 6.10547 95.7188 5.37891 97.1016 5.09766L97.5938 5.02734L97.7344 5.48438C97.8281 5.74219 98.0156 5.97656 98.2969 6.1875C98.6016 6.39844 98.918 6.59766 99.2461 6.78516L99.5625 6.99609C99.6797 7.23047 99.7383 7.40625 99.7383 7.52344C99.7383 7.64062 99.7266 7.74609 99.7031 7.83984L99.8438 8.19141C99.6562 8.75391 99.4219 9.16406 99.1406 9.42188C98.8828 9.67969 98.625 9.91406 98.3672 10.125C98.1562 10.3125 97.957 10.4883 97.7695 10.6523C97.6055 10.793 97.4766 10.9805 97.3828 11.2148L97.1367 11.4961C96.6445 11.7773 96.3281 12.1523 96.1875 12.6211L96.082 13.043H95.6602C95.6367 13.043 95.5781 13.0898 95.4844 13.1836C95.4141 13.2539 95.2969 13.4531 95.1328 13.7812C94.9688 14.0156 94.8516 14.168 94.7812 14.2383C94.7109 14.3086 94.6523 14.3672 94.6055 14.4141C94.582 14.5078 94.5469 14.6016 94.5 14.6953C94.4766 14.7656 94.4414 14.8594 94.3945 14.9766C94.0898 15.2812 93.9023 15.5156 93.832 15.6797C93.7617 15.8203 93.6797 15.9844 93.5859 16.1719C93.4922 16.3594 93.3984 16.5469 93.3047 16.7344C93.2344 16.8984 93.1055 17.0742 92.918 17.2617L92.7422 17.7891ZM112.395 27.4922C112.16 27.4922 111.797 27.457 111.305 27.3867C110.93 26.9883 110.59 26.4492 110.285 25.7695C110.004 25.0664 109.781 24.3281 109.617 23.5547C109.477 22.7578 109.406 21.9727 109.406 21.1992C109.43 20.4023 109.57 19.6992 109.828 19.0898C109.828 19.0664 109.934 18.7852 110.145 18.2461C110.379 17.707 110.672 17.0273 111.023 16.207C111.375 15.3633 111.773 14.4375 112.219 13.4297C112.664 12.3984 113.109 11.3906 113.555 10.4062C114 9.42188 114.422 8.53125 114.82 7.73438C115.242 6.91406 115.605 6.28125 115.91 5.83594C116.121 5.50781 116.309 5.19141 116.473 4.88672C116.66 4.58203 116.836 4.30078 117 4.04297C117.258 3.62109 117.492 3.23438 117.703 2.88281C117.938 2.50781 118.184 2.17969 118.441 1.89844C118.723 1.59375 119.027 1.33594 119.355 1.125C119.684 0.890625 120.082 0.691406 120.551 0.527344C120.832 0.644531 121.078 0.773438 121.289 0.914062C121.5 1.03125 121.688 1.18359 121.852 1.37109L121.957 1.86328C122.004 2.02734 122.074 2.14453 122.168 2.21484C122.285 2.26172 122.379 2.28516 122.449 2.28516C122.754 2.35547 123.012 2.4375 123.223 2.53125C123.457 2.60156 123.703 2.64844 123.961 2.67188C124.055 2.8125 124.137 2.95312 124.207 3.09375C124.301 3.23438 124.395 3.36328 124.488 3.48047C124.957 4.16016 125.344 4.81641 125.648 5.44922C125.953 6.08203 125.953 6.77344 125.648 7.52344L125.684 7.91016C125.801 8.07422 125.859 8.22656 125.859 8.36719C125.859 8.50781 125.836 8.70703 125.789 8.96484C125.766 9.15234 125.742 9.36328 125.719 9.59766C125.719 9.80859 125.754 10.043 125.824 10.3008L126.07 10.582C126.445 10.7695 126.809 10.8633 127.16 10.8633C127.629 10.8633 128.051 10.7578 128.426 10.5469C128.801 10.3359 129.152 10.125 129.48 9.91406C129.738 9.72656 129.973 9.57422 130.184 9.45703C130.418 9.33984 130.641 9.25781 130.852 9.21094C131.344 8.74219 131.789 8.33203 132.188 7.98047C132.609 7.60547 133.043 7.23047 133.488 6.85547C134.332 6.17578 135.152 5.44922 135.949 4.67578C136.746 3.87891 137.379 2.89453 137.848 1.72266C138.105 1.55859 138.398 1.47656 138.727 1.47656C139.055 1.47656 139.383 1.54688 139.711 1.6875C140.039 1.80469 140.367 1.94531 140.695 2.10938C140.766 2.15625 140.824 2.19141 140.871 2.21484C140.941 2.23828 141.012 2.27344 141.082 2.32031C141.082 2.57813 141.188 2.8125 141.398 3.02344C141.516 3.11719 141.598 3.17578 141.645 3.19922C141.691 3.22266 141.738 3.24609 141.785 3.26953C141.973 3.38672 142.125 3.49219 142.242 3.58594C142.383 3.67969 142.488 3.80859 142.559 3.97266C142.77 4.60547 143.121 5.09766 143.613 5.44922C143.566 5.70703 143.578 5.96484 143.648 6.22266C143.719 6.45703 143.801 6.69141 143.895 6.92578C143.941 7.01953 143.977 7.11328 144 7.20703C144.023 7.27734 144.059 7.37109 144.105 7.48828L143.332 7.41797L143.438 8.19141C143.508 8.58984 143.473 9.03516 143.332 9.52734C143.215 10.0195 143.074 10.4062 142.91 10.6875C142.957 11.3906 142.98 11.9531 142.98 12.375C142.98 12.7734 142.957 13.1484 142.91 13.5C142.863 13.8516 142.781 14.1914 142.664 14.5195C142.57 14.8242 142.441 15.1523 142.277 15.5039C142.371 17.2852 142.16 18.9141 141.645 20.3906C141.152 21.8672 140.613 23.25 140.027 24.5391C139.957 24.7031 139.887 24.8555 139.816 24.9961C139.746 25.1367 139.688 25.2773 139.641 25.418C139.383 25.4883 139.148 25.5703 138.938 25.6641C138.727 25.7578 138.527 25.8633 138.34 25.9805C138.082 26.1445 137.824 26.2852 137.566 26.4023C137.309 26.4961 137.039 26.543 136.758 26.543C135.633 25.7227 135.047 24.3047 135 22.2891C134.977 20.2734 135.41 17.707 136.301 14.5898C136.465 14.4727 136.535 14.2969 136.512 14.0625V13.6758L136.16 13.6406C136.043 13.6406 135.938 13.6523 135.844 13.6758C135.75 13.6992 135.68 13.8047 135.633 13.9922C134.883 14.5312 134.062 15.0938 133.172 15.6797C132.305 16.2422 131.402 16.7695 130.465 17.2617C129.527 17.7305 128.566 18.1289 127.582 18.457C126.621 18.7617 125.684 18.9141 124.77 18.9141C122.426 18.9141 120.656 17.7188 119.461 15.3281L119.145 14.6953L118.793 15.2578C118.723 15.375 118.594 15.6094 118.406 15.9609C118.242 16.2891 118.066 16.6758 117.879 17.1211C117.715 17.5664 117.562 18.0234 117.422 18.4922C117.305 18.9609 117.27 19.3711 117.316 19.7227C117.035 19.9805 116.754 20.2734 116.473 20.6016C116.215 20.9297 116.027 21.3047 115.91 21.7266C115.863 21.8438 115.852 21.9609 115.875 22.0781C115.898 22.1719 115.934 22.2773 115.98 22.3945C115.957 22.5586 115.91 22.6758 115.84 22.7461C115.77 22.8164 115.688 22.8867 115.594 22.957C115.477 23.0742 115.359 23.2031 115.242 23.3438C115.125 23.4609 115.02 23.6016 114.926 23.7656C114.879 23.9062 114.844 24.0586 114.82 24.2227C114.797 24.3633 114.773 24.4922 114.75 24.6094C114.75 24.8672 114.715 25.043 114.645 25.1367C114.41 25.6289 114.199 26.0391 114.012 26.3672C113.848 26.6719 113.684 26.9062 113.52 27.0703C113.355 27.2344 113.18 27.3398 112.992 27.3867C112.828 27.457 112.629 27.4922 112.395 27.4922ZM164.777 16.4531C164.754 16.7344 164.777 17.0039 164.848 17.2617C164.918 17.5195 165 17.7773 165.094 18.0352C165.211 18.2695 165.316 18.5156 165.41 18.7734C165.504 19.0312 165.574 19.2891 165.621 19.5469C165.668 19.875 165.668 20.2383 165.621 20.6367C165.574 21.0117 165.492 21.3867 165.375 21.7617C165.258 22.1133 165.105 22.4414 164.918 22.7461C164.73 23.0273 164.508 23.2383 164.25 23.3789C163.922 23.8008 163.523 24.1289 163.055 24.3633C162.586 24.5977 162.152 24.8789 161.754 25.207C161.496 25.3711 161.203 25.4883 160.875 25.5586C160.57 25.6289 160.254 25.6992 159.926 25.7695C159.668 25.9102 159.363 26.0625 159.012 26.2266C158.66 26.3672 158.297 26.5078 157.922 26.6484C157.547 26.7656 157.172 26.8594 156.797 26.9297C156.422 26.9766 156.094 26.9883 155.812 26.9648C155.109 27.2227 154.418 27.3867 153.738 27.457C153.082 27.5508 152.309 27.5039 151.418 27.3164C150.574 27.4336 149.789 27.3984 149.062 27.2109C148.359 27.0234 147.727 26.7305 147.164 26.332C146.625 25.9102 146.145 25.418 145.723 24.8555C145.324 24.2695 144.996 23.6602 144.738 23.0273C144.551 21.6914 144.598 20.4844 144.879 19.4062C145.16 18.3047 145.559 17.2969 146.074 16.3828C146.613 15.4453 147.223 14.5898 147.902 13.8164C148.582 13.0195 149.238 12.2461 149.871 11.4961C150.012 11.543 150.117 11.543 150.188 11.4961C150.281 11.4258 150.363 11.3438 150.434 11.25C150.504 11.1328 150.574 11.0273 150.645 10.9336C150.738 10.8398 150.844 10.7812 150.961 10.7578C151.125 10.4062 151.359 10.1484 151.664 9.98438C151.992 9.79688 152.25 9.53906 152.438 9.21094C152.648 9.16406 152.824 9.09375 152.965 9C153.105 8.90625 153.234 8.80078 153.352 8.68359C153.492 8.56641 153.633 8.46094 153.773 8.36719C153.914 8.25 154.078 8.16797 154.266 8.12109V7.73438C154.688 7.54688 154.992 7.33594 155.18 7.10156C155.391 6.84375 155.637 6.53906 155.918 6.1875C156.129 6.16406 156.293 6.15234 156.41 6.15234C156.551 6.15234 156.75 6.12891 157.008 6.08203C157.195 5.75391 157.359 5.50781 157.5 5.34375C157.664 5.17969 157.898 5.00391 158.203 4.81641C158.484 4.95703 158.789 5.05078 159.117 5.09766C159.469 5.14453 159.773 5.29688 160.031 5.55469C160.055 5.78906 160.125 5.97656 160.242 6.11719C160.359 6.23438 160.488 6.35156 160.629 6.46875C160.77 6.5625 160.898 6.66797 161.016 6.78516C161.156 6.90234 161.25 7.06641 161.297 7.27734C161.391 7.30078 161.449 7.28906 161.473 7.24219C161.52 7.19531 161.59 7.18359 161.684 7.20703C161.754 7.53516 161.836 7.75781 161.93 7.875C162.023 7.96875 162.117 8.16797 162.211 8.47266C162.094 8.70703 162 8.95312 161.93 9.21094C161.883 9.44531 161.742 9.62109 161.508 9.73828C161.484 9.90234 161.531 9.99609 161.648 10.0195C161.766 10.0195 161.836 10.0781 161.859 10.1953C161.883 10.4062 161.848 10.5586 161.754 10.6523C162.316 11.5664 162.82 12.5391 163.266 13.5703C163.711 14.5781 164.215 15.5391 164.777 16.4531ZM160.383 19.793C160.477 19.5352 160.594 19.3242 160.734 19.1602C160.898 18.9961 160.992 18.75 161.016 18.4219C160.898 18.2344 160.828 18.0938 160.805 18C160.781 17.8828 160.77 17.707 160.77 17.4727C160.254 16.7461 159.809 15.9727 159.434 15.1523C159.059 14.3086 158.637 13.5234 158.168 12.7969C158.121 12.8906 158.039 12.9844 157.922 13.0781C157.805 13.1719 157.676 13.1484 157.535 13.0078C157.488 13.1953 157.406 13.3359 157.289 13.4297C157.172 13.5 157.043 13.5352 156.902 13.5352C156.762 13.5117 156.609 13.4766 156.445 13.4297C156.305 13.3594 156.176 13.2773 156.059 13.1836C155.379 13.7227 154.699 14.25 154.02 14.7656C153.34 15.2812 152.73 15.8789 152.191 16.5586C152.098 16.6055 152.039 16.6289 152.016 16.6289C151.992 16.6055 151.922 16.6172 151.805 16.6641C151.617 17.1094 151.383 17.5195 151.102 17.8945C150.844 18.2461 150.586 18.6094 150.328 18.9844C150.07 19.3594 149.848 19.7578 149.66 20.1797C149.473 20.6016 149.367 21.0938 149.344 21.6562C149.742 21.9844 150.211 22.1836 150.75 22.2539C151.289 22.3242 151.84 22.3359 152.402 22.2891C152.988 22.2422 153.551 22.1719 154.09 22.0781C154.652 21.9609 155.168 21.9023 155.637 21.9023C156.621 21.668 157.465 21.3633 158.168 20.9883C158.871 20.5898 159.609 20.1914 160.383 19.793ZM185.133 10.0898C184.547 10.0898 183.914 10.1367 183.234 10.2305C182.555 10.3008 181.887 10.3828 181.23 10.4766C180.762 10.5469 180.305 10.6055 179.859 10.6523C179.438 10.6992 179.051 10.7344 178.699 10.7578C178.535 11.2734 178.371 11.7305 178.207 12.1289C178.043 12.5273 177.867 12.9141 177.68 13.2891C177.492 13.6875 177.316 14.0977 177.152 14.5195C177.012 14.918 176.871 15.3516 176.73 15.8203C176.496 16.1953 176.297 16.5469 176.133 16.875C175.992 17.1797 175.875 17.5312 175.781 17.9297C175.5 18.2812 175.289 18.6562 175.148 19.0547C175.008 19.4297 174.902 19.7578 174.832 20.0391L174.691 20.4609C174.551 20.6016 174.469 20.7188 174.445 20.8125C174.422 20.8828 174.363 20.9531 174.27 21.0234C174.246 21.2812 174.164 21.5391 174.023 21.7969C173.977 21.9141 173.941 22.0312 173.918 22.1484C173.895 22.2422 173.883 22.3125 173.883 22.3594C173.883 22.5938 173.824 22.7461 173.707 22.8164C173.73 22.9336 173.73 23.0625 173.707 23.2031C173.684 23.3203 173.66 23.4375 173.637 23.5547C173.566 23.8359 173.543 24.0586 173.566 24.2227C173.637 24.3164 173.695 24.3984 173.742 24.4688C173.812 24.5391 173.859 24.6328 173.883 24.75C174.023 24.8438 174.129 24.9023 174.199 24.9258C174.293 24.9961 174.434 25.0781 174.621 25.1719L174.938 25.5234C175.055 26.2031 174.949 26.7422 174.621 27.1406C174.27 27.5859 173.672 27.8086 172.828 27.8086H172.406C172.289 27.6914 172.219 27.5977 172.195 27.5273C172.008 27.457 171.855 27.3984 171.738 27.3516C171.621 27.3047 171.516 27.2109 171.422 27.0703C171.117 26.9297 170.871 26.8125 170.684 26.7188L170.367 26.543C170.367 26.2852 170.367 26.1445 170.367 26.1211C170.203 25.9102 170.074 25.6758 169.98 25.418C169.91 25.1602 169.852 24.9023 169.805 24.6445C169.758 24.4336 169.699 24.2344 169.629 24.0469C169.582 23.8594 169.512 23.6953 169.418 23.5547C169.371 22.1953 169.5 21.0469 169.805 20.1094C170.109 19.1719 170.426 18.2695 170.754 17.4023C170.941 16.9336 171.129 16.4648 171.316 15.9961C171.504 15.5039 171.668 15 171.809 14.4844L172.125 14.1328C172.289 13.7578 172.418 13.4531 172.512 13.2188C172.629 12.9609 172.746 12.7031 172.863 12.4453C172.934 12.2812 172.992 12.1289 173.039 11.9883C173.109 11.8242 173.168 11.6836 173.215 11.5664C173.074 11.5664 172.945 11.5781 172.828 11.6016C172.711 11.6016 172.594 11.6133 172.477 11.6367C172.336 11.6602 172.207 11.6836 172.09 11.707C171.973 11.707 171.855 11.707 171.738 11.707C171.574 11.707 171.457 11.6953 171.387 11.6719C171.129 11.7891 170.848 11.8477 170.543 11.8477H170.191C170.121 11.8477 170.051 11.8477 169.98 11.8477C169.934 11.8242 169.887 11.8125 169.84 11.8125C169.605 11.8125 169.418 11.8477 169.277 11.918C168.996 11.918 168.727 11.918 168.469 11.918H168.117C168.07 11.918 168.012 11.9297 167.941 11.9531C167.871 11.9531 167.812 11.9531 167.766 11.9531C167.602 11.9531 167.426 11.9414 167.238 11.918C167.051 11.8711 166.852 11.7891 166.641 11.6719C166.359 11.2969 166.172 11.0977 166.078 11.0742L165.762 10.6523C165.738 10.5117 165.703 10.3828 165.656 10.2656C165.609 10.125 165.562 9.97266 165.516 9.80859C165.422 9.57422 165.328 9.32812 165.234 9.07031C165.164 8.78906 165.129 8.46094 165.129 8.08594C165.152 7.89844 165.199 7.75781 165.27 7.66406C165.34 7.57031 165.398 7.48828 165.445 7.41797L165.551 6.89062L166.008 6.92578H166.992C167.742 6.92578 168.504 6.90234 169.277 6.85547C170.051 6.78516 170.848 6.71484 171.668 6.64453C172.137 6.59766 172.605 6.55078 173.074 6.50391C173.566 6.45703 174.07 6.41016 174.586 6.36328C174.68 6.15234 174.773 5.95312 174.867 5.76562L175.219 5.58984C175.641 5.56641 175.934 5.625 176.098 5.76562C176.285 5.88281 176.438 6 176.555 6.11719C177.07 6.07031 177.586 6.02344 178.102 5.97656C178.641 5.90625 179.18 5.82422 179.719 5.73047C180.516 5.61328 181.312 5.50781 182.109 5.41406C182.93 5.32031 183.715 5.27344 184.465 5.27344C184.793 5.27344 185.109 5.28516 185.414 5.30859C185.719 5.33203 186 5.36719 186.258 5.41406L186.609 5.66016C186.68 5.80078 186.773 5.92969 186.891 6.04688C187.031 6.16406 187.172 6.28125 187.312 6.39844C187.594 6.65625 187.875 6.96094 188.156 7.3125C188.438 7.66406 188.543 8.17969 188.473 8.85938C188.285 9.14062 188.145 9.30469 188.051 9.35156L187.734 9.77344L187.383 9.73828C187.242 9.73828 187.113 9.76172 186.996 9.80859C186.879 9.83203 186.762 9.86719 186.645 9.91406C186.551 9.96094 186.457 10.0078 186.363 10.0547C186.27 10.0781 186.164 10.1016 186.047 10.125C185.836 10.125 185.66 10.125 185.52 10.125C185.402 10.1016 185.273 10.0898 185.133 10.0898ZM201.797 16.4531C201.773 16.7344 201.797 17.0039 201.867 17.2617C201.938 17.5195 202.02 17.7773 202.113 18.0352C202.23 18.2695 202.336 18.5156 202.43 18.7734C202.523 19.0312 202.594 19.2891 202.641 19.5469C202.688 19.875 202.688 20.2383 202.641 20.6367C202.594 21.0117 202.512 21.3867 202.395 21.7617C202.277 22.1133 202.125 22.4414 201.938 22.7461C201.75 23.0273 201.527 23.2383 201.27 23.3789C200.941 23.8008 200.543 24.1289 200.074 24.3633C199.605 24.5977 199.172 24.8789 198.773 25.207C198.516 25.3711 198.223 25.4883 197.895 25.5586C197.59 25.6289 197.273 25.6992 196.945 25.7695C196.688 25.9102 196.383 26.0625 196.031 26.2266C195.68 26.3672 195.316 26.5078 194.941 26.6484C194.566 26.7656 194.191 26.8594 193.816 26.9297C193.441 26.9766 193.113 26.9883 192.832 26.9648C192.129 27.2227 191.438 27.3867 190.758 27.457C190.102 27.5508 189.328 27.5039 188.438 27.3164C187.594 27.4336 186.809 27.3984 186.082 27.2109C185.379 27.0234 184.746 26.7305 184.184 26.332C183.645 25.9102 183.164 25.418 182.742 24.8555C182.344 24.2695 182.016 23.6602 181.758 23.0273C181.57 21.6914 181.617 20.4844 181.898 19.4062C182.18 18.3047 182.578 17.2969 183.094 16.3828C183.633 15.4453 184.242 14.5898 184.922 13.8164C185.602 13.0195 186.258 12.2461 186.891 11.4961C187.031 11.543 187.137 11.543 187.207 11.4961C187.301 11.4258 187.383 11.3438 187.453 11.25C187.523 11.1328 187.594 11.0273 187.664 10.9336C187.758 10.8398 187.863 10.7812 187.98 10.7578C188.145 10.4062 188.379 10.1484 188.684 9.98438C189.012 9.79688 189.27 9.53906 189.457 9.21094C189.668 9.16406 189.844 9.09375 189.984 9C190.125 8.90625 190.254 8.80078 190.371 8.68359C190.512 8.56641 190.652 8.46094 190.793 8.36719C190.934 8.25 191.098 8.16797 191.285 8.12109V7.73438C191.707 7.54688 192.012 7.33594 192.199 7.10156C192.41 6.84375 192.656 6.53906 192.938 6.1875C193.148 6.16406 193.312 6.15234 193.43 6.15234C193.57 6.15234 193.77 6.12891 194.027 6.08203C194.215 5.75391 194.379 5.50781 194.52 5.34375C194.684 5.17969 194.918 5.00391 195.223 4.81641C195.504 4.95703 195.809 5.05078 196.137 5.09766C196.488 5.14453 196.793 5.29688 197.051 5.55469C197.074 5.78906 197.145 5.97656 197.262 6.11719C197.379 6.23438 197.508 6.35156 197.648 6.46875C197.789 6.5625 197.918 6.66797 198.035 6.78516C198.176 6.90234 198.27 7.06641 198.316 7.27734C198.41 7.30078 198.469 7.28906 198.492 7.24219C198.539 7.19531 198.609 7.18359 198.703 7.20703C198.773 7.53516 198.855 7.75781 198.949 7.875C199.043 7.96875 199.137 8.16797 199.23 8.47266C199.113 8.70703 199.02 8.95312 198.949 9.21094C198.902 9.44531 198.762 9.62109 198.527 9.73828C198.504 9.90234 198.551 9.99609 198.668 10.0195C198.785 10.0195 198.855 10.0781 198.879 10.1953C198.902 10.4062 198.867 10.5586 198.773 10.6523C199.336 11.5664 199.84 12.5391 200.285 13.5703C200.73 14.5781 201.234 15.5391 201.797 16.4531ZM197.402 19.793C197.496 19.5352 197.613 19.3242 197.754 19.1602C197.918 18.9961 198.012 18.75 198.035 18.4219C197.918 18.2344 197.848 18.0938 197.824 18C197.801 17.8828 197.789 17.707 197.789 17.4727C197.273 16.7461 196.828 15.9727 196.453 15.1523C196.078 14.3086 195.656 13.5234 195.188 12.7969C195.141 12.8906 195.059 12.9844 194.941 13.0781C194.824 13.1719 194.695 13.1484 194.555 13.0078C194.508 13.1953 194.426 13.3359 194.309 13.4297C194.191 13.5 194.062 13.5352 193.922 13.5352C193.781 13.5117 193.629 13.4766 193.465 13.4297C193.324 13.3594 193.195 13.2773 193.078 13.1836C192.398 13.7227 191.719 14.25 191.039 14.7656C190.359 15.2812 189.75 15.8789 189.211 16.5586C189.117 16.6055 189.059 16.6289 189.035 16.6289C189.012 16.6055 188.941 16.6172 188.824 16.6641C188.637 17.1094 188.402 17.5195 188.121 17.8945C187.863 18.2461 187.605 18.6094 187.348 18.9844C187.09 19.3594 186.867 19.7578 186.68 20.1797C186.492 20.6016 186.387 21.0938 186.363 21.6562C186.762 21.9844 187.23 22.1836 187.77 22.2539C188.309 22.3242 188.859 22.3359 189.422 22.2891C190.008 22.2422 190.57 22.1719 191.109 22.0781C191.672 21.9609 192.188 21.9023 192.656 21.9023C193.641 21.668 194.484 21.3633 195.188 20.9883C195.891 20.5898 196.629 20.1914 197.402 19.793ZM203.801 11.1797C203.965 10.6875 204.223 10.2656 204.574 9.91406C204.949 9.5625 205.348 9.26953 205.77 9.03516C206.215 8.77734 206.672 8.56641 207.141 8.40234C207.609 8.23828 208.055 8.09766 208.477 7.98047C209.414 7.58203 210.41 7.20703 211.465 6.85547C212.543 6.48047 213.633 6.15234 214.734 5.87109C215.859 5.58984 217.008 5.41406 218.18 5.34375C219.352 5.25 220.582 5.39062 221.871 5.76562C221.941 6 222.047 6.22266 222.188 6.43359C222.328 6.64453 222.469 6.85547 222.609 7.06641C222.773 7.27734 222.914 7.48828 223.031 7.69922C223.148 7.88672 223.219 8.08594 223.242 8.29688C223.477 8.50781 223.664 8.74219 223.805 9C223.945 9.23438 223.969 9.55078 223.875 9.94922C223.641 10.1367 223.406 10.3125 223.172 10.4766C222.961 10.6172 222.727 10.7461 222.469 10.8633C221.602 10.6523 220.723 10.582 219.832 10.6523C218.941 10.7227 218.145 10.7812 217.441 10.8281C217.23 10.6172 216.973 10.5117 216.668 10.5117C216.387 10.5117 216.082 10.5586 215.754 10.6523C215.449 10.7461 215.133 10.8398 214.805 10.9336C214.5 11.0273 214.207 11.0508 213.926 11.0039C213.691 11.1914 213.398 11.3203 213.047 11.3906C212.719 11.4375 212.355 11.4844 211.957 11.5312C211.934 11.6484 211.957 11.7305 212.027 11.7773C212.098 11.8008 212.109 11.8711 212.062 11.9883C212.203 12.1523 212.379 12.2695 212.59 12.3398C212.824 12.4102 213.059 12.4805 213.293 12.5508C213.551 12.6211 213.773 12.7148 213.961 12.832C214.148 12.9258 214.277 13.0898 214.348 13.3242C214.699 13.3242 215.004 13.4062 215.262 13.5703C215.52 13.7344 215.73 13.9336 215.895 14.168C216.059 14.4023 216.176 14.6602 216.246 14.9414C216.34 15.1992 216.387 15.4336 216.387 15.6445C216.457 15.832 216.539 15.9141 216.633 15.8906C216.727 15.8672 216.832 15.9141 216.949 16.0312C217.02 16.3359 217.195 16.6523 217.477 16.9805C217.758 17.2852 217.98 17.625 218.145 18C218.191 18.5859 218.227 19.1133 218.25 19.582C218.273 20.0273 218.191 20.4844 218.004 20.9531C217.652 21.8203 217.16 22.5938 216.527 23.2734C215.918 23.9531 215.215 24.5625 214.418 25.1016C213.645 25.6172 212.812 26.0625 211.922 26.4375C211.031 26.8125 210.164 27.1289 209.32 27.3867C209.227 27.3633 209.133 27.3633 209.039 27.3867C208.945 27.4102 208.922 27.3516 208.969 27.2109C208.781 27.375 208.57 27.4805 208.336 27.5273C208.125 27.5742 207.891 27.5859 207.633 27.5625C207.375 27.5625 207.105 27.5508 206.824 27.5273C206.566 27.5039 206.32 27.5156 206.086 27.5625C205.922 27.3984 205.77 27.2344 205.629 27.0703C205.512 26.9297 205.418 26.7422 205.348 26.5078C205.23 26.5078 205.172 26.4492 205.172 26.332C205.195 26.2148 205.16 26.1562 205.066 26.1562C205.207 25.9219 205.266 25.793 205.242 25.7695C205.242 25.7227 205.207 25.6875 205.137 25.6641C205.09 25.6406 205.043 25.6172 204.996 25.5938C204.949 25.5469 204.938 25.4883 204.961 25.418C205.055 25.2305 205.09 25.0195 205.066 24.7852C205.043 24.5273 205.02 24.2695 204.996 24.0117C204.973 23.7539 204.984 23.5078 205.031 23.2734C205.102 23.0391 205.277 22.8516 205.559 22.7109C206.355 22.8047 207.105 22.7812 207.809 22.6406C208.535 22.4766 209.215 22.2539 209.848 21.9727C210.48 21.6914 211.078 21.3867 211.641 21.0586C212.227 20.7305 212.801 20.4375 213.363 20.1797C213.434 19.9688 213.527 19.793 213.645 19.6523C213.785 19.5117 213.926 19.3828 214.066 19.2656C214.207 19.1484 214.336 19.0195 214.453 18.8789C214.57 18.7383 214.652 18.5625 214.699 18.3516C214.723 18.1875 214.676 18.0938 214.559 18.0703C214.465 18.0234 214.418 17.9297 214.418 17.7891L214.031 17.6836C213.586 17.4258 213.082 17.2148 212.52 17.0508C211.957 16.8633 211.477 16.6641 211.078 16.4531C210.82 16.5938 210.574 16.6289 210.34 16.5586C210.129 16.4883 209.848 16.418 209.496 16.3477C208.699 16.3008 207.926 16.2188 207.176 16.1016C206.449 15.9844 205.746 15.7734 205.066 15.4688C205.02 15.3516 204.961 15.2461 204.891 15.1523C204.82 15.0586 204.691 15.0352 204.504 15.082C204.363 14.8945 204.223 14.7188 204.082 14.5547C203.941 14.3672 203.812 14.168 203.695 13.957C203.742 13.6758 203.777 13.4414 203.801 13.2539C203.824 13.043 203.754 12.8438 203.59 12.6562C203.684 12.3516 203.754 12.1055 203.801 11.918C203.848 11.7305 203.848 11.4844 203.801 11.1797Z" fill="#E52F34"/>
</svg>
