<svg width="125" height="128" viewBox="0 0 125 128" fill="none" xmlns="http://www.w3.org/2000/svg">
<path d="M15.6678 112.071L10.167 95.4707C10.167 95.4707 16.2175 101.521 16.2175 106.486L15.1315 95.0052C15.1315 95.0052 18.2344 99.1941 17.9241 105.555C17.6138 111.916 15.6678 112.071 15.6678 112.071Z" fill="#E6E6E6"/>
<path d="M101.525 119.731C101.534 130.651 79.8761 127.292 53.3613 127.315C26.8466 127.338 5.5159 130.734 5.50647 119.814C5.49705 108.894 27.1474 106.5 53.6621 106.477C80.1769 106.455 101.515 108.811 101.525 119.731Z" fill="#E6E6E6"/>
<path d="M82.9425 104.984H79.476L77.8264 91.6132H82.9425V104.984Z" fill="#A0616A"/>
<path d="M76.615 103.993H83.6854V108.203H72.7908V107.818C72.7908 106.803 73.1937 105.831 73.9109 105.113C74.6281 104.396 75.6008 103.993 76.615 103.993Z" fill="#2F2E41"/>
<path d="M108.422 124.718H104.956L103.306 111.347H108.422V124.718Z" fill="#A0616A"/>
<path d="M102.095 123.728H109.165V127.937H98.2703V127.552C98.2703 126.537 98.6732 125.565 99.3904 124.848C100.108 124.13 101.08 123.728 102.095 123.728Z" fill="#2F2E41"/>
<path d="M124.411 84.9965C124.651 84.7059 124.824 84.3662 124.918 84.0014C125.012 83.6367 125.026 83.2557 124.957 82.8853C124.888 82.515 124.738 82.1642 124.519 81.8578C124.3 81.5514 124.016 81.2968 123.688 81.1119L115.637 48.3151L110.489 50.5299L120.065 82.2416C119.791 82.8136 119.736 83.4663 119.911 84.0759C120.086 84.6856 120.479 85.2099 121.015 85.5495C121.55 85.889 122.192 86.0203 122.818 85.9184C123.444 85.8165 124.011 85.4885 124.411 84.9965Z" fill="#A0616A"/>
<path d="M118.132 18.7135C117.845 18.4131 117.495 18.1794 117.108 18.0288C116.72 17.8782 116.305 17.8143 115.89 17.8418C115.475 17.8692 115.071 17.9873 114.707 18.1876C114.343 18.388 114.027 18.6657 113.782 19.0013L101.32 20.432L103.216 25.2385L114.549 23.1174C115.14 23.4921 115.848 23.6368 116.539 23.5243C117.23 23.4118 117.855 23.0498 118.297 22.507C118.738 21.9641 118.966 21.2781 118.935 20.5789C118.905 19.8798 118.619 19.216 118.132 18.7135Z" fill="#A0616A"/>
<path d="M97.5967 81.5953L103.034 122.406L109.802 121.013C109.802 121.013 108.807 91.2911 112.191 87.7081C115.575 84.1251 107.838 77.8483 107.838 77.8483L97.5967 81.5953Z" fill="#2F2E41"/>
<path d="M99.8449 70.3543L97.3469 74.1013C97.3469 74.1013 78.1123 66.1079 78.1123 78.8475C78.1123 91.5871 77.0117 100.233 76.6135 100.83C76.2154 101.427 81.2193 102.977 83.6079 102.578C83.6079 102.578 86.5548 82.0402 86.3557 80.8459C86.3557 80.8459 105.224 90.0968 108.807 89.3006C112.39 88.5044 113.236 85.6858 113.834 84.0933C114.431 82.5009 113.584 69.8547 113.584 69.8547L101.641 66.2101L99.8449 70.3543Z" fill="#2F2E41"/>
<path d="M100.182 47.8574L99.4699 47.0029C99.4699 47.0029 91.4954 29.0603 94.6282 24.2187C97.7611 19.377 111.432 18.665 111.859 18.9498C112.286 19.2346 110.838 22.9323 111.835 24.6411C111.835 24.6411 101.245 26.9371 100.533 27.2219C99.8212 27.5067 106.02 38.0316 106.02 38.0316L105.308 44.4397L100.182 47.8574Z" fill="#CCCCCC"/>
<path d="M114.137 39.0283C114.137 39.0283 106.732 39.8827 106.448 39.8827C106.163 39.8827 106.02 38.0315 106.02 38.0315L99.4699 47.0028C99.4699 47.0028 96.2427 73.0296 97.0971 72.6024C97.9515 72.1752 113.71 74.6287 113.852 73.4895C113.995 72.3503 113.71 66.6542 114.137 66.3694C114.565 66.0846 121.542 48.4268 121.542 48.4268C121.542 48.4268 120.83 44.7244 118.409 43.4428C115.988 42.1611 114.137 39.0283 114.137 39.0283Z" fill="#CCCCCC"/>
<path d="M119.264 46.006L121.542 48.4268C121.542 48.4268 124.927 76.2444 123.076 77.0988C121.225 77.9532 117.581 77.8482 117.581 77.8482L113.995 64.6606L119.264 46.006Z" fill="#CCCCCC"/>
<path d="M107.022 37.2667C110.641 37.2667 113.576 34.3322 113.576 30.7123C113.576 27.0924 110.641 24.1578 107.022 24.1578C103.402 24.1578 100.467 27.0924 100.467 30.7123C100.467 34.3322 103.402 37.2667 107.022 37.2667Z" fill="#A0616A"/>
<path d="M105.484 31.7351C105.395 30.375 103.679 30.3284 102.316 30.3156C100.954 30.3027 99.3242 30.3513 98.553 29.2276C98.0434 28.4849 98.1407 27.4539 98.5618 26.6577C98.9828 25.8615 99.6753 25.2491 100.357 24.6599C102.116 23.139 103.928 21.63 106.04 20.6565C108.152 19.683 110.626 19.2896 112.817 20.0711C115.507 21.0311 119.144 25.9728 119.458 28.812C119.772 31.6512 118.637 34.5455 116.725 36.6672C114.812 38.7888 110.434 37.9328 107.679 38.6875C109.354 36.317 108.25 32.0098 105.567 30.9028L105.484 31.7351Z" fill="#2F2E41"/>
<path d="M47.0678 116.517C55.7578 116.517 62.8024 109.473 62.8024 100.783C62.8024 92.0928 55.7578 85.0481 47.0678 85.0481C38.3777 85.0481 31.3331 92.0928 31.3331 100.783C31.3331 109.473 38.3777 116.517 47.0678 116.517Z" fill="#E52F34"/>
<path d="M36.5598 83.93C34.3791 83.9302 32.2451 83.2982 30.4161 82.1107C28.5871 80.9232 27.1415 79.2309 26.2543 77.2389L1.28629 21.0111C0.459214 19.1486 0.0217905 17.1366 0.00090689 15.0987C-0.0199767 13.0609 0.37612 11.0404 1.16485 9.16125C1.95358 7.28215 3.11828 5.5842 4.58736 4.17177C6.05644 2.75934 7.79886 1.66228 9.70751 0.948023C11.6162 0.233762 13.6507 -0.082611 15.6862 0.0183542C17.7216 0.119319 19.7149 0.635488 21.5435 1.53513C23.3721 2.43478 24.9973 3.69889 26.3194 5.24977C27.6415 6.80065 28.6325 8.60553 29.2314 10.5535L47.3112 69.3592C47.8288 71.0424 47.9444 72.8236 47.6488 74.5596C47.3531 76.2956 46.6545 77.9381 45.6089 79.3551C44.5634 80.7721 43.2 81.9242 41.6284 82.7187C40.0569 83.5133 38.3208 83.9281 36.5598 83.93H36.5598Z" fill="#E52F34"/>
</svg>
