<svg width="182" height="100" viewBox="0 0 182 100" fill="none" xmlns="http://www.w3.org/2000/svg">
<path opacity="0.1" d="M179.902 92.0444C179.197 93.7858 178.328 95.4566 177.308 97.0344C176.829 97.7868 176.304 98.5087 175.736 99.1958C175.731 99.2028 175.725 99.2092 175.719 99.2148H0.000244141L0.023961 99.1958C0.182074 99.0725 1.1102 98.3215 2.55376 97.0344C3.5894 96.1126 4.88909 94.9142 6.34847 93.4722C18.2844 81.7323 41.2123 53.944 22.117 28.4879C4.36574 4.82317 23.4784 0.528827 36.0863 0.0276095C40.9303 -0.162158 45.7628 0.627845 50.2943 2.35028C56.1192 4.56386 66.7649 7.95696 80.6345 9.51279C81.0899 9.56338 81.5484 9.61398 82.0133 9.65983C89.3563 10.4075 96.7489 10.5418 104.114 10.0614C104.331 10.0488 104.549 10.033 104.769 10.0172C112.055 9.50554 119.286 8.38697 126.386 6.67308C126.846 6.56082 127.3 6.45489 127.752 6.34895C151.41 0.875092 173.221 19.5308 167.767 40.6135C165.751 48.4117 166.264 56.7236 172.985 63.4482C183.99 74.4243 182.657 85.2345 179.902 92.0444Z" fill="#E52F34"/>
<path d="M179.902 92.0445C179.197 93.7859 178.328 95.4566 177.308 97.0345C176.829 97.7869 176.304 98.5087 175.736 99.1959H0.0240479C0.182161 99.0726 1.11028 98.3215 2.55385 97.0345C3.58949 96.1127 4.88917 94.9142 6.34855 93.4722L24.8683 89.6459C25.1076 89.5965 25.3513 89.5716 25.5956 89.5716L45.3391 89.5431H45.3597L55.139 89.5305H55.1611L63.4146 89.521H68.8173H74.3512L97.0277 89.4894H97.0641H98.8207H101.907H105.76H106.785L110.679 89.4451H111.966L123.293 89.4293H126.911H128.65L141.734 89.4119H145.63L158.023 89.3945L168.484 89.3818C168.775 89.382 169.065 89.4165 169.348 89.4846L179.902 92.0445Z" fill="#454B69"/>
<path opacity="0.4" d="M2.55385 97.0343H177.308C176.829 97.7867 176.304 98.5086 175.736 99.1957H0.0240479C0.178998 99.0645 1.10712 98.3134 2.55385 97.0343Z" fill="black"/>
<path d="M115.931 47.8614L115.58 47.9294L99.7123 50.9778C95.1033 51.8632 90.4279 52.7534 85.7462 52.4135C82.3547 52.1668 79.1861 51.1612 75.9274 50.279C74.0854 49.7793 72.1327 49.5801 71.5082 47.5183C70.6465 44.6723 72.0489 40.4586 72.3794 37.5746C72.6956 34.7444 72.8822 31.843 72.3193 29.046C72.1942 28.4175 72.0295 27.7975 71.826 27.1898C71.2615 25.5154 70.3745 23.7745 70.8536 22.0748C71.2315 20.7261 72.3841 19.7632 73.4624 18.8715C75.5748 17.1322 77.7315 15.1827 78.5695 12.5754C78.9806 11.3105 79.058 9.94916 79.5008 8.69374C80.3403 6.30624 82.4496 4.52115 84.796 3.57564C87.1423 2.63012 89.7227 2.42932 92.2541 2.42932C94.4893 2.42945 96.722 2.57787 98.9375 2.87362C101.354 3.18984 103.792 3.71003 105.915 4.90853C108.039 6.10702 109.828 8.07078 110.323 10.4646C111.024 13.8498 109.079 17.4548 110.122 20.7419C110.647 22.4037 111.862 23.7461 112.704 25.2671C113.392 26.5395 113.816 27.9371 113.952 29.3767C114.087 30.8164 113.932 32.2687 113.495 33.6471C112.486 36.773 110.017 39.9352 111.281 42.9662C112.086 44.8936 114.142 45.9229 115.574 47.4503C115.702 47.5873 115.821 47.7244 115.931 47.8614Z" fill="#454B69"/>
<path opacity="0.1" d="M115.58 47.463V47.9294L99.7123 50.9778C95.1033 51.8633 90.4279 52.7534 85.7462 52.4135C82.3547 52.1668 79.1861 51.1613 75.9274 50.279C74.0854 49.7793 72.1327 49.5801 71.5082 47.5183C70.6464 44.6723 72.0489 40.4586 72.3794 37.5746C72.6956 34.7444 77.5639 24.4118 77.001 21.6147L106.094 22.8796C106.29 24.4244 113.979 32.1782 113.5 33.6598C112.491 36.7857 110.021 39.9479 111.286 42.9789C112.093 44.9063 114.148 45.9356 115.58 47.463Z" fill="black"/>
<path d="M85.8554 39.6398C86.0278 40.6185 86.1195 41.6952 85.6199 42.5491C84.9542 43.6938 83.5027 44.059 82.2046 44.3183L77.6984 45.2196C77.3917 45.2812 77.066 45.3508 76.8367 45.5611C76.5663 45.803 76.4746 46.1856 76.4351 46.5461C76.2533 48.1779 76.8304 49.7859 77.3569 51.3401C78.421 54.4881 79.3143 57.7026 80.6599 60.7399C82.0054 63.7773 83.8522 66.677 86.4879 68.7072C89.1236 70.7374 92.6116 71.8189 95.8387 71.0251C98.6499 70.3342 100.955 68.3499 102.943 66.2454C104.582 64.5062 106.116 62.6088 106.911 60.3525C107.46 58.803 107.639 57.1523 107.811 55.5175C108.078 53.0108 108.344 50.5042 108.611 47.9976C108.736 46.8213 108.818 45.4979 108.054 44.595C107.719 44.1982 107.264 43.9341 106.799 43.689C105.069 42.7704 103.248 42.0115 101.638 40.9047C100.029 39.7979 98.6009 38.2737 98.1123 36.3827C97.8198 35.2474 97.872 34.011 97.3739 32.9532C96.8174 31.7673 95.6347 30.9641 94.3698 30.6115C93.1049 30.259 91.7704 30.3064 90.4676 30.4534C89.1647 30.6005 84.1431 30.9768 83.6039 32.4457C83.3146 33.2362 84.5147 34.9328 84.7993 35.7107C85.2677 36.9863 85.6212 38.3012 85.8554 39.6398Z" fill="#EFB7B9"/>
<path opacity="0.1" d="M85.8554 39.6398C86.0278 40.6185 86.1195 41.6952 85.6199 42.5491C84.9542 43.6938 83.5027 44.059 82.2046 44.3183L77.6984 45.2196C77.3917 45.2812 77.066 45.3508 76.8367 45.5611C76.5663 45.803 76.4746 46.1856 76.4351 46.5461C76.2533 48.1779 76.8304 49.7859 77.3569 51.3401C78.421 54.4881 79.3143 57.7026 80.6599 60.7399C82.0054 63.7773 83.8522 66.677 86.4879 68.7072C89.1236 70.7374 92.6116 71.8189 95.8387 71.0251C98.6499 70.3342 100.955 68.3499 102.943 66.2454C104.582 64.5062 106.116 62.6088 106.911 60.3525C107.46 58.803 107.639 57.1523 107.811 55.5175C108.078 53.0108 108.344 50.5042 108.611 47.9976C108.736 46.8213 108.818 45.4979 108.054 44.595C107.719 44.1982 107.264 43.9341 106.799 43.689C105.069 42.7704 103.248 42.0115 101.638 40.9047C100.029 39.7979 98.6009 38.2737 98.1123 36.3827C97.8198 35.2474 97.872 34.011 97.3739 32.9532C96.8174 31.7673 95.6347 30.9641 94.3698 30.6115C93.1049 30.259 91.7704 30.3064 90.4676 30.4534C89.1647 30.6005 84.1431 30.9768 83.6039 32.4457C83.3146 33.2362 84.5147 34.9328 84.7993 35.7107C85.2677 36.9863 85.6212 38.3012 85.8554 39.6398Z" fill="black"/>
<path d="M96.7004 56.8327L99.3424 51.2387C100.58 48.6172 101.845 45.8628 101.714 42.9678C101.689 42.3923 101.682 41.6729 102.188 41.412C102.408 41.3223 102.647 41.2917 102.883 41.3234C105.664 41.4657 108.409 42.0209 111.027 42.971C111.534 43.1544 112.055 43.3663 112.41 43.771C112.766 44.1758 112.91 44.7197 113.032 45.2415C113.447 47.0056 113.749 48.7943 113.938 50.5967C114.412 55.0587 114.177 59.5601 113.938 64.0363L113.236 77.702C113.24 77.8959 113.2 78.0881 113.12 78.2649C112.946 78.5811 112.554 78.687 112.202 78.7471C110.844 78.9795 109.455 78.9321 108.08 78.8799C98.4032 78.5131 88.6761 77.9502 79.0629 79.1234C79.1061 77.7015 79.0834 76.2784 78.9949 74.8544C78.6138 68.7054 77.0201 62.7066 75.4548 56.7489C74.5425 53.2704 73.6586 49.4757 75.1275 46.1981C75.3435 45.6804 75.6539 45.2075 76.0429 44.8035C76.6675 44.1916 77.5197 43.8691 78.364 43.6382C79.8204 43.242 81.3289 43.0714 82.837 43.1322L92.806 64.8364C93.2614 65.8293 93.6361 66.8744 94.0899 67.8547C94.4978 66.1614 94.0077 64.177 94.4978 62.3414C95.0259 60.4361 95.8576 58.6131 96.7004 56.8327Z" fill="white"/>
<path d="M95.6586 71.7665C97.4421 71.8788 99.175 70.9649 100.402 69.6731C101.629 68.3813 102.438 66.7433 103.123 65.0878C104.107 62.7281 104.89 60.2892 105.462 57.7973C105.936 55.6786 106.273 53.4855 105.945 51.3384C105.493 48.3738 103.816 45.6795 103.529 42.6944C103.48 42.1726 103.512 41.5623 103.931 41.2476C104.19 41.0531 104.532 41.0263 104.854 41.0073C107.836 40.8302 111.112 40.8634 113.423 42.756C114.126 43.3315 114.697 44.051 115.385 44.6439C117.023 46.0669 119.337 46.791 120.389 48.6805C120.756 49.3382 120.931 50.083 121.187 50.7913C121.791 52.4673 122.837 53.9409 123.875 55.3908C122.868 59.6409 121.711 63.8941 120.704 68.1442C120.114 70.6376 119.519 73.1405 118.593 75.528C117.986 77.0933 117.222 78.6903 117.409 80.3663C117.483 81.0256 117.703 81.6565 117.894 82.2921C118.565 84.523 118.879 86.8458 118.825 89.1747L73.7094 89.2854C75.8708 86.1864 76.5048 82.3854 76.285 78.6144C76.1791 76.8072 75.7711 74.9889 74.862 73.4251C73.4295 70.9744 70.9092 69.3774 68.4252 68.0098C66.686 67.0611 64.8187 72.399 62.9387 71.7871C63.2423 69.6399 63.3814 61.3516 63.2549 59.1902C63.2138 58.4819 63.1506 57.7546 63.3688 57.0779C63.5174 56.6146 63.7909 56.2003 63.9759 55.7497C64.7175 53.9457 64.0107 51.6388 65.2092 50.1035C66.0377 49.0362 67.4908 48.7327 68.6719 48.0749C69.8846 47.3982 70.8222 46.3357 71.8784 45.4281C73.9508 43.6683 76.4832 42.5377 79.1769 42.1694C79.9627 43.4089 80.4403 44.8185 80.5699 46.2803C80.6505 47.199 80.592 48.1303 80.7201 49.0442C80.8956 50.2822 81.4079 51.4443 81.9154 52.589C84.0294 57.3625 86.1512 62.1501 88.8297 66.6326C89.587 67.8975 90.4108 69.1624 91.5081 70.1475C92.6054 71.1325 94.1849 71.8361 95.6586 71.7665Z" fill="#E52F34"/>
<path opacity="0.1" d="M95.6586 71.7665C97.4421 71.8788 99.175 70.9649 100.402 69.6731C101.629 68.3813 102.438 66.7433 103.123 65.0878C104.107 62.7281 104.89 60.2892 105.462 57.7973C105.936 55.6786 106.273 53.4855 105.945 51.3384C105.493 48.3738 103.816 45.6795 103.529 42.6944C103.48 42.1726 103.512 41.5623 103.931 41.2476C104.19 41.0531 104.532 41.0263 104.854 41.0073C107.836 40.8302 111.112 40.8634 113.423 42.756C114.126 43.3315 114.697 44.051 115.385 44.6439C117.023 46.0669 119.337 46.791 120.389 48.6805C120.756 49.3382 120.931 50.083 121.187 50.7913C121.791 52.4673 122.837 53.9409 123.875 55.3908C122.868 59.6409 121.711 63.8941 120.704 68.1442C120.114 70.6376 119.519 73.1405 118.593 75.528C117.986 77.0933 117.222 78.6903 117.409 80.3663C117.483 81.0256 117.703 81.6565 117.894 82.2921C118.565 84.523 118.879 86.8458 118.825 89.1747L73.7094 89.2854C75.8708 86.1864 76.5048 82.3854 76.285 78.6144C76.1791 76.8072 75.7711 74.9889 74.862 73.4251C73.4295 70.9744 70.9092 69.3774 68.4252 68.0098C66.686 67.0611 64.8187 72.399 62.9387 71.7871C63.2423 69.6399 63.3814 61.3516 63.2549 59.1902C63.2138 58.4819 63.1506 57.7546 63.3688 57.0779C63.5174 56.6146 63.7909 56.2003 63.9759 55.7497C64.7175 53.9457 64.0107 51.6388 65.2092 50.1035C66.0377 49.0362 67.4908 48.7327 68.6719 48.0749C69.8846 47.3982 70.8222 46.3357 71.8784 45.4281C73.9508 43.6683 76.4832 42.5377 79.1769 42.1694C79.9627 43.4089 80.4403 44.8185 80.5699 46.2803C80.6505 47.199 80.592 48.1303 80.7201 49.0442C80.8956 50.2822 81.4079 51.4443 81.9154 52.589C84.0294 57.3625 86.1512 62.1501 88.8297 66.6326C89.587 67.8975 90.4108 69.1624 91.5081 70.1475C92.6054 71.1325 94.1849 71.8361 95.6586 71.7665Z" fill="black"/>
<path d="M93.2724 39.2807C100.758 39.2807 106.826 33.2126 106.826 25.7272C106.826 18.2419 100.758 12.1738 93.2724 12.1738C85.7871 12.1738 79.719 18.2419 79.719 25.7272C79.719 33.2126 85.7871 39.2807 93.2724 39.2807Z" fill="#EFB7B9"/>
<path d="M86.1606 43.7885C86.5322 40.2816 85.0744 36.8505 83.4237 33.7341C82.6331 32.2447 81.7856 30.76 81.3888 29.1235C80.9919 27.4871 81.1057 25.634 82.1208 24.2885C82.9841 23.1437 84.3534 22.5255 85.6199 21.8535C89.1948 19.9562 92.463 17.1671 94.0346 13.4372C93.146 13.921 93.3769 15.3646 94.1611 16.0018C94.9453 16.639 96.0142 16.7623 96.9787 17.0659C100.495 18.1727 102.604 21.6796 104.296 24.9557C104.573 25.4901 104.854 26.0546 104.851 26.657C104.848 27.2594 104.573 27.7938 104.285 28.3061C103.45 29.7924 102.429 31.2201 102.049 32.8819C101.615 34.7792 102.073 36.7746 102.669 38.6356C103.302 40.6152 104.141 42.6105 105.659 44.0304C107.177 45.4503 109.531 46.1554 111.399 45.2384C109.534 42.0334 107.604 38.4522 108.331 34.8188C108.682 33.0795 109.626 31.4984 110.028 29.7686C110.793 26.4688 109.519 23.0742 108.268 19.9246L104.53 10.5248C103.959 9.08752 103.309 7.55382 102 6.73954C101.115 6.19089 100.043 6.04859 99.0057 5.94898C95.6663 5.65173 92.2068 5.74976 89.0983 6.99252C83.4347 9.25512 79.8835 14.8333 77.066 20.2439C76.2216 21.8646 75.3884 23.5864 75.4232 25.4142C75.4421 26.4167 75.722 27.3922 75.9497 28.3694C76.8762 32.3475 76.9268 36.4695 76.9743 40.5535C77.0106 43.6873 76.8478 46.6408 75.4769 49.4948C77.3553 49.8679 80.0796 50.8751 81.939 50.1383C84.3629 49.1801 85.8554 46.2282 86.1606 43.7885Z" fill="#454B69"/>
<g opacity="0.1">
<path opacity="0.1" d="M76.9663 40.4868C76.9726 40.0409 76.9726 39.5908 76.9663 39.1365C76.9189 35.0524 76.8683 30.9304 75.9417 26.9523C75.7348 26.1782 75.5732 25.3926 75.4579 24.5996C75.4254 24.8719 75.4111 25.146 75.4152 25.4202C75.4342 26.4226 75.7141 27.3982 75.9417 28.3753C76.8635 32.3297 76.9205 36.4264 76.9663 40.4868Z" fill="black"/>
<path opacity="0.1" d="M110.028 29.7686C110.235 28.8448 110.305 27.8952 110.233 26.951C110.202 27.4207 110.134 27.887 110.028 28.3456C109.626 30.0848 108.682 31.6517 108.331 33.3957C108.18 34.1649 108.138 34.9516 108.205 35.7326C108.23 35.4259 108.272 35.1208 108.331 34.8187C108.682 33.0748 109.626 31.5015 110.028 29.7686Z" fill="black"/>
<path opacity="0.1" d="M104.728 25.9313C104.805 25.7067 104.847 25.4714 104.851 25.234C104.851 24.6316 104.573 24.0671 104.296 23.5327C102.604 20.2566 100.502 16.7528 96.9788 15.6429C96.0143 15.3393 94.9471 15.216 94.1613 14.5788C93.959 14.4046 93.7936 14.1918 93.6747 13.9529C93.5558 13.714 93.4858 13.4537 93.4687 13.1874C91.7548 16.3338 88.8107 18.7403 85.62 20.4305C84.3551 21.1025 82.9843 21.7207 82.121 22.8655C81.3099 23.9406 81.0743 25.3399 81.215 26.6934C81.2948 25.8247 81.6078 24.9938 82.121 24.2885C82.9843 23.1437 84.3535 22.5255 85.62 21.8535C88.8107 20.1633 91.7548 17.7568 93.4687 14.6104C93.4858 14.8767 93.5558 15.137 93.6747 15.3759C93.7936 15.6149 93.959 15.8276 94.1613 16.0018C94.9518 16.6342 96.0143 16.7623 96.9788 17.0659C100.495 18.1727 102.604 21.6796 104.296 24.9557C104.468 25.2679 104.612 25.5943 104.728 25.9313Z" fill="black"/>
<path opacity="0.1" d="M105.659 42.6072C104.141 41.1842 103.305 39.192 102.669 37.2124C102.288 36.1004 102.033 34.9489 101.91 33.7798C101.763 35.4036 102.166 37.0654 102.669 38.6354C103.302 40.615 104.141 42.6104 105.659 44.0302C107.177 45.4501 109.531 46.1553 111.399 45.2382C111.174 44.854 110.951 44.4635 110.73 44.0698C108.995 44.5583 107.003 43.8626 105.659 42.6072Z" fill="black"/>
<path opacity="0.1" d="M86.1607 42.3653C85.8555 44.805 84.363 47.7569 81.9328 48.7214C80.2457 49.3903 77.844 48.6218 76.0114 48.1965C75.8537 48.6403 75.6733 49.0757 75.4707 49.5009C77.3491 49.8741 80.0734 50.8813 81.9328 50.1444C84.363 49.18 85.8555 46.228 86.1607 43.7883C86.2236 43.1779 86.2352 42.5634 86.1955 41.951C86.186 42.0886 86.1718 42.2277 86.1607 42.3653Z" fill="black"/>
</g>
<path d="M105.319 81.5681C102.876 81.1807 100.397 80.4328 97.9748 80.9356C96.5707 81.2266 95.2869 81.9254 94.12 82.7698C94.7619 83.2836 95.5114 83.7421 95.9193 84.4568C96.1725 84.9513 96.3627 85.4756 96.4854 86.0174C96.7415 86.9661 96.9992 87.9337 97.0387 88.9203C97.0783 89.907 96.8806 90.9347 96.2925 91.73C99.3725 92.0336 102.358 91.2746 105.362 90.5331C105.705 90.4728 106.032 90.3408 106.322 90.1457C106.796 89.7726 106.935 89.1085 106.938 88.5029C106.938 87.4214 106.635 86.3668 106.326 85.3296C105.959 84.0852 105.688 82.8045 105.319 81.5681Z" fill="white"/>
<path d="M121.813 54.899C123.026 55.0571 123.967 56.0358 124.659 57.0414C126.603 59.84 127.441 63.2331 128.373 66.5108C129.533 70.587 130.896 74.5988 132.464 78.5463C132.801 79.458 133.212 80.341 133.691 81.1868C134.081 81.8398 134.556 82.4675 134.728 83.2091C135.145 85.0021 133.667 86.6876 132.125 87.6868C131.304 88.2407 130.406 88.6731 129.461 88.9707C128.541 89.2458 127.581 89.3502 126.628 89.4545L117.851 90.4032C113.811 90.8428 109.735 91.2823 105.694 90.8586C105.439 89.9731 105.939 89.347 105.903 88.4252C105.877 87.7659 105.586 87.1524 105.327 86.5453C104.849 85.4639 104.533 84.3179 104.389 83.1443C104.344 82.7126 104.328 82.2699 104.163 81.8683C103.999 81.4667 103.646 81.1062 103.215 81.0777C105.586 80.8421 107.387 80.3947 109.759 80.1575C110.64 80.069 111.555 79.9694 112.306 79.5013C113.237 78.9211 113.759 77.8744 114.173 76.8593C115.2 74.3453 115.86 71.5752 115.321 68.9125C114.879 66.729 113.644 64.6957 113.65 62.4679C113.65 61.1413 114.102 59.8558 114.637 58.6415C115.203 57.3577 115.941 56.0453 117.184 55.3939C118.427 54.7425 120.411 54.7093 121.813 54.899Z" fill="#E52F34"/>
<path opacity="0.08" d="M121.813 54.899C123.026 55.0571 123.967 56.0358 124.659 57.0414C126.603 59.84 127.441 63.2331 128.373 66.5108C129.533 70.587 130.896 74.5988 132.464 78.5463C132.801 79.458 133.212 80.341 133.691 81.1868C134.081 81.8398 134.556 82.4675 134.728 83.2091C135.145 85.0021 133.667 86.6876 132.125 87.6868C131.304 88.2407 130.406 88.6731 129.461 88.9707C128.541 89.2458 127.581 89.3502 126.628 89.4545L117.851 90.4032C113.811 90.8428 109.735 91.2823 105.694 90.8586C105.439 89.9731 105.939 89.347 105.903 88.4252C105.877 87.7659 105.586 87.1524 105.327 86.5453C104.849 85.4639 104.533 84.3179 104.389 83.1443C104.344 82.7126 104.328 82.2699 104.163 81.8683C103.999 81.4667 103.646 81.1062 103.215 81.0777C105.586 80.8421 107.387 80.3947 109.759 80.1575C110.64 80.069 111.555 79.9694 112.306 79.5013C113.237 78.9211 113.759 77.8744 114.173 76.8593C115.2 74.3453 115.86 71.5752 115.321 68.9125C114.879 66.729 113.644 64.6957 113.65 62.4679C113.65 61.1413 114.102 59.8558 114.637 58.6415C115.203 57.3577 115.941 56.0453 117.184 55.3939C118.427 54.7425 120.411 54.7093 121.813 54.899Z" fill="black"/>
<path d="M66.8519 52.8453C67.4259 51.4823 68.0093 50.0751 68.0251 48.5968C68.0425 46.9982 67.3927 45.4804 66.8962 43.9625C66.2822 42.1053 65.8735 40.1865 65.6772 38.2404C65.6364 38.054 65.6645 37.8591 65.7562 37.6917C65.8874 37.5067 66.1404 37.4688 66.3634 37.4198C67.4575 37.17 68.2844 36.2861 68.9675 35.3959C70.0272 34.0212 70.9219 32.5268 71.6333 30.9435C72.1566 29.7782 72.865 28.3568 74.1425 28.3457C73.6282 30.7616 72.9907 33.1495 72.2325 35.5003C73.5686 35.1588 74.8382 34.6623 76.1742 34.3208C76.4358 34.2382 76.7097 34.2018 76.9838 34.2133C77.7838 34.2971 78.274 35.3801 77.8091 36.0363C78.4621 36.8016 79.5484 37.0071 80.4022 37.532C81.256 38.057 81.8695 39.3567 81.1105 40.016C80.9619 40.1441 80.7737 40.2342 80.6662 40.3986C80.2994 40.9647 81.1975 41.6145 81.1232 42.2849C81.0631 42.8336 80.3595 43.0897 79.8267 42.9442C79.2938 42.7988 78.878 42.4003 78.4036 42.1078C77.9293 41.8153 77.3095 41.6335 76.8494 41.9371C76.7261 43.4249 76.5932 44.9412 75.9497 46.2962C75.7141 46.7911 75.4121 47.2544 75.2224 47.7683C75.0409 48.3286 74.9284 48.9089 74.8872 49.4964L74.3133 54.7442C71.5748 55.2928 69.1193 54.4722 66.8519 52.8453Z" fill="#EFB7B9"/>
<path d="M66.1832 57.5491L65.6788 54.1355C65.6306 53.8576 65.6036 53.5763 65.5981 53.2943C65.5981 52.5038 65.946 51.7496 66.2828 51.0302C69.0735 52.333 72.0902 52.7963 75.1687 52.7978C75.5751 52.7978 76.0383 52.7599 76.2913 52.4421C76.8147 53.0445 76.8305 54.0137 76.6075 54.779C76.3846 55.5443 75.9561 56.2336 75.6715 56.9799C75.5276 57.3578 75.4106 57.7705 75.1355 58.0614C74.7086 58.5215 74.0161 58.6006 73.3868 58.5974C72.7248 58.5932 72.0644 58.5303 71.4135 58.4093C69.728 58.0962 67.8686 57.2471 66.1832 57.5491Z" fill="white"/>
<path d="M76.5916 57.4099C74.4255 57.1632 72.2735 56.8154 70.1359 56.3663C69.0876 56.1466 68.0298 55.9015 66.961 55.9442C66.2653 55.9726 65.5174 56.1118 64.9055 55.7671C65.5016 57.7957 65.5379 59.9334 64.8249 61.924C64.4027 63.1098 63.7592 64.2151 63.4493 65.4357C62.8042 67.9892 63.6896 70.7736 62.8832 73.2812C62.798 73.6089 62.6303 73.9094 62.3963 74.154C62.1496 74.3801 61.8128 74.4971 61.5851 74.7422C61.2499 75.1027 61.2294 75.645 61.2278 76.1367L61.2136 80.4927C61.2041 83.266 61.2404 86.2069 62.7046 88.5565C64.3742 91.2444 67.8891 92.6374 70.9486 91.8199C71.762 91.6119 72.5241 91.239 73.1874 90.7242C74.25 89.8799 74.9267 88.6593 75.5892 87.4703C76.3797 86.0472 77.1703 84.5926 77.4249 82.9909C77.6051 81.8573 77.5039 80.6999 77.3743 79.5599C76.6596 73.2354 75.1085 66.9646 75.4421 60.6164C75.4921 59.4559 75.8929 58.3378 76.5916 57.4099Z" fill="#E52F34"/>
<path d="M85.6451 83.6568C84.5462 83.72 83.4395 83.7833 82.3453 83.6568C81.5547 83.5619 80.7832 83.3674 79.9989 83.2346C77.8572 82.8887 75.6659 83.0103 73.5756 83.5911C71.4853 84.1719 69.5454 85.1981 67.8891 86.5992C67.2819 87.1179 66.6684 87.9132 67.0036 88.6389C67.3641 89.42 68.4662 89.3978 69.3153 89.2524C68.3988 89.6901 67.5893 90.3231 66.9436 91.107C66.7064 91.3964 66.4819 91.7395 66.5277 92.1142C66.6242 92.8969 67.6867 93.0392 68.4725 92.9712C68.2164 93.2463 68.3887 93.7333 68.7144 93.9199C69.0401 94.1064 69.4449 94.0685 69.8133 94.0005C70.6278 93.8514 71.4147 93.5789 72.147 93.1925C71.9984 93.5799 72.2561 94.0337 72.6214 94.2266C72.9866 94.4195 73.4309 94.4053 73.8404 94.3389C75.7726 94.0226 77.3853 92.6787 79.27 92.1506C82.2836 91.3078 85.4364 92.6518 88.5686 92.7467C89.5489 92.7767 90.5545 92.6771 91.4479 92.2723C92.5436 91.7743 93.4274 90.8398 94.5848 90.5078C95.8703 90.141 97.3455 90.5631 98.5218 89.9291C99.3772 89.469 98.6056 85.9225 98.3874 85.2395C97.9874 83.9904 97.5858 83.1619 96.2529 83.0354C92.8804 82.7049 89.043 83.4607 85.6451 83.6568Z" fill="#EFB7B9"/>
<path d="M94.0583 82.6888C94.0583 82.6888 99.1638 87.01 96.2182 91.7249L101.91 89.7596V85.6344C101.91 85.4383 99.7488 82.4927 99.7488 82.4927L97.1953 82.099L94.0583 82.6888Z" fill="white"/>
<path d="M40.6019 82.4218H42.5166C43.565 82.4218 44.5704 82.8382 45.3117 83.5795C46.053 84.3208 46.4694 85.3262 46.4694 86.3746V92.2421H36.649V86.3746C36.649 85.8555 36.7513 85.3415 36.9499 84.8619C37.1486 84.3823 37.4397 83.9466 37.8068 83.5795C38.1739 83.2125 38.6096 82.9213 39.0892 82.7226C39.5688 82.524 40.0828 82.4218 40.6019 82.4218Z" fill="#3F3D56"/>
<path opacity="0.1" d="M40.6019 82.4218H42.5166C43.565 82.4218 44.5704 82.8382 45.3117 83.5795C46.053 84.3208 46.4694 85.3262 46.4694 86.3746V92.2421H36.649V86.3746C36.649 85.8555 36.7513 85.3415 36.9499 84.8619C37.1486 84.3823 37.4397 83.9466 37.8068 83.5795C38.1739 83.2125 38.6096 82.9213 39.0892 82.7226C39.5688 82.524 40.0828 82.4218 40.6019 82.4218Z" fill="black"/>
<path d="M41.1664 84.5814C41.6004 84.5814 41.9523 84.2296 41.9523 83.7956C41.9523 83.3616 41.6004 83.0098 41.1664 83.0098C40.7324 83.0098 40.3806 83.3616 40.3806 83.7956C40.3806 84.2296 40.7324 84.5814 41.1664 84.5814Z" fill="#3F3D56"/>
<path d="M41.1664 83.5997C41.6004 83.5997 41.9523 83.2479 41.9523 82.8139C41.9523 82.3799 41.6004 82.0281 41.1664 82.0281C40.7324 82.0281 40.3806 82.3799 40.3806 82.8139C40.3806 83.2479 40.7324 83.5997 41.1664 83.5997Z" fill="#3F3D56"/>
<path d="M41.1664 82.6179C41.6004 82.6179 41.9523 82.2661 41.9523 81.8321C41.9523 81.3981 41.6004 81.0463 41.1664 81.0463C40.7324 81.0463 40.3806 81.3981 40.3806 81.8321C40.3806 82.2661 40.7324 82.6179 41.1664 82.6179Z" fill="#3F3D56"/>
<path d="M41.1664 81.6357C41.6004 81.6357 41.9523 81.2839 41.9523 80.8499C41.9523 80.4159 41.6004 80.0641 41.1664 80.0641C40.7324 80.0641 40.3806 80.4159 40.3806 80.8499C40.3806 81.2839 40.7324 81.6357 41.1664 81.6357Z" fill="#3F3D56"/>
<path d="M41.1664 80.6539C41.6004 80.6539 41.9523 80.3021 41.9523 79.8681C41.9523 79.4341 41.6004 79.0823 41.1664 79.0823C40.7324 79.0823 40.3806 79.4341 40.3806 79.8681C40.3806 80.3021 40.7324 80.6539 41.1664 80.6539Z" fill="#3F3D56"/>
<path d="M41.1664 79.6721C41.6004 79.6721 41.9523 79.3203 41.9523 78.8863C41.9523 78.4523 41.6004 78.1005 41.1664 78.1005C40.7324 78.1005 40.3806 78.4523 40.3806 78.8863C40.3806 79.3203 40.7324 79.6721 41.1664 79.6721Z" fill="#3F3D56"/>
<path d="M41.1664 78.6887C41.6004 78.6887 41.9523 78.3369 41.9523 77.9029C41.9523 77.4689 41.6004 77.1171 41.1664 77.1171C40.7324 77.1171 40.3806 77.4689 40.3806 77.9029C40.3806 78.3369 40.7324 78.6887 41.1664 78.6887Z" fill="#3F3D56"/>
<path d="M42.3458 79.0824C42.7798 79.0824 43.1316 78.7306 43.1316 78.2966C43.1316 77.8626 42.7798 77.5107 42.3458 77.5107C41.9118 77.5107 41.5599 77.8626 41.5599 78.2966C41.5599 78.7306 41.9118 79.0824 42.3458 79.0824Z" fill="#3F3D56"/>
<path d="M43.1319 78.6887C43.5659 78.6887 43.9177 78.3369 43.9177 77.9029C43.9177 77.4689 43.5659 77.1171 43.1319 77.1171C42.6979 77.1171 42.3461 77.4689 42.3461 77.9029C42.3461 78.3369 42.6979 78.6887 43.1319 78.6887Z" fill="#3F3D56"/>
<path d="M43.9175 78.2965C44.3515 78.2965 44.7034 77.9447 44.7034 77.5107C44.7034 77.0767 44.3515 76.7249 43.9175 76.7249C43.4835 76.7249 43.1317 77.0767 43.1317 77.5107C43.1317 77.9447 43.4835 78.2965 43.9175 78.2965Z" fill="#3F3D56"/>
<path d="M41.1664 77.7069C41.6004 77.7069 41.9523 77.3551 41.9523 76.9211C41.9523 76.4871 41.6004 76.1353 41.1664 76.1353C40.7324 76.1353 40.3806 76.4871 40.3806 76.9211C40.3806 77.3551 40.7324 77.7069 41.1664 77.7069Z" fill="#3F3D56"/>
<path d="M41.1664 76.725C41.6004 76.725 41.9523 76.3731 41.9523 75.9391C41.9523 75.5051 41.6004 75.1533 41.1664 75.1533C40.7324 75.1533 40.3806 75.5051 40.3806 75.9391C40.3806 76.3731 40.7324 76.725 41.1664 76.725Z" fill="#3F3D56"/>
<path d="M41.1664 75.743C41.6004 75.743 41.9523 75.3912 41.9523 74.9572C41.9523 74.5232 41.6004 74.1714 41.1664 74.1714C40.7324 74.1714 40.3806 74.5232 40.3806 74.9572C40.3806 75.3912 40.7324 75.743 41.1664 75.743Z" fill="#3F3D56"/>
<path d="M41.1664 74.761C41.6004 74.761 41.9523 74.4091 41.9523 73.9752C41.9523 73.5412 41.6004 73.1893 41.1664 73.1893C40.7324 73.1893 40.3806 73.5412 40.3806 73.9752C40.3806 74.4091 40.7324 74.761 41.1664 74.761Z" fill="#3F3D56"/>
<path d="M44.4301 71.4405C44.234 71.469 44.0379 71.4895 43.8419 71.5022C44.0242 71.3431 44.1934 71.1697 44.3478 70.9836C44.239 70.6534 44.0789 70.3423 43.8735 70.0618C43.6787 70.1712 43.4634 70.239 43.2411 70.261C43.0466 70.2895 42.8505 70.31 42.6545 70.3242C42.9122 70.114 43.1525 69.7977 43.4055 69.5337C42.8387 69.02 42.1125 68.7166 41.3487 68.6745C40.5849 68.6324 39.8298 68.854 39.21 69.3023C38.5901 69.7506 38.1431 70.3983 37.9439 71.1369C37.7448 71.8755 37.8054 72.6601 38.1158 73.3593C38.4262 74.0585 38.9675 74.6297 39.6489 74.9774C40.3303 75.325 41.1105 75.4279 41.8588 75.2689C42.607 75.1098 43.2779 74.6984 43.759 74.1036C44.24 73.5088 44.5021 72.7668 44.5012 72.0018C44.5013 71.8094 44.4843 71.6173 44.4506 71.4279L44.4301 71.4405Z" fill="#E52F34"/>
<path d="M47.0498 75.3447C46.8494 75.468 46.6232 75.5432 46.3889 75.5645C46.1944 75.5929 45.9984 75.6151 45.8023 75.6277C46.0107 75.4408 46.2052 75.2389 46.3842 75.0237C45.9104 74.9002 45.4076 74.9578 44.974 75.1853C44.5405 75.4128 44.2073 75.7938 44.0398 76.2539C43.8722 76.714 43.8823 77.22 44.068 77.673C44.2537 78.1261 44.6017 78.4935 45.0439 78.7036C45.4862 78.9137 45.9909 78.9513 46.4594 78.8091C46.9279 78.6668 47.3265 78.355 47.5773 77.9344C47.8281 77.5139 47.913 77.015 47.8154 76.5352C47.7179 76.0553 47.4449 75.6292 47.0498 75.3399V75.3447Z" fill="#E52F34"/>
<path d="M39.9886 79.0824C40.4226 79.0824 40.7744 78.7306 40.7744 78.2966C40.7744 77.8626 40.4226 77.5107 39.9886 77.5107C39.5546 77.5107 39.2028 77.8626 39.2028 78.2966C39.2028 78.7306 39.5546 79.0824 39.9886 79.0824Z" fill="#3F3D56"/>
<path d="M39.2028 78.6887C39.6368 78.6887 39.9886 78.3369 39.9886 77.9029C39.9886 77.4689 39.6368 77.1171 39.2028 77.1171C38.7688 77.1171 38.417 77.4689 38.417 77.9029C38.417 78.3369 38.7688 78.6887 39.2028 78.6887Z" fill="#3F3D56"/>
<path d="M38.4168 78.2965C38.8508 78.2965 39.2026 77.9447 39.2026 77.5107C39.2026 77.0767 38.8508 76.7249 38.4168 76.7249C37.9828 76.7249 37.631 77.0767 37.631 77.5107C37.631 77.9447 37.9828 78.2965 38.4168 78.2965Z" fill="#3F3D56"/>
<path d="M35.2846 75.3447C35.485 75.468 35.7112 75.5432 35.9456 75.5645C36.14 75.5929 36.3361 75.6151 36.5322 75.6277C36.3234 75.4412 36.1289 75.2393 35.9503 75.0237C36.4241 74.9002 36.9269 74.9578 37.3605 75.1853C37.794 75.4128 38.1271 75.7938 38.2947 76.2539C38.4623 76.714 38.4522 77.22 38.2665 77.673C38.0808 78.1261 37.7328 78.4935 37.2905 78.7036C36.8483 78.9137 36.3436 78.9513 35.8751 78.8091C35.4066 78.6668 35.008 78.355 34.7572 77.9344C34.5064 77.5139 34.4215 77.015 34.519 76.5352C34.6166 76.0553 34.8896 75.6292 35.2846 75.3399V75.3447Z" fill="#E52F34"/>
<path d="M40.602 83.0037H42.5167C43.5651 83.0037 44.5705 83.4201 45.3118 84.1614C46.0531 84.9027 46.4695 85.9081 46.4695 86.9565V92.1536C46.4695 92.3314 46.3989 92.502 46.2732 92.6277C46.1475 92.7534 45.9769 92.824 45.7991 92.824H37.3148C37.137 92.824 36.9665 92.7534 36.8408 92.6277C36.715 92.502 36.6444 92.3314 36.6444 92.1536V86.9565C36.6444 86.437 36.7468 85.9226 36.9458 85.4427C37.1447 84.9628 37.4363 84.5269 37.8038 84.1597C38.1714 83.7926 38.6077 83.5016 39.0878 83.3032C39.568 83.1048 40.0825 83.003 40.602 83.0037Z" fill="#3F3D56"/>
<g opacity="0.1">
<path opacity="0.1" d="M44.4834 71.6558C44.4039 71.7407 44.3194 71.821 44.2305 71.8961C44.3206 71.8961 44.4091 71.8819 44.4993 71.8724C44.4961 71.7996 44.4914 71.7269 44.4834 71.6558Z" fill="black"/>
<path opacity="0.1" d="M43.0511 70.7166C43.2488 70.704 43.4433 70.6834 43.6393 70.6549C43.8152 70.6326 43.9871 70.5858 44.15 70.5158C44.0701 70.3577 43.9781 70.206 43.8749 70.062C43.7766 70.1219 43.67 70.1672 43.5587 70.1964C43.4036 70.3831 43.2339 70.557 43.0511 70.7166Z" fill="black"/>
<path opacity="0.1" d="M38.2208 72.4037C38.2196 71.8043 38.3801 71.2156 38.6854 70.6997C38.9907 70.1838 39.4294 69.7598 39.9555 69.4724C40.4815 69.1849 41.0753 69.0447 41.6744 69.0663C42.2734 69.088 42.8556 69.2709 43.3594 69.5956L43.41 69.5419C43.0812 69.2493 42.6977 69.0247 42.2817 68.881C41.8656 68.7372 41.4253 68.6773 40.9859 68.7045C40.5466 68.7318 40.117 68.8457 39.7219 69.0397C39.3268 69.2337 38.974 69.5039 38.6839 69.8349C38.3937 70.1659 38.1719 70.551 38.0312 70.9681C37.8905 71.3851 37.8337 71.8259 37.8642 72.265C37.8946 72.7041 38.0117 73.1329 38.2085 73.5265C38.4054 73.9202 38.6783 74.271 39.0113 74.5588C38.5 73.9573 38.2197 73.1932 38.2208 72.4037Z" fill="black"/>
</g>
<g opacity="0.1">
<path opacity="0.1" d="M45.8021 76.0196C45.9982 76.007 46.1942 75.9864 46.3887 75.9579C46.6232 75.9361 46.8494 75.8604 47.0496 75.7366C47.2716 75.9001 47.4567 76.1085 47.5929 76.3482C47.7291 76.5879 47.8134 76.8536 47.8402 77.128C47.8479 77.0592 47.8516 76.99 47.8513 76.9208C47.8528 76.6138 47.782 76.3106 47.6446 76.036C47.5073 75.7613 47.3073 75.5228 47.0607 75.3397C46.8603 75.463 46.6341 75.5382 46.3998 75.5595L46.2417 75.5801C46.1067 75.7377 45.9598 75.8847 45.8021 76.0196Z" fill="black"/>
<path opacity="0.1" d="M45.8812 75.3494C45.9468 75.3501 46.0123 75.3549 46.0773 75.3636C46.1801 75.2545 46.2813 75.1375 46.384 75.0237C46.0934 74.946 45.7887 74.9363 45.4937 74.9953C45.1987 75.0543 44.9212 75.1804 44.6827 75.3639C44.4442 75.5473 44.2511 75.7832 44.1185 76.0532C43.9858 76.3232 43.917 76.6202 43.9175 76.921C43.9175 76.9874 43.9175 77.0523 43.927 77.1171C43.9756 76.6326 44.2025 76.1834 44.5636 75.8568C44.9247 75.5301 45.3943 75.3493 45.8812 75.3494Z" fill="black"/>
</g>
<g opacity="0.1">
<path opacity="0.1" d="M36.5322 76.0199C36.3361 76.0072 36.1401 75.9867 35.9456 75.9582C35.7112 75.9364 35.485 75.8606 35.2847 75.7368C35.0627 75.9003 34.8776 76.1087 34.7414 76.3484C34.6052 76.5881 34.5209 76.8538 34.4941 77.1282C34.4865 77.0594 34.4828 76.9903 34.4831 76.9211C34.4816 76.614 34.5523 76.3109 34.6897 76.0362C34.827 75.7615 35.0271 75.523 35.2736 75.34C35.474 75.4633 35.7002 75.5385 35.9345 75.5597L36.0926 75.5803C36.2267 75.7388 36.3737 75.8858 36.5322 76.0199Z" fill="black"/>
<path opacity="0.1" d="M36.4531 75.3494C36.387 75.3502 36.321 75.355 36.2555 75.3636C36.1543 75.2545 36.0531 75.1375 35.9503 75.0237C36.241 74.946 36.5456 74.9363 36.8407 74.9953C37.1357 75.0543 37.4132 75.1804 37.6517 75.3639C37.8902 75.5473 38.0832 75.7832 38.2159 76.0532C38.3486 76.3232 38.4174 76.6202 38.4169 76.921C38.4169 76.9874 38.4169 77.0523 38.4074 77.1171C38.3588 76.6326 38.1319 76.1834 37.7708 75.8568C37.4096 75.5301 36.9401 75.3493 36.4531 75.3494Z" fill="black"/>
</g>
<path d="M31.1248 94.7246H15.6772C15.5031 94.7246 15.3362 94.6555 15.2132 94.5324C15.0901 94.4093 15.021 94.2424 15.021 94.0684V86.7573C15.021 86.6466 15.049 86.5376 15.1024 86.4406C15.1558 86.3436 15.2329 86.2617 15.3265 86.2025C15.42 86.1434 15.5271 86.1088 15.6376 86.1021C15.7482 86.0955 15.8586 86.1169 15.9586 86.1644C20.3968 88.2704 25.1782 88.993 30.8212 86.1976C30.9212 86.1482 31.0322 86.1252 31.1436 86.1305C31.255 86.1358 31.3632 86.1694 31.458 86.228C31.5529 86.2867 31.6313 86.3685 31.6858 86.4658C31.7404 86.5631 31.7693 86.6726 31.7699 86.7842V94.0574C31.7713 94.1435 31.7558 94.2291 31.7242 94.3093C31.6926 94.3895 31.6454 94.4626 31.5855 94.5246C31.5256 94.5866 31.4541 94.6361 31.375 94.6704C31.296 94.7047 31.2109 94.7232 31.1248 94.7246Z" fill="#E52F34"/>
<path opacity="0.1" d="M31.1248 94.7246H15.6772C15.5031 94.7246 15.3362 94.6555 15.2132 94.5324C15.0901 94.4093 15.021 94.2424 15.021 94.0684V86.7573C15.021 86.6466 15.049 86.5376 15.1024 86.4406C15.1558 86.3436 15.2329 86.2617 15.3265 86.2025C15.42 86.1434 15.5271 86.1088 15.6376 86.1021C15.7482 86.0955 15.8586 86.1169 15.9586 86.1644C20.3968 88.2704 25.1782 88.993 30.8212 86.1976C30.9212 86.1482 31.0322 86.1252 31.1436 86.1305C31.255 86.1358 31.3632 86.1694 31.458 86.228C31.5529 86.2867 31.6313 86.3685 31.6858 86.4658C31.7404 86.5631 31.7693 86.6726 31.7699 86.7842V94.0574C31.7713 94.1435 31.7558 94.2291 31.7242 94.3093C31.6926 94.3895 31.6454 94.4626 31.5855 94.5246C31.5256 94.5866 31.4541 94.6361 31.375 94.6704C31.296 94.7047 31.2109 94.7232 31.1248 94.7246Z" fill="black"/>
<path d="M23.2933 89.1666C23.798 89.1666 24.2072 88.6308 24.2072 87.9697C24.2072 87.3087 23.798 86.7728 23.2933 86.7728C22.7886 86.7728 22.3794 87.3087 22.3794 87.9697C22.3794 88.6308 22.7886 89.1666 23.2933 89.1666Z" fill="#3F3D56"/>
<path d="M23.2933 87.7041C23.798 87.7041 24.2072 87.1682 24.2072 86.5072C24.2072 85.8462 23.798 85.3103 23.2933 85.3103C22.7886 85.3103 22.3794 85.8462 22.3794 86.5072C22.3794 87.1682 22.7886 87.7041 23.2933 87.7041Z" fill="#3F3D56"/>
<path d="M23.2933 86.24C23.798 86.24 24.2072 85.7041 24.2072 85.0431C24.2072 84.3821 23.798 83.8462 23.2933 83.8462C22.7886 83.8462 22.3794 84.3821 22.3794 85.0431C22.3794 85.7041 22.7886 86.24 23.2933 86.24Z" fill="#3F3D56"/>
<path d="M23.2933 84.7777C23.798 84.7777 24.2072 84.2419 24.2072 83.5808C24.2072 82.9198 23.798 82.3839 23.2933 82.3839C22.7886 82.3839 22.3794 82.9198 22.3794 83.5808C22.3794 84.2419 22.7886 84.7777 23.2933 84.7777Z" fill="#3F3D56"/>
<path d="M23.2933 83.3134C23.798 83.3134 24.2072 82.7775 24.2072 82.1165C24.2072 81.4554 23.798 80.9196 23.2933 80.9196C22.7886 80.9196 22.3794 81.4554 22.3794 82.1165C22.3794 82.7775 22.7886 83.3134 23.2933 83.3134Z" fill="#3F3D56"/>
<path d="M23.2933 81.8493C23.798 81.8493 24.2072 81.3134 24.2072 80.6524C24.2072 79.9913 23.798 79.4554 23.2933 79.4554C22.7886 79.4554 22.3794 79.9913 22.3794 80.6524C22.3794 81.3134 22.7886 81.8493 23.2933 81.8493Z" fill="#3F3D56"/>
<path d="M23.2933 80.3866C23.798 80.3866 24.2072 79.8507 24.2072 79.1897C24.2072 78.5287 23.798 77.9928 23.2933 77.9928C22.7886 77.9928 22.3794 78.5287 22.3794 79.1897C22.3794 79.8507 22.7886 80.3866 23.2933 80.3866Z" fill="#3F3D56"/>
<path d="M26.7213 69.175C26.8454 69.0155 26.959 68.8481 27.0613 68.6738L24.658 68.2785L27.2573 68.2975C27.5081 67.7541 27.6449 67.1652 27.6594 66.5669C27.6738 65.9686 27.5655 65.3738 27.3411 64.819L23.8548 66.6278L27.0708 64.2561C26.7696 63.7353 26.3645 63.2822 25.8806 62.9248C25.3966 62.5674 24.8443 62.3136 24.258 62.179C23.6716 62.0445 23.0639 62.0321 22.4726 62.1426C21.8813 62.2532 21.319 62.4844 20.821 62.8217C20.3229 63.1591 19.8996 63.5954 19.5775 64.1035C19.2554 64.6115 19.0414 65.1805 18.9488 65.7749C18.8562 66.3693 18.887 66.9764 19.0393 67.5584C19.1916 68.1403 19.4621 68.6847 19.8339 69.1576C19.6386 69.4046 19.471 69.6724 19.3343 69.9561L22.4523 71.5941L19.1319 70.4715C18.8992 71.1615 18.8419 71.8987 18.9653 72.6164C19.0887 73.3341 19.3889 74.0097 19.8387 74.5824C19.3304 75.2287 19.0142 76.005 18.9262 76.8225C18.8383 77.64 18.9821 78.4657 19.3414 79.2053C19.7006 79.9449 20.2607 80.5685 20.9576 81.0047C21.6545 81.441 22.4602 81.6724 23.2824 81.6724C24.1046 81.6724 24.9102 81.441 25.6072 81.0047C26.3041 80.5685 26.8642 79.9449 27.2234 79.2053C27.5826 78.4657 27.7265 77.64 27.6386 76.8225C27.5506 76.005 27.2344 75.2287 26.7261 74.5824C27.3334 73.8103 27.6635 72.8564 27.6635 71.874C27.6635 70.8916 27.3334 69.9377 26.7261 69.1655L26.7213 69.175Z" fill="#E52F34"/>
<path opacity="0.1" d="M18.8932 71.8835C18.8918 72.8662 19.2221 73.8205 19.8308 74.592C19.3225 75.2382 19.0063 76.0145 18.9183 76.832C18.8304 77.6495 18.9742 78.4753 19.3335 79.2148C19.6927 79.9544 20.2528 80.578 20.9497 81.0143C21.6467 81.4506 22.4523 81.6819 23.2745 81.6819C24.0967 81.6819 24.9023 81.4506 25.5993 81.0143C26.2962 80.578 26.8563 79.9544 27.2155 79.2148C27.5747 78.4753 27.7186 77.6495 27.6307 76.832C27.5427 76.0145 27.2265 75.2382 26.7182 74.592C27.3048 73.8473 18.8932 71.3918 18.8932 71.8835Z" fill="black"/>
<path d="M31.1248 95.112H15.6772C15.5031 95.112 15.3362 95.0428 15.2132 94.9198C15.0901 94.7967 15.021 94.6298 15.021 94.4558V86.7573C15.021 86.6466 15.049 86.5376 15.1024 86.4406C15.1558 86.3436 15.2329 86.2617 15.3265 86.2025C15.42 86.1434 15.5271 86.1088 15.6376 86.1021C15.7482 86.0955 15.8586 86.1169 15.9586 86.1644C20.3968 88.2704 23.9164 90.7259 30.8212 86.1976C31.2307 85.9288 31.7699 86.2956 31.7699 86.7842V94.4526C31.7707 94.6253 31.7035 94.7914 31.5827 94.9148C31.462 95.0382 31.2974 95.1091 31.1248 95.112Z" fill="#E52F34"/>
<path d="M145.753 92.9347L122.963 95.9499L121.823 96.1001L110.681 90.1487V88.7558L145.5 84.9579L145.753 92.9347Z" fill="#9C9CA1"/>
<path d="M117.138 90.781L141.827 87.8701L141.574 92.4285L122.343 93.8389L117.138 90.781Z" fill="#939498"/>
<path opacity="0.4" d="M122.963 94.4524V95.9482L121.823 96.1063L110.679 90.1486V88.7556L121.315 94.4477C121.315 94.4477 122.71 94.5789 122.963 94.4524Z" fill="black"/>
<path d="M127.338 70.7118L122.221 94.4366C122.17 94.6741 122.176 94.9206 122.24 95.1551C122.304 95.3897 122.423 95.6054 122.587 95.7842C122.752 95.963 122.957 96.0995 123.186 96.1823C123.414 96.265 123.66 96.2915 123.9 96.2596L156.271 91.9748C156.553 91.9376 156.819 91.8218 157.038 91.6406C157.257 91.4594 157.421 91.2201 157.51 90.9502L164.494 69.8896C164.571 69.6559 164.591 69.407 164.55 69.1642C164.51 68.9215 164.411 68.6922 164.262 68.4962C164.113 68.3001 163.919 68.1432 163.696 68.0389C163.473 67.9345 163.229 67.886 162.983 67.8974L128.748 69.5228C128.415 69.5386 128.097 69.6636 127.842 69.8785C127.587 70.0934 127.41 70.3862 127.338 70.7118Z" fill="#3F3D56"/>
<path d="M145.125 79.4642C145.204 78.7086 144.875 78.0548 144.39 78.0038C143.904 77.9527 143.446 78.5239 143.367 79.2794C143.287 80.035 143.617 80.6888 144.102 80.7398C144.587 80.7909 145.045 80.2197 145.125 79.4642Z" fill="white"/>
</svg>
