<svg width="176" height="96" viewBox="0 0 176 96" fill="none" xmlns="http://www.w3.org/2000/svg">
<path opacity="0.1" d="M51.2579 46.8877C47.1084 48.8059 43.2825 51.4409 38.9568 52.9168C33.6924 54.713 28.0078 54.6944 22.4452 54.6537L0 54.4961C4.54598 62.662 12.5773 68.8098 21.6455 71.0652C25.2037 71.9514 29.0041 72.2988 32.1421 74.2017C36.0527 76.5741 38.3706 81.0341 42.3455 83.2929C46.7272 85.7805 52.1728 85.1094 57.056 86.343C63.4217 87.941 68.7471 92.7466 75.2399 93.6922C81.5192 94.6055 87.641 91.7689 93.7271 89.9778C115.466 83.5793 138.951 90.4133 161.39 87.2496C162.252 87.1276 163.171 86.9632 163.794 86.3566C164.596 85.5788 164.662 84.3232 164.502 83.2098C163.703 77.662 158.713 73.5849 153.481 71.5735C142.333 67.2898 129.81 69.9807 117.968 68.4387C109.835 67.3779 102.099 64.3243 94.4675 61.2962C86.4769 58.1258 78.3609 55.0146 70.7888 50.9122C63.0913 46.7352 60.5955 42.5768 51.2579 46.8877Z" fill="#E52F34"/>
<path d="M121.523 76.3385C121.523 76.3385 121.862 81.4221 121.184 82.2694C121.184 82.2694 136.095 84.9806 137.958 84.1334C139.822 83.2861 138.975 81.9305 137.958 81.4221C136.942 80.9138 131.859 79.0498 131.181 75.4913C131.181 75.4913 133.384 74.4745 126.267 75.8302C119.151 77.1858 121.523 76.3385 121.523 76.3385Z" fill="#DC9BA3"/>
<path opacity="0.05" d="M121.523 76.3385C121.523 76.3385 121.862 81.4221 121.184 82.2694C121.184 82.2694 136.095 84.9806 137.958 84.1334C139.822 83.2861 138.975 81.9305 137.958 81.4221C136.942 80.9138 131.859 79.0498 131.181 75.4913C131.181 75.4913 133.384 74.4745 126.267 75.8302C119.151 77.1858 121.523 76.3385 121.523 76.3385Z" fill="black"/>
<path d="M63.3743 5.54761L63.3099 5.57811C60.2341 7.029 57.5587 9.20848 55.5158 11.9275C54.3603 13.4526 52.9404 14.9065 51.59 15.1471C48.591 15.6758 26.5388 38.6129 31.832 59.9606C37.1252 81.3082 68.005 82.1893 68.005 82.1893C68.005 82.1893 74.5723 83.3026 78.3406 85.5293C79.2205 86.0496 80.204 86.37 81.2215 86.4678C82.2391 86.5656 83.2656 86.4384 84.2285 86.0952C88.7152 84.499 96.089 82.1843 99.4134 82.896C104.352 83.955 146.686 66.3116 146.686 66.3116C146.686 66.3116 129.044 49.3664 103.112 49.7273C103.112 49.7273 62.1848 21.1457 63.5962 9.32471L63.3743 5.54761Z" fill="#E52F34"/>
<path opacity="0.1" d="M63.3743 5.54761L63.3099 5.57811C60.2341 7.029 57.5587 9.20848 55.5158 11.9275C54.3603 13.4526 52.9404 14.9065 51.59 15.1471C48.591 15.6758 26.5388 38.6129 31.832 59.9606C37.1252 81.3082 68.005 82.1893 68.005 82.1893C68.005 82.1893 74.5723 83.3026 78.3406 85.5293C79.2205 86.0496 80.204 86.37 81.2215 86.4678C82.2391 86.5656 83.2656 86.4384 84.2285 86.0952C88.7152 84.499 96.089 82.1843 99.4134 82.896C104.352 83.955 146.686 66.3116 146.686 66.3116C146.686 66.3116 129.044 49.3664 103.112 49.7273C103.112 49.7273 62.1848 21.1457 63.5962 9.32471L63.3743 5.54761Z" fill="black"/>
<path d="M63.4064 5.50708L59.1705 9.57394C59.1705 9.57394 55.9512 15.8437 53.0708 16.352C50.1904 16.8604 29.0108 38.8892 34.0939 59.393C39.177 79.8968 68.8284 80.744 68.8284 80.744C68.8284 80.744 74.9993 81.7896 78.6303 83.8823C79.5107 84.3978 80.4924 84.7161 81.5078 84.8153C82.5231 84.9145 83.5479 84.7922 84.5114 84.4568C88.8303 82.9317 95.8264 80.744 98.9864 81.4219C103.731 82.4386 144.395 65.4933 144.395 65.4933C144.395 65.4933 127.452 49.2259 102.545 49.5648C102.545 49.5648 63.2353 22.1134 64.5908 10.7601L63.4064 5.50708Z" fill="#E52F34"/>
<path opacity="0.1" d="M91.7503 70.545C96.9683 65.3264 93.4978 53.3945 83.9986 43.8944C74.4994 34.3943 62.5686 30.9234 57.3505 36.142C52.1324 41.3606 55.603 53.2924 65.1022 62.7926C74.6014 72.2927 86.5322 75.7636 91.7503 70.545Z" fill="black"/>
<path d="M63.4065 27.0276C63.4065 27.0276 65.2703 30.0777 64.0842 36.0086C62.8982 41.9394 67.1341 41.9394 67.1341 41.9394H75.6059L78.4863 34.4835L74.4199 34.8224C74.4199 34.8224 71.7089 34.1446 72.8949 27.8749L63.4065 27.0276Z" fill="#FFD2D9"/>
<path d="M88.8218 19.9107C87.5257 24.0368 85.9008 29.0611 85.0333 31.7418L84.4165 33.6363L78.8251 27.8749C78.8251 27.8749 79.0708 27.3039 79.4385 26.5041C80.2568 24.7316 81.6818 21.839 82.3833 21.6052C82.3833 21.6052 74.5892 21.0968 72.2171 22.9608C69.845 24.8248 70.5227 17.8772 70.5227 17.8772C70.5227 17.8772 75.0975 17.5383 76.7919 16.5216C78.4862 15.5049 87.6358 14.4882 87.6358 14.4882C87.6358 14.4882 90.6856 13.9798 88.8218 19.9107Z" fill="#FFD2D9"/>
<path opacity="0.1" d="M58.1541 71.0855C58.1541 71.0855 72.5561 64.4768 77.6392 65.4935L58.1541 71.0855Z" fill="black"/>
<path opacity="0.1" d="M43.413 55.4956C43.413 55.4956 60.8649 54.8177 70.3533 60.918L43.413 55.4956Z" fill="black"/>
<path opacity="0.1" d="M52.0542 62.4435C52.0542 62.4435 65.7785 59.0544 73.0643 60.2406L52.0542 62.4435Z" fill="black"/>
<path d="M139.653 69.7298L138.467 78.3719L135.417 78.033C135.417 78.033 135.232 77.8635 134.919 77.5789C134.097 76.8553 132.387 75.437 130.751 74.6643C130.197 74.3816 129.596 74.2025 128.978 74.1356L132.367 69.052C133.192 69.3608 134.037 69.6111 134.897 69.801C135.79 70.0103 136.704 70.1183 137.621 70.1229C138.318 70.1358 139.011 70.0019 139.653 69.7298Z" fill="#FFD2D9"/>
<path d="M131.181 75.8301C129.656 77.1857 122.709 74.305 121.523 78.7108L120.432 74.5321L117.072 61.6724L116.609 59.9016L113.81 59.7813L81.6886 58.4104L79.8655 58.3358L78.9065 58.2952L80.179 57.6648L88.6508 53.4658C88.6508 53.4658 91.7006 53.2522 95.9111 52.6744C102.292 51.8 111.33 50.0903 116.433 47.0283C124.905 41.9447 128.124 59.0594 128.124 59.0594C128.124 59.0594 129.412 63.4025 130.395 67.6811C130.862 69.7146 131.261 71.748 131.411 73.2832C131.555 74.5863 131.511 75.537 131.181 75.8301Z" fill="#E9E9EF"/>
<path opacity="0.05" d="M131.181 75.8298C129.656 77.1855 122.709 74.3048 121.523 78.7105L120.432 74.5318L117.072 61.6721L116.609 59.9013L113.729 59.7318L82.6883 57.8153L80.772 57.6967L80.1824 57.6611L79.4182 57.6137L88.6525 53.4621C88.6525 53.4621 91.7024 53.2486 95.9128 52.6708C102.294 51.7964 111.332 50.0866 116.435 47.0246C124.907 41.941 128.126 59.0557 128.126 59.0557C128.126 59.0557 129.414 63.3988 130.397 67.6775C130.864 69.7109 131.262 71.7443 131.413 73.2796C131.555 74.5861 131.511 75.5367 131.181 75.8298Z" fill="black"/>
<path opacity="0.1" d="M134.897 69.801L131.932 73.2782L130.746 74.6643C130.192 74.3816 129.591 74.2025 128.973 74.1356L132.362 69.052C133.188 69.3611 134.035 69.6114 134.897 69.801Z" fill="black"/>
<path d="M134.739 69.3907L131.423 73.2779L129.825 75.1521V75.6604C127.87 76.1112 121.776 74.8267 120.432 74.5319C120.262 74.4963 120.168 74.4742 120.168 74.4742C116.271 74.6437 101.868 66.1711 101.868 66.1711C101.868 66.1711 86.1109 68.8823 78.4862 68.2045C74.2283 67.8249 73.0354 66.2846 72.8118 64.9968C72.7134 64.3602 72.8011 63.7088 73.0643 63.1209L79.8654 58.3356L80.7685 57.7001L82.2104 56.6834C82.2104 56.6834 84.7164 56.1157 87.9001 55.4125C92.8731 54.3162 99.5014 52.8911 100.843 52.7877C103.046 52.6183 108.637 54.4822 111.857 58.2102C112.411 58.7954 113.037 59.3079 113.721 59.7353L113.809 59.7929C114.713 60.3927 115.828 61.0316 117.07 61.684C121.172 63.8445 126.64 66.1643 130.4 67.6877C132.968 68.7196 134.739 69.3907 134.739 69.3907Z" fill="#E9E9EF"/>
<path opacity="0.1" d="M139.653 69.7297L138.467 78.3718L135.417 78.0329C135.417 78.0329 135.232 77.8635 134.919 77.5788C135.596 77.594 136.708 77.3992 136.942 75.9995C136.942 75.9995 135.768 71.8903 137.62 70.1229C138.317 70.136 139.01 70.002 139.653 69.7297Z" fill="black"/>
<path d="M137.281 75.9995C137.281 75.9995 135.586 70.0687 139.483 69.3909L145.922 71.9327L153.377 72.441C153.377 72.441 155.324 75.6199 152.203 79.1785C151.348 80.1434 150.307 80.9258 149.142 81.4791C147.978 82.0323 146.714 82.3448 145.425 82.3981L137.279 82.7793L134.737 77.5263C134.737 77.5263 136.942 78.033 137.281 75.9995Z" fill="#DC9BA3"/>
<path opacity="0.1" d="M95.9129 52.6709C95.0657 52.92 91.5279 53.9757 87.9087 55.4093C86.1205 56.0978 84.3784 56.901 82.6935 57.8138C82.3428 58.0104 82.0157 58.2086 81.6938 58.4086C80.745 59.0101 79.9808 59.6269 79.5081 60.2386C77.4172 62.9499 74.3454 64.4004 72.817 64.9952C72.7187 64.3586 72.8063 63.7072 73.0695 63.1193L79.8656 58.3357L78.9066 58.295L80.179 57.6647L79.4149 57.6172L88.6492 53.4656C88.6492 53.4656 91.7041 53.2521 95.9129 52.6709Z" fill="black"/>
<path opacity="0.1" d="M85.0332 31.7417L84.4165 33.6362L78.8251 27.8748C78.8251 27.8748 79.0708 27.3037 79.4384 26.5039C80.145 28.0036 83.5202 30.6182 85.0332 31.7417Z" fill="black"/>
<path d="M64.8602 34.5565C64.6603 33.9821 64.5139 33.3904 64.4231 32.7891L57.1373 35.3309C57.1373 35.3309 52.139 39.1435 52.6473 47.4467C52.6473 47.4467 58.8317 45.1591 61.5427 47.8704L61.5986 48.3482C62.1719 53.0856 64.2679 57.5087 67.5712 60.9521C68.9267 62.367 70.189 63.9633 70.8617 65.4934C70.8617 65.4934 75.6059 64.1378 78.4863 60.4099C81.3667 56.6819 95.0911 52.7845 95.0911 52.7845C95.0911 52.7845 87.8053 52.9539 86.7887 50.4121C85.7721 47.8704 82.3833 42.4479 83.5694 38.2116C84.7554 33.9752 85.4332 32.6196 85.4332 32.6196C85.4332 32.6196 78.4863 27.7055 78.9946 26.1804L74.5893 31.264L72.556 31.9418C72.7157 32.3352 72.7969 32.756 72.7949 33.1805C72.9034 37.7879 66.4038 38.8962 64.8602 34.5565Z" fill="#CEDAD5"/>
<path d="M24.3666 55.7939C24.3666 55.7939 25.7865 57.6579 23.7109 60.4539C21.6353 63.2499 19.924 65.6239 20.617 67.3726C20.617 67.3726 23.7482 62.1654 26.2965 62.0925C28.8448 62.0196 27.1708 58.9305 24.3666 55.7939Z" fill="#E52F34"/>
<path opacity="0.1" d="M24.3666 55.7939C24.4904 55.9735 24.5879 56.1698 24.6564 56.3769C27.1437 59.2982 28.467 62.0247 26.078 62.0942C23.8516 62.1586 21.1812 66.139 20.5408 67.1456C20.5619 67.2232 20.5874 67.2996 20.617 67.3743C20.617 67.3743 23.7482 62.1671 26.2965 62.0942C28.8448 62.0213 27.1708 58.9305 24.3666 55.7939Z" fill="black"/>
<path d="M27.0014 58.1664C27.0014 58.8205 26.9285 59.3526 26.8319 59.3526C26.7353 59.3526 26.6625 58.8222 26.6625 58.1664C26.6625 57.5106 26.754 57.8275 26.8438 57.8275C26.9336 57.8275 27.0014 57.5123 27.0014 58.1664Z" fill="#FFD037"/>
<path d="M27.9113 58.9477C27.337 59.2612 26.8371 59.4561 26.7948 59.3696C26.7524 59.2832 27.1811 58.9714 27.7555 58.6596C28.3298 58.3478 28.1028 58.5749 28.1469 58.6596C28.1909 58.7444 28.4857 58.6342 27.9113 58.9477Z" fill="#FFD037"/>
<path d="M16.8657 55.7939C16.8657 55.7939 15.4458 57.6579 17.5214 60.4539C19.597 63.2499 21.3083 65.6239 20.6153 67.3726C20.6153 67.3726 17.4842 62.1654 14.9358 62.0925C12.3875 62.0196 14.0632 58.9305 16.8657 55.7939Z" fill="#E52F34"/>
<path opacity="0.1" d="M16.8657 55.7939C16.742 55.9735 16.6444 56.1698 16.576 56.3769C14.0887 59.2982 12.7654 62.0247 15.1544 62.0942C17.3808 62.1586 20.0511 66.139 20.6916 67.1456C20.6705 67.2232 20.645 67.2996 20.6153 67.3743C20.6153 67.3743 17.4842 62.1671 14.9358 62.0942C12.3875 62.0213 14.0632 58.9305 16.8657 55.7939Z" fill="black"/>
<path d="M14.226 58.1664C14.226 58.8205 14.2988 59.3526 14.3954 59.3526C14.492 59.3526 14.5648 58.8222 14.5648 58.1664C14.5648 57.5106 14.4733 57.8275 14.3835 57.8275C14.2937 57.8275 14.226 57.5123 14.226 58.1664Z" fill="#FFD037"/>
<path d="M13.3211 58.9477C13.8955 59.2612 14.3954 59.4561 14.4377 59.3696C14.4801 59.2832 14.0514 58.9714 13.477 58.6596C12.9026 58.3478 13.1297 58.5749 13.0856 58.6596C13.0416 58.7444 12.7468 58.6342 13.3211 58.9477Z" fill="#FFD037"/>
<path d="M14.6783 67.1352C14.6783 67.1352 18.6482 67.0132 19.8445 66.1609C21.0407 65.3085 25.9442 64.2969 26.2475 65.6525C26.5507 67.0081 32.2133 72.4493 27.7317 72.4849C23.2501 72.5204 17.3182 71.7867 16.1236 71.0598C14.9291 70.3328 14.6783 67.1352 14.6783 67.1352Z" fill="#A8A8A8"/>
<path opacity="0.2" d="M27.8129 72.0157C23.3314 72.0513 17.3994 71.3176 16.2049 70.5906C15.295 70.0365 14.9324 68.0488 14.8121 67.1321H14.6799C14.6799 67.1321 14.9307 70.3347 16.1252 71.0617C17.3197 71.7886 23.2517 72.5241 27.7333 72.4868C29.0278 72.4766 29.4734 72.0157 29.4497 71.3345C29.2684 71.7497 28.7753 72.0072 27.8129 72.0157Z" fill="black"/>
<path d="M46.412 89.5472C46.7226 89.294 46.9489 88.9525 47.061 88.5678C47.1457 88.178 46.9796 87.712 46.6069 87.5697C46.1901 87.4104 45.7445 87.6985 45.4073 87.9916C45.0701 88.2848 44.6821 88.6169 44.2399 88.5542C44.4671 88.3482 44.6372 88.0867 44.7334 87.7954C44.8296 87.5041 44.8487 87.1928 44.7888 86.8919C44.7697 86.7672 44.717 86.65 44.6363 86.553C44.4042 86.3056 43.9857 86.4123 43.7078 86.6072C42.8268 87.2274 42.5811 88.4237 42.576 89.5014C42.4879 89.1134 42.5624 88.7084 42.559 88.3153C42.5557 87.9222 42.4472 87.468 42.1117 87.2613C41.9037 87.1495 41.6701 87.094 41.434 87.1003C41.0375 87.0851 40.597 87.1257 40.3259 87.4155C39.987 87.7747 40.0768 88.3797 40.3699 88.7711C40.6631 89.1625 41.107 89.415 41.517 89.6895C41.8456 89.8849 42.126 90.152 42.3371 90.4707C42.3619 90.5149 42.3823 90.5615 42.3981 90.6097H44.8769C45.4343 90.3265 45.9507 89.9691 46.412 89.5472Z" fill="#E52F34"/>
<path d="M57.4253 94.9376C57.7359 94.6844 57.9622 94.3428 58.0743 93.9581C58.159 93.5684 57.9929 93.1024 57.6202 92.9601C57.2034 92.8008 56.7578 93.0889 56.4206 93.382C56.0834 93.6752 55.6954 94.0073 55.2532 93.9446C55.4804 93.7385 55.6505 93.4771 55.7467 93.1858C55.8429 92.8945 55.862 92.5832 55.8021 92.2823C55.783 92.1575 55.7303 92.0404 55.6496 91.9434C55.4175 91.696 54.999 91.8027 54.7211 91.9976C53.8401 92.6178 53.5944 93.8141 53.5893 94.8918C53.5012 94.5038 53.5757 94.0988 53.5723 93.7057C53.569 93.3125 53.4605 92.8584 53.125 92.6517C52.917 92.5399 52.6834 92.4844 52.4473 92.4907C52.0508 92.4754 51.6103 92.5161 51.3392 92.8059C51.0003 93.1651 51.0901 93.7701 51.3832 94.1615C51.6764 94.5529 52.1203 94.8054 52.5303 95.0799C52.8589 95.2753 53.1393 95.5423 53.3504 95.8611C53.3752 95.9053 53.3956 95.9518 53.4114 96.0001H55.8902C56.4476 95.7169 56.964 95.3595 57.4253 94.9376Z" fill="#E52F34"/>
<path d="M70.9464 69.3061C70.9464 69.3061 87.3817 62.528 100.767 68.9672L97.5479 75.7453L82.1292 76.0843L70.9464 69.3061Z" fill="#E52F34"/>
<path opacity="0.1" d="M72.6374 30.1014C72.689 29.468 72.775 28.8378 72.8949 28.2137L63.4065 27.3665C63.4065 27.3665 64.0639 27.9341 64.3503 30.0523C65.4635 30.7131 66.763 31.6028 68.1507 31.6028C69.77 31.6053 71.3457 31.078 72.6374 30.1014Z" fill="black"/>
<path d="M68.2355 31.3488C72.3529 31.3488 75.6907 28.0107 75.6907 23.8929C75.6907 19.7751 72.3529 16.437 68.2355 16.437C64.1181 16.437 60.7803 19.7751 60.7803 23.8929C60.7803 28.0107 64.1181 31.3488 68.2355 31.3488Z" fill="#FFD2D9"/>
<path d="M62.7288 25.8415H63.7454V22.9608L64.762 19.9107C64.762 19.9107 69.8451 17.5384 72.2172 18.0467L74.081 19.7412C74.081 19.7412 74.5893 15.6744 71.5395 14.1493C68.4896 12.6242 63.0676 13.302 61.7121 14.4882C60.3567 15.6744 58.154 17.7078 59.8483 23.2997L60.3567 24.6554C60.3567 24.6554 62.3899 23.9776 62.7288 25.8415Z" fill="#844F6E"/>
<g opacity="0.05">
<path opacity="0.05" d="M75.8975 29.7559L76.4532 29.5712L79.0185 26.6176C78.9681 26.4777 78.9622 26.3256 79.0015 26.1821L75.8975 29.7559Z" fill="black"/>
<path opacity="0.05" d="M72.3308 35.2209C73.6744 34.6278 74.7029 33.34 74.6572 31.4929C74.6572 31.393 74.6572 31.2981 74.6402 31.2083L74.586 31.2693L72.5528 31.9471C72.7125 32.3404 72.7936 32.7612 72.7917 33.1858C72.8184 33.8928 72.6595 34.5944 72.3308 35.2209Z" fill="black"/>
<path opacity="0.05" d="M92.0955 52.6455C87.8494 54.1231 82.0988 56.4497 80.3502 58.7153C80.3078 58.7712 80.2638 58.8238 80.2197 58.8848C84.8724 55.694 95.0912 52.7845 95.0912 52.7845C94.0908 52.7949 93.0906 52.7485 92.0955 52.6455Z" fill="black"/>
<path opacity="0.05" d="M72.7256 63.799C72.0478 62.2739 70.7822 60.6726 69.4351 59.2576C66.1318 55.8142 64.0358 51.3911 63.4625 46.6537L63.4066 46.1759C60.6956 43.4646 54.5112 45.7523 54.5112 45.7523C54.1893 40.4857 56.0819 37.0271 57.5085 35.2004L57.1374 35.3309C57.1374 35.3309 52.1391 39.1436 52.6474 47.4468C52.6474 47.4468 58.8318 45.1592 61.5428 47.8704L61.5987 48.3483C62.172 53.0856 64.268 57.5087 67.5713 60.9522C68.9268 62.3671 70.1891 63.9633 70.8618 65.4935C70.8618 65.4935 74.991 64.3073 77.8832 61.1284C76.3244 62.299 74.5813 63.2016 72.7256 63.799Z" fill="black"/>
</g>
<path d="M70.8617 43.9728C70.8617 43.9728 62.7288 55.6651 58.4929 59.0541C54.257 62.4432 53.0709 57.5291 53.0709 57.5291V46.6841L60.5261 45.8368L60.6058 46.8654L60.6956 48.0397L67.6424 40.5838C67.6424 40.5838 74.5893 34.314 75.9448 38.042C77.3003 41.77 70.8617 43.9728 70.8617 43.9728Z" fill="#FFD2D9"/>
<path opacity="0.1" d="M60.6056 46.8653C59.5878 47.4575 58.5083 47.9365 57.3863 48.2938C55.7851 48.7869 53.9501 48.2684 53.0657 47.9549V46.6891L60.5209 45.8418L60.6056 46.8653Z" fill="black"/>
<path d="M52.986 45.5827L52.5404 47.3976C52.5404 47.3976 55.1887 48.6329 57.3914 47.9551C59.594 47.2772 61.2884 46.0911 61.6273 45.9216C61.9661 45.7522 60.2718 43.8882 60.2718 43.8882L52.986 45.5827Z" fill="#CEDAD5"/>
<path opacity="0.1" d="M101.784 66.2561C102.914 65.3895 104.171 64.7035 105.511 64.2226C106.785 63.7848 107.985 63.1563 109.07 62.3586" fill="black"/>
<path opacity="0.2" d="M153.377 72.441L153.099 72.4224C153.503 73.4391 154.085 75.9453 151.695 78.6752C150.84 79.6401 149.799 80.4226 148.634 80.9758C147.47 81.529 146.205 81.8415 144.917 81.8948L137.027 82.2642L137.279 82.7844L145.427 82.398C146.715 82.3448 147.98 82.0322 149.144 81.479C150.309 80.9258 151.35 80.1434 152.205 79.1784C155.324 75.6199 153.377 72.441 153.377 72.441Z" fill="white"/>
<path opacity="0.05" d="M114.956 81.168H114.93C114.952 81.5679 114.991 82.3931 114.998 83.2997C115.005 82.5033 114.98 81.7204 114.956 81.168Z" fill="#00FF00"/>
<path opacity="0.05" d="M124.607 79.7039C124.631 79.8067 124.657 79.9078 124.687 80.0072C124.853 79.9123 125.091 79.7327 124.607 79.7039Z" fill="#00FF00"/>
<path opacity="0.2" d="M137.959 83.625C136.222 84.4147 123.162 82.1152 121.386 81.7966C121.35 81.9659 121.282 82.1265 121.184 82.2694C121.184 82.2694 136.095 84.9806 137.959 84.1334C138.918 83.6979 139.158 83.1268 139.028 82.6083C138.929 82.9692 138.611 83.3285 137.959 83.625Z" fill="white"/>
<path opacity="0.05" d="M114.93 81.1694C114.922 81 114.915 80.9136 114.915 80.9136C114.915 80.9136 114.053 81.222 114.93 81.1694Z" fill="#00FF00"/>
<path opacity="0.1" d="M74.8299 20.1648H64.5214C64.1396 20.1648 63.8301 20.4743 63.8301 20.8562V25.2348C63.8301 25.6166 64.1396 25.9262 64.5214 25.9262H74.8299C75.2117 25.9262 75.5212 25.6166 75.5212 25.2348V20.8562C75.5212 20.4743 75.2117 20.1648 74.8299 20.1648Z" fill="black"/>
<path opacity="0.1" d="M63.9249 22.0288H59.8381C59.6098 22.0288 59.4247 22.2139 59.4247 22.4423V23.8182C59.4247 24.0466 59.6098 24.2317 59.8381 24.2317H63.9249C64.1532 24.2317 64.3383 24.0466 64.3383 23.8182V22.4423C64.3383 22.2139 64.1532 22.0288 63.9249 22.0288Z" fill="black"/>
<path d="M74.8299 19.9954H64.5214C64.1396 19.9954 63.8301 20.3049 63.8301 20.6867V25.0654C63.8301 25.4472 64.1396 25.7568 64.5214 25.7568H74.8299C75.2117 25.7568 75.5212 25.4472 75.5212 25.0654V20.6867C75.5212 20.3049 75.2117 19.9954 74.8299 19.9954Z" fill="#7679B4"/>
<path d="M74.8181 20.3342H65.8854C65.5036 20.3342 65.1941 20.6438 65.1941 21.0256V24.7264C65.1941 25.1083 65.5036 25.4178 65.8854 25.4178H74.8181C75.1999 25.4178 75.5094 25.1083 75.5094 24.7264V21.0256C75.5094 20.6438 75.1999 20.3342 74.8181 20.3342Z" fill="#565388"/>
<path d="M63.9249 21.8594H59.8381C59.6098 21.8594 59.4247 22.0445 59.4247 22.2728V23.6488C59.4247 23.8771 59.6098 24.0623 59.8381 24.0623H63.9249C64.1532 24.0623 64.3383 23.8771 64.3383 23.6488V22.2728C64.3383 22.0445 64.1532 21.8594 63.9249 21.8594Z" fill="#565388"/>
<path opacity="0.1" d="M72.9729 20.331C74.8065 19.2223 76.2954 17.6252 77.2732 15.7185C77.3867 15.4965 77.4952 15.2474 77.4325 15.0068C77.3122 14.5459 76.7107 14.4645 76.2769 14.2663C75.4687 13.8952 75.1281 12.9581 74.5978 12.2447C74.1445 11.6497 73.535 11.1921 72.8371 10.9228C72.1392 10.6536 71.3803 10.5832 70.6448 10.7196C69.8722 10.8755 69.1572 11.2585 68.3778 11.3737C66.697 11.6194 64.8637 10.601 63.354 11.3737C62.6661 11.7279 62.2001 12.3904 61.7901 13.0513C60.7616 14.6967 59.4722 16.4404 60.4075 18.3704C60.9446 19.4736 61.802 20.3886 63.0067 20.7106C64.2113 21.0325 65.6058 20.7648 66.8308 20.6309C67.839 20.5225 68.8946 20.292 69.9095 20.3988C71.0972 20.5276 71.8394 21.0122 72.9729 20.331Z" fill="black"/>
<path d="M72.9729 19.9921C74.8065 18.8834 76.2954 17.2864 77.2732 15.3796C77.3867 15.1576 77.4952 14.9086 77.4325 14.6679C77.3122 14.207 76.7107 14.1257 76.2769 13.9274C75.4687 13.5563 75.1281 12.6192 74.5978 11.9059C74.1445 11.3108 73.535 10.8532 72.8371 10.5839C72.1392 10.3147 71.3803 10.2444 70.6448 10.3808C69.8722 10.5367 69.1572 10.9196 68.3778 11.0349C66.697 11.2806 64.8637 10.2622 63.354 11.0349C62.6661 11.389 62.2001 12.0516 61.7901 12.7124C60.7616 14.3578 59.4722 16.1015 60.4075 18.0316C60.9446 19.1347 61.802 20.0497 63.0067 20.3717C64.2113 20.6937 65.6058 20.4259 66.8308 20.2921C67.839 20.1836 68.8946 19.9532 69.9095 20.0599C71.0972 20.1887 71.8394 20.6733 72.9729 19.9921Z" fill="#844F6E"/>
<path opacity="0.2" d="M175.995 39.5248L102.292 52.6998V13.1749L175.995 0V39.5248Z" fill="#E52F34"/>
<path opacity="0.2" d="M160.726 4.55978L174.357 2.20947L174.555 8.31824L160.563 10.6584L160.726 4.55978Z" fill="#E52F34"/>
<g opacity="0.2">
<path opacity="0.1" d="M134.212 38.6658C134.674 38.5613 135.149 38.522 135.622 38.5489C138.409 38.598 141.301 38.8709 144.036 38.0405C145.488 37.6034 146.791 36.8815 148.289 36.5714C150.83 36.0478 153.372 36.812 155.871 36.1749C156.38 36.0444 157.001 35.8614 157.362 36.0579C157.781 36.285 157.484 36.8747 157.994 37.0238C158.156 37.0439 158.315 37.0802 158.469 37.1323C158.655 37.2407 158.538 37.4712 158.352 37.6186C157.218 38.5387 154.912 37.927 153.492 38.6709C153.177 38.8404 152.94 39.0539 152.645 39.2301C152.179 39.4707 151.684 39.6529 151.173 39.7724L143.289 41.9752C141.401 42.5022 139.488 43.036 137.537 43.2682C135.585 43.5003 133.56 43.4054 132.13 42.7429C131.823 42.6005 131.538 42.426 131.422 42.1887C130.866 41.0704 132.248 39.1877 134.212 38.6658Z" fill="#252223"/>
<path opacity="0.3" d="M127.257 23.0554L133.853 28.2712L140.449 33.4852L129.615 35.5339L118.782 37.5809L123.019 30.3182L127.257 23.0554Z" fill="#E52F34"/>
<path opacity="0.3" d="M134.116 21.8491L140.712 27.0632L147.308 32.2789L136.474 34.3259L125.64 36.3746L129.878 29.1119L134.116 21.8491Z" fill="#E52F34"/>
<path opacity="0.2" d="M144.317 10.999L131.588 35.2511L155.729 30.5522L164.65 28.8661L144.317 10.999Z" fill="#E52F34"/>
<path opacity="0.1" d="M164.65 28.8661L155.729 30.5522L144.317 10.999L164.65 28.8661Z" fill="black"/>
<path opacity="0.2" d="M151.029 22.2425C150.986 22.0846 150.889 21.9469 150.754 21.8539C150.619 21.7608 150.456 21.7184 150.293 21.7341C150.293 21.7341 150.463 20.4022 147.718 20.9394C147.671 20.8433 147.602 20.7594 147.517 20.694C147.433 20.6286 147.334 20.5835 147.229 20.5623C147.124 20.541 147.016 20.5441 146.912 20.5712C146.809 20.5984 146.713 20.649 146.632 20.7191L146.515 20.1006C146.515 20.1006 145.01 20.9631 146.605 22.1933L146.796 23.21C146.801 23.2358 146.809 23.2608 146.82 23.2846C146.829 23.3031 146.835 23.3224 146.84 23.3422C146.913 23.6388 147.449 25.9891 146.232 26.7923C144.929 27.665 144.184 24.9757 144.184 24.9757C143.336 21.463 141.723 21.4765 141.34 21.5325C141.295 21.5325 141.247 21.5426 141.2 21.546C141.02 21.5562 140.463 21.7561 140.249 23.7811C139.993 26.211 139.063 25.6044 139.063 25.6044C136.977 24.4674 135.505 25.4621 135.505 25.4621C131.886 27.5904 134.963 31.5827 135.598 32.3402C135.359 33.545 134.876 35.6682 134.412 35.7563C133.755 35.88 132.525 38.188 135.856 41.777L136.742 41.6075C136.742 41.6075 134.002 38.0287 136.159 36.2477C136.112 36.3789 136.056 36.5063 135.99 36.629C134.782 38.6946 138.892 41.1839 138.892 41.1839L139.878 40.9975L137.601 38.1287C136.696 36.9425 138.384 35.9732 138.384 35.9732C140.381 34.3024 139.353 32.2859 139.353 32.2859L144.016 31.4048C143.44 32.6791 142.593 35.8105 145.409 39.935L146.066 39.8113L145.529 34.8091C145.529 34.8091 145.698 33.7331 146.84 32.1097C147.294 34.1431 148.257 37.6525 149.711 39.1216L150.663 38.942C150.663 38.942 149.502 35.6123 149.477 34.3668C149.465 33.8584 149.443 33.3586 149.397 32.857L149.16 30.2339C149.545 29.99 149.846 29.635 150.025 29.2159C150.203 28.7968 150.25 28.3334 150.16 27.8869L149.284 23.3354C149.271 23.2714 149.272 23.2055 149.286 23.1418C149.3 23.078 149.327 23.0178 149.365 22.9649C149.403 22.9119 149.452 22.8672 149.508 22.8336C149.563 22.8 149.626 22.7782 149.69 22.7695L150.814 22.617C150.854 22.6098 150.893 22.5939 150.926 22.5702C150.96 22.5466 150.988 22.5158 151.009 22.4801C151.029 22.4443 151.042 22.4045 151.045 22.3635C151.049 22.3224 151.043 22.2811 151.029 22.2425Z" fill="url(#paint0_linear)"/>
<path opacity="0.2" d="M146.454 30.6063C146.454 30.6063 147.508 36.8863 149.57 38.9671L150.505 38.7977C150.505 38.7977 149.367 35.5289 149.336 34.3106C149.324 33.8158 149.304 33.321 149.258 32.8279L148.875 28.5916L146.454 30.6063Z" fill="#535461"/>
<path opacity="0.05" d="M146.454 30.6063C146.454 30.6063 147.508 36.8863 149.57 38.9671L150.505 38.7977C150.505 38.7977 149.367 35.5289 149.336 34.3106C149.324 33.8158 149.304 33.321 149.258 32.8279L148.875 28.5916L146.454 30.6063Z" fill="black"/>
<path opacity="0.2" d="M135.866 31.5061C135.866 31.5061 135.188 35.5408 134.548 35.6628C133.907 35.7848 132.694 38.0504 135.966 41.5733L136.837 41.4038C136.837 41.4038 133.821 37.4657 136.689 35.8543C136.688 35.8593 137.188 32.4906 135.866 31.5061Z" fill="#535461"/>
<path opacity="0.05" d="M135.866 31.5061C135.866 31.5061 135.188 35.5408 134.548 35.6628C133.907 35.7848 132.694 38.0504 135.966 41.5733L136.837 41.4038C136.837 41.4038 133.821 37.4657 136.689 35.8543C136.688 35.8593 137.188 32.4906 135.866 31.5061Z" fill="black"/>
<path opacity="0.2" d="M146.713 23.3536L146.525 22.3607C144.961 21.1542 146.437 20.3069 146.437 20.3069L146.639 21.371C150.344 20.3035 150.146 21.9099 150.146 21.9099C150.305 21.8937 150.465 21.9343 150.597 22.0245C150.729 22.1148 150.825 22.2488 150.868 22.403C150.882 22.4418 150.886 22.4831 150.882 22.5239C150.878 22.5648 150.865 22.6042 150.843 22.6393C150.822 22.6744 150.793 22.7042 150.758 22.7267C150.724 22.7491 150.685 22.7636 150.644 22.769L149.541 22.9198C149.478 22.9284 149.417 22.9498 149.362 22.9828C149.307 23.0157 149.259 23.0596 149.221 23.1116C149.184 23.1636 149.158 23.2228 149.144 23.2854C149.13 23.3479 149.129 23.4127 149.141 23.4757L150 27.9441C150.063 28.2639 150.055 28.5934 149.977 28.9097C149.899 29.2261 149.753 29.5217 149.55 29.7759C149.231 30.1673 148.721 30.5198 147.908 30.6486L139.395 32.2584C139.395 32.2584 140.412 34.2393 138.443 35.8779C138.443 35.8779 136.786 36.8251 137.674 37.9944L139.909 40.8107L138.941 40.9937C138.941 40.9937 134.907 38.5502 136.093 36.5218C136.415 35.8772 136.559 35.1585 136.512 34.4395C136.464 33.7205 136.225 33.0273 135.82 32.4312C135.82 32.4312 131.686 27.8696 135.622 25.5548C135.622 25.5548 137.074 24.5788 139.121 25.6955C139.121 25.6955 140.034 26.2903 140.285 23.9061C140.493 21.9184 141.041 21.7218 141.217 21.7116C141.262 21.7116 141.308 21.7117 141.354 21.6981C141.73 21.6439 143.318 21.6303 144.146 25.0787C144.146 25.0787 144.878 27.712 146.154 26.8698C147.349 26.0818 146.832 23.7739 146.752 23.4807C146.747 23.4615 146.74 23.4428 146.732 23.4248C146.723 23.4019 146.717 23.378 146.713 23.3536Z" fill="#535461"/>
<path opacity="0.2" d="M144.311 30.7776C144.311 30.7776 141.691 34.4124 145.343 39.7586L145.988 39.6366L145.461 34.7225C145.461 34.7225 145.773 32.6603 148.601 29.9541L144.311 30.7776Z" fill="#535461"/>
<path opacity="0.2" d="M147.129 22.1226C147.503 22.0519 147.749 21.6911 147.679 21.3168C147.608 20.9426 147.247 20.6965 146.873 20.7672C146.499 20.8379 146.253 21.1987 146.323 21.5729C146.394 21.9472 146.755 22.1933 147.129 22.1226Z" fill="#535461"/>
<path opacity="0.2" d="M144.097 25.9601C144.894 24.7485 144.419 24.6689 144.111 24.3503C143.901 24.1334 142.135 24.0504 141.035 24.0199C141.012 23.9351 140.974 23.7928 140.93 23.62C140.93 23.62 140.842 23.3014 140.802 23.0777H140.871L140.861 23.0116L142.216 22.9388C143.374 22.8913 143.43 22.4304 143.43 22.4304C143.457 21.6391 142.15 22.3982 142.15 22.3982C141.891 22.5253 141.203 22.4304 140.666 22.3253C140.651 22.213 140.643 22.0998 140.641 21.9864C140.647 21.8112 140.636 21.6357 140.607 21.4628C140.588 21.3135 140.529 21.172 140.437 21.0528C140.04 20.5778 139.581 20.1583 139.072 19.8056C139.042 19.5066 139.069 19.2046 139.153 18.916C139.359 18.8104 139.525 18.6416 139.627 18.4345C139.73 18.2274 139.763 17.9928 139.722 17.7654C139.703 17.6612 139.667 17.5606 139.617 17.4671C139.86 17.1452 139.746 16.5945 139.411 16.2928C139.375 16.2606 139.336 16.2317 139.295 16.2064C139.078 16.0609 138.814 16.0006 138.555 16.037C138.266 16.0842 137.991 16.1966 137.752 16.3657C137.465 16.5555 137.188 16.7961 136.845 16.8334C136.598 16.8605 136.337 16.7758 136.105 16.852C135.798 16.9503 135.641 17.2773 135.542 17.5773C135.444 17.8772 135.349 18.2076 135.083 18.3873C134.851 18.5432 134.551 18.5415 134.278 18.6075C134.088 18.6476 133.91 18.734 133.761 18.859C133.612 18.984 133.496 19.1438 133.423 19.3243C133.369 19.4869 133.37 19.6626 133.426 19.8245C133.481 19.9864 133.589 20.1256 133.731 20.2207C133.776 20.2536 133.825 20.2804 133.877 20.3004C133.935 20.3183 133.991 20.3403 134.046 20.3665C134.061 20.3775 134.074 20.3914 134.084 20.4074C134.093 20.4234 134.099 20.4412 134.102 20.4597C134.103 20.5059 134.093 20.5517 134.073 20.5935C134.042 20.687 134.03 20.7859 134.038 20.8842C134.047 20.9824 134.075 21.0779 134.122 21.1646C134.154 21.2279 134.203 21.2808 134.263 21.3171C134.28 21.3313 134.299 21.3433 134.319 21.3527C134.517 21.4391 134.763 21.2442 134.959 21.3323H134.975C135.051 21.415 135.117 21.5066 135.171 21.6052C135.218 21.6634 135.275 21.7117 135.341 21.7475C135.513 21.8604 135.722 21.9052 135.925 21.8729C136.184 21.8231 136.431 21.7241 136.652 21.5814C136.952 21.412 137.279 21.1765 137.303 20.8409C137.316 20.6359 137.21 20.4376 137.235 20.2343C137.249 20.1372 137.288 20.0454 137.349 19.9683C137.315 20.14 137.303 20.3154 137.313 20.4902C137.319 20.6319 137.336 20.773 137.364 20.9121C137.428 21.2758 137.559 21.6246 137.75 21.9407C138.007 22.3521 138.195 22.8025 138.308 23.2743C138.348 23.4822 138.351 23.6955 138.318 23.9046C138.209 24.5113 138.221 24.7722 138.252 24.8824C138.27 25.0315 138.319 25.0332 138.319 25.0332H138.331C138.337 25.136 138.363 25.2366 138.408 25.3289C138.454 25.4213 138.517 25.5034 138.596 25.5704C140.129 26.2041 143.248 25.306 143.248 25.306C142.618 25.528 142.167 27.2547 142.167 27.2547C142.099 27.6306 141.942 27.9848 141.71 28.2884C141.371 28.2375 140.971 28.6171 140.669 28.8391L140.644 28.856C140.615 28.8761 140.59 28.9022 140.572 28.9327C140.553 28.9631 140.541 28.9971 140.537 29.0324C140.533 29.0677 140.537 29.1035 140.547 29.1374C140.558 29.1713 140.576 29.2025 140.6 29.2288L141.8 30.5438C142.491 31.0335 142.889 31.0657 143.001 30.9268C143.074 30.8352 143.025 30.6726 142.855 30.515C142.445 30.1337 142.504 28.8967 142.516 28.7916C142.704 28.368 143.428 26.9785 144.097 25.9601Z" fill="url(#paint1_linear)"/>
<path opacity="0.2" d="M139.25 18.7602C139.25 18.7602 138.901 19.5617 139.131 20.2514L137.831 19.5617C137.831 19.5617 138.245 19.4499 138.158 18.4653L139.25 18.7602Z" fill="#F9D5C6"/>
<path opacity="0.2" d="M140.12 24.0721C140.12 24.0721 143.568 24.1212 143.862 24.433C144.155 24.7448 144.604 24.8279 143.862 26.0039C143.119 27.1799 142.299 28.871 142.299 28.871L141.422 28.4694C141.74 28.1331 141.95 27.7094 142.027 27.2527C142.027 27.2527 142.443 25.5701 143.043 25.3582C143.043 25.3582 140.1 26.2157 138.638 25.5887C138.638 25.5887 138.248 25.2955 138.429 24.6601C138.611 24.0246 140.12 24.0721 140.12 24.0721Z" fill="#353535"/>
<path opacity="0.1" d="M138.206 19.5921C138.206 19.5921 137.345 19.3803 137.408 20.7003C137.433 21.1787 137.573 21.644 137.818 22.0559C138.097 22.5338 138.496 23.3556 138.379 24.0385C138.209 25.0722 138.379 25.0739 138.379 25.0739L138.819 24.8062C139.413 24.4436 140.094 24.2503 140.79 24.247H140.995C140.995 24.247 140.581 22.7626 140.573 22.1051C140.573 21.7933 140.573 21.5035 140.385 21.2578C139.797 20.4987 138.618 19.5904 138.206 19.5921Z" fill="black"/>
<path opacity="0.2" d="M138.194 19.5311C138.194 19.5311 137.333 19.3192 137.396 20.6393C137.421 21.1177 137.562 21.5829 137.806 21.9949C138.086 22.4728 138.484 23.2946 138.367 23.9775C138.197 25.0112 138.367 25.0129 138.367 25.0129L138.807 24.7451C139.401 24.3826 140.082 24.1892 140.778 24.1859H140.983C140.983 24.1859 140.57 22.7015 140.561 22.044C140.561 21.7322 140.561 21.4425 140.373 21.1968C139.785 20.4342 138.606 19.5311 138.194 19.5311Z" fill="#409CD6"/>
<path opacity="0.1" d="M137.874 20.5883C137.909 20.4909 137.969 20.4039 138.047 20.3354C138.124 20.2669 138.218 20.2189 138.319 20.196C138.42 20.1731 138.526 20.1759 138.625 20.2042C138.725 20.2324 138.816 20.2853 138.89 20.3579C139.023 20.4975 139.129 20.6607 139.202 20.8391C139.61 21.7643 139.921 22.3405 139.921 22.3405C140.183 22.3794 140.442 22.4395 140.695 22.5201C140.734 22.837 140.785 23.1657 140.785 23.1657L139.685 23.2199L138.179 21.4339C138.179 21.4339 137.72 21.056 137.874 20.5883Z" fill="black"/>
<path opacity="0.2" d="M137.86 20.5222C137.896 20.4247 137.955 20.3378 138.033 20.2692C138.111 20.2007 138.205 20.1528 138.306 20.1298C138.407 20.1069 138.512 20.1097 138.612 20.138C138.712 20.1663 138.803 20.2191 138.877 20.2917C139.01 20.4314 139.115 20.5946 139.189 20.773C139.597 21.6982 139.907 22.2743 139.907 22.2743C139.907 22.2743 141.562 22.7301 141.989 22.5149C141.989 22.5149 143.219 21.7812 143.199 22.5539C143.199 22.5539 143.15 22.9979 142.055 23.0369L139.673 23.1538L138.167 21.3677C138.167 21.3677 137.708 20.9831 137.86 20.5222Z" fill="#F9D5C6"/>
<path opacity="0.1" d="M138.058 18.9004C138.091 18.7462 138.163 18.8055 138.14 18.5344L139.231 18.8293C139.186 18.9394 139.148 19.0527 139.119 19.1682C139.01 19.2056 138.896 19.2268 138.78 19.2309C138.54 19.2783 138.263 19.014 138.058 18.9004Z" fill="black"/>
<path opacity="0.2" d="M138.833 19.2153C139.403 19.1076 139.778 18.5581 139.671 17.9879C139.563 17.4178 139.013 17.0429 138.443 17.1506C137.873 17.2584 137.498 17.8079 137.606 18.378C137.714 18.9482 138.263 19.323 138.833 19.2153Z" fill="#F9D5C6"/>
<path opacity="0.1" d="M139.068 17.9314C138.882 17.9416 138.679 17.8823 138.521 17.9806C138.363 18.0789 138.318 18.3483 138.352 18.5584C138.385 18.7685 138.474 18.9803 138.424 19.1888C138.358 19.4616 138.086 19.6293 137.848 19.7734C137.611 19.9174 137.34 20.1123 137.315 20.3868C137.293 20.5851 137.394 20.7799 137.382 20.9799C137.362 21.3069 137.055 21.5323 136.771 21.6984C136.565 21.8348 136.335 21.9298 136.093 21.978C135.97 21.9999 135.843 21.9888 135.726 21.946C135.608 21.9031 135.504 21.83 135.424 21.7339C135.347 21.6289 135.302 21.4882 135.183 21.434C134.997 21.3459 134.765 21.5357 134.578 21.451C134.513 21.4162 134.46 21.3608 134.429 21.2934C134.384 21.2086 134.357 21.1159 134.349 21.0204C134.34 20.925 134.351 20.8288 134.38 20.7376C134.398 20.6965 134.407 20.6519 134.405 20.6071C134.39 20.5003 134.26 20.4647 134.158 20.4258C133.991 20.3457 133.858 20.2075 133.785 20.037C133.712 19.8664 133.704 19.6752 133.762 19.4989C133.827 19.325 133.935 19.1702 134.075 19.0488C134.216 18.9274 134.385 18.8433 134.566 18.8041C134.824 18.7397 135.109 18.7431 135.325 18.594C135.576 18.4245 135.664 18.0975 135.754 17.806C135.844 17.5146 135.991 17.196 136.281 17.1028C136.505 17.0299 136.747 17.113 136.981 17.0892C137.304 17.0554 137.565 16.8215 137.828 16.6385C138.052 16.475 138.312 16.3665 138.585 16.3216C138.722 16.3004 138.862 16.3091 138.996 16.3471C139.129 16.3851 139.253 16.4516 139.358 16.5419C139.826 16.9672 139.854 17.8891 139.068 17.9314Z" fill="black"/>
<path opacity="0.2" d="M139.029 17.9058C138.843 17.916 138.64 17.8567 138.482 17.955C138.324 18.0532 138.279 18.3227 138.313 18.5328C138.346 18.7429 138.435 18.9547 138.385 19.1632C138.319 19.436 138.047 19.6037 137.809 19.7478C137.572 19.8918 137.301 20.0867 137.276 20.3612C137.254 20.5594 137.355 20.7543 137.343 20.9543C137.323 21.2813 137.016 21.5067 136.732 21.6728C136.526 21.8092 136.296 21.9042 136.054 21.9524C135.931 21.9743 135.805 21.9637 135.688 21.9214C135.571 21.8792 135.467 21.8069 135.386 21.7117C135.31 21.6067 135.264 21.466 135.146 21.4118C134.959 21.3237 134.727 21.5135 134.541 21.4287C134.475 21.394 134.423 21.3386 134.392 21.2711C134.347 21.1864 134.32 21.0936 134.311 20.9982C134.303 20.9028 134.314 20.8066 134.343 20.7153C134.361 20.6743 134.37 20.6297 134.368 20.5849C134.353 20.4781 134.222 20.4425 134.121 20.4036C133.953 20.3235 133.821 20.1853 133.748 20.0148C133.675 19.8442 133.667 19.653 133.724 19.4766C133.79 19.3027 133.897 19.148 134.038 19.0266C134.179 18.9052 134.348 18.8211 134.529 18.7819C134.787 18.7175 135.071 18.7209 135.288 18.5718C135.539 18.4023 135.627 18.0753 135.717 17.7838C135.807 17.4924 135.954 17.1738 136.244 17.0806C136.467 17.0077 136.71 17.0908 136.944 17.067C137.267 17.0331 137.528 16.7993 137.791 16.6163C138.015 16.4528 138.274 16.3443 138.548 16.2994C138.685 16.2782 138.825 16.2869 138.959 16.3249C139.092 16.3629 139.215 16.4294 139.321 16.5197C139.787 16.9416 139.815 17.8618 139.029 17.9058Z" fill="#2F302F"/>
<path opacity="0.1" d="M139.338 20.5629C139.338 20.5629 137.982 20.651 138.097 21.5983C138.213 22.5455 137.626 20.5188 137.626 20.5188L138.153 19.9512L138.906 20.0427L139.338 20.5629Z" fill="black"/>
<path opacity="0.2" d="M139.302 20.5358C139.302 20.5358 137.947 20.6239 138.062 21.5712C138.177 22.5184 137.591 20.4917 137.591 20.4917L138.118 19.9241L138.87 20.0156L139.302 20.5358Z" fill="#409CD6"/>
<path opacity="0.2" d="M140.553 29.1644L141.695 30.454C142.352 30.9352 142.728 30.9623 142.833 30.8352C142.901 30.7471 142.854 30.5878 142.693 30.4336C142.284 30.0439 142.354 28.7391 142.354 28.7391C142.192 28.7442 142.033 28.6999 141.897 28.6121C141.761 28.5243 141.655 28.3972 141.593 28.2477C141.269 28.1969 140.897 28.5646 140.612 28.7781L140.588 28.795C140.56 28.8156 140.536 28.842 140.519 28.8725C140.501 28.9029 140.49 28.9367 140.487 28.9717C140.484 29.0066 140.488 29.0419 140.499 29.0751C140.51 29.1083 140.529 29.1388 140.553 29.1644Z" fill="#409CD6"/>
<path opacity="0.1" d="M142.355 28.7424C142.355 28.7424 141.705 28.8322 141.595 28.251C141.659 28.3988 141.765 28.5244 141.901 28.6118C142.036 28.6993 142.194 28.7447 142.355 28.7424Z" fill="black"/>
<path opacity="0.1" d="M140.553 29.1642L141.695 30.4538C142.352 30.935 142.728 30.9621 142.833 30.835C142.504 30.7334 141.574 30.3267 140.615 28.783L140.591 28.7999C140.564 28.8202 140.54 28.8462 140.523 28.8761C140.506 28.906 140.495 28.9391 140.491 28.9734C140.488 29.0077 140.491 29.0424 140.502 29.0753C140.512 29.1082 140.53 29.1385 140.553 29.1642Z" fill="black"/>
<path opacity="0.2" d="M121.857 39.257C121.857 39.257 118.836 41.9581 125.72 43.9322C125.72 43.9322 126.618 41.0989 124.692 39.2926C124.317 38.9401 123.827 38.7371 123.313 38.7221C122.799 38.7071 122.297 38.8811 121.903 39.2112L121.857 39.257Z" fill="#E52F34"/>
<path opacity="0.2" d="M121.886 39.2061C121.886 39.2061 125.229 40.8819 125.72 43.9321" stroke="#535461" stroke-miterlimit="10"/>
<path opacity="0.2" d="M125.53 43.9609C125.53 43.9609 123.777 40.5346 124.541 37.6251C124.871 36.4039 124.795 35.1086 124.324 33.9344C124.097 33.3798 123.82 32.8472 123.495 32.3433" stroke="#535461" stroke-width="2" stroke-miterlimit="10"/>
<path opacity="0.2" d="M123.967 30.5149C124.051 30.9588 123.489 32.4009 123.489 32.4009C123.489 32.4009 122.44 31.2638 122.357 30.8199C122.316 30.6064 122.362 30.3856 122.485 30.2061C122.607 30.0265 122.796 29.9029 123.009 29.8625C123.223 29.822 123.443 29.868 123.623 29.9904C123.802 30.1127 123.926 30.3014 123.967 30.5149Z" fill="#E52F34"/>
<path opacity="0.2" d="M125.763 32.7263C125.593 33.1448 124.338 34.0497 124.338 34.0497C124.338 34.0497 124.075 32.5246 124.246 32.1061C124.287 32.006 124.347 31.9148 124.423 31.8379C124.499 31.761 124.589 31.6997 124.689 31.6577C124.788 31.6157 124.895 31.5937 125.003 31.593C125.111 31.5923 125.218 31.6129 125.319 31.6537C125.419 31.6944 125.51 31.7544 125.587 31.8304C125.664 31.9063 125.725 31.9967 125.767 32.0963C125.809 32.1959 125.831 32.3028 125.832 32.4109C125.832 32.519 125.812 32.6262 125.771 32.7263H125.763Z" fill="#E52F34"/>
<path opacity="0.2" d="M126.5 36.9455C126.14 37.22 124.6 37.3691 124.6 37.3691C124.6 37.3691 125.144 35.9203 125.502 35.6458C125.674 35.5137 125.892 35.4554 126.107 35.4839C126.322 35.5123 126.517 35.6251 126.649 35.7975C126.782 35.9698 126.84 36.1876 126.811 36.4029C126.783 36.6182 126.67 36.8134 126.498 36.9455H126.5Z" fill="#E52F34"/>
<path opacity="0.2" d="M126.338 40.2633C126.032 40.6022 124.539 41.0004 124.539 41.0004C124.539 41.0004 124.829 39.4754 125.137 39.15C125.21 39.0711 125.298 39.0074 125.396 38.9625C125.494 38.9176 125.599 38.8924 125.707 38.8883C125.814 38.8842 125.921 38.9013 126.022 38.9387C126.123 38.976 126.216 39.0329 126.294 39.106C126.373 39.1791 126.437 39.267 126.482 39.3647C126.527 39.4624 126.552 39.568 126.556 39.6755C126.56 39.783 126.543 39.8902 126.506 39.9911C126.468 40.0919 126.412 40.1844 126.338 40.2633Z" fill="#E52F34"/>
<path opacity="0.2" d="M122.663 34.4548C123.041 34.7039 124.587 34.7446 124.587 34.7446C124.587 34.7446 123.944 33.3381 123.57 33.0873C123.48 33.028 123.38 32.987 123.274 32.9666C123.168 32.9461 123.06 32.9467 122.954 32.9683C122.849 32.9898 122.749 33.0319 122.66 33.0922C122.57 33.1525 122.494 33.2297 122.435 33.3195C122.375 33.4093 122.334 33.5099 122.314 33.6155C122.293 33.7212 122.294 33.8298 122.316 33.9352C122.337 34.0407 122.379 34.1408 122.44 34.23C122.5 34.3191 122.577 34.3955 122.667 34.4548H122.663Z" fill="#E52F34"/>
<path opacity="0.2" d="M122.524 38.3402C122.96 38.4656 124.446 38.0403 124.446 38.0403C124.446 38.0403 123.412 36.8897 122.977 36.7643C122.768 36.7043 122.544 36.7297 122.354 36.8349C122.164 36.9401 122.024 37.1164 121.964 37.3252C121.904 37.5339 121.929 37.758 122.034 37.948C122.139 38.138 122.316 38.2785 122.524 38.3385V38.3402Z" fill="#E52F34"/>
<path opacity="0.2" d="M122.902 42.1309C123.309 42.3274 124.847 42.1614 124.847 42.1614C124.847 42.1614 124.022 40.8532 123.616 40.6566C123.42 40.562 123.195 40.5491 122.989 40.6206C122.784 40.6921 122.616 40.8422 122.521 41.0379C122.427 41.2336 122.414 41.4589 122.485 41.6642C122.557 41.8695 122.707 42.038 122.902 42.1326V42.1309Z" fill="#E52F34"/>
<path opacity="0.25" d="M123.967 30.5149C124.051 30.9588 123.489 32.4009 123.489 32.4009C123.489 32.4009 122.44 31.2638 122.357 30.8199C122.316 30.6064 122.362 30.3856 122.485 30.2061C122.607 30.0265 122.796 29.9029 123.009 29.8625C123.223 29.822 123.443 29.868 123.623 29.9904C123.802 30.1127 123.926 30.3014 123.967 30.5149Z" fill="black"/>
<path opacity="0.25" d="M125.763 32.7263C125.593 33.1448 124.338 34.0497 124.338 34.0497C124.338 34.0497 124.075 32.5246 124.246 32.1061C124.287 32.006 124.347 31.9148 124.423 31.8379C124.499 31.761 124.589 31.6997 124.689 31.6577C124.788 31.6157 124.895 31.5937 125.003 31.593C125.111 31.5923 125.218 31.6129 125.319 31.6537C125.419 31.6944 125.51 31.7544 125.587 31.8304C125.664 31.9063 125.725 31.9967 125.767 32.0963C125.809 32.1959 125.831 32.3028 125.832 32.4109C125.832 32.519 125.812 32.6262 125.771 32.7263H125.763Z" fill="black"/>
<path opacity="0.25" d="M126.5 36.9455C126.14 37.22 124.6 37.3691 124.6 37.3691C124.6 37.3691 125.144 35.9203 125.502 35.6458C125.674 35.5137 125.892 35.4554 126.107 35.4839C126.322 35.5123 126.517 35.6251 126.649 35.7975C126.782 35.9698 126.84 36.1876 126.811 36.4029C126.783 36.6182 126.67 36.8134 126.498 36.9455H126.5Z" fill="black"/>
<path opacity="0.25" d="M126.338 40.2633C126.032 40.6022 124.539 41.0004 124.539 41.0004C124.539 41.0004 124.829 39.4754 125.137 39.15C125.21 39.0711 125.298 39.0074 125.396 38.9625C125.494 38.9176 125.599 38.8924 125.707 38.8883C125.814 38.8842 125.921 38.9013 126.022 38.9387C126.123 38.976 126.216 39.0329 126.294 39.106C126.373 39.1791 126.437 39.267 126.482 39.3647C126.527 39.4624 126.552 39.568 126.556 39.6755C126.56 39.783 126.543 39.8902 126.506 39.9911C126.468 40.0919 126.412 40.1844 126.338 40.2633Z" fill="black"/>
<path opacity="0.25" d="M122.663 34.4548C123.041 34.7039 124.587 34.7446 124.587 34.7446C124.587 34.7446 123.944 33.3381 123.57 33.0873C123.48 33.028 123.38 32.987 123.274 32.9666C123.168 32.9461 123.06 32.9467 122.954 32.9683C122.849 32.9898 122.749 33.0319 122.66 33.0922C122.57 33.1525 122.494 33.2297 122.435 33.3195C122.375 33.4093 122.334 33.5099 122.314 33.6155C122.293 33.7212 122.294 33.8298 122.316 33.9352C122.337 34.0407 122.379 34.1408 122.44 34.23C122.5 34.3191 122.577 34.3955 122.667 34.4548H122.663Z" fill="black"/>
<path opacity="0.25" d="M122.524 38.3402C122.96 38.4656 124.446 38.0403 124.446 38.0403C124.446 38.0403 123.412 36.8897 122.977 36.7643C122.768 36.7043 122.544 36.7297 122.354 36.8349C122.164 36.9401 122.024 37.1164 121.964 37.3252C121.904 37.5339 121.929 37.758 122.034 37.948C122.139 38.138 122.316 38.2785 122.524 38.3385V38.3402Z" fill="black"/>
<path opacity="0.25" d="M122.902 42.1309C123.309 42.3274 124.847 42.1614 124.847 42.1614C124.847 42.1614 124.022 40.8532 123.616 40.6566C123.42 40.562 123.195 40.5491 122.989 40.6206C122.784 40.6921 122.616 40.8422 122.521 41.0379C122.427 41.2336 122.414 41.4589 122.485 41.6642C122.557 41.8695 122.707 42.038 122.902 42.1326V42.1309Z" fill="black"/>
<path opacity="0.2" d="M128.833 44.6102C128.833 44.6102 127.079 41.1838 127.843 38.2743C128.172 37.056 128.096 35.7639 127.628 34.5921C127.401 34.0375 127.124 33.5049 126.799 33.001" stroke="#535461" stroke-width="2" stroke-miterlimit="10"/>
<path opacity="0.2" d="M127.276 31.1623C127.36 31.6063 126.798 33.0483 126.798 33.0483C126.798 33.0483 125.749 31.9113 125.666 31.4673C125.625 31.2539 125.671 31.0331 125.794 30.8535C125.916 30.674 126.105 30.5504 126.318 30.5099C126.532 30.4695 126.752 30.5155 126.932 30.6378C127.112 30.7602 127.235 30.9489 127.276 31.1623Z" fill="#E52F34"/>
<path opacity="0.2" d="M129.072 33.3735C128.902 33.7921 127.647 34.6969 127.647 34.6969C127.647 34.6969 127.384 33.1719 127.555 32.7533C127.637 32.5511 127.797 32.3898 127.998 32.3049C128.199 32.2201 128.425 32.2186 128.628 32.3009C128.83 32.3831 128.991 32.5423 129.076 32.7435C129.161 32.9446 129.162 33.1713 129.08 33.3735H129.072Z" fill="#E52F34"/>
<path opacity="0.2" d="M129.809 37.593C129.449 37.8675 127.909 38.0166 127.909 38.0166C127.909 38.0166 128.453 36.5678 128.811 36.2933C128.983 36.1611 129.201 36.1029 129.416 36.1313C129.631 36.1598 129.826 36.2726 129.959 36.4449C130.091 36.6173 130.149 36.8351 130.12 37.0504C130.092 37.2657 129.979 37.4608 129.807 37.593H129.809Z" fill="#E52F34"/>
<path opacity="0.2" d="M129.648 40.9108C129.341 41.2497 127.848 41.6479 127.848 41.6479C127.848 41.6479 128.138 40.1228 128.446 39.7975C128.594 39.6382 128.799 39.544 129.016 39.5357C129.233 39.5275 129.444 39.6058 129.604 39.7534C129.763 39.9011 129.857 40.1059 129.865 40.323C129.874 40.54 129.795 40.7515 129.648 40.9108Z" fill="#E52F34"/>
<path opacity="0.2" d="M125.972 35.102C126.35 35.3511 127.896 35.3918 127.896 35.3918C127.896 35.3918 127.253 33.9853 126.879 33.7345C126.789 33.6752 126.689 33.6342 126.583 33.6138C126.477 33.5934 126.369 33.5939 126.263 33.6155C126.158 33.637 126.058 33.6792 125.969 33.7394C125.879 33.7997 125.803 33.8769 125.744 33.9667C125.684 34.0565 125.643 34.1571 125.623 34.2627C125.603 34.3684 125.603 34.477 125.625 34.5824C125.646 34.6879 125.688 34.788 125.749 34.8772C125.809 34.9663 125.886 35.0427 125.976 35.102H125.972Z" fill="#E52F34"/>
<path opacity="0.2" d="M125.834 38.9857C126.269 39.1111 127.755 38.6858 127.755 38.6858C127.755 38.6858 126.721 37.5352 126.286 37.4098C126.077 37.3498 125.853 37.3752 125.663 37.4804C125.473 37.5856 125.333 37.7619 125.273 37.9707C125.213 38.1794 125.238 38.4035 125.343 38.5935C125.449 38.7835 125.625 38.924 125.834 38.984V38.9857Z" fill="#E52F34"/>
<path opacity="0.2" d="M126.217 42.7783C126.623 42.9749 128.162 42.8088 128.162 42.8088C128.162 42.8088 127.336 41.5007 126.93 41.3041C126.833 41.2573 126.728 41.23 126.62 41.2238C126.513 41.2176 126.405 41.2326 126.304 41.268C126.202 41.3034 126.108 41.3585 126.028 41.4301C125.948 41.5017 125.882 41.5885 125.835 41.6854C125.788 41.7823 125.761 41.8875 125.755 41.9949C125.749 42.1024 125.764 42.21 125.799 42.3117C125.835 42.4133 125.89 42.507 125.961 42.5874C126.033 42.6677 126.12 42.7332 126.217 42.78V42.7783Z" fill="#E52F34"/>
<path opacity="0.1" d="M135.834 13.2951L135.535 13.351C135.591 13.3405 135.64 13.3084 135.671 13.2618C135.703 13.2153 135.715 13.1581 135.704 13.1028C135.694 13.0475 135.661 12.9987 135.615 12.9671C135.568 12.9355 135.511 12.9236 135.456 12.9342L133.041 13.39C132.986 13.4006 132.937 13.4327 132.906 13.4792C132.874 13.5258 132.862 13.583 132.873 13.6383C132.883 13.6935 132.915 13.7424 132.962 13.774C133.009 13.8056 133.066 13.8174 133.121 13.8069L133.419 13.751C133.392 13.7562 133.366 13.7668 133.343 13.7821C133.319 13.7974 133.299 13.8171 133.284 13.8402C133.268 13.8632 133.257 13.8891 133.251 13.9164C133.246 13.9437 133.245 13.9718 133.251 13.9992C133.256 14.0266 133.266 14.0526 133.282 14.0759C133.297 14.0992 133.317 14.1193 133.34 14.1349C133.363 14.1506 133.389 14.1615 133.416 14.1672C133.443 14.1728 133.471 14.173 133.499 14.1678L133.082 14.2474C133.027 14.258 132.978 14.2901 132.946 14.3367C132.915 14.3832 132.903 14.4404 132.913 14.4957C132.924 14.551 132.956 14.5998 133.003 14.6314C133.049 14.663 133.106 14.6749 133.162 14.6643L135.576 14.2085C135.604 14.2032 135.63 14.1927 135.653 14.1774C135.676 14.1621 135.696 14.1423 135.712 14.1193C135.728 14.0962 135.738 14.0703 135.744 14.043C135.75 14.0157 135.75 13.9876 135.745 13.9602C135.74 13.9329 135.729 13.9068 135.714 13.8835C135.698 13.8602 135.679 13.8402 135.656 13.8245C135.632 13.8089 135.607 13.7979 135.579 13.7922C135.552 13.7866 135.524 13.7864 135.497 13.7916L135.913 13.712C135.941 13.7067 135.967 13.6962 135.99 13.6809C136.013 13.6656 136.033 13.6458 136.049 13.6228C136.065 13.5997 136.076 13.5738 136.081 13.5465C136.087 13.5192 136.087 13.4911 136.082 13.4637C136.077 13.4364 136.066 13.4103 136.051 13.387C136.036 13.3637 136.016 13.3437 135.993 13.328C135.97 13.3124 135.944 13.3014 135.916 13.2958C135.889 13.2901 135.861 13.2899 135.834 13.2951Z" fill="#252223"/>
<path opacity="0.1" d="M131.461 17.4416L131.162 17.4975C131.19 17.4923 131.216 17.4817 131.239 17.4664C131.262 17.4511 131.282 17.4314 131.298 17.4083C131.314 17.3853 131.325 17.3594 131.33 17.3321C131.336 17.3048 131.336 17.2767 131.331 17.2493C131.326 17.2219 131.315 17.1958 131.3 17.1725C131.285 17.1493 131.265 17.1292 131.242 17.1136C131.219 17.0979 131.193 17.0869 131.166 17.0813C131.138 17.0757 131.11 17.0754 131.083 17.0807L128.663 17.5365C128.608 17.5471 128.559 17.5792 128.528 17.6257C128.496 17.6723 128.484 17.7295 128.495 17.7847C128.505 17.84 128.537 17.8888 128.584 17.9205C128.63 17.9521 128.688 17.9639 128.743 17.9534L129.041 17.8974C129.014 17.9027 128.988 17.9132 128.964 17.9285C128.941 17.9438 128.921 17.9636 128.905 17.9866C128.89 18.0097 128.879 18.0356 128.873 18.0629C128.868 18.0902 128.867 18.1183 128.873 18.1457C128.878 18.1731 128.888 18.1991 128.904 18.2224C128.919 18.2457 128.939 18.2657 128.962 18.2814C128.985 18.2971 129.011 18.308 129.038 18.3137C129.065 18.3193 129.093 18.3195 129.121 18.3143L128.704 18.3939C128.677 18.3992 128.65 18.4097 128.627 18.425C128.604 18.4403 128.584 18.4601 128.568 18.4831C128.553 18.5062 128.542 18.5321 128.536 18.5594C128.53 18.5867 128.53 18.6148 128.535 18.6422C128.541 18.6695 128.551 18.6956 128.566 18.7189C128.582 18.7422 128.601 18.7622 128.625 18.7779C128.648 18.7936 128.673 18.8045 128.701 18.8102C128.728 18.8158 128.756 18.816 128.784 18.8108L131.205 18.355C131.232 18.3497 131.258 18.3392 131.282 18.3239C131.305 18.3085 131.325 18.2888 131.341 18.2658C131.356 18.2427 131.367 18.2168 131.373 18.1895C131.378 18.1622 131.379 18.1341 131.373 18.1067C131.368 18.0793 131.358 18.0533 131.342 18.03C131.327 18.0067 131.307 17.9866 131.284 17.971C131.261 17.9553 131.235 17.9444 131.208 17.9387C131.181 17.9331 131.153 17.9329 131.125 17.9381L131.542 17.8585C131.569 17.8532 131.595 17.8427 131.619 17.8274C131.642 17.812 131.662 17.7923 131.678 17.7693C131.693 17.7462 131.704 17.7203 131.71 17.693C131.716 17.6657 131.716 17.6376 131.711 17.6102C131.705 17.5828 131.695 17.5568 131.679 17.5335C131.664 17.5102 131.644 17.4901 131.621 17.4745C131.598 17.4588 131.572 17.4479 131.545 17.4422C131.518 17.4366 131.49 17.4364 131.462 17.4416H131.461Z" fill="#252223"/>
<path opacity="0.1" d="M156.159 12.1445L155.861 12.2004C155.888 12.1952 155.915 12.1846 155.938 12.1693C155.961 12.154 155.981 12.1343 155.997 12.1112C156.012 12.0882 156.023 12.0622 156.029 12.035C156.035 12.0077 156.035 11.9795 156.03 11.9522C156.024 11.9248 156.014 11.8987 155.999 11.8754C155.983 11.8521 155.964 11.8321 155.941 11.8164C155.917 11.8008 155.892 11.7898 155.864 11.7842C155.837 11.7785 155.809 11.7783 155.781 11.7836L153.369 12.2445C153.313 12.255 153.265 12.2871 153.233 12.3337C153.201 12.3802 153.19 12.4374 153.2 12.4927C153.211 12.548 153.243 12.5968 153.289 12.6284C153.336 12.6601 153.393 12.6719 153.448 12.6613L153.747 12.6054C153.719 12.6106 153.693 12.6212 153.67 12.6365C153.647 12.6518 153.627 12.6716 153.611 12.6946C153.595 12.7177 153.584 12.7436 153.579 12.7709C153.573 12.7981 153.573 12.8263 153.578 12.8536C153.583 12.881 153.594 12.9071 153.609 12.9304C153.624 12.9537 153.644 12.9737 153.667 12.9894C153.69 13.005 153.716 13.016 153.743 13.0216C153.771 13.0273 153.799 13.0275 153.826 13.0223L153.401 13.0917C153.346 13.1023 153.297 13.1344 153.265 13.1809C153.234 13.2275 153.222 13.2847 153.232 13.34C153.243 13.3953 153.275 13.4441 153.322 13.4757C153.368 13.5073 153.425 13.5191 153.481 13.5086L155.895 13.0528C155.922 13.0475 155.948 13.037 155.972 13.0217C155.995 13.0063 156.015 12.9866 156.031 12.9636C156.046 12.9405 156.057 12.9146 156.063 12.8873C156.069 12.86 156.069 12.8319 156.064 12.8045C156.058 12.7771 156.048 12.7511 156.032 12.7278C156.017 12.7045 155.997 12.6844 155.974 12.6688C155.951 12.6531 155.925 12.6422 155.898 12.6365C155.871 12.6309 155.843 12.6307 155.815 12.6359L156.232 12.5563C156.26 12.551 156.286 12.5405 156.309 12.5252C156.332 12.5099 156.352 12.4901 156.368 12.4671C156.384 12.444 156.395 12.4181 156.4 12.3908C156.406 12.3635 156.406 12.3354 156.401 12.308C156.396 12.2806 156.385 12.2546 156.37 12.2313C156.354 12.208 156.335 12.188 156.312 12.1723C156.289 12.1566 156.263 12.1457 156.235 12.14C156.208 12.1344 156.18 12.1342 156.153 12.1394L156.159 12.1445Z" fill="#252223"/>
<path opacity="0.3" d="M124.326 19.6312C125.546 19.4007 126.349 18.2245 126.118 17.0042C125.887 15.7839 124.711 14.9816 123.491 15.2122C122.271 15.4427 121.469 16.6189 121.699 17.8392C121.93 19.0595 123.106 19.8618 124.326 19.6312Z" fill="#E52F34"/>
<path opacity="0.05" d="M137.325 29.0522C137.325 29.0522 138.455 30.0503 138.982 30.9366C139.509 31.8228 139.341 32.1227 139.341 32.1227" fill="black"/>
</g>
<defs>
<linearGradient id="paint0_linear" x1="144.255" y1="40.1954" x2="140.671" y2="21.2271" gradientUnits="userSpaceOnUse">
<stop stop-color="#808080" stop-opacity="0.25"/>
<stop offset="0.54" stop-color="#808080" stop-opacity="0.12"/>
<stop offset="1" stop-color="#808080" stop-opacity="0.1"/>
</linearGradient>
<linearGradient id="paint1_linear" x1="10173.2" y1="5262.22" x2="10173.2" y2="3893.81" gradientUnits="userSpaceOnUse">
<stop stop-color="#808080" stop-opacity="0.25"/>
<stop offset="0.54" stop-color="#808080" stop-opacity="0.12"/>
<stop offset="1" stop-color="#808080" stop-opacity="0.1"/>
</linearGradient>
</defs>
</svg>
