<svg width="137" height="133" viewBox="0 0 137 133" fill="none" xmlns="http://www.w3.org/2000/svg">
<path d="M86.9506 117.408C85.3568 115.7 81.6363 114.241 76.6589 113.273V91.2868H76.4312V91.0591H72.3327V91.2868H65.889C66.4673 87.9602 68.3936 76.3592 68.0065 71.7051C68.0065 71.7051 73.0158 58.0435 68.9173 46.6588C68.9173 46.6588 73.0158 47.5696 73.4712 43.0157C73.84 39.3385 78.0615 31.2143 73.2116 26.5398C72.0731 25.3467 70.3836 24.3608 67.9405 23.7027L66.7565 20.3761C67.6023 18.958 68.036 17.3321 68.0088 15.6811C68.0088 13.2311 67.1481 11.0839 65.8548 9.87715C65.1125 9.08705 64.2063 8.62256 63.2272 8.62256C62.4813 8.63486 61.7606 8.89433 61.178 9.36029C61.2645 9.42404 61.3465 9.49235 61.4284 9.56521C59.9302 10.6832 58.901 13.0011 58.901 15.6811C58.901 17.7098 59.4953 19.5268 60.4311 20.7769L59.8118 24.7911C59.8118 24.7911 47.0609 21.6034 52.5256 43.0066C52.5256 43.0066 53.8918 46.6497 56.1687 46.6497C56.1687 46.6497 54.8025 63.0437 57.0795 68.9637C57.0795 68.9637 56.1687 83.5361 57.9903 86.7238V91.2777H46.6056V113.819C40.7766 115.154 37.0424 117.205 37.0424 119.512C37.0424 123.537 48.4613 126.798 62.5441 126.798C76.627 126.798 88.0458 123.535 88.0458 119.512C88.0458 118.788 87.661 118.077 86.9506 117.408Z" fill="#F2F2F2"/>
<path d="M87.5312 42.7843C84.767 47.4839 84.3435 53.1399 83.4123 58.5089C81.9505 66.8288 79.0861 74.8527 77.6425 83.1772C77.1393 86.0894 76.8137 89.0426 76.0145 91.8865C74.917 95.7937 72.9588 99.4004 71.1213 103.009C67.9928 109.175 65.1535 115.587 63.9854 122.402C63.6211 124.526 63.9057 127.411 66.0096 127.867C66.6107 128.001 67.287 127.894 67.7993 128.236C68.0998 128.434 68.2911 128.755 68.5325 129.021C69.4569 130.041 71.0485 130.16 72.3691 129.788C73.6897 129.417 74.8419 128.602 76.0669 127.967C80.9304 125.462 86.6956 125.761 92.1512 126.116C93.1553 126.179 94.2824 126.305 94.9176 127.088C95.2387 127.486 95.373 127.999 95.6121 128.454C96.4591 130.105 98.6951 130.872 100.375 130.089C101.004 129.795 101.544 129.324 102.197 129.083C104.194 128.338 106.295 129.952 108.434 129.964C111.507 129.977 113.821 126.721 116.892 126.61C118.987 126.535 120.902 127.962 122.997 127.976C124.568 127.976 126.016 127.184 127.382 126.412L136.718 121.138C134.222 117.648 131.165 114.595 127.671 112.103C125.101 110.282 124.406 106.639 122.837 103.906C121.801 102.099 120.754 100.263 120.249 98.2437C119.884 96.7865 119.811 95.2701 119.452 93.8105C118.953 91.7977 117.926 89.9648 117.111 88.059C113.878 80.5087 113.987 71.8927 111.025 64.2308C110.191 62.0723 109.119 60.0071 108.379 57.8144C107.404 54.9273 107.024 51.8671 106.04 48.9844C105.057 46.1018 103.308 43.2716 100.519 42.0307C99.3085 41.5329 98.0197 41.2531 96.7119 41.2042C93.4536 40.9947 90.555 41.5548 87.5312 42.7843Z" fill="#3F3D56"/>
<path d="M99.681 4.49268H86.6934V21.8111H99.681V4.49268Z" fill="#FBC661"/>
<path d="M99.3303 17.9264C98.67 17.8239 97.996 17.9264 97.3289 17.9264C95.6872 17.9059 95.2204 19.8891 93.5833 20.0508C91.5864 20.2466 88.8177 18.9829 87.1487 20.0986C86.8435 20.3112 86.5205 20.4971 86.1833 20.6542C84.8171 21.2553 83.1481 21.0321 81.8981 21.8496C80.648 22.667 80.1904 24.2813 80.1904 25.775C80.1591 26.3095 80.2365 26.8447 80.4181 27.3484C80.5934 27.7742 80.8848 28.143 81.0602 28.5688C81.1831 28.8694 81.2469 29.1904 81.3493 29.5001C81.6284 30.209 82.0121 30.8722 82.4878 31.4674L85.3795 35.4907C86.1377 36.5472 85.8349 37.8542 85.9579 39.1497C86.0489 40.1448 86.2812 41.1284 86.2789 42.1257C86.2766 43.123 86.0034 44.1749 85.2588 44.858C86.9711 44.7533 88.678 44.5962 90.3797 44.3867C91.7823 44.2136 93.1803 44.0065 94.5897 43.9063C97.5497 43.6968 100.523 43.9677 103.47 44.2387C102.983 43.633 102.762 42.7883 102.641 42.021C102.24 39.4753 101.987 36.809 102.825 34.3727C103.094 33.6443 103.41 32.9339 103.77 32.2461L104.67 30.4359C105.943 27.8766 107.131 25.2536 107.402 22.4074C107.504 21.6766 107.417 20.932 107.149 20.2443C106.755 19.3631 105.904 18.7438 104.986 18.4433C104.055 18.1778 103.081 18.0928 102.117 18.1928C101.22 18.2361 100.227 18.063 99.3303 17.9264Z" fill="#3F3D56"/>
<path d="M89.9812 16.7288C90.1884 17.2707 90.4366 17.8513 90.2749 18.4114C89.9744 19.5226 88.4397 19.748 87.7703 20.6884C87.712 20.7521 87.6717 20.8302 87.6537 20.9147C87.6357 20.9991 87.6406 21.0869 87.6678 21.1688C87.6999 21.2236 87.7415 21.2722 87.7908 21.3123C89.0408 22.4006 90.8487 22.494 92.5063 22.4758C94.9222 22.453 97.5019 22.2481 99.4168 20.784C99.9519 20.3742 100.455 19.6911 100.182 19.074C99.9701 18.6027 99.4123 18.4251 98.9501 18.1929C97.9141 17.6714 97.1718 16.6787 96.7619 15.5926C96.3521 14.5065 96.2473 13.3339 96.2291 12.1772C96.2476 11.9793 96.2046 11.7806 96.1062 11.608C95.9468 11.3803 95.6508 11.3461 95.3707 11.3279C93.8103 11.2237 92.2433 11.2863 90.6962 11.5146C90.259 11.5784 89.4256 11.6376 89.1182 11.995C88.8109 12.3525 88.9885 12.776 89.0477 13.1654C89.2325 14.3827 89.5454 15.5772 89.9812 16.7288Z" fill="#FBB3B2"/>
<path opacity="0.05" d="M89.9812 16.7288C90.1884 17.2707 90.4366 17.8513 90.2749 18.4114C89.9744 19.5226 88.4397 19.748 87.7703 20.6884C87.712 20.7521 87.6717 20.8302 87.6537 20.9147C87.6357 20.9991 87.6406 21.0869 87.6678 21.1688C87.6999 21.2236 87.7415 21.2722 87.7908 21.3123C89.0408 22.4006 90.8487 22.494 92.5063 22.4758C94.9222 22.453 97.5019 22.2481 99.4168 20.784C99.9519 20.3742 100.455 19.6911 100.182 19.074C99.9701 18.6027 99.4123 18.4251 98.9501 18.1929C97.9141 17.6714 97.1718 16.6787 96.7619 15.5926C96.3521 14.5065 96.2473 13.3339 96.2291 12.1772C96.2476 11.9793 96.2046 11.7806 96.1062 11.608C95.9468 11.3803 95.6508 11.3461 95.3707 11.3279C93.8103 11.2237 92.2433 11.2863 90.6962 11.5146C90.259 11.5784 89.4256 11.6376 89.1182 11.995C88.8109 12.3525 88.9885 12.776 89.0477 13.1654C89.2325 14.3827 89.5454 15.5772 89.9812 16.7288Z" fill="black"/>
<path d="M92.9208 14.5204C96.1413 14.5204 98.752 11.9097 98.752 8.68915C98.752 5.46865 96.1413 2.85791 92.9208 2.85791C89.7003 2.85791 87.0895 5.46865 87.0895 8.68915C87.0895 11.9097 89.7003 14.5204 92.9208 14.5204Z" fill="#FBB3B2"/>
<path opacity="0.1" d="M98.481 129.091C98.0196 129.294 97.5782 129.539 97.1627 129.824C97.6768 130.149 98.2623 130.343 98.8685 130.391C99.4746 130.438 100.083 130.338 100.642 130.098C101.084 129.89 101.48 129.597 101.903 129.358C100.737 128.993 99.5922 128.677 98.481 129.091Z" fill="black"/>
<path opacity="0.1" d="M72.3553 127.978C71.3694 128.483 70.429 129.1 69.4113 129.521C70.3357 130.072 71.5721 130.097 72.6354 129.79C73.956 129.405 75.1082 128.604 76.3309 127.969C78.9994 126.602 81.9412 126.067 84.9514 125.919C80.5887 125.774 76.192 126.006 72.3553 127.978Z" fill="black"/>
<path opacity="0.1" d="M127.933 112.101C125.363 110.279 124.67 106.636 123.099 103.904C122.063 102.096 121.016 100.261 120.51 98.2412C120.146 96.784 120.073 95.2676 119.713 93.808C119.217 91.7952 118.19 89.9623 117.375 88.0565C114.142 80.5062 114.249 71.8902 111.289 64.2283C110.453 62.0698 109.381 60.0046 108.641 57.8119C107.668 54.9248 107.275 51.8646 106.302 48.982C105.33 46.0994 103.57 43.2691 100.781 42.0282C99.5899 41.4954 98.2761 41.2882 96.9737 41.2017C95.875 41.129 94.7722 41.148 93.6767 41.2586C94.7562 41.3488 95.8146 41.6101 96.812 42.0327C99.5945 43.2737 101.35 46.1039 102.334 48.9865C103.317 51.8691 103.7 54.9293 104.672 57.8165C105.412 60.0092 106.494 62.0744 107.318 64.2329C110.278 71.8948 110.171 80.5107 113.404 88.0611C114.222 89.9668 115.248 91.7998 115.745 93.8126C116.105 95.2721 116.177 96.7886 116.542 98.2458C117.047 100.265 118.095 102.101 119.131 103.909C120.699 106.641 121.394 110.27 123.965 112.106C127.459 114.595 130.518 117.647 133.015 121.136L123.68 126.409C122.899 126.877 122.08 127.277 121.232 127.607C121.893 127.832 122.584 127.956 123.281 127.974C124.85 127.974 126.298 127.181 127.665 126.409L137 121.136C134.499 117.643 131.435 114.59 127.933 112.101Z" fill="black"/>
<path opacity="0.1" d="M113.176 126.618C110.77 126.705 108.827 128.725 106.619 129.578C107.288 129.805 107.987 129.934 108.693 129.963C111.166 129.963 113.147 127.871 115.426 126.99C114.703 126.738 113.942 126.612 113.176 126.618Z" fill="black"/>
<path d="M92.5678 42.0576V37.7565H90.4799C90.5914 37.1121 90.9648 34.8602 90.8897 33.9563C90.8897 33.9563 91.862 31.3059 91.0673 29.0973C91.1734 29.123 91.284 29.1241 91.3905 29.1005C91.4971 29.0769 91.5969 29.0292 91.6822 28.9611C91.7675 28.8929 91.836 28.8061 91.8826 28.7074C91.9291 28.6087 91.9525 28.5006 91.9508 28.3914C92.0373 27.508 93.2759 25.2994 90.8897 24.68L90.6461 23.9969C90.8109 23.7221 90.8953 23.4066 90.8897 23.0862C90.8897 22.3553 90.4935 21.761 90.0062 21.761C89.519 21.761 89.1228 22.3553 89.1228 23.0862C89.1143 23.4393 89.2179 23.7861 89.4188 24.0766L89.2981 24.8645C89.2981 24.8645 86.8254 24.2451 87.8864 28.3983C87.8864 28.3983 88.1506 29.1041 88.5923 29.1041C88.5923 29.1041 88.3281 32.2918 88.7699 33.4303C88.7699 33.4303 88.5923 36.256 88.9452 36.8753V37.7588H86.7366V42.1328C85.5981 42.3923 84.8809 42.7908 84.8809 43.2371C84.8809 44.0181 87.0963 44.651 89.8287 44.651C92.561 44.651 94.7764 44.0181 94.7764 43.2371C94.7764 42.743 93.8998 42.3104 92.5678 42.0576Z" fill="#E52F34"/>
<path opacity="0.1" d="M90.0495 23.0427C90.0554 23.3629 89.9718 23.6783 89.8081 23.9535L90.0495 24.6366C92.4357 25.2536 91.1993 27.4622 91.1105 28.3457C91.1121 28.4549 91.0888 28.563 91.0422 28.6618C90.9957 28.7606 90.9272 28.8475 90.842 28.9158C90.7567 28.9841 90.6571 29.032 90.5505 29.056C90.4439 29.0799 90.3333 29.0791 90.2271 29.0538C91.0217 31.2625 90.0495 33.9128 90.0495 33.9128C90.1246 34.8236 89.7512 37.0664 89.6396 37.713H90.4366C90.5481 37.0664 90.9238 34.8168 90.8487 33.9128C90.8487 33.9128 91.8187 31.2625 91.024 29.0538C91.1303 29.0791 91.2409 29.0799 91.3474 29.056C91.454 29.032 91.5537 28.9841 91.6389 28.9158C91.7241 28.8475 91.7926 28.7606 91.8391 28.6618C91.8857 28.563 91.9091 28.4549 91.9075 28.3457C91.9963 27.4622 93.2326 25.2536 90.8487 24.6366L90.6051 23.9535C90.7696 23.6785 90.8539 23.3631 90.8487 23.0427C90.8487 22.3118 90.4525 21.7175 89.9652 21.7175C89.8202 21.7198 89.68 21.7703 89.5668 21.861C89.7294 22.0101 89.857 22.1935 89.9405 22.3978C90.024 22.6021 90.0612 22.8223 90.0495 23.0427Z" fill="black"/>
<path opacity="0.1" d="M92.5246 42.012V37.7131H91.7299V42.012C93.0597 42.267 93.9386 42.6951 93.9386 43.1892C93.9386 43.9337 91.9349 44.5417 89.3847 44.5986H89.7832C92.5155 44.5986 94.731 43.9656 94.731 43.1846C94.7332 42.6996 93.8521 42.267 92.5246 42.012Z" fill="black"/>
<path d="M94.8857 0.50115C93.0642 0.0457627 91.106 -0.30261 89.371 0.39641C88.5745 0.749284 87.8421 1.2317 87.2033 1.82405C86.6136 2.33636 86.0398 2.90332 85.7256 3.62056C85.3499 4.48579 85.3932 5.46488 85.3704 6.40753C85.3476 7.35018 85.2224 8.36114 84.5962 9.06472C84.3526 9.33795 84.0361 9.56109 83.879 9.89352C83.6513 10.3489 83.8016 10.9113 84.0247 11.3735C84.2479 11.8358 84.5462 12.2729 84.6486 12.7784C84.7875 13.4774 84.5166 14.2015 84.1318 14.8026C83.747 15.4037 83.246 15.9229 82.8476 16.5171C82.4491 17.1114 82.1394 17.963 82.5015 18.6165C82.7292 19.0377 83.1982 19.2996 83.435 19.714C83.5489 19.9121 83.6058 20.142 83.7265 20.3356C84.0612 20.8661 84.7647 20.9959 85.3864 21.0596C86.3814 21.1644 87.4902 21.1962 88.2621 20.5587C88.7927 20.1215 89.0613 19.4407 89.1911 18.7645C89.3209 18.0882 89.3255 17.3983 89.4461 16.7152C89.5327 16.228 89.6738 15.7407 89.6328 15.2489C89.5759 14.5931 89.1957 14.0171 88.8974 13.4273C88.4481 12.6085 88.2382 11.6798 88.2917 10.7474C88.3805 9.82294 88.8678 8.90988 89.6829 8.47044C90.2567 8.15394 90.9649 8.07425 91.4521 7.63708C92.224 6.95399 92.1079 5.74266 92.2468 4.72032C92.2652 4.49251 92.3395 4.27277 92.4631 4.0805C92.7044 3.75262 93.1462 3.66382 93.556 3.62511C94.51 3.54314 95.5233 3.6456 96.3225 4.17613C97.0632 4.70203 97.576 5.49003 97.757 6.38021C97.9324 7.26518 97.9161 8.17748 97.7091 9.05561C97.741 8.67081 98.333 8.56607 98.6063 8.82792C98.8795 9.08976 98.8931 9.5406 98.8157 9.91857C98.497 11.5124 97.0534 12.6509 96.5684 14.1992C96.3761 14.8373 96.3517 15.5141 96.4977 16.1643C96.6437 16.8146 96.9551 17.416 97.4018 17.9106C97.5217 18.0574 97.679 18.1691 97.8571 18.2339C98.0393 18.2694 98.2257 18.2786 98.4104 18.2613C99.1368 18.2613 99.7607 18.7599 100.314 19.2335C100.867 19.7071 101.452 20.2149 102.19 20.2718C102.928 20.3287 103.723 19.6639 103.504 18.9694C103.425 18.762 103.298 18.5763 103.133 18.4275C102.677 17.9584 102.081 17.5896 101.767 17.0158C101.218 16.0526 101.553 14.8481 101.899 13.7939C102.245 12.7397 102.582 11.5329 102.019 10.5743C101.755 10.1189 101.314 9.7774 101.109 9.29469C100.996 9.01527 100.936 8.71714 100.933 8.41579C100.885 7.31375 101.161 6.19122 100.933 5.11651C100.798 4.59824 100.56 4.11222 100.234 3.68686C99.9087 3.2615 99.5015 2.90534 99.0366 2.6392C98.5645 2.35197 98.0517 2.1378 97.5156 2.00393C97.3084 1.95156 96.9942 1.96295 96.8485 1.80811C96.7027 1.65328 96.6526 1.37777 96.4682 1.20472C96.0219 0.822198 95.4299 0.63549 94.8857 0.50115Z" fill="#FBC661"/>
<path opacity="0.05" d="M98.6064 7.60252C98.5074 7.51649 98.3836 7.46434 98.2529 7.45369C98.1222 7.44304 97.9916 7.47444 97.88 7.54332C97.8744 8.02695 97.8218 8.50889 97.7229 8.98234C97.8231 8.6613 98.3513 8.58843 98.6064 8.8389C98.6574 8.88948 98.7011 8.94696 98.7361 9.00967C98.7683 8.90566 98.7949 8.80001 98.8158 8.69317C98.8932 8.3152 98.8819 7.87347 98.6064 7.60252Z" fill="black"/>
<path opacity="0.05" d="M100.91 7.19086C100.913 7.28147 100.92 7.3719 100.931 7.46181C100.998 6.83947 101.012 6.21265 100.974 5.58789C100.923 6.12063 100.902 6.65577 100.91 7.19086Z" fill="black"/>
<path opacity="0.05" d="M97.7228 8.98218C97.7161 9.00675 97.7115 9.03188 97.7092 9.05726L97.7228 8.98218Z" fill="black"/>
<path opacity="0.05" d="M101.518 15.1781C101.606 14.7144 101.728 14.2578 101.883 13.8119C102.158 12.9786 102.422 12.0473 102.243 11.2185C102.158 11.6825 102.038 12.1393 101.883 12.5847C101.607 13.4089 101.339 14.3447 101.518 15.1781Z" fill="black"/>
<path opacity="0.05" d="M97.7569 6.38242C97.7972 6.56048 97.8276 6.74063 97.848 6.92205C97.9135 6.32901 97.8828 5.72927 97.7569 5.14604C97.5767 4.25494 97.0638 3.46598 96.3224 2.93969C95.5232 2.41144 94.5009 2.3067 93.556 2.38867C93.1507 2.4251 92.7044 2.5139 92.463 2.84405C92.3395 3.03549 92.2652 3.2545 92.2467 3.4816C92.1078 4.50622 92.224 5.71072 91.4521 6.39836C90.9648 6.8378 90.2567 6.9175 89.6829 7.23399C88.8677 7.68938 88.3805 8.60016 88.2917 9.51093C88.2628 9.83981 88.275 10.171 88.3281 10.4968C88.3902 10.0773 88.5451 9.67696 88.7814 9.32483C89.0177 8.97271 89.3296 8.6777 89.6943 8.46126C90.2681 8.14477 90.9762 8.06508 91.4635 7.6279C92.2353 6.94482 92.1192 5.73349 92.2581 4.71115C92.2766 4.48334 92.3508 4.26359 92.4744 4.07132C92.7158 3.74345 93.1575 3.65464 93.5673 3.61594C94.5214 3.53397 95.5346 3.63643 96.3338 4.16696C97.0726 4.69764 97.5815 5.48985 97.7569 6.38242Z" fill="black"/>
<path opacity="0.05" d="M103.274 18.598C103.137 18.7495 102.969 18.8689 102.781 18.9477C102.593 19.0264 102.389 19.0625 102.186 19.0534C101.459 18.9965 100.86 18.4887 100.309 18.0151C99.7583 17.5415 99.1321 17.052 98.4058 17.0428C98.221 17.059 98.0348 17.0498 97.8525 17.0155C97.6749 16.9498 97.5178 16.8382 97.3971 16.6922C96.8921 16.1389 96.5611 15.4491 96.4453 14.709C96.3521 15.2827 96.3892 15.87 96.554 16.4273C96.7188 16.9847 97.0069 17.4978 97.3971 17.9286C97.5171 18.0753 97.6744 18.187 97.8525 18.2519C98.0347 18.2873 98.221 18.2965 98.4058 18.2792C99.1321 18.2792 99.756 18.7779 100.309 19.2515C100.863 19.7251 101.448 20.2328 102.186 20.2898C102.923 20.3467 103.718 19.6818 103.499 18.9874C103.451 18.8437 103.374 18.7113 103.274 18.598Z" fill="black"/>
<path opacity="0.05" d="M84.594 12.5684C84.6928 12.2352 84.7115 11.8834 84.6486 11.5415C84.5461 11.0383 84.2456 10.6012 84.0247 10.1389C83.9792 10.0448 83.9382 9.9492 83.9018 9.85205C83.9018 9.86571 83.8858 9.87937 83.879 9.89531C83.6513 10.3507 83.8016 10.9131 84.0247 11.3753C84.2419 11.7594 84.4321 12.158 84.594 12.5684Z" fill="black"/>
<path opacity="0.05" d="M89.5668 14.8774C89.5281 15.0801 89.4826 15.2805 89.4461 15.4831C89.3255 16.1662 89.3186 16.8493 89.1911 17.5323C89.0636 18.2154 88.7927 18.8985 88.2621 19.3266C87.4902 19.9618 86.3814 19.9322 85.3864 19.8275C84.7647 19.7637 84.0612 19.6317 83.7265 19.1034C83.6058 18.9076 83.5489 18.6799 83.435 18.4796C83.2073 18.0606 82.736 17.7965 82.5015 17.3821C82.4855 17.3548 82.4719 17.3229 82.4582 17.2933C82.3713 17.505 82.3302 17.7328 82.3377 17.9616C82.3451 18.1904 82.4009 18.4151 82.5015 18.6207C82.7292 19.042 83.1982 19.3038 83.435 19.7182C83.5489 19.9163 83.6058 20.1463 83.7265 20.3398C84.0612 20.8703 84.7647 21.0001 85.3864 21.0639C86.3814 21.1686 87.4902 21.2005 88.2621 20.563C88.7927 20.1258 89.0613 19.445 89.1911 18.7687C89.3209 18.0925 89.3255 17.4026 89.4461 16.7195C89.5327 16.2322 89.6738 15.745 89.6328 15.2531C89.6214 15.1263 89.5993 15.0006 89.5668 14.8774Z" fill="black"/>
<path d="M81.083 23.53C81.083 23.53 79.9445 24.1494 79.2273 29.8918C78.51 35.6342 78.1662 41.7319 78.1662 41.7319C78.1662 41.7319 78.1662 46.8573 83.0252 47.0326C83.0252 47.0326 84.9697 47.3878 85.589 47.8295C86.2084 48.2712 95.9263 45.2657 91.3315 44.6418C86.7366 44.0179 85.0585 44.2866 85.0585 44.2866C85.0585 44.2866 82.5835 42.6927 82.5835 41.1945C82.5835 39.6963 85.0585 30.7844 85.0585 30.7844L81.083 23.53Z" fill="#FBB3B2"/>
<path d="M81.0647 28.034C81.1876 28.3345 81.2514 28.6556 81.3538 28.9653C81.6324 29.6745 82.0162 30.3377 82.4923 30.9325C83.0707 31.7386 83.9996 33.6375 84.5757 34.4436C84.9206 33.2606 85.4263 32.1305 86.0785 31.0851L81.0874 23.002C81.0874 23.002 80.6958 23.2114 80.229 24.5275C80.204 24.7666 80.1903 25.0057 80.188 25.2402C80.1567 25.7746 80.2342 26.3099 80.4157 26.8135C80.5979 27.2393 80.8894 27.6082 81.0647 28.034Z" fill="#3F3D56"/>
<path d="M98.1782 11.6578C98.1781 11.6034 98.1612 11.5504 98.1298 11.506C98.0984 11.4616 98.0541 11.4279 98.0029 11.4096V11.1114C98.0543 11.0934 98.0988 11.0598 98.1302 11.0153C98.1617 10.9708 98.1784 10.9176 98.1782 10.8632C98.1789 10.8141 98.166 10.7658 98.141 10.7235C98.1159 10.6813 98.0797 10.6468 98.0363 10.6239C97.9929 10.6009 97.944 10.5904 97.895 10.5936C97.8459 10.5967 97.7988 10.6133 97.7586 10.6415C97.7184 10.6697 97.6869 10.7085 97.6674 10.7536C97.6479 10.7987 97.6412 10.8482 97.6481 10.8969C97.655 10.9455 97.6752 10.9912 97.7065 11.0291C97.7377 11.0669 97.7789 11.0954 97.8253 11.1114V11.4096C97.7736 11.4277 97.7288 11.4614 97.6971 11.5061C97.6654 11.5508 97.6483 11.6042 97.6483 11.659C97.6483 11.7137 97.6654 11.7672 97.6971 11.8118C97.7288 11.8565 97.7736 11.8902 97.8253 11.9083V12.2043C97.7736 12.2224 97.7288 12.2561 97.6971 12.3008C97.6654 12.3454 97.6483 12.3988 97.6483 12.4536C97.6483 12.5084 97.6654 12.5618 97.6971 12.6065C97.7288 12.6512 97.7736 12.6849 97.8253 12.7029V13.0012C97.7667 13.0221 97.7173 13.0631 97.686 13.1169C97.6546 13.1706 97.6432 13.2337 97.6538 13.295C97.6645 13.3564 97.6964 13.412 97.744 13.452C97.7916 13.4921 97.8519 13.5141 97.9141 13.5141C97.9763 13.5141 98.0366 13.4921 98.0842 13.452C98.1318 13.412 98.1637 13.3564 98.1743 13.295C98.185 13.2337 98.1736 13.1706 98.1422 13.1169C98.1109 13.0631 98.0615 13.0221 98.0029 13.0012V12.7029C98.0546 12.6849 98.0994 12.6512 98.1311 12.6065C98.1628 12.5618 98.1798 12.5084 98.1798 12.4536C98.1798 12.3988 98.1628 12.3454 98.1311 12.3008C98.0994 12.2561 98.0546 12.2224 98.0029 12.2043V11.9083C98.0545 11.8899 98.0991 11.8559 98.1305 11.811C98.1619 11.7661 98.1786 11.7126 98.1782 11.6578Z" fill="#EEEFF3"/>
<path d="M106.705 19.9961C108.063 22.2688 109.048 24.745 109.62 27.3301C110.503 31.4832 111.122 32.3667 111.122 32.3667C111.122 32.3667 115.011 42.2623 110.681 42.8816C106.35 43.5009 98.7542 42.8816 98.7542 42.8816C98.7542 42.8816 83.3803 45.532 88.7698 41.9982C94.1593 38.4643 98.4058 38.9038 98.4058 38.9038C98.4058 38.9038 104.856 38.7285 105.74 38.1091L107.418 37.9338L103.442 26.6243L106.705 19.9961Z" fill="#FBB3B2"/>
<path d="M102.598 26.4899L104.451 30.816C105.703 28.2909 107.145 25.1966 107.411 22.3914C107.436 21.8721 107.425 21.3516 107.377 20.8339C107.174 20.4116 106.906 20.0236 106.582 19.6841L102.598 26.4899Z" fill="#3F3D56"/>
<path d="M42.0448 76.3233C42.0448 76.3233 37.5752 85.6269 40.6786 88.9102C43.7821 92.1936 45.8792 75.959 45.8792 75.959L42.0448 76.3233Z" fill="#A0616A"/>
<path d="M20.4252 119.831L15.416 126.124C15.416 126.124 5.29043 130.138 14.594 130.678C14.594 130.678 19.1479 130.314 20.0587 129.674C20.9694 129.034 21.5182 127.759 23.342 128.49C25.1658 129.221 27.2652 127.759 27.2652 127.759C27.2652 127.759 27.5384 120.644 25.7146 119.824C23.8907 119.004 20.4252 119.831 20.4252 119.831Z" fill="#36344A"/>
<path d="M39.1258 122.11L37.9395 127.311C37.9395 127.311 35.2937 133.513 39.1258 132.6C42.9579 131.687 44.8728 130.685 45.2371 128.861C45.6014 127.038 46.6033 125.029 46.6033 125.029C46.6033 125.029 45.508 122.201 44.5062 122.11C43.5043 122.019 39.1258 122.11 39.1258 122.11Z" fill="#36344A"/>
<path d="M14.6783 59.26C14.6783 59.26 11.395 81.8017 13.6764 94.0972C15.9579 106.393 18.6857 119 18.6857 119C18.6857 119 15.498 126.286 26.4273 121.464C26.4273 121.464 25.6987 103.401 23.5083 96.3787C21.3179 89.3566 24.6331 79.8754 25.5439 79.6022C25.5439 79.6022 29.187 97.9384 32.7504 103.965C36.3138 109.993 38.2947 124.028 38.2947 124.028C38.2947 124.028 45.9589 125.029 45.8678 123.023C45.7767 121.017 44.4083 104.05 39.9478 98.0295C39.9478 98.0295 36.1157 87.995 38.5816 77.5962C41.0475 67.1974 35.9358 63.6386 35.9358 63.6386L27.8208 54.0618L19.7035 52.2402L14.6783 59.26Z" fill="#3F3D56"/>
<path d="M38.7501 20.4246C38.6646 20.7215 38.5266 21.0006 38.3425 21.2488C38.1522 21.4531 37.9271 21.6219 37.6777 21.7475C36.8761 22.1997 36.028 22.5639 35.148 22.8336C34.9203 23.2889 35.2892 23.8013 35.6398 24.1701L36.669 25.2585C37.2701 25.8915 37.8712 26.5245 38.5201 27.1074C39.7749 28.2333 41.1986 29.1553 42.7393 29.8397C43.5454 30.1972 44.5859 30.4522 45.2326 29.8534C45.8792 29.2545 45.7176 28.2026 46.1092 27.4216C46.1586 27.3751 46.1966 27.3177 46.2201 27.254C46.2437 27.1903 46.2521 27.122 46.2448 27.0545C46.2376 26.987 46.2147 26.9221 46.1782 26.8649C46.1416 26.8077 46.0923 26.7598 46.034 26.7249C45.5058 26.2034 45.3988 25.3792 45.5104 24.646C45.6219 23.9128 45.9202 23.2206 46.091 22.4989C46.2617 21.7771 46.2936 20.971 45.9088 20.3358C45.6825 19.9979 45.3896 19.7097 45.0481 19.4887C44.3006 18.9583 43.4672 18.5609 42.5845 18.3138C42.1291 18.1886 41.6737 18.1044 41.2183 17.97C40.936 17.8835 40.1709 17.3552 39.9296 17.3985C39.4332 17.4805 38.9254 19.894 38.7501 20.4246Z" fill="#A0616A"/>
<path opacity="0.1" d="M38.7501 20.4246C38.6646 20.7215 38.5266 21.0006 38.3425 21.2488C38.1522 21.4531 37.9271 21.6219 37.6777 21.7475C36.8761 22.1997 36.028 22.5639 35.148 22.8336C34.9203 23.2889 35.2892 23.8013 35.6398 24.1701L36.669 25.2585C37.2701 25.8915 37.8712 26.5245 38.5201 27.1074C39.7749 28.2333 41.1986 29.1553 42.7393 29.8397C43.5454 30.1972 44.5859 30.4522 45.2326 29.8534C45.8792 29.2545 45.7176 28.2026 46.1092 27.4216C46.1586 27.3751 46.1966 27.3177 46.2201 27.254C46.2437 27.1903 46.2521 27.122 46.2448 27.0545C46.2376 26.987 46.2147 26.9221 46.1782 26.8649C46.1416 26.8077 46.0923 26.7598 46.034 26.7249C45.5058 26.2034 45.3988 25.3792 45.5104 24.646C45.6219 23.9128 45.9202 23.2206 46.091 22.4989C46.2617 21.7771 46.2936 20.971 45.9088 20.3358C45.6825 19.9979 45.3896 19.7097 45.0481 19.4887C44.3006 18.9583 43.4672 18.5609 42.5845 18.3138C42.1291 18.1886 41.6737 18.1044 41.2183 17.97C40.936 17.8835 40.1709 17.3552 39.9296 17.3985C39.4332 17.4805 38.9254 19.894 38.7501 20.4246Z" fill="black"/>
<path d="M37.7277 22.0614C37.7163 21.8815 37.6958 21.6721 37.5433 21.5742C37.4543 21.5253 37.3529 21.5039 37.2518 21.5127C35.0978 21.5127 33.3514 23.2067 31.9966 24.878C29.1414 28.3959 26.8895 32.3669 24.9381 36.4585C23.7382 38.9791 22.6248 41.8139 23.3966 44.4984C23.6407 45.2945 24.0038 46.0491 24.4736 46.7366C25.1208 47.7191 25.906 48.6033 26.8052 49.3619C27.1426 49.6864 27.561 49.9145 28.0165 50.0222C28.6996 50.1315 29.3486 49.7558 29.9315 49.3938C31.1018 48.6652 32.2668 47.929 33.4266 47.1852C35.3096 45.9784 37.1926 44.7511 38.8525 43.2529C40.5124 41.7547 41.9537 39.965 42.7711 37.8839C43.1195 37.0004 43.3517 36.0623 43.7434 35.2062C44.3399 33.8878 45.3031 32.7243 45.6446 31.3172C45.8063 30.6455 45.8199 29.951 45.993 29.2793C46.1296 28.7442 46.3664 28.2388 46.4802 27.6991C46.5941 27.1595 46.5668 26.5607 46.223 26.1189C45.6446 25.3858 44.5198 25.4951 43.6045 25.684C42.4114 25.9299 40.2847 26.5356 39.1485 25.8138C38.1762 25.1922 37.796 23.1179 37.7277 22.0614Z" fill="#EEEFF3"/>
<path d="M37.1198 26.4217L35.8425 26.5127L34.9317 26.1461L35.6626 23.958C35.6626 23.958 38.2355 24.2495 38.4997 25.06C38.4997 25.06 38.6909 25.6179 39.0006 25.6999C39.3103 25.7818 40.5944 25.5997 40.8608 26.2372C41.1272 26.8748 41.043 30.3357 39.3102 29.8803L38.4906 27.6899L38.124 27.1434C38.124 27.1434 37.0288 26.9681 37.1198 26.4217Z" fill="#3F3D56"/>
<path d="M26.6277 46.7641C26.6277 46.7641 29.4556 28.1546 38.3038 21.49C38.3038 21.49 38.3949 19.7573 36.8443 19.9394C35.2937 20.1216 28.8181 18.8442 28.8181 18.8442L22.7068 30.7048C22.7068 30.7048 21.3406 41.7411 20.3342 43.565C19.3278 45.3888 13.0366 59.8952 13.0366 59.8952C13.0366 59.8952 16.5955 71.8445 21.8848 55.7967C21.8848 55.7967 17.7863 68.8413 29.3645 70.1186C40.9428 71.396 39.5812 69.3877 39.5812 69.3877L40.9473 59.902V52.7843L43.5021 47.775L53.9008 34.5483C53.9008 34.5483 46.8423 24.7757 45.4944 25.6477C45.4967 25.6386 36.7532 39.4665 26.6277 46.7641Z" fill="#3F3D56"/>
<path d="M30.1866 19.5795L28.8204 18.8486C28.8204 18.8486 24.624 20.3992 23.1645 26.4217C23.1645 26.4217 19.6079 28.9742 17.2445 30.8914C17.2445 30.8914 14.0567 24.9713 14.0567 22.954C14.0567 22.954 8.76514 26.5128 7.57886 25.5998C7.57886 25.5998 10.7666 40.286 16.7936 39.1908C22.8207 38.0956 25.0885 34.539 25.0885 34.539L30.1866 19.5795Z" fill="#3F3D56"/>
<path d="M50.4376 35.0876L53.9031 34.5388C53.9031 34.5388 56.0935 37.4579 52.1704 41.7453L49.7978 56.2494C49.7978 56.2494 50.071 61.0834 49.2513 64.7333C48.4316 68.3832 47.152 79.6017 47.152 79.6017C47.152 79.6017 42.9579 78.0511 40.6764 78.3243L44.1419 44.6735L50.4376 35.0876Z" fill="#3F3D56"/>
<path d="M13.8586 23.9535C13.8586 23.9535 11.9414 12.4596 8.65805 16.747C5.37471 21.0345 9.02236 26.9636 9.02236 26.9636L13.8586 23.9535Z" fill="#A0616A"/>
<path d="M45.7402 24.5525C49.8209 24.5525 53.1289 21.2445 53.1289 17.1638C53.1289 13.0832 49.8209 9.77515 45.7402 9.77515C41.6596 9.77515 38.3516 13.0832 38.3516 17.1638C38.3516 21.2445 41.6596 24.5525 45.7402 24.5525Z" fill="#A0616A"/>
<path d="M51.6466 9.19195C51.4778 8.98167 51.3256 8.75862 51.1912 8.52481C50.7472 7.8736 50.0528 7.44781 49.3697 7.06529C48.1197 6.38221 46.6943 5.74011 45.3031 6.07254C44.3399 6.30024 43.5225 6.98332 42.5525 7.17913C41.5826 7.37495 40.4304 7.15864 39.777 7.88726C39.1235 8.61588 39.4126 9.76346 38.8502 10.5171C38.5383 10.9338 37.96 11.3163 38.1171 11.8127C38.1831 12.0222 38.3766 12.1702 38.4654 12.3728C38.6225 12.728 38.429 13.1356 38.4199 13.525C38.4085 14.101 38.8024 14.5951 39.0802 15.1006C39.358 15.6061 39.5083 16.3119 39.0802 16.7081C40.5292 15.5492 42.1171 14.5755 43.8071 13.8096C43.8046 14.0433 43.7436 14.2727 43.6295 14.4767C44.5447 14.3419 45.4504 14.1495 46.3414 13.9007L45.8723 14.8L47.8851 13.9211C48.4293 13.6821 49.1124 13.4658 49.5769 13.8301C49.7909 14.0342 49.9412 14.296 50.0095 14.5837C50.2749 15.4062 50.4325 16.2596 50.4786 17.1225C50.5287 18.0971 50.4786 19.1718 51.1093 19.9163C51.288 20.105 51.5035 20.2549 51.7425 20.3568C51.9815 20.4587 52.2389 20.5103 52.4987 20.5086C52.7586 20.5069 53.0153 20.4519 53.2529 20.3468C53.4906 20.2418 53.7041 20.0891 53.8803 19.8981C54.0579 19.215 53.7915 18.5092 53.7778 17.8079C53.7574 16.7855 54.2719 15.8247 54.3653 14.8069C54.486 13.5204 53.7255 12.7576 53.3794 11.6192C53.245 11.182 53.327 10.6651 53.0697 10.253C52.7373 9.74296 52.0588 9.62912 51.6466 9.19195Z" fill="#3F3D56"/>
<path d="M8.70584 30.0305L11.3403 25.6064L9.19083 24.3268C9.70086 23.7302 11.4678 21.6445 11.9391 20.67C11.9391 20.67 14.5621 18.5388 15.0972 15.7792C15.0972 15.7792 15.8076 16.4486 16.4406 15.5924C17.0736 14.7363 19.6966 13.2244 17.6223 11.1274L17.7886 10.2781C18.1264 10.0963 18.4065 9.82334 18.5969 9.49025C19.0523 8.73658 18.9999 7.89639 18.499 7.58673C17.998 7.27706 17.2261 7.65503 16.7776 8.4087C16.554 8.76639 16.4488 9.18548 16.477 9.60637L15.8782 10.335C15.8782 10.335 13.7106 8.18329 12.2579 13.1037C12.2579 13.1037 12.0985 13.994 12.5539 14.265C12.5539 14.265 10.3316 17.373 10.0834 18.8189C10.0834 18.8189 8.17076 21.6195 8.15483 22.462L7.61291 23.3727L5.33598 22.0202L2.65829 26.5217C1.33539 26.096 0.347207 26.0664 0.0739746 26.5217C-0.404182 27.3255 1.48567 29.3338 4.29769 31.0073C7.10971 32.6809 9.77373 33.3844 10.2519 32.583C10.5593 32.0889 9.91945 31.1052 8.70584 30.0305Z" fill="#E52F34"/>
<path opacity="0.1" d="M17.759 8.92541C17.5688 9.25844 17.2897 9.532 16.9529 9.71551L16.7844 10.5625C18.861 12.6596 16.2357 14.1738 15.6027 15.0299C15.5375 15.1431 15.4473 15.24 15.3389 15.3129C15.2305 15.3859 15.1068 15.4331 14.9774 15.4509C14.8479 15.4687 14.7161 15.4566 14.592 15.4156C14.468 15.3746 14.3549 15.3058 14.2616 15.2143C13.7265 17.974 11.1035 20.1052 11.1035 20.1052C10.6276 21.082 8.86526 23.1677 8.35522 23.7619L9.17264 24.2492C9.68268 23.6549 11.4496 21.567 11.9209 20.5924C11.9209 20.5924 14.5439 18.4612 15.079 15.7016C15.079 15.7016 15.7894 16.371 16.4224 15.5149C17.0554 14.6587 19.6784 13.1469 17.6041 11.0498L17.7704 10.2005C18.1074 10.0184 18.3866 9.74546 18.5764 9.41268C19.0318 8.66129 18.9817 7.81882 18.4808 7.50916C18.3305 7.42315 18.1561 7.38877 17.9844 7.41125C18.0611 7.6646 18.0807 7.93181 18.0418 8.19365C18.0028 8.45548 17.9062 8.7054 17.759 8.92541Z" fill="black"/>
<path opacity="0.1" d="M8.69443 29.9577L11.3289 25.5337L10.516 25.0464L7.88156 29.4705C9.09517 30.5475 9.73271 31.5197 9.43216 32.0343C8.97677 32.7971 6.54273 32.196 3.88782 30.6977C4.02216 30.7797 4.15649 30.864 4.29538 30.9459C7.10513 32.6195 9.77142 33.3253 10.2496 32.5216C10.5387 32.0161 9.90121 31.0325 8.69443 29.9577Z" fill="black"/>
</svg>
