<svg width="522" height="401" viewBox="0 0 522 401" fill="none" xmlns="http://www.w3.org/2000/svg">
<path opacity="0.1" d="M509.353 272.57C508.885 272.912 508.455 273.244 507.997 273.567C506.305 274.763 504.535 275.843 502.697 276.799C493.071 281.874 481.205 284.352 469.648 286.036C443.726 289.816 417.262 290.55 390.91 291.27C319.708 293.225 248.333 295.176 177.303 290.671C149.24 288.894 120.559 285.919 95.1282 276.799C91.483 275.495 87.9096 274.058 84.4079 272.486C77.3218 269.301 70.5163 265.424 64.8568 260.793C59.5388 256.452 55.2263 251.467 52.6491 245.798C47.2749 233.992 50.1187 220.732 56.2553 209.16C58.804 204.479 61.6782 199.983 64.8568 195.704C69.5949 189.188 74.8194 182.86 79.5856 176.349C96.5454 153.206 107.612 123.926 91.957 100.189C87.4575 93.3697 80.956 87.3828 77.2891 80.2639C72.6118 71.1573 72.9719 61.045 74.4593 51.2227C74.6526 49.9754 74.8569 48.7406 75.072 47.5183C77.6118 32.9532 82.392 17.2609 97.1301 8.16829C112.439 -1.27982 134.179 -0.802738 153.178 2.55555C182.724 7.83153 209.979 18.8138 237.523 28.7296C265.068 38.6455 293.885 47.7054 324.156 48.6782C350.887 49.5389 382.065 43.0982 399.806 26.3582C417.038 10.1 449.428 8.86053 472.772 18.6828C488.796 25.4228 500.752 37.565 505.794 51.2227C506.815 53.9647 507.55 56.8048 507.987 59.6979C508.391 62.3419 508.523 65.0205 508.38 67.6914C508.31 69.0104 508.174 70.3153 507.987 71.6063C504.086 98.5568 476.009 119.815 458.941 143.889C450.602 155.648 444.713 169.773 450.447 182.453C459.194 201.775 489.61 208.646 507.978 223.024C511.434 225.641 514.478 228.763 517.005 232.285C525.915 245.082 522.627 262.365 509.353 272.57Z" fill="#E52F34"/>
<path d="M120.591 151.953C120.591 151.953 99.0758 113.823 66.6529 102.841C53.0467 98.2294 41.1711 89.5577 33.0513 77.7054C29.2072 72.0782 25.888 66.1099 23.1355 59.8756" stroke="#535461" stroke-width="2" stroke-miterlimit="10"/>
<path d="M2.7472 52.8176C6.44226 56.3864 23.6453 60.1282 23.6453 60.1282C23.6453 60.1282 19.4357 43.0468 15.7313 39.4593C13.9507 37.7731 11.5772 36.8565 9.12539 36.9082C6.67356 36.9599 4.34086 37.9756 2.6328 39.7354C0.924746 41.4951 -0.0210583 43.8571 0.000355861 46.3093C0.0217701 48.7616 1.00868 51.1067 2.7472 52.8363V52.8176Z" fill="#E52F34"/>
<path d="M12.4806 83.7298C17.5274 84.7307 33.9961 78.4959 33.9961 78.4959C33.9961 78.4959 21.157 66.4472 16.1055 65.4463C13.7047 65.0235 11.2339 65.5581 9.22247 66.9353C7.21106 68.3125 5.81917 70.4228 5.3451 72.814C4.87102 75.2052 5.35248 77.6869 6.6863 79.7274C8.02012 81.7678 10.1002 83.2046 12.4806 83.7298V83.7298Z" fill="#E52F34"/>
<path d="M47.9111 117.191C52.7754 115.507 63.8138 101.817 63.8138 101.817C63.8138 101.817 46.6575 97.8926 41.7978 99.5764C40.6054 99.9468 39.4996 100.553 38.546 101.359C37.5923 102.165 36.8104 103.154 36.2464 104.268C35.6825 105.382 35.3481 106.598 35.2632 107.844C35.1782 109.09 35.3444 110.34 35.7518 111.52C36.1592 112.701 36.7996 113.787 37.6349 114.715C38.4703 115.643 39.4835 116.394 40.6146 116.923C41.7457 117.452 42.9715 117.748 44.2192 117.794C45.467 117.84 46.7113 117.635 47.8783 117.191H47.9111Z" fill="#E52F34"/>
<path d="M80.4182 136.457C85.4977 135.615 98.7063 123.992 98.7063 123.992C98.7063 123.992 82.4621 117.224 77.3826 118.061C74.9432 118.464 72.7636 119.819 71.3233 121.828C69.883 123.838 69.3 126.337 69.7025 128.777C70.105 131.216 71.4602 133.396 73.4697 134.836C75.4793 136.276 77.9787 136.859 80.4182 136.457V136.457Z" fill="#E52F34"/>
<path d="M48.3273 65.1469C48.3273 70.292 39.0195 85.2265 39.0195 85.2265C39.0195 85.2265 29.693 70.3013 29.6884 65.1563C29.6605 63.9149 29.881 62.6804 30.3369 61.5254C30.7927 60.3704 31.4748 59.318 32.3429 58.4302C33.2111 57.5424 34.2478 56.837 35.3924 56.3554C36.5369 55.8738 37.7661 55.6257 39.0078 55.6257C40.2496 55.6257 41.4788 55.8738 42.6233 56.3554C43.7679 56.837 44.8046 57.5424 45.6728 58.4302C46.5409 59.318 47.223 60.3704 47.6788 61.5254C48.1347 62.6804 48.3551 63.9149 48.3273 65.1563V65.1469Z" fill="#E52F34"/>
<path d="M86.0637 88.1919C84.5248 93.1031 71.1712 104.562 71.1712 104.562C71.1712 104.562 66.7371 87.5137 68.2572 82.5792C69.0742 80.3198 70.732 78.4632 72.8847 77.3965C75.0374 76.3298 77.5189 76.1355 79.8114 76.854C82.104 77.5725 84.0306 79.1485 85.1894 81.2531C86.3481 83.3576 86.6496 85.8283 86.0309 88.1498L86.0637 88.1919Z" fill="#E52F34"/>
<path d="M119.665 115.577C118.982 120.68 107.757 134.23 107.757 134.23C107.757 134.23 100.507 118.197 101.209 113.094C101.572 110.673 102.873 108.493 104.83 107.023C106.787 105.553 109.244 104.912 111.669 105.239C114.095 105.565 116.295 106.832 117.795 108.766C119.294 110.7 119.973 113.147 119.684 115.577H119.665Z" fill="#E52F34"/>
<path opacity="0.25" d="M2.7472 52.8176C6.44226 56.3864 23.6453 60.1282 23.6453 60.1282C23.6453 60.1282 19.4357 43.0468 15.7313 39.4593C13.9507 37.7731 11.5772 36.8565 9.12539 36.9082C6.67356 36.9599 4.34086 37.9756 2.6328 39.7354C0.924746 41.4951 -0.0210583 43.8571 0.000355861 46.3093C0.0217701 48.7616 1.00868 51.1067 2.7472 52.8363V52.8176Z" fill="black"/>
<path opacity="0.25" d="M12.4806 83.7298C17.5274 84.7307 33.9961 78.4959 33.9961 78.4959C33.9961 78.4959 21.157 66.4472 16.1055 65.4463C13.7047 65.0235 11.2339 65.5581 9.22247 66.9353C7.21106 68.3125 5.81917 70.4228 5.3451 72.814C4.87102 75.2052 5.35248 77.6869 6.6863 79.7274C8.02012 81.7678 10.1002 83.2046 12.4806 83.7298V83.7298Z" fill="black"/>
<path opacity="0.25" d="M47.9111 117.191C52.7754 115.507 63.8138 101.817 63.8138 101.817C63.8138 101.817 46.6575 97.8926 41.7978 99.5764C40.6054 99.9468 39.4996 100.553 38.546 101.359C37.5923 102.165 36.8104 103.154 36.2464 104.268C35.6825 105.382 35.3481 106.598 35.2632 107.844C35.1782 109.09 35.3444 110.34 35.7518 111.52C36.1592 112.701 36.7996 113.787 37.6349 114.715C38.4703 115.643 39.4835 116.394 40.6146 116.923C41.7457 117.452 42.9715 117.748 44.2192 117.794C45.467 117.84 46.7113 117.635 47.8783 117.191H47.9111Z" fill="black"/>
<path opacity="0.25" d="M80.4182 136.457C85.4977 135.615 98.7063 123.992 98.7063 123.992C98.7063 123.992 82.4621 117.224 77.3826 118.061C74.9432 118.464 72.7636 119.819 71.3233 121.828C69.883 123.838 69.3 126.337 69.7025 128.777C70.105 131.216 71.4602 133.396 73.4697 134.836C75.4793 136.276 77.9787 136.859 80.4182 136.457V136.457Z" fill="black"/>
<path opacity="0.25" d="M48.3273 65.1469C48.3273 70.292 39.0195 85.2265 39.0195 85.2265C39.0195 85.2265 29.693 70.3013 29.6884 65.1563C29.6605 63.9149 29.881 62.6804 30.3369 61.5254C30.7927 60.3704 31.4748 59.318 32.3429 58.4302C33.2111 57.5424 34.2478 56.837 35.3924 56.3554C36.5369 55.8738 37.7661 55.6257 39.0078 55.6257C40.2496 55.6257 41.4788 55.8738 42.6233 56.3554C43.7679 56.837 44.8046 57.5424 45.6728 58.4302C46.5409 59.318 47.223 60.3704 47.6788 61.5254C48.1347 62.6804 48.3551 63.9149 48.3273 65.1563V65.1469Z" fill="black"/>
<path opacity="0.25" d="M86.0637 88.1919C84.5248 93.1031 71.1712 104.562 71.1712 104.562C71.1712 104.562 66.7371 87.5137 68.2572 82.5792C69.0742 80.3198 70.732 78.4632 72.8847 77.3965C75.0374 76.3298 77.5189 76.1355 79.8114 76.854C82.104 77.5725 84.0306 79.1485 85.1894 81.2531C86.3481 83.3576 86.6496 85.8283 86.0309 88.1498L86.0637 88.1919Z" fill="black"/>
<path opacity="0.25" d="M119.665 115.577C118.982 120.68 107.757 134.23 107.757 134.23C107.757 134.23 100.507 118.197 101.209 113.094C101.572 110.673 102.873 108.493 104.83 107.023C106.787 105.553 109.244 104.912 111.669 105.239C114.095 105.565 116.295 106.832 117.795 108.766C119.294 110.7 119.973 113.147 119.684 115.577H119.665Z" fill="black"/>
<path d="M119.352 151.195C119.352 151.195 115.142 107.612 89.9411 84.4314C79.3751 74.7026 72.0318 61.9804 69.4078 47.8363C68.1762 41.1324 67.5624 34.3296 67.5743 27.5135" stroke="#535461" stroke-width="2" stroke-miterlimit="10"/>
<path d="M51.7885 12.8128C53.7156 17.5883 67.9392 27.9485 67.9392 27.9485C67.9392 27.9485 71.0028 10.6192 69.0804 5.84367C68.1563 3.54876 66.3583 1.71497 64.0821 0.745705C61.8058 -0.223558 59.2378 -0.248892 56.9429 0.675275C54.648 1.59944 52.8142 3.39741 51.8449 5.67364C50.8757 7.94987 50.8503 10.5179 51.7745 12.8128H51.7885Z" fill="#E52F34"/>
<path d="M48.1449 45.0159C52.3545 47.9766 69.927 48.9448 69.927 48.9448C69.927 48.9448 63.1122 32.7334 58.9027 29.7726C56.8813 28.3461 54.376 27.7809 51.9379 28.2015C49.4998 28.6221 47.3287 29.994 45.9022 32.0154C44.4756 34.0368 43.9104 36.5421 44.331 38.9801C44.7516 41.4182 46.1235 43.5893 48.1449 45.0159V45.0159Z" fill="#E52F34"/>
<path d="M66.999 89.9552C72.1441 90.3902 87.7849 82.35 87.7849 82.35C87.7849 82.35 73.6922 71.8121 68.5613 71.3818C67.3267 71.2503 66.0783 71.3668 64.8894 71.7244C63.7005 72.082 62.5949 72.6735 61.6377 73.4642C60.6805 74.2549 59.8909 75.2288 59.3152 76.3288C58.7395 77.4288 58.3894 78.6327 58.2853 79.8699C58.1813 81.1071 58.3254 82.3526 58.7092 83.5333C59.0931 84.714 59.7089 85.8061 60.5206 86.7456C61.3323 87.685 62.3235 88.4529 63.436 89.0041C64.5485 89.5552 65.7599 89.8786 66.999 89.9552Z" fill="#E52F34"/>
<path d="M88.9074 120.75C93.8934 122.041 110.68 116.765 110.68 116.765C110.68 116.765 98.5707 103.996 93.5894 102.706C91.2116 102.129 88.7026 102.511 86.6039 103.769C84.5051 105.026 82.9847 107.058 82.3709 109.426C81.757 111.795 82.0988 114.309 83.3226 116.428C84.5463 118.546 86.5539 120.099 88.9121 120.75H88.9074Z" fill="#E52F34"/>
<path d="M88.4631 42.5557C86.3817 47.261 71.8166 57.1348 71.8166 57.1348C71.8166 57.1348 69.3377 39.7166 71.4191 35.0065C71.9011 33.867 72.6052 32.8348 73.4903 31.9702C74.3753 31.1055 75.4237 30.4258 76.5742 29.9705C77.7247 29.5152 78.9543 29.2935 80.1914 29.3183C81.4284 29.3431 82.6481 29.6139 83.7795 30.115C84.9108 30.6161 85.931 31.3374 86.7807 32.2368C87.6303 33.1363 88.2925 34.1959 88.7284 35.3538C89.1644 36.5118 89.3654 37.7449 89.3199 38.9814C89.2743 40.2179 88.9831 41.4329 88.4631 42.5557V42.5557Z" fill="#E52F34"/>
<path d="M113.627 78.8888C110.231 82.7569 93.3789 87.8224 93.3789 87.8224C93.3789 87.8224 96.2227 70.4603 99.6231 66.5922C100.43 65.6727 101.411 64.9213 102.509 64.3807C103.607 63.8402 104.8 63.5212 106.021 63.4419C107.242 63.3627 108.467 63.5247 109.626 63.9188C110.784 64.3128 111.854 64.9312 112.773 65.7386C113.693 66.546 114.444 67.5266 114.985 68.6245C115.525 69.7223 115.844 70.9158 115.924 72.1369C116.003 73.358 115.841 74.5828 115.447 75.7413C115.053 76.8998 114.434 77.9693 113.627 78.8888V78.8888Z" fill="#E52F34"/>
<path d="M133.271 117.565C130.577 121.953 114.824 129.792 114.824 129.792C114.824 129.792 114.693 112.196 117.387 107.808C118.681 105.7 120.76 104.191 123.166 103.615C125.572 103.039 128.108 103.442 130.217 104.735C132.326 106.029 133.835 108.108 134.411 110.514C134.987 112.92 134.584 115.456 133.29 117.565H133.271Z" fill="#E52F34"/>
<path opacity="0.1" d="M190.83 398.371C219.64 398.371 242.996 395.33 242.996 391.579C242.996 387.828 219.64 384.788 190.83 384.788C162.02 384.788 138.664 387.828 138.664 391.579C138.664 395.33 162.02 398.371 190.83 398.371Z" fill="#E52F34"/>
<path opacity="0.1" d="M85.4603 393.768C94.2121 393.768 101.307 392.554 101.307 391.055C101.307 389.557 94.2121 388.342 85.4603 388.342C76.7084 388.342 69.6136 389.557 69.6136 391.055C69.6136 392.554 76.7084 393.768 85.4603 393.768Z" fill="#E52F34"/>
<path d="M88.9028 360.849C88.9028 360.849 91.4706 364.212 87.7147 369.269C83.9589 374.325 80.8625 378.623 82.102 381.79C82.102 381.79 87.7662 372.365 92.392 372.234C97.0178 372.103 93.9823 366.518 88.9028 360.849Z" fill="#E52F34"/>
<path opacity="0.1" d="M88.9028 360.849C89.1271 361.175 89.3035 361.531 89.4266 361.906C93.9262 367.192 96.3256 372.126 91.9991 372.248C87.972 372.365 83.1357 379.568 81.9804 381.387C82.0185 381.528 82.0638 381.667 82.116 381.804C82.116 381.804 87.7802 372.379 92.406 372.248C97.0319 372.117 93.9823 366.518 88.9028 360.849Z" fill="black"/>
<path d="M93.6783 365.134C93.6783 366.317 93.5473 367.276 93.3836 367.276C93.2199 367.276 93.0842 366.341 93.0842 365.134C93.0842 363.927 93.2526 364.507 93.4163 364.507C93.58 364.507 93.6783 363.95 93.6783 365.134Z" fill="#FFD037"/>
<path d="M95.32 366.546C94.2816 367.112 93.3742 367.454 93.2947 367.309C93.2152 367.164 93.9963 366.588 95.0347 366.022C96.073 365.457 95.6614 365.868 95.7409 366.022C95.8204 366.177 96.3583 365.98 95.32 366.546Z" fill="#FFD037"/>
<path d="M75.3293 360.849C75.3293 360.849 72.7615 364.212 76.5173 369.269C80.2732 374.325 83.3695 378.623 82.1301 381.79C82.1301 381.79 76.4659 372.365 71.84 372.234C67.2142 372.103 70.2591 366.518 75.3293 360.849Z" fill="#E52F34"/>
<path opacity="0.1" d="M75.3293 360.849C75.105 361.175 74.9286 361.531 74.8054 361.906C70.3059 367.192 67.9064 372.126 72.2329 372.248C76.2647 372.365 81.0964 379.568 82.2517 381.387C82.2156 381.529 82.1703 381.668 82.116 381.804C82.116 381.804 76.4518 372.379 71.826 372.248C67.2002 372.117 70.2591 366.518 75.3293 360.849Z" fill="black"/>
<path d="M70.5538 365.134C70.5538 366.317 70.6847 367.276 70.8484 367.276C71.0121 367.276 71.1478 366.341 71.1478 365.134C71.1478 363.927 70.9794 364.507 70.8157 364.507C70.652 364.507 70.5538 363.95 70.5538 365.134Z" fill="#FFD037"/>
<path d="M68.9167 366.546C69.9551 367.112 70.8578 367.454 70.9373 367.309C71.0168 367.164 70.2357 366.588 69.1974 366.022C68.159 365.457 68.5706 365.868 68.4911 366.022C68.4116 366.177 67.8784 365.98 68.9167 366.546Z" fill="#FFD037"/>
<path d="M71.3723 381.364C71.3723 381.364 78.5566 381.139 80.7269 379.601C82.8971 378.062 91.7746 376.214 92.3125 378.689C92.8504 381.163 103.108 390.985 94.9973 391.051C86.8868 391.116 76.1525 389.788 73.9916 388.473C71.8307 387.159 71.3723 381.364 71.3723 381.364Z" fill="#A8A8A8"/>
<path opacity="0.2" d="M95.1376 390.19C87.0272 390.255 76.2928 388.927 74.1319 387.613C72.4855 386.607 71.8307 383.01 71.6108 381.355H71.3723C71.3723 381.355 71.84 387.145 73.9869 388.464C76.1338 389.783 86.8822 391.107 94.9926 391.041C97.3312 391.041 98.1451 390.19 98.0983 388.955C97.7756 389.713 96.8822 390.176 95.1376 390.19Z" fill="black"/>
<path d="M311.289 381.088C311.289 381.088 291.513 379.895 293.847 393.754C293.847 393.754 293.379 396.2 295.601 397.314C295.601 397.314 295.639 396.289 297.631 396.635C298.34 396.755 299.061 396.789 299.778 396.738C300.749 396.674 301.673 396.293 302.407 395.653V395.653C302.407 395.653 307.963 393.361 310.124 384.273C310.124 384.273 311.724 382.29 311.663 381.78L308.323 383.183C308.323 383.183 309.465 385.592 308.567 387.594C308.567 387.594 308.459 383.272 307.818 383.385C307.687 383.385 306.083 384.217 306.083 384.217C306.083 384.217 308.047 388.427 306.551 391.458C306.551 391.458 307.112 386.313 305.456 384.521L303.118 385.892C303.118 385.892 305.409 390.223 303.857 393.759C303.857 393.759 304.254 388.338 302.626 386.224L300.498 387.884C300.498 387.884 302.65 392.154 301.336 395.087C301.336 395.087 301.167 388.777 300.035 388.3C300.035 388.3 298.164 389.942 297.888 390.639C297.888 390.639 299.362 393.735 298.45 395.372C298.45 395.372 297.888 391.163 297.425 391.163C297.425 391.163 295.554 393.969 295.377 395.84C295.377 395.84 295.461 393.001 296.976 390.878C295.907 391.081 294.92 391.593 294.137 392.351C294.137 392.351 294.427 390.382 297.411 390.209C297.411 390.209 298.945 388.095 299.357 387.968C299.357 387.968 296.364 387.716 294.549 388.52C294.549 388.52 296.144 386.649 299.904 387.505L302.004 385.793C302.004 385.793 298.066 385.251 296.392 385.85C296.392 385.85 298.319 384.203 302.57 385.382L304.862 384.016C304.862 384.016 301.499 383.291 299.497 383.548C299.497 383.548 301.612 382.407 305.531 383.642L307.168 382.907C307.168 382.907 304.703 382.44 303.983 382.351C303.263 382.262 303.225 382.075 303.225 382.075C304.785 381.815 306.386 381.993 307.851 382.589C307.851 382.589 311.35 381.308 311.289 381.088Z" fill="#E52F34"/>
<path opacity="0.1" d="M297.669 400.887C305.398 400.887 311.663 399.827 311.663 398.52C311.663 397.213 305.398 396.154 297.669 396.154C289.94 396.154 283.674 397.213 283.674 398.52C283.674 399.827 289.94 400.887 297.669 400.887Z" fill="#E52F34"/>
<path d="M276.644 381.827C276.644 381.827 265.494 381.154 266.822 388.969C266.755 389.366 266.815 389.773 266.993 390.133C267.171 390.494 267.458 390.788 267.813 390.976C267.813 390.976 267.813 390.396 268.959 390.592C269.358 390.657 269.763 390.678 270.166 390.653C270.713 390.613 271.233 390.398 271.649 390.04V390.04C271.649 390.04 274.783 388.745 276.003 383.623C276.003 383.623 276.901 382.505 276.869 382.22L274.998 383.02C274.998 383.02 275.639 384.381 275.133 385.508C275.133 385.508 275.073 383.071 274.712 383.127C274.638 383.127 273.735 383.595 273.735 383.595C273.735 383.595 274.839 385.934 274.006 387.678C274.006 387.678 274.32 384.764 273.389 383.763L272.065 384.54C272.065 384.54 273.356 386.981 272.481 388.974C272.481 388.974 272.706 385.915 271.785 384.727L270.587 385.662C270.587 385.662 271.799 388.071 271.055 389.722C271.055 389.722 270.957 386.163 270.321 385.896C269.865 386.28 269.458 386.719 269.109 387.201C269.109 387.201 269.942 388.951 269.427 389.872C269.427 389.872 269.109 387.501 268.852 387.491C268.852 387.491 267.804 389.063 267.697 390.139C267.744 389.14 268.054 388.172 268.595 387.332C267.992 387.446 267.436 387.734 266.995 388.16C266.995 388.16 267.159 387.047 268.866 386.953C268.866 386.953 269.726 385.761 269.96 385.69C269.96 385.69 268.272 385.546 267.248 385.999C267.248 385.999 268.15 384.951 270.269 385.429L271.452 384.46C271.452 384.46 269.231 384.156 268.291 384.493C268.291 384.493 269.376 383.558 271.775 384.241L273.061 383.473C272.07 383.254 271.054 383.166 270.04 383.212C270.04 383.212 271.233 382.571 273.44 383.263L274.376 382.851C274.376 382.851 272.973 382.575 272.584 382.533C272.196 382.491 272.154 382.379 272.154 382.379C273.034 382.233 273.937 382.333 274.764 382.669C274.764 382.669 276.677 381.953 276.644 381.827Z" fill="#E52F34"/>
<path opacity="0.1" d="M268.964 392.992C273.322 392.992 276.855 392.395 276.855 391.659C276.855 390.922 273.322 390.326 268.964 390.326C264.606 390.326 261.074 390.922 261.074 391.659C261.074 392.395 264.606 392.992 268.964 392.992Z" fill="#E52F34"/>
<path d="M297.865 365.265C297.865 365.265 284.409 364.451 285.994 373.885C285.913 374.364 285.985 374.856 286.2 375.291C286.415 375.726 286.762 376.082 287.191 376.308C287.191 376.308 287.191 375.611 288.571 375.84C289.054 375.917 289.543 375.941 290.031 375.91C290.692 375.863 291.32 375.604 291.822 375.171V375.171C291.822 375.171 295.606 373.609 297.075 367.421C297.075 367.421 298.164 366.074 298.122 365.728L295.849 366.696C295.849 366.696 296.626 368.338 296.018 369.699C296.018 369.699 295.943 366.757 295.503 366.827C295.419 366.827 294.324 367.393 294.324 367.393C294.324 367.393 295.662 370.251 294.652 372.323C294.652 372.323 295.035 368.806 293.908 367.599L292.308 368.534C292.308 368.534 293.871 371.481 292.814 373.89C292.814 373.89 293.085 370.199 291.972 368.745L290.522 369.872C290.522 369.872 291.99 372.777 291.097 374.774C291.097 374.774 290.98 370.48 290.208 370.153C290.208 370.153 288.941 371.27 288.749 371.729C288.749 371.729 289.755 373.838 289.128 374.951C289.128 374.951 288.749 372.094 288.436 372.08C288.436 372.08 287.173 373.951 287.032 375.274C287.093 374.073 287.467 372.909 288.118 371.897C287.39 372.036 286.719 372.383 286.186 372.898C286.186 372.898 286.382 371.556 288.431 371.439C288.431 371.439 289.474 370.003 289.755 369.914C289.755 369.914 287.715 369.746 286.481 370.293C286.481 370.293 287.566 369.025 290.129 369.601L291.56 368.436C291.56 368.436 288.875 368.066 287.739 368.473C287.739 368.473 289.048 367.356 291.948 368.169L293.506 367.234C293.506 367.234 291.219 366.766 289.858 366.921C289.858 366.921 291.293 366.144 293.964 366.981L295.077 366.486C295.077 366.486 293.398 366.153 292.907 366.102C292.416 366.051 292.393 365.915 292.393 365.915C293.454 365.738 294.544 365.86 295.54 366.266C295.54 366.266 297.912 365.414 297.865 365.265Z" fill="#E52F34"/>
<path opacity="0.1" d="M288.599 378.74C293.861 378.74 298.127 378.02 298.127 377.131C298.127 376.242 293.861 375.522 288.599 375.522C283.337 375.522 279.072 376.242 279.072 377.131C279.072 378.02 283.337 378.74 288.599 378.74Z" fill="#E52F34"/>
<path d="M508.973 273.78V45H64V260.655C69.6829 265.398 76.5164 269.388 83.6446 272.667C87.1557 274.285 90.7416 275.765 94.4023 277.105H503.665L508.973 273.78Z" fill="url(#paint0_linear)"/>
<path d="M508.113 273.873V51.5482H64.9729V261.137C70.6324 265.749 77.4378 269.626 84.5239 272.83C88.0225 274.39 91.596 275.827 95.2443 277.143H502.813L508.113 273.873Z" fill="white"/>
<path d="M508.113 45.6502H64.9775V57.4088H508.113V45.6502Z" fill="#4E4EA2"/>
<path d="M73.7109 54.2629C75.39 54.2629 76.7512 52.9017 76.7512 51.2227C76.7512 49.5436 75.39 48.1824 73.7109 48.1824C72.0319 48.1824 70.6707 49.5436 70.6707 51.2227C70.6707 52.9017 72.0319 54.2629 73.7109 54.2629Z" fill="white"/>
<path d="M81.8962 54.2629C83.5753 54.2629 84.9364 52.9017 84.9364 51.2227C84.9364 49.5436 83.5753 48.1824 81.8962 48.1824C80.2171 48.1824 78.8559 49.5436 78.8559 51.2227C78.8559 52.9017 80.2171 54.2629 81.8962 54.2629Z" fill="white"/>
<path d="M90.0814 54.2629C91.7605 54.2629 93.1217 52.9017 93.1217 51.2227C93.1217 49.5436 91.7605 48.1824 90.0814 48.1824C88.4024 48.1824 87.0412 49.5436 87.0412 51.2227C87.0412 52.9017 88.4024 54.2629 90.0814 54.2629Z" fill="white"/>
<path d="M251.303 82.944H178.103V128.94H251.303V82.944Z" fill="#7070AC"/>
<path opacity="0.2" d="M149.951 82.944H76.7512V128.94H149.951V82.944Z" fill="#5A5773"/>
<path opacity="0.2" d="M352.655 82.944H279.455V128.94H352.655V82.944Z" fill="#5A5773"/>
<path opacity="0.2" d="M149.951 148.702H76.7512V194.698H149.951V148.702Z" fill="#5A5773"/>
<path opacity="0.2" d="M251.303 148.702H178.103V194.698H251.303V148.702Z" fill="#5A5773"/>
<path opacity="0.2" d="M352.655 148.702H279.455V194.698H352.655V148.702Z" fill="#5A5773"/>
<path opacity="0.2" d="M149.951 214.455H76.7512V260.452H149.951V214.455Z" fill="#5A5773"/>
<path opacity="0.2" d="M251.303 214.455H178.103V260.452H251.303V214.455Z" fill="#5A5773"/>
<path opacity="0.2" d="M352.655 214.455H279.455V260.452H352.655V214.455Z" fill="#5A5773"/>
<path d="M233.365 123.234L228.314 125.021L226.48 121.981C225.077 119.642 223.131 116.443 221.696 114.118C219.16 110.03 222.477 103.8 222.477 103.8C222.477 103.8 223.075 97.5465 225.208 95.6195C227.341 93.6924 227.935 103.8 227.935 103.8C236.499 107.692 231.911 116.845 231.911 116.845L232.743 120.475L233.365 123.234Z" fill="#EFB7B9"/>
<path opacity="0.1" d="M233.365 123.234L228.314 125.021L226.48 121.981V121.714C226.48 121.714 229.376 119.726 232.753 120.475L233.365 123.234Z" fill="black"/>
<path d="M225.208 143.721L227.739 141.578L226.471 122.299C226.471 122.299 233.019 117.818 237.865 124.829C237.865 124.829 237.668 129.113 237.865 130.283C238.061 131.452 236.504 132.621 237.865 133.786C239.226 134.951 237.865 138.852 237.865 138.852C237.865 138.852 239.404 141.578 240.377 142.355C241.349 143.131 242.327 149.563 240.377 150.924C238.426 152.285 234.769 155.404 234.769 156.766C234.769 158.127 230.091 161.443 230.091 161.443L225.985 156.013L225.208 143.721Z" fill="#FF6484"/>
<path d="M170.484 260.756C161.045 256.752 163.141 246.972 164.918 242.046C165.273 241.049 165.69 240.074 166.167 239.128L171.461 235.915C171.461 235.915 172.542 238.669 173.697 242.365C176.377 250.961 179.46 264.568 170.484 260.756Z" fill="#EFB7B9"/>
<path d="M183.459 349.993C182.82 351.239 182.348 352.563 182.056 353.932C181.588 356.134 181.384 358.384 181.447 360.634C181.485 362.192 181.616 363.212 181.616 363.212L171.101 370.443C171.101 370.443 171.162 369.596 171.265 368.352C171.536 365.04 172.102 358.894 172.635 358.099C173.005 357.547 173.262 355.33 173.426 353.272C173.59 351.214 173.655 349.409 173.655 349.409C173.655 349.409 186.307 344.666 183.459 349.993Z" fill="#EFB7B9"/>
<path d="M208.29 355.181C208.29 355.181 208.29 357.192 208.216 359.53C208.141 361.869 208 364.629 207.706 365.915C207.434 367.094 207.416 369.259 207.467 371.256C207.537 373.595 207.706 375.7 207.706 375.7C207.706 375.7 196.971 365.55 198.066 364.746C198.361 364.53 198.651 363.665 198.917 362.515C199.245 361.111 199.539 359.24 199.759 357.65C200.021 355.756 200.185 354.231 200.185 354.231L208.29 355.181Z" fill="#EFB7B9"/>
<path opacity="0.1" d="M183.459 349.993C182.82 351.239 182.348 352.563 182.056 353.932C179.178 353.856 176.305 353.636 173.449 353.272C173.608 351.261 173.679 349.409 173.679 349.409C173.679 349.409 186.307 344.666 183.459 349.993Z" fill="black"/>
<path opacity="0.1" d="M208.29 355.181C208.29 355.181 208.29 357.192 208.216 359.53C204.867 360.386 201.424 358.674 199.759 357.66C200.021 355.765 200.185 354.24 200.185 354.24L208.29 355.181Z" fill="black"/>
<path d="M230.269 255.695C225.985 265.049 224.231 276.144 224.231 276.144L222.673 285.498C222.673 285.498 223.454 289.586 222.673 291.144C221.892 292.701 220.334 295.237 220.334 295.237C220.334 295.237 221.504 304.778 220.334 305.751C219.165 306.724 220.334 312.566 220.334 312.566L216.438 332.21L210.985 357.524C205.727 361.813 198.73 356.359 198.73 356.359L200.274 339.806C200.274 339.806 202.612 310.807 201.639 309.619C200.666 308.431 202.028 304.75 202.028 304.75C202.028 304.75 203.393 301.242 202.42 299.881C201.448 298.52 202.612 295.597 202.612 295.597C202.612 295.597 202.224 283.716 203.393 280.99C204.563 278.263 203.393 261.396 203.393 261.396L202.926 256.144L202.654 253.235L202.631 252.949C202.631 252.949 202.453 254.114 202.163 255.919C201.303 261.415 199.469 272.804 198.744 275.148C198.251 276.836 197.582 278.468 196.747 280.017C196.747 280.017 197.757 285.859 196.747 287.416C195.737 288.974 196.593 290.728 196.593 290.728C196.593 290.728 197.565 295.597 194.642 297.542C191.719 299.488 194.642 300.466 194.642 300.466C194.642 300.466 192.5 305.143 191.723 307.084C190.947 309.025 191.723 311.761 191.723 311.761L190.166 327.533C190.166 327.533 188.8 334.152 188.997 338.632C189.193 343.113 187.243 353.431 187.243 353.431C187.243 353.431 172.247 353.431 169.937 351.677C167.626 349.923 173.795 332.814 173.795 332.814C173.795 332.814 175.549 302.823 175.157 302.047C174.764 301.27 175.157 295.424 176.522 294.259C177.888 293.094 176.522 290.751 176.522 290.751C176.522 290.751 176.134 286.074 176.522 284.909C176.911 283.744 176.461 279.844 176.461 279.844C176.461 279.844 175.157 270.302 174.965 264.848C174.773 259.395 173.795 247.131 173.795 247.131C173.795 247.131 174.815 239.544 174.969 235.933C175.026 234.605 175.62 232.944 176.373 231.382C177.215 229.618 178.185 227.918 179.273 226.293C179.273 226.293 225.414 212.654 227.35 214.011C227.865 214.371 228.613 216.817 229.352 220.358C231.41 230.25 233.421 248.819 230.269 255.695Z" fill="#444053"/>
<path d="M201.84 136.672C209.262 136.672 215.278 130.656 215.278 123.234C215.278 115.813 209.262 109.796 201.84 109.796C194.419 109.796 188.403 115.813 188.403 123.234C188.403 130.656 194.419 136.672 201.84 136.672Z" fill="#A1616A"/>
<path opacity="0.1" d="M229.352 220.367C227.804 221.162 226.766 221.71 226.766 221.71C226.766 221.71 204.956 232.032 198.753 231.448C193.955 230.98 181.705 231.247 176.368 231.378C177.211 229.614 178.18 227.913 179.268 226.289C179.268 226.289 225.414 212.654 227.35 214.011C227.865 214.38 228.613 216.817 229.352 220.367Z" fill="black"/>
<path d="M192.491 144.694C192.491 144.694 180.044 146.658 177.107 148.585C174.17 150.512 168.351 154.235 168.351 162.219C168.351 170.203 166.99 178.384 166.209 180.718C165.428 183.052 178.477 201.943 178.477 201.943L173.8 230.573C173.8 230.573 192.509 229.988 198.739 230.573C204.97 231.158 226.77 220.835 226.77 220.835C226.77 220.835 239.624 214.02 242.35 213.819C245.077 213.618 236.897 198.824 236.897 198.824C236.897 198.824 224.235 174.876 226.377 170.98C228.52 167.084 230.091 161.438 230.091 161.438L227.753 141.578C227.753 141.578 224.249 140.409 221.326 142.551C218.403 144.694 208.473 143.524 208.473 143.524L192.491 144.694Z" fill="#E53035"/>
<path opacity="0.1" d="M171.363 179.357L166.48 180.718L165.128 199.044C165.128 199.044 166.882 203.913 165.128 205.47C163.374 207.028 162.986 240.33 162.986 240.33C162.986 240.33 168.636 244.418 175.255 241.303C175.255 241.303 174.282 237.603 177.205 224.165C180.128 210.727 180.124 203.913 180.124 203.913C180.124 203.913 180.124 187.163 181.49 184.436C182.855 181.71 181.49 174.895 181.49 174.895C181.49 174.895 178.763 171.195 178.954 169.834C179.146 168.473 171.363 179.357 171.363 179.357Z" fill="black"/>
<path opacity="0.1" d="M173.697 242.379C170.83 243.344 167.708 243.231 164.918 242.06C165.273 241.063 165.69 240.088 166.167 239.142L171.461 235.929C171.461 235.929 172.561 238.684 173.697 242.379Z" fill="black"/>
<path d="M171.069 179.357L166.2 180.718L164.838 199.044C164.838 199.044 166.592 203.913 164.838 205.47C163.084 207.028 162.696 240.33 162.696 240.33C162.696 240.33 168.351 244.413 174.965 241.284C174.965 241.284 173.992 237.584 176.911 224.147C179.829 210.709 179.834 203.894 179.834 203.894C179.834 203.894 179.834 187.145 181.195 184.418C182.556 181.691 181.195 174.876 181.195 174.876C181.195 174.876 178.468 171.176 178.664 169.815C178.861 168.454 171.069 179.357 171.069 179.357Z" fill="#E53035"/>
<path opacity="0.1" d="M220.924 182.275C220.924 182.275 218.393 204.086 210.989 208.178C210.989 208.178 227.542 203.506 220.924 182.275Z" fill="black"/>
<path opacity="0.1" d="M183.73 184.226C183.73 184.226 192.879 188.702 190.746 191.817C188.613 194.932 183.73 184.226 183.73 184.226Z" fill="black"/>
<path opacity="0.1" d="M183.73 193.183C183.73 193.183 189.572 199.221 188.407 201.363C187.243 203.506 183.73 193.183 183.73 193.183Z" fill="black"/>
<path opacity="0.1" d="M230.854 143.136C230.854 143.136 233.145 147.027 233.365 149.563C233.585 152.098 230.854 143.136 230.854 143.136Z" fill="black"/>
<path opacity="0.1" d="M230.854 137.879C230.854 137.879 232.004 136.901 234.942 137.879C237.879 138.856 230.854 137.879 230.854 137.879Z" fill="black"/>
<path opacity="0.1" d="M219.609 251.7C214.784 252.385 209.864 251.755 205.367 249.876L202.912 256.162L202.64 253.253C203.042 250.812 203.824 248.197 205.367 247.538C205.367 247.538 210.774 251.845 219.609 251.7Z" fill="black"/>
<path opacity="0.1" d="M179.661 259.881C179.661 259.881 191.639 262.365 194.998 261.925L179.661 259.881Z" fill="black"/>
<path opacity="0.1" d="M180.905 263.019C180.905 263.019 186.017 262.8 188.571 263.824L180.905 263.019Z" fill="black"/>
<path opacity="0.1" d="M181.49 265.138C183.822 265.634 186.19 265.947 188.571 266.074L181.49 265.138Z" fill="black"/>
<path opacity="0.1" d="M181.195 291.939C181.415 291.794 191.419 289.455 192.664 291.135L181.195 291.939Z" fill="black"/>
<path opacity="0.1" d="M181.195 295.007C181.195 295.007 189.885 293.983 190.105 295.007C190.325 296.032 181.195 295.007 181.195 295.007Z" fill="black"/>
<path opacity="0.1" d="M181.195 297.781C181.195 297.781 190.47 295.863 191.564 296.331C192.659 296.799 181.195 297.781 181.195 297.781Z" fill="black"/>
<path opacity="0.1" d="M181.635 363.216L171.12 370.447C171.12 370.447 171.181 369.601 171.284 368.356C173.622 362.603 176.667 359.568 176.667 359.568C179.039 358.95 180.535 359.521 181.466 360.639C181.504 362.192 181.635 363.216 181.635 363.216Z" fill="black"/>
<path d="M182.659 369.713C181.173 373.103 180.425 376.77 180.465 380.471C180.524 383.505 179.755 386.499 178.239 389.128C178.02 389.499 177.772 389.852 177.5 390.185C177.5 390.185 170.194 390.125 167.635 388.006C167.348 387.778 167.113 387.491 166.948 387.164C165.484 384.245 169.796 373.071 169.796 373.071C172.06 364.456 176.658 359.853 176.658 359.853C184.848 357.734 182.659 369.713 182.659 369.713Z" fill="#444053"/>
<path opacity="0.1" d="M178.239 389.105C178.02 389.475 177.773 389.829 177.5 390.162C177.5 390.162 170.194 390.101 167.635 387.982C168.894 383.82 172.907 371.224 174.787 373.366C176.555 375.377 177.785 385.054 178.239 389.105Z" fill="black"/>
<path d="M177.238 374.147L176.728 393.015H179.179C179.179 393.015 179.577 376.462 180.671 374.147C181.766 371.832 177.238 374.147 177.238 374.147Z" fill="#444053"/>
<path opacity="0.1" d="M207.706 375.7C207.706 375.7 196.971 365.55 198.066 364.746C198.361 364.53 198.651 363.665 198.917 362.515C200.98 362.154 204.53 363.015 207.467 371.256C207.537 373.595 207.706 375.7 207.706 375.7Z" fill="black"/>
<path d="M209.31 387.019C209.228 387.054 209.141 387.079 209.053 387.094C207.79 387.313 203.136 387.187 200.531 387.094C200.053 387.078 199.601 386.877 199.268 386.535C198.936 386.192 198.75 385.733 198.749 385.255C198.749 384.554 198.749 383.698 198.693 382.786C198.571 379.905 198.225 376.476 197.191 375.704C195.362 374.301 193.917 369.54 197.191 363.511C197.191 363.511 203.468 358.717 207.996 373.127C207.996 373.127 208.435 377.239 210.405 378.698C212.374 380.157 210.189 386.603 209.31 387.019Z" fill="#444053"/>
<path opacity="0.1" d="M209.043 387.094C207.781 387.313 203.127 387.187 200.521 387.094C200.044 387.078 199.592 386.877 199.259 386.535C198.927 386.192 198.74 385.733 198.739 385.255C198.739 384.554 198.739 383.698 198.683 382.786C199.474 379.297 200.61 375.704 202.074 374.886C202.084 374.881 206.513 374.381 209.043 387.094Z" fill="black"/>
<path d="M197.986 374.46L199.165 390.162H200.662V373.123L197.986 374.46Z" fill="#444053"/>
<path opacity="0.1" d="M201.644 101.822C197.401 102.137 193.294 103.457 189.661 105.671C188.725 106.237 187.79 106.924 187.402 107.939C187.065 108.819 187.205 109.81 187.219 110.746C187.346 118.8 178.365 124.895 178.646 132.944C178.758 136.139 180.362 139.114 180.657 142.299C181.148 147.612 178.005 152.5 174.993 156.901C178.096 157.09 181.153 156.077 183.529 154.071C186.707 164.666 187.118 175.898 184.722 186.696H189.029C189.455 186.665 189.882 186.717 190.288 186.85C190.666 187.029 191.004 187.282 191.284 187.594C195.311 191.602 198.01 197.528 196.471 203.001L205.638 199.563C207.832 198.739 210.058 197.902 211.967 196.546C213.875 195.189 215.475 193.22 215.877 190.91C216.125 189.507 216.045 187.832 217.201 187.018C217.77 186.715 218.377 186.491 219.006 186.349C221.522 185.461 222.636 182.551 223.15 179.932C223.777 176.719 223.973 173.436 223.735 170.171C223.328 164.698 221.71 159.142 223.043 153.8C223.796 150.802 225.47 148.01 225.606 144.913C225.826 139.81 221.836 135.414 221.242 130.339C220.826 126.803 222.102 123.225 221.686 119.689C221.455 117.864 220.787 116.121 219.739 114.609C218.691 113.097 217.294 111.86 215.666 111.003C214.539 110.423 213.328 110.035 212.215 109.394C209.675 107.921 208.052 105.269 205.746 103.445C203.44 101.62 199.6 100.933 197.865 103.304L201.644 101.822Z" fill="black"/>
<path d="M201.644 101.237C197.401 101.553 193.294 102.872 189.661 105.086C188.725 105.652 187.79 106.34 187.402 107.355C187.065 108.234 187.205 109.226 187.219 110.161C187.346 118.215 178.365 124.31 178.646 132.364C178.758 135.554 180.362 138.529 180.657 141.719C181.148 147.032 178.005 151.92 174.993 156.326C178.095 156.508 181.15 155.495 183.529 153.496C186.707 164.087 187.117 175.316 184.722 186.111H189.029C189.455 186.081 189.883 186.135 190.288 186.27C190.666 186.446 191.005 186.697 191.284 187.009C195.311 191.022 198.01 196.943 196.471 202.416L205.638 198.978C207.832 198.155 210.058 197.318 211.967 195.961C213.875 194.605 215.475 192.636 215.877 190.325C216.125 188.922 216.045 187.247 217.201 186.434C217.77 186.131 218.377 185.906 219.006 185.765C221.522 184.876 222.636 181.967 223.15 179.347C223.782 176.132 223.983 172.846 223.749 169.577C223.342 164.104 221.724 158.548 223.057 153.206C223.81 150.208 225.484 147.416 225.62 144.319C225.84 139.216 221.85 134.82 221.256 129.745C220.84 126.209 222.116 122.635 221.7 119.095C221.468 117.27 220.8 115.528 219.752 114.016C218.704 112.504 217.308 111.267 215.681 110.409C214.553 109.829 213.342 109.441 212.229 108.805C209.689 107.327 208.066 104.675 205.76 102.851C203.454 101.026 199.614 100.339 197.879 102.71L201.644 101.237Z" fill="#3D3A4B"/>
<g opacity="0.1">
<path opacity="0.1" d="M187.21 108.215C187.191 108.396 187.182 108.577 187.182 108.758C187.196 108.58 187.205 108.398 187.21 108.215Z" fill="black"/>
<path opacity="0.1" d="M221.204 126.939C221.373 124.46 221.925 121.971 221.719 119.502C221.565 121.981 221.013 124.469 221.204 126.939Z" fill="black"/>
<path opacity="0.1" d="M180.657 139.263C180.386 136.363 179.034 133.65 178.716 130.755C178.653 131.286 178.629 131.821 178.646 132.355C178.758 135.512 180.325 138.463 180.643 141.607C180.72 140.828 180.725 140.043 180.657 139.263Z" fill="black"/>
<path opacity="0.1" d="M223.075 150.783C222.637 152.687 222.48 154.644 222.608 156.593C222.654 155.456 222.811 154.327 223.075 153.22C223.828 150.222 225.503 147.43 225.638 144.333C225.661 143.783 225.636 143.233 225.564 142.687C225.199 145.47 223.744 148.061 223.075 150.783Z" fill="black"/>
<path opacity="0.1" d="M183.529 151.036C181.578 152.671 179.163 153.652 176.625 153.842C176.092 154.675 175.54 155.489 174.993 156.293C178.095 156.475 181.15 155.463 183.529 153.463C185.238 159.149 186.154 165.044 186.251 170.98C186.39 164.231 185.471 157.501 183.529 151.036V151.036Z" fill="black"/>
<path opacity="0.1" d="M223.164 176.897C222.65 179.516 221.536 182.425 219.02 183.309C218.39 183.45 217.783 183.676 217.215 183.983C216.059 184.797 216.139 186.48 215.891 187.874C215.489 190.185 213.894 192.149 211.981 193.487C210.068 194.825 207.846 195.685 205.652 196.508L196.906 199.783C196.861 200.661 196.719 201.531 196.485 202.378L205.652 198.941C207.846 198.117 210.072 197.28 211.981 195.924C213.889 194.567 215.489 192.598 215.891 190.288C216.139 188.884 216.059 187.21 217.215 186.396C217.784 186.093 218.391 185.868 219.02 185.727C221.536 184.839 222.65 181.929 223.164 179.31C223.697 176.584 223.918 173.807 223.824 171.031C223.762 173.001 223.541 174.962 223.164 176.897V176.897Z" fill="black"/>
<path opacity="0.1" d="M191.298 184.544C191.02 184.231 190.681 183.978 190.302 183.8C189.896 183.668 189.469 183.614 189.043 183.641H185.222C185.072 184.455 184.913 185.269 184.754 186.078H189.062C189.488 186.049 189.915 186.103 190.32 186.237C190.699 186.413 191.038 186.665 191.317 186.976C194.263 189.913 196.494 193.87 196.878 197.93C197.35 193.075 194.834 188.08 191.298 184.544Z" fill="black"/>
</g>
<path opacity="0.1" d="M169.927 200.484C169.927 200.484 173.407 199.025 174.184 200.484C174.96 201.943 169.927 200.484 169.927 200.484Z" fill="black"/>
<path opacity="0.1" d="M171.157 202.986C171.157 202.986 174.637 201.527 175.418 202.986C176.2 204.446 171.157 202.986 171.157 202.986Z" fill="black"/>
<path opacity="0.1" d="M386.832 14.1411C386.832 14.1411 369.035 13.0701 371.135 25.5397C371.135 25.5397 370.718 27.7427 372.716 28.7436C372.716 28.7436 372.748 27.8082 374.54 28.1309C375.178 28.2383 375.826 28.2697 376.471 28.2244C377.343 28.1641 378.17 27.8209 378.829 27.2469V27.2469C378.829 27.2469 383.829 25.1842 385.775 17.0083C385.775 17.0083 387.215 15.2216 387.178 14.7632L384.175 16.0495C384.175 16.0495 385.199 18.2151 384.39 20.0158C384.39 20.0158 384.297 16.1243 383.717 16.2179C383.6 16.2179 382.159 16.9662 382.159 16.9662C382.159 16.9662 383.922 20.7408 382.589 23.4864C382.589 23.4864 383.094 18.8371 381.607 17.2422L379.484 18.5004C379.484 18.5004 381.546 22.3966 380.148 25.5771C380.148 25.5771 380.508 20.6987 379.039 18.7997L377.122 20.2918C377.122 20.2918 379.063 24.1131 377.893 26.7511C377.893 26.7511 377.739 21.0682 376.719 20.6426C376.719 20.6426 375.045 22.1206 374.792 22.7286C374.792 22.7286 376.116 25.535 375.293 26.985C375.293 26.985 374.788 23.2057 374.357 23.187C374.357 23.187 372.688 25.694 372.514 27.3966C372.596 25.8079 373.091 24.2681 373.95 22.9298C372.987 23.1121 372.099 23.5741 371.397 24.2581C371.397 24.2581 371.654 22.4854 374.362 22.3264C374.362 22.3264 375.742 20.4274 376.111 20.3105C376.111 20.3105 373.417 20.086 371.785 20.811C371.785 20.811 373.221 19.1365 376.607 19.8755L378.478 18.332C378.478 18.332 374.933 17.8643 373.427 18.3834C373.427 18.3834 375.157 16.9054 378.988 17.9812L381.046 16.7511C381.046 16.7511 378.024 16.0963 376.224 16.3348C376.224 16.3348 378.123 15.3105 381.649 16.419L383.123 15.7595C383.123 15.7595 380.905 15.3245 380.26 15.2543C379.615 15.1842 379.577 15.0064 379.577 15.0064C380.98 14.773 382.42 14.935 383.735 15.4742C383.735 15.4742 386.883 14.3376 386.832 14.1411Z" fill="#E52F34"/>
<path opacity="0.1" d="M361.467 4.02885C361.467 4.02885 346.499 13.7155 355.578 22.5135C355.578 22.5135 356.546 24.5341 358.749 24.1599C358.749 24.1599 358.225 23.3928 359.858 22.5836C360.436 22.2923 360.978 21.9327 361.471 21.5125C362.138 20.9474 362.603 20.1807 362.795 19.3282V19.3282C362.795 19.3282 365.601 14.6977 362.327 6.96151C362.327 6.96151 362.43 4.66964 362.112 4.33288L360.456 7.13925C360.456 7.13925 362.566 8.27583 362.982 10.2029C362.982 10.2029 360.601 7.12989 360.176 7.54617C360.092 7.63036 359.362 9.07564 359.362 9.07564C359.362 9.07564 363.024 11.0682 363.572 14.0663C363.572 14.0663 361.233 10.0205 359.077 9.62289L358.104 11.868C358.104 11.868 362.079 13.7857 362.837 17.1767C362.837 17.1767 360.232 13.0326 357.926 12.3731L357.271 14.7118C357.271 14.7118 361.107 16.6575 361.719 19.4826C361.719 19.4826 358.23 15.0018 357.154 15.273C357.154 15.273 356.687 17.4527 356.836 18.0794C356.836 18.0794 359.558 19.5387 359.764 21.2132C359.764 21.2132 357.117 18.4676 356.775 18.6968C356.775 18.6968 356.916 21.7043 357.79 23.1917C356.916 21.8637 356.403 20.3305 356.303 18.7436C355.635 19.4611 355.193 20.3588 355.031 21.3254C355.031 21.3254 354.189 19.7445 356.28 18.0139C356.28 18.0139 356.28 15.6753 356.49 15.3526C356.49 15.3526 354.189 16.7557 353.3 18.318C353.3 18.318 353.469 16.1196 356.644 14.7258L357.252 12.3638C357.252 12.3638 354.109 14.0757 353.216 15.3993C353.216 15.3993 353.735 13.1823 357.454 11.7791L358.389 9.56676C358.389 9.56676 355.583 10.8343 354.254 12.0925C354.254 12.0925 355.19 10.1374 358.679 8.94468L359.474 7.54149C359.474 7.54149 357.43 8.50502 356.869 8.83242C356.308 9.15983 356.172 9.03822 356.172 9.03822C357.163 8.01863 358.418 7.29474 359.797 6.94748C359.797 6.94748 361.626 4.15982 361.467 4.02885Z" fill="#E52F34"/>
<path opacity="0.1" d="M338.688 15.3151C338.688 15.3151 329.741 30.7502 341.822 34.4593C341.822 34.4593 343.604 35.8204 345.396 34.4593C345.396 34.4593 344.586 34.0196 345.672 32.5556C346.048 32.0331 346.362 31.4679 346.607 30.8718C346.945 30.0652 347.012 29.1707 346.799 28.3227V28.3227C346.799 28.3227 347.196 22.9251 340.765 17.5135C340.765 17.5135 339.83 15.4274 339.362 15.273L339.161 18.5471C339.161 18.5471 341.556 18.6033 342.804 20.1327C342.804 20.1327 339.287 18.4723 339.109 19.0289C339.072 19.1412 339.077 20.7595 339.077 20.7595C339.077 20.7595 343.281 20.8858 345.152 23.3086C345.152 23.3086 341.223 20.7689 339.133 21.3863L339.282 23.8278C339.282 23.8278 343.693 23.7343 345.905 26.4143C345.905 26.4143 341.696 23.9026 339.357 24.361L339.825 26.7417C339.825 26.7417 344.128 26.7417 345.952 28.9775C345.952 28.9775 340.807 26.564 339.97 27.2796C339.97 27.2796 340.536 29.4405 340.966 29.941C340.966 29.941 344.053 30.0065 344.998 31.405C344.998 31.405 341.392 30.1562 341.191 30.521C341.191 30.521 342.683 33.1356 344.137 34.0617C342.757 33.2793 341.605 32.1509 340.793 30.7876C340.524 31.7295 340.537 32.7296 340.831 33.6641C340.831 33.6641 339.362 32.6398 340.438 30.1468C340.438 30.1468 339.362 28.0607 339.423 27.6819C339.423 27.6819 338.019 29.9878 337.926 31.7698C337.926 31.7698 337.075 29.7352 339.273 27.0551L338.744 24.6697C338.744 24.6697 336.719 27.6211 336.523 29.2067C336.523 29.2067 335.98 26.9943 338.66 24.0617L338.483 21.6716C338.483 21.6716 336.546 24.0804 335.947 25.7969C335.947 25.7969 335.882 23.636 338.459 20.984L338.529 19.3703C338.529 19.3703 337.126 21.1524 336.794 21.709C336.462 22.2656 336.266 22.1861 336.266 22.1861C336.687 20.8267 337.477 19.6108 338.548 18.6734C338.548 18.6734 338.885 15.3572 338.688 15.3151Z" fill="#E52F34"/>
<path d="M439.9 157.261H434.287V151.649H430.078V157.261H424.465V161.471H430.078V167.084H434.287V161.471H439.9V157.261Z" fill="white"/>
<defs>
<linearGradient id="paint0_linear" x1="286.484" y1="277.105" x2="286.484" y2="45" gradientUnits="userSpaceOnUse">
<stop stop-color="#808080" stop-opacity="0.25"/>
<stop offset="0.54" stop-color="#808080" stop-opacity="0.12"/>
<stop offset="1" stop-color="#808080" stop-opacity="0.1"/>
</linearGradient>
</defs>
</svg>
