<svg width="190" height="372" viewBox="0 0 190 372" fill="none" xmlns="http://www.w3.org/2000/svg">
<path d="M96.2409 371.225C143.6 371.225 181.993 366.242 181.993 360.096C181.993 353.951 143.6 348.968 96.2409 348.968C48.8814 348.968 10.489 353.951 10.489 360.096C10.489 366.242 48.8814 371.225 96.2409 371.225Z" fill="#E6E6E6"/>
<path d="M100.971 321.35C100.971 321.35 105.579 337.222 108.651 341.318C111.722 345.413 114.282 352.069 112.746 353.093C111.21 354.117 108.139 366.405 112.234 366.917C116.33 367.429 125.546 353.605 126.058 348.997C126.57 344.39 128.618 328.006 128.618 328.006C128.618 328.006 132.201 313.671 126.57 312.647C120.938 311.623 112.234 311.111 112.234 311.111L100.971 321.35Z" fill="#2F2E41"/>
<path d="M79.4677 338.246C79.4677 338.246 72.812 355.653 71.2761 356.677C69.7401 357.701 64.1084 366.916 75.3719 366.916C86.6354 366.916 92.7791 363.845 92.7791 363.845L96.363 359.749C96.363 359.749 96.363 348.997 95.339 347.461C94.3151 345.925 95.339 338.246 95.339 338.246H79.4677Z" fill="#2F2E41"/>
<path d="M33.9017 179.021C33.9017 179.021 25.7101 234.314 32.8777 252.233C40.0454 270.153 47.2131 275.272 47.2131 275.272L101.483 325.958C101.483 325.958 118.378 317.255 116.842 311.623C116.842 311.623 113.258 309.575 112.746 308.039C112.234 306.503 105.579 305.991 105.579 305.991C105.579 305.991 102.507 302.407 102.507 300.359C102.507 298.311 75.8839 261.961 67.1803 259.401C67.1803 259.401 62.5725 253.769 63.0844 252.745C63.5964 251.721 61.5485 248.138 61.5485 248.138L66.6683 228.171L98.9229 223.051C98.9229 223.051 112.234 175.949 100.971 172.365C89.7072 168.781 33.9017 179.021 33.9017 179.021Z" fill="#2F2E41"/>
<path d="M97.899 214.859L98.9229 223.051C98.9229 223.051 98.923 244.554 97.899 246.602C96.8751 248.65 96.3631 251.722 97.899 253.769C99.4349 255.817 101.995 260.937 100.971 262.985C99.9469 265.033 103.019 322.886 98.923 326.982C94.8272 331.078 96.3631 336.198 96.8751 336.71C97.3871 337.222 96.3631 339.27 96.3631 339.27C96.3631 339.27 75.372 342.854 76.908 339.27C78.4439 335.686 78.4439 333.638 79.4678 332.614C80.4918 331.59 79.4678 330.054 79.4678 330.054C79.4678 330.054 81.0038 313.671 79.4678 312.647C77.9319 311.623 73.3241 262.473 73.3241 261.961C73.3241 261.449 71.7881 260.425 71.7881 258.377C71.7881 256.329 71.7881 249.674 69.2283 248.65C66.6684 247.626 67.1803 222.539 67.1803 222.539L97.899 214.859Z" fill="#2F2E41"/>
<path d="M61.5485 32.083C61.5485 32.083 63.5964 47.4424 69.7402 50.5142C75.8839 53.5861 79.9797 55.122 79.9797 55.122L74.8599 73.0413L72.812 88.4006H49.261L36.4616 78.161L40.5574 61.2658L42.6053 58.1939C42.6053 58.1939 45.1652 46.9304 43.1173 43.3466C41.0694 39.7627 61.5485 32.083 61.5485 32.083Z" fill="#FFB9B9"/>
<path d="M51.309 69.4574L54.8929 76.1131C54.8929 76.1131 57.4528 66.8975 61.0366 65.3616C64.6205 63.8257 73.3241 61.2658 73.3241 59.2179C73.3241 57.17 72.8121 52.0502 74.86 52.0502C76.9079 52.0502 96.8751 58.1939 99.9469 60.2418C103.019 62.2897 103.531 64.3376 103.531 64.3376L97.899 123.215C97.899 123.215 106.091 150.862 103.531 161.613C100.971 172.365 98.923 173.901 92.7792 175.437C86.6355 176.973 90.2193 171.853 72.3001 176.973C54.3809 182.093 43.1174 180.557 39.0216 180.557C34.9258 180.557 32.3659 182.604 31.3419 183.116C30.3179 183.628 30.8299 180.557 34.4138 175.949C37.9976 171.341 36.4617 163.661 36.4617 163.661C36.4617 163.661 32.3658 150.35 34.9257 145.23C37.4856 140.11 41.0695 133.455 37.9976 131.407C34.9257 129.359 30.8299 113.999 30.8299 113.999L19.5664 74.0652L42.6054 58.1939C42.6054 58.1939 41.5814 65.3616 45.1653 66.8975C48.7491 68.4335 51.309 69.4574 51.309 69.4574Z" fill="#E52F34"/>
<path d="M22.6382 73.5532H19.5664C19.5664 73.5532 14.4466 82.2568 14.4466 88.4006C14.4466 94.5443 17.0065 129.359 17.0065 129.359L31.8538 144.718L35.4377 132.943L36.4616 106.832L22.6382 73.5532Z" fill="#E52F34"/>
<path d="M30.8299 127.823C30.8299 127.823 13.9346 123.215 14.4466 130.383C14.9586 137.55 17.5184 146.254 25.7101 148.302C33.9017 150.35 36.4616 139.086 36.4616 139.086C36.4616 139.086 37.4856 128.847 30.8299 127.823Z" fill="#E52F34"/>
<path d="M94.3152 151.374C94.3152 151.374 93.2912 174.925 87.1475 177.485L101.995 181.069C101.995 181.069 109.163 156.494 108.139 155.47C107.115 154.446 94.3152 151.374 94.3152 151.374Z" fill="#FFB9B9"/>
<path d="M6.5004 103.436L15.2929 99.5946C15.6213 99.4511 15.9932 99.444 16.3268 99.5747C16.6605 99.7055 16.9285 99.9634 17.0719 100.292L26.8468 122.668C27.022 123.069 27.0307 123.523 26.871 123.931C26.7113 124.338 26.3962 124.665 25.9951 124.841L17.751 128.442C17.3499 128.617 16.8956 128.626 16.4881 128.466C16.0806 128.307 15.7531 127.992 15.5779 127.59L5.8031 105.215C5.73207 105.052 5.69376 104.877 5.69036 104.7C5.68696 104.522 5.71853 104.346 5.78328 104.181C5.84803 104.015 5.9447 103.865 6.06774 103.737C6.19078 103.609 6.3378 103.507 6.5004 103.436Z" fill="#2F2E41"/>
<path opacity="0.1" d="M6.5004 103.436L15.2929 99.5946C15.6213 99.4511 15.9932 99.444 16.3268 99.5747C16.6605 99.7055 16.9285 99.9634 17.0719 100.292L26.8468 122.668C27.022 123.069 27.0307 123.523 26.871 123.931C26.7113 124.338 26.3962 124.665 25.9951 124.841L17.751 128.442C17.3499 128.617 16.8956 128.626 16.4881 128.466C16.0806 128.307 15.7531 127.992 15.5779 127.59L5.8031 105.215C5.73207 105.052 5.69376 104.877 5.69036 104.7C5.68696 104.522 5.71853 104.346 5.78328 104.181C5.84803 104.015 5.9447 103.865 6.06774 103.737C6.19078 103.609 6.3378 103.507 6.5004 103.436Z" fill="black"/>
<path d="M6.99927 104.578L14.6649 101.229C14.9933 101.086 15.3652 101.078 15.6989 101.209C16.0325 101.34 16.3005 101.598 16.444 101.926L25.7199 123.16C25.8951 123.561 25.9038 124.015 25.744 124.423C25.5843 124.83 25.2693 125.158 24.8682 125.333L17.7509 128.442C17.3498 128.617 16.8955 128.626 16.488 128.466C16.0805 128.307 15.7531 127.992 15.5779 127.59L6.302 106.357C6.15854 106.028 6.15142 105.656 6.28218 105.323C6.41295 104.989 6.67089 104.721 6.99927 104.578Z" fill="#2F2E41"/>
<path d="M14.0491 113.635C15.2938 113.091 15.8561 111.628 15.305 110.366C14.7539 109.105 13.2981 108.523 12.0534 109.067C10.8086 109.611 10.2463 111.074 10.7974 112.336C11.3485 113.597 12.8043 114.179 14.0491 113.635Z" fill="#F2F2F2"/>
<path opacity="0.1" d="M98.1549 71.2493L101.483 66.3855C101.483 66.3855 113.77 85.3287 112.746 98.1282C111.722 110.928 110.698 111.44 110.698 113.487C110.698 115.535 108.139 115.535 110.698 118.095C113.258 120.655 116.842 124.239 114.794 126.287C112.746 128.335 111.21 128.335 111.722 130.895C112.05 132.754 112.221 134.638 112.234 136.526C112.234 136.526 107.882 144.974 106.347 144.974C104.811 144.974 90.2193 158.542 90.2193 157.006C90.2193 155.47 91.7552 144.718 91.7552 143.182C91.7552 141.646 92.2672 136.526 93.2911 134.991C94.3151 133.455 94.3151 133.967 93.2911 132.431C92.2672 130.895 92.2672 132.431 92.2672 130.895C92.2672 129.359 92.7792 127.311 91.2432 126.799C89.7073 126.287 88.1713 126.799 89.1953 124.239C90.2193 121.679 89.1953 119.631 88.6834 119.631C88.1714 119.631 85.6115 119.119 87.1474 117.583C88.6833 116.047 84.0756 86.3527 84.0756 86.3527C84.0756 86.3527 84.8435 78.929 98.1549 71.2493Z" fill="black"/>
<path d="M95.3391 60.2418L104.043 64.3376C104.043 64.3376 116.33 83.2808 115.306 96.0802C114.282 108.88 113.258 109.392 113.258 111.44C113.258 113.487 110.698 113.487 113.258 116.047C115.818 118.607 119.402 122.191 117.354 124.239C115.306 126.287 113.77 126.287 114.282 128.847C114.61 130.706 114.781 132.59 114.794 134.479C114.794 134.479 110.186 159.054 108.651 159.054C107.115 159.054 92.7792 156.494 92.7792 154.958C92.7792 153.422 94.3152 142.67 94.3152 141.134C94.3152 139.598 94.8272 134.479 95.8511 132.943C96.8751 131.407 96.8751 131.919 95.8511 130.383C94.8272 128.847 94.8271 130.383 94.8271 128.847C94.8271 127.311 95.3391 125.263 93.8032 124.751C92.2673 124.239 90.7313 124.751 91.7553 122.191C92.7793 119.631 91.7553 117.583 91.2433 117.583C90.7314 117.583 88.1715 117.071 89.7074 115.535C91.2434 113.999 86.6355 84.3048 86.6355 84.3048C86.6355 84.3048 82.0277 67.9215 95.3391 60.2418Z" fill="#E52F34"/>
<path d="M17.6518 131.479C17.175 131.606 16.6693 131.564 16.2198 131.361C15.7702 131.158 15.4043 130.807 15.1835 130.366C12.8308 125.662 6.45618 111.864 12.3988 111.44C17.881 111.048 22.7642 121.738 24.7576 126.787C24.8844 127.108 24.9418 127.452 24.926 127.797C24.9101 128.141 24.8213 128.478 24.6655 128.786C24.5097 129.094 24.2905 129.365 24.0222 129.582C23.7538 129.798 23.4426 129.956 23.109 130.043L17.6518 131.479Z" fill="#FFB9B9"/>
<path d="M47.2132 46.4184C57.6752 46.4184 66.1564 37.9373 66.1564 27.4752C66.1564 17.0132 57.6752 8.53205 47.2132 8.53205C36.7512 8.53205 28.27 17.0132 28.27 27.4752C28.27 37.9373 36.7512 46.4184 47.2132 46.4184Z" fill="#FFB9B9"/>
<path d="M40.2524 16.5654C37.8887 17.381 35.449 17.9569 32.9701 18.2846C31.1044 18.5757 28.9211 18.7247 27.6099 17.366C26.3231 16.0326 26.5313 13.8083 27.409 12.1763C28.2867 10.5443 29.6928 9.2648 30.7476 7.74123C32.4065 5.34501 33.3855 2.16827 36.0382 0.961138C37.1375 0.54031 38.3041 0.322418 39.4812 0.318033C46.3646 -0.120823 53.5294 -0.516211 59.904 2.11782C62.2992 3.03038 64.4212 4.54023 66.0685 6.50391C67.1475 7.94982 67.9801 9.56416 68.5325 11.2816C70.2361 16.3354 70.6149 21.7416 69.6327 26.9835C68.6506 32.2255 66.3404 37.1279 62.9228 41.2221C60.5997 39.129 61.61 34.2924 58.6705 33.2259C57.7061 32.876 56.6159 33.1195 55.628 32.8425C52.5235 31.972 52.6794 27.1741 50.0949 25.2463C49.5304 24.9426 49.0305 24.5318 48.6231 24.0369C48.3959 23.5623 48.2972 23.0363 48.3368 22.5116C48.3179 20.7142 49.1622 16.1486 47.4477 14.9166C45.7024 13.6626 41.9294 15.9599 40.2524 16.5654Z" fill="#2F2E41"/>
<path d="M29.9402 326.821C29.9402 326.821 28.5476 296.87 0 300.352L29.9402 326.821Z" fill="#E6E6E6"/>
<path d="M150.312 256.68C150.312 256.68 151.704 226.729 180.252 230.211L150.312 256.68Z" fill="#E6E6E6"/>
<path d="M149.722 352.233C149.686 351.918 146.295 320.509 160.025 303.887C165.092 297.753 171.882 294.317 180.206 293.677L180.298 294.861C172.309 295.476 165.796 298.766 160.942 304.641C147.533 320.872 150.866 351.789 150.901 352.099L149.722 352.233Z" fill="#E6E6E6"/>
<path d="M30.0704 291.965H28.8829V357.279H30.0704V291.965Z" fill="#E6E6E6"/>
<path d="M150.011 226.057H148.823V357.279H150.011V226.057Z" fill="#E6E6E6"/>
<path d="M29.9402 294.085C35.3238 294.085 39.6881 289.721 39.6881 284.337C39.6881 278.953 35.3238 274.589 29.9402 274.589C24.5565 274.589 20.1922 278.953 20.1922 284.337C20.1922 289.721 24.5565 294.085 29.9402 294.085Z" fill="#E52F34"/>
<path d="M150.312 226.729C155.695 226.729 160.06 222.365 160.06 216.981C160.06 211.598 155.695 207.233 150.312 207.233C144.928 207.233 140.564 211.598 140.564 216.981C140.564 222.365 144.928 226.729 150.312 226.729Z" fill="#E52F34"/>
<path d="M180.252 304.017C185.636 304.017 190 299.652 190 294.269C190 288.885 185.636 284.521 180.252 284.521C174.868 284.521 170.504 288.885 170.504 294.269C170.504 299.652 174.868 304.017 180.252 304.017Z" fill="#E6E6E6"/>
</svg>
