<svg width="149" height="149" viewBox="0 0 149 149" fill="none" xmlns="http://www.w3.org/2000/svg">
<path d="M148.718 88.0219H5.58856V92.4814H27.9109V134.847L32.6713 134.618L32.528 92.4814H119.47V134.847L123.971 135.991L124.087 92.4814H148.718V88.0219Z" fill="#E6E6E6"/>
<path d="M149 74.6802H5.87036V79.1396H149V74.6802Z" fill="#E6E6E6"/>
<path d="M149 63.5314H5.87036V67.9909H149V63.5314Z" fill="#E6E6E6"/>
<path d="M149 52.3827H5.87036V56.8422H149V52.3827Z" fill="#E6E6E6"/>
<path d="M148.718 88.0219H5.58856V92.4814H27.9109V134.847L32.6713 134.618L32.528 92.4814H119.47V134.847L123.971 135.991L124.087 92.4814H148.718V88.0219Z" fill="#605051"/>
<path d="M149 74.6802H5.87036V79.1396H149V74.6802Z" fill="#605051"/>
<path d="M149 63.5314H5.87036V67.9909H149V63.5314Z" fill="#605051"/>
<path d="M149 52.3827H5.87036V56.8422H149V52.3827Z" fill="#605051"/>
<path d="M42.4386 40.9625L23.7396 45.0957L15.8391 30.7034L31.8281 24.6741L42.4386 40.9625Z" fill="#2F2E41"/>
<path d="M108.242 51.0498H54.6572V53.0278H108.242V51.0498Z" fill="#3F3D56"/>
<path d="M98.6857 44.4567H97.7269C97.9078 44.1564 98.0032 43.8152 98.0031 43.4677V40.1712C98.0031 39.9114 97.9502 39.6542 97.8472 39.4142C97.7443 39.1743 97.5935 38.9562 97.4033 38.7725C97.2132 38.5889 96.9874 38.4432 96.739 38.3438C96.4905 38.2444 96.2242 38.1932 95.9553 38.1932H95.1536C95.232 37.9816 95.2722 37.7586 95.2727 37.5339V34.2373C95.2727 33.9776 95.2197 33.7204 95.1168 33.4804C95.0139 33.2404 94.863 33.0224 94.6729 32.8387C94.4827 32.6551 94.257 32.5094 94.0085 32.41C93.7601 32.3106 93.4938 32.2594 93.2248 32.2594H70.016C69.747 32.2594 69.4807 32.3106 69.2323 32.41C68.9838 32.5094 68.7581 32.6551 68.5679 32.8387C68.3778 33.0224 68.2269 33.2404 68.124 33.4804C68.0211 33.7204 67.9681 33.9776 67.9681 34.2373V37.5339C67.9686 37.7586 68.0088 37.9816 68.0872 38.1932H67.2855C67.0166 38.1932 66.7503 38.2444 66.5018 38.3438C66.2534 38.4432 66.0276 38.5889 65.8375 38.7725C65.6473 38.9562 65.4965 39.1742 65.3935 39.4142C65.2906 39.6542 65.2377 39.9114 65.2377 40.1712V43.4677C65.2376 43.8152 65.3329 44.1564 65.5139 44.4567H64.5551C64.2861 44.4567 64.0198 44.5078 63.7714 44.6072C63.5229 44.7066 63.2972 44.8523 63.107 45.036C62.9168 45.2197 62.766 45.4377 62.6631 45.6777C62.5602 45.9177 62.5072 46.1749 62.5072 46.4346V49.7312C62.5072 49.9909 62.5602 50.2481 62.6631 50.4881C62.766 50.7281 62.9168 50.9461 63.107 51.1298C63.2972 51.3135 63.5229 51.4592 63.7714 51.5586C64.0198 51.658 64.2861 51.7091 64.5551 51.7091H98.6857C98.9547 51.7091 99.221 51.658 99.4694 51.5586C99.7179 51.4592 99.9436 51.3135 100.134 51.1298C100.324 50.9461 100.475 50.7281 100.578 50.4881C100.681 50.2481 100.734 49.9909 100.734 49.7312V46.4346C100.734 46.1749 100.681 45.9177 100.578 45.6777C100.475 45.4377 100.324 45.2197 100.134 45.036C99.9436 44.8523 99.7179 44.7066 99.4694 44.6072C99.221 44.5078 98.9547 44.4567 98.6857 44.4567Z" fill="#E52F34"/>
<path d="M94.5901 32.754C94.5901 31.9347 88.7834 31.2705 81.6204 31.2705C74.4575 31.2705 68.6508 31.9347 68.6508 32.754C68.6508 33.161 70.0847 33.5296 72.4051 33.7976V35.144C72.4055 35.2532 72.4505 35.3578 72.5304 35.435C72.6104 35.5122 72.7187 35.5557 72.8318 35.556H73.0024C73.1155 35.5557 73.2238 35.5122 73.3038 35.435C73.3837 35.3578 73.4287 35.2532 73.4291 35.144V33.9039C73.9638 33.9538 74.535 33.9987 75.1356 34.0385V35.144C75.1359 35.2532 75.181 35.3578 75.2609 35.435C75.3409 35.5122 75.4492 35.5557 75.5623 35.556H75.7329C75.846 35.5557 75.9543 35.5122 76.0342 35.435C76.1142 35.3578 76.1592 35.2532 76.1595 35.144V34.0995C77.7249 34.1828 79.4592 34.2312 81.2881 34.2365C81.2821 34.2639 81.2791 34.2918 81.2791 34.3198V35.8033C81.2795 35.9125 81.3245 36.0171 81.4045 36.0943C81.4844 36.1715 81.5927 36.2151 81.7058 36.2154H81.8764C81.9895 36.2151 82.0978 36.1715 82.1777 36.0943C82.2577 36.0171 82.3027 35.9125 82.3031 35.8033V34.3198C82.303 34.2915 82.2999 34.2632 82.2938 34.2354C83.8665 34.2262 85.3643 34.1848 86.7401 34.1171V35.4736C86.7404 35.5828 86.7854 35.6874 86.8654 35.7647C86.9453 35.8419 87.0536 35.8854 87.1667 35.8857H87.3373C87.4504 35.8854 87.5587 35.8419 87.6387 35.7647C87.7186 35.6875 87.7637 35.5828 87.764 35.4736V34.0606C89.2001 33.9721 90.4719 33.8534 91.5184 33.7121V34.8143C91.5187 34.9235 91.5637 35.0281 91.6437 35.1054C91.7236 35.1826 91.832 35.2261 91.945 35.2264H92.1157C92.2287 35.2261 92.337 35.1826 92.417 35.1053C92.4969 35.0281 92.542 34.9235 92.5423 34.8143V33.5536C93.8365 33.3228 94.5901 33.0485 94.5901 32.754Z" fill="#D5151A"/>
<path d="M95.2727 37.8635H67.9681V38.5228H95.2727V37.8635Z" fill="#3F3D56"/>
<path d="M97.6618 44.1271H65.579V44.7864H97.6618V44.1271Z" fill="#3F3D56"/>
<path d="M100.392 50.0609H63.1899V50.7202H100.392V50.0609Z" fill="#3F3D56"/>
<path d="M81.9617 26.985H80.9378V32.5891H81.9617V26.985Z" fill="#E6E6E6"/>
<path d="M82.9052 26.2833C82.9052 27.4069 82.2569 27.4277 81.4571 27.4277C80.6572 27.4277 79.3441 27.2054 80.0089 26.2833C80.71 25.3107 81.9128 23.4568 81.4571 23.3586C81.4571 23.3586 82.9052 25.1596 82.9052 26.2833Z" fill="#F9A825"/>
<path opacity="0.5" d="M81.9671 26.9748C81.9671 27.4196 81.7104 27.4278 81.3938 27.4278C81.0773 27.4278 80.5575 27.3398 80.8206 26.9748C81.0982 26.5898 81.5742 25.856 81.3938 25.8171C81.3938 25.8171 81.9671 26.53 81.9671 26.9748Z" fill="#FF6584"/>
<path d="M87.7639 27.3146H86.74V32.9187H87.7639V27.3146Z" fill="#E6E6E6"/>
<path d="M88.7074 26.613C88.7074 27.7367 88.059 27.7574 87.2592 27.7574C86.4594 27.7574 85.1463 27.5351 85.8111 26.613C86.5122 25.6404 87.715 23.7865 87.2592 23.6884C87.2592 23.6884 88.7074 25.4894 88.7074 26.613Z" fill="#F9A825"/>
<path opacity="0.5" d="M87.7693 27.3044C87.7693 27.7492 87.5126 27.7574 87.196 27.7574C86.8795 27.7574 86.3597 27.6694 86.6228 27.3044C86.9003 26.9194 87.3764 26.1856 87.196 26.1467C87.196 26.1467 87.7693 26.8596 87.7693 27.3044Z" fill="#FF6584"/>
<path d="M76.5008 27.3146H75.4769V32.9187H76.5008V27.3146Z" fill="#E6E6E6"/>
<path d="M77.4443 26.613C77.4443 27.7367 76.7959 27.7574 75.9961 27.7574C75.1963 27.7574 73.8832 27.5351 74.5479 26.613C75.2491 25.6404 76.4519 23.7865 75.9961 23.6884C75.9961 23.6884 77.4443 25.4894 77.4443 26.613Z" fill="#F9A825"/>
<path opacity="0.5" d="M76.5061 27.3044C76.5061 27.7492 76.2495 27.7574 75.9329 27.7574C75.6163 27.7574 75.0965 27.6694 75.3597 27.3044C75.6372 26.9194 76.1133 26.1856 75.9329 26.1467C75.9329 26.1467 76.5061 26.8596 76.5061 27.3044Z" fill="#FF6584"/>
<path d="M138.913 45.0153L120.958 41.8826C119.702 37.0701 117.973 31.9855 120.747 27.6323C121.557 24.345 125.201 23.4046 128.896 22.5924C132.605 21.7772 136.532 23.0648 138.778 26.0291C140.375 28.1366 140.801 30.2491 140.153 32.875C141.934 35.4305 141.083 41.6854 138.913 45.0153Z" fill="#2F2E41"/>
<path d="M112.028 144.48L104.211 139.318L114.491 104.696L125.335 87.3898L105.249 99.1911L106.296 122.238L96.1769 127.196L93.4699 98.6069C93.3011 96.824 93.6662 95.0319 94.5218 93.4438C95.3775 91.8556 96.6875 90.5384 98.2961 89.6489L114.851 80.4943L116.16 67.3454L134.428 64.6368C141.491 73.4331 145.242 81.5054 141.999 88.0483L125.533 108.544L112.028 144.48Z" fill="#2F2E41"/>
<path d="M108.193 140.739C108.193 140.739 106.797 138.024 105.344 138.887C103.892 139.75 100.038 143.652 100.038 143.652C100.038 143.652 92.9436 145.611 97.8401 147.536C102.737 149.461 104.487 149.065 104.58 148.688C104.673 148.31 105.734 147.357 105.734 147.357L107.596 148.184L110.519 148.059C110.519 148.059 113.408 141.371 112.169 141.37C110.93 141.369 108.304 141.962 108.193 140.739Z" fill="#2F2E41"/>
<path d="M101.117 123.887C101.117 123.887 97.9987 123.536 97.955 125.182C97.9112 126.828 99.1933 132.077 99.1933 132.077C99.1933 132.077 97.0223 138.888 101.364 135.976C105.706 133.063 106.318 131.43 106.041 131.149C105.764 130.867 105.517 129.488 105.517 129.488L107.25 128.433L108.737 125.998C108.737 125.998 104.51 120.01 103.833 121.013C103.156 122.016 102.238 124.464 101.117 123.887Z" fill="#2F2E41"/>
<path d="M127.381 37.8003C131.122 37.8003 134.155 34.8714 134.155 31.2584C134.155 27.6454 131.122 24.7164 127.381 24.7164C123.641 24.7164 120.608 27.6454 120.608 31.2584C120.608 34.8714 123.641 37.8003 127.381 37.8003Z" fill="#A0616A"/>
<path d="M131.231 52.5061L114.619 52.42C116.439 47.844 118.389 43.6344 121.819 43.6156C124.525 41.1877 124.229 37.908 122.945 34.3474L131.399 35.3585C131.006 37.7122 131.569 39.6573 133.699 40.9315C131.552 44.9187 130.351 48.8137 131.231 52.5061Z" fill="#A0616A"/>
<path d="M139.899 72.5325L116.86 74.1808L115.115 63.7424C110.303 59.3046 110.883 54.8343 115.326 50.3409L116.947 44.5494L120.495 43.4976C120.094 44.0949 119.885 44.7937 119.894 45.5056C119.904 46.2175 120.132 46.9107 120.549 47.4976C120.967 48.0844 121.555 48.5386 122.24 48.8029C122.924 49.0671 123.674 49.1294 124.395 48.982L125.695 48.7166C126.176 48.6182 126.632 48.4287 127.038 48.1591C127.443 47.8896 127.789 47.5452 128.056 47.1458L132.732 40.1486L135.168 40.4399C135.444 40.4729 135.702 40.5883 135.907 40.77C136.112 40.9517 136.253 41.1907 136.311 41.4535L138.57 51.7661C135.733 55.803 139.917 67.0442 139.899 72.5325Z" fill="#575A89"/>
<path d="M119.365 84.1482L121.682 88.1982C121.908 88.5938 122.045 89.0314 122.083 89.4819C122.121 89.9324 122.06 90.3856 121.904 90.8116C121.747 91.2376 121.499 91.6266 121.175 91.953C120.851 92.2794 120.459 92.5357 120.025 92.705C119.517 92.9034 118.965 92.9766 118.42 92.9179C117.875 92.8592 117.354 92.6706 116.903 92.3689C116.452 92.0673 116.086 91.6621 115.838 91.1899C115.589 90.7176 115.467 90.1931 115.48 89.6636L115.592 85.3347L110.791 68.7253L111.298 57.26L116.327 58.0435L116.221 68.667L119.365 84.1482Z" fill="#A0616A"/>
<path d="M132.749 80.7492L130.583 84.876C130.371 85.2792 130.251 85.7211 130.229 86.1727C130.207 86.6242 130.285 87.075 130.457 87.4954C130.629 87.9157 130.892 88.296 131.227 88.6111C131.563 88.9262 131.964 89.1689 132.404 89.3232C132.919 89.5041 133.473 89.5583 134.016 89.481C134.558 89.4037 135.072 89.1973 135.512 88.8804C135.951 88.5635 136.302 88.146 136.533 87.6655C136.764 87.1851 136.868 86.6567 136.834 86.1279L136.564 81.8056L140.751 65.0422L139.823 53.6014L134.827 54.5567L135.323 65.17L132.749 80.7492Z" fill="#A0616A"/>
<path d="M117.617 59.0875L109.93 57.3189L112.757 48.1722C113.059 47.1949 113.631 46.3155 114.411 45.6282C115.191 44.9408 116.15 44.4714 117.185 44.2702L119.039 43.9099L117.617 59.0875Z" fill="#575A89"/>
<path d="M132.838 56.6078L132.992 50.8563L134.438 41.4809C134.485 41.1774 134.642 40.8999 134.881 40.6983C135.121 40.4966 135.427 40.384 135.745 40.3806C136.013 40.3777 136.277 40.4531 136.5 40.597L142.891 54.9673C141.719 57.587 134.346 53.4867 132.838 56.6078Z" fill="#575A89"/>
<path d="M57.9771 143.18L64.9849 137.03L49.8714 104.102L36.6653 88.4015L58.2417 97.4217L60.4868 120.389L71.2161 123.954L69.8254 95.2779C69.7386 93.4895 69.1217 91.763 68.048 90.3036C66.9743 88.8443 65.4891 87.7137 63.7691 87.0463L46.0675 80.1785L42.8982 67.3286L24.4179 67.0731C18.6753 76.7242 16.1093 85.2182 20.2535 91.268L39.4824 109.381L57.9771 143.18Z" fill="#2F2E41"/>
<path d="M61.2434 138.966C61.2434 138.966 62.2395 136.091 63.8009 136.753C65.3624 137.415 69.7361 140.767 69.7361 140.767C69.7361 140.767 77.0417 141.765 72.4659 144.322C67.8901 146.88 66.1002 146.72 65.9542 146.359C65.8081 145.997 64.6211 145.194 64.6211 145.194L62.8949 146.261L59.9816 146.525C59.9816 146.525 56.1674 140.284 57.3949 140.119C58.6223 139.954 61.3071 140.192 61.2434 138.966Z" fill="#2F2E41"/>
<path d="M65.8522 121.334C65.8522 121.334 68.8903 120.571 69.1682 122.196C69.446 123.821 68.9237 129.191 68.9237 129.191C68.9237 129.191 72.0442 135.648 67.3288 133.34C62.6134 131.032 61.7747 129.496 62.0088 129.181C62.2429 128.865 62.2918 127.466 62.2918 127.466L60.4242 126.651L58.6054 124.437C58.6054 124.437 61.9386 117.945 62.7519 118.848C63.5652 119.751 64.8232 122.055 65.8522 121.334Z" fill="#2F2E41"/>
<path d="M26.6436 39.6177C30.3843 39.6177 33.4168 36.6888 33.4168 33.0758C33.4168 29.4627 30.3843 26.5338 26.6436 26.5338C22.9029 26.5338 19.8705 29.4627 19.8705 33.0758C19.8705 36.6888 22.9029 39.6177 26.6436 39.6177Z" fill="#FFB9B9"/>
<path d="M25.8569 54.633L42.2985 52.3404C39.8442 48.0497 37.3137 44.1392 33.9128 44.5764C30.8873 42.5311 30.7128 39.2433 31.478 35.5459L23.2484 37.6707C23.9726 39.9499 23.6925 41.9512 21.7639 43.4964C24.4586 47.1603 26.2026 50.8588 25.8569 54.633Z" fill="#FFB9B9"/>
<path d="M24.6143 68.5597C30.4565 75.9066 36.4479 78.8095 42.8894 68.3072L43.4205 63.6209C47.554 58.586 46.3435 54.2352 41.3029 50.3748L38.8716 44.854L35.2082 44.2835C35.6906 44.8218 35.9971 45.4861 36.0888 46.1926C36.1806 46.8991 36.0535 47.6159 35.7237 48.2527C35.3938 48.8894 34.876 49.4175 34.2356 49.7702C33.5953 50.1228 32.861 50.2842 32.1257 50.2341L30.8012 50.1437C30.3103 50.1103 29.8311 49.9833 29.3913 49.7701C28.9515 49.5569 28.5597 49.2618 28.2385 48.9017L22.6105 42.5923L20.2393 43.2045C19.9706 43.2739 19.7309 43.4225 19.5539 43.6298C19.3768 43.837 19.2711 44.0924 19.2515 44.3604L18.4827 54.8751C21.8672 58.4967 23.8144 63.126 24.6143 68.5597Z" fill="#E52F34"/>
<path d="M21.999 64.0834L9.05945 61.5457L17.6536 53.8221L14.3827 48.1088L0.491826 62.379C0.253251 62.6412 0.0936986 62.9615 0.0305342 63.3052C-0.0326303 63.6488 0.00301266 64.0026 0.133586 64.3281C0.264159 64.6535 0.484659 64.9381 0.771083 65.1509C1.05751 65.3637 1.39888 65.4966 1.75804 65.535L20.5704 67.5473L21.3424 70.8356C21.4451 71.273 21.6553 71.6801 21.9552 72.0224C22.2552 72.3648 22.636 72.6324 23.0657 72.8026C23.4953 72.9729 23.961 73.0407 24.4235 73.0004C24.8859 72.9601 25.3316 72.8128 25.7227 72.5711C26.0847 72.3473 26.3906 72.0484 26.618 71.6962C26.8455 71.3439 26.9888 70.9471 27.0375 70.5346C27.0863 70.1222 27.0393 69.7044 26.8999 69.3117C26.7605 68.919 26.5322 68.5612 26.2317 68.2644L21.999 64.0834Z" fill="#FFB9B9"/>
<path d="M42.1166 84.3976L40.3991 88.7169C40.2313 89.1388 40.1581 89.5904 40.1844 90.0417C40.2107 90.493 40.3359 90.9338 40.5516 91.3349C40.7674 91.7361 41.0688 92.0884 41.4359 92.3687C41.8031 92.6489 42.2277 92.8507 42.6816 92.9608C43.2135 93.0897 43.7703 93.0889 44.3018 92.9584C44.8333 92.8278 45.3229 92.5717 45.7264 92.213C46.13 91.8543 46.4349 91.4043 46.6136 90.9036C46.7924 90.4028 46.8394 89.867 46.7505 89.3443L46.0237 85.0714L48.4126 67.9821L46.2775 56.6931L41.4081 58.1373L43.0261 68.6458L42.1166 84.3976Z" fill="#FFB9B9"/>
<path d="M40.2793 59.3427L47.6413 56.5694L43.538 47.8854C43.0996 46.9576 42.4081 46.1625 41.5376 45.5854C40.6671 45.0082 39.6504 44.6706 38.5964 44.6089L36.7086 44.4984L40.2793 59.3427Z" fill="#E52F34"/>
<path d="M16.0287 55.7996L23.8779 53.2329L21.1104 44.1388C21.0209 43.8444 20.8256 43.5904 20.5597 43.4225C20.2937 43.2546 19.9746 43.1837 19.6594 43.2225C19.3928 43.2554 19.1427 43.3651 18.9417 43.5373L10.9235 50.4082C12.4574 52.8473 14.0906 52.9085 16.0287 55.7996Z" fill="#E52F34"/>
<path d="M31.1433 22.4549C31.1433 22.4549 35.2856 23.2075 36.2435 28.1973C36.3934 29.0388 36.4207 29.8964 36.3247 30.7452C36.229 31.7056 36.3678 33.7343 38.527 36.1231C39.936 37.6724 41.2488 39.3008 42.4586 40.9999L38.1303 42.1128L36.1964 35.1864C35.2588 31.8282 33.8144 28.6218 31.9097 25.6701L31.8699 25.6085C31.8699 25.6085 30.4323 29.3185 26.5792 29.8271L27.7673 28.3164C27.7673 28.3164 23.263 30.8313 20.711 31.5996C20.4198 31.6873 20.1588 31.8501 19.9563 32.0705C19.7538 32.2909 19.6174 32.5604 19.5617 32.8501C19.506 33.1398 19.5333 33.4387 19.6404 33.7146C19.7476 33.9905 19.9307 34.2329 20.17 34.4157C20.1881 34.4294 20.2065 34.4432 20.2253 34.457C22.1023 35.8339 25.9315 39.1196 24.4187 42.298C22.9059 45.4764 24.6701 46.0559 24.6701 46.0559L21.417 44.8606L19.928 44.2447L20.0785 45.308L12.8099 45.4551C12.8099 45.4551 10.8457 45.4436 14.3346 40.3796C14.3346 40.3796 15.1764 38.4808 14.4853 37.0302C13.9307 35.9316 13.6545 34.7214 13.6797 33.4994C13.8994 28.3939 16.1261 18.0073 31.1433 22.4549Z" fill="#2F2E41"/>
<path d="M121.411 26.1059L127.668 29.9519L128.237 28.8531C132.015 31.4895 131.204 38.2319 129.375 45.8853C129.375 45.8853 135.985 48.2279 136.77 45.8853C138.166 41.7162 137.054 31.8749 137.054 31.8749L134.779 26.1059L131.081 24.1829L127.953 23.9082C127.953 23.9082 125.109 22.5346 121.411 26.1059Z" fill="#2F2E41"/>
<path d="M131.081 34.6219C131.553 34.6219 131.935 34.1299 131.935 33.523C131.935 32.9162 131.553 32.4242 131.081 32.4242C130.61 32.4242 130.228 32.9162 130.228 33.523C130.228 34.1299 130.61 34.6219 131.081 34.6219Z" fill="#A0616A"/>
<path d="M78.0397 12.6408C78.5229 12.6408 78.9147 12.2624 78.9147 11.7957C78.9147 11.3289 78.5229 10.9506 78.0397 10.9506C77.5564 10.9506 77.1647 11.3289 77.1647 11.7957C77.1647 12.2624 77.5564 12.6408 78.0397 12.6408Z" fill="#D5151A"/>
<path d="M63.9226 5.45667C63.2968 6.01388 62.8091 6.70018 62.4957 7.46453C62.1824 8.22888 62.0515 9.05162 62.1127 9.87158C62.1885 10.6723 62.4443 11.4474 62.8622 12.1427C63.2802 12.8381 63.8502 13.437 64.5324 13.8977C64.9819 14.2042 65.4087 13.4899 64.9631 13.1861C64.3788 12.7914 63.8946 12.274 63.5467 11.6729C63.1989 11.0718 62.9963 10.4024 62.9542 9.71493C62.9122 9.02745 63.0317 8.3397 63.3039 7.70318C63.5761 7.06666 63.9938 6.49787 64.5259 6.03942C64.9306 5.67921 64.326 5.09756 63.9226 5.45666V5.45667Z" fill="#D5151A"/>
<path d="M70.8305 0.0478388C69.7236 -0.068386 68.3481 -0.051687 67.7344 1.02943C67.2511 1.88075 67.8375 3.18349 68.954 3.06864C69.0553 3.06542 69.1522 3.02765 69.2274 2.96204C69.3026 2.89643 69.3513 2.80721 69.3649 2.71022C69.3785 2.61322 69.3561 2.51471 69.3016 2.43215C69.2472 2.3496 69.1642 2.28833 69.0675 2.25922C68.27 2.02091 67.5674 2.75846 67.5786 3.50116C67.5914 4.35438 68.4575 4.86273 69.1796 5.13804L69.4064 4.34334C69.1415 4.29184 68.8684 4.29463 68.6047 4.35152C68.341 4.40841 68.0927 4.51814 67.8757 4.6736C67.6586 4.82906 67.4778 5.0268 67.345 5.25402C67.2121 5.48123 67.1301 5.73286 67.1042 5.99263C67.0298 7.14674 68.21 7.98315 69.3216 7.83324C69.8631 7.76022 69.6327 6.96601 69.0948 7.03854C68.9492 7.05837 68.801 7.04701 68.6605 7.00528C68.52 6.96354 68.3908 6.89246 68.2819 6.79707C68.1731 6.70168 68.0873 6.58432 68.0307 6.45332C67.9741 6.32232 67.948 6.18089 67.9543 6.03907C67.9607 5.89724 67.9992 5.75851 68.0673 5.6327C68.1354 5.50688 68.2313 5.39709 68.3482 5.31109C68.4652 5.2251 68.6003 5.16501 68.7439 5.13511C68.8876 5.1052 69.0363 5.10621 69.1796 5.13805C69.2871 5.16266 69.4004 5.146 69.4955 5.0916C69.5907 5.03719 69.6602 4.94926 69.6896 4.84632C69.719 4.74337 69.7059 4.63343 69.6531 4.53963C69.6003 4.44582 69.5118 4.37546 69.4064 4.34335C69.0577 4.21038 68.627 4.00314 68.4731 3.64842C68.3743 3.42056 68.5214 2.95854 68.8406 3.05392L68.954 2.2445C68.829 2.25825 68.7032 2.2255 68.6022 2.15291C68.5012 2.08031 68.4326 1.97331 68.4104 1.85365C68.3901 1.72143 68.408 1.58637 68.4619 1.46329C68.5159 1.34021 68.6039 1.23386 68.7163 1.1559C69.2903 0.683145 70.1405 0.799527 70.8305 0.871983C71.3756 0.92923 71.3714 0.104648 70.8305 0.0478276V0.0478388Z" fill="#D5151A"/>
<path d="M82.8394 13.5084C83.9462 13.6246 85.3217 13.6079 85.9355 12.5268C86.4188 11.6755 85.8324 10.3727 84.7158 10.4876C84.6145 10.4908 84.5177 10.5286 84.4425 10.5942C84.3673 10.6598 84.3186 10.749 84.305 10.846C84.2914 10.943 84.3138 11.0415 84.3682 11.124C84.4227 11.2066 84.5056 11.2679 84.6024 11.297C85.3999 11.5353 86.1024 10.7977 86.0912 10.055C86.0784 9.20182 85.2124 8.69347 84.4903 8.41816L84.2635 9.21286C84.5283 9.26436 84.8015 9.26158 85.0651 9.20469C85.3288 9.1478 85.5772 9.03807 85.7942 8.8826C86.0112 8.72714 86.192 8.5294 86.3249 8.30219C86.4578 8.07497 86.5398 7.82334 86.5656 7.56358C86.6401 6.40947 85.4599 5.57306 84.3483 5.72296C83.8067 5.79598 84.0372 6.5902 84.5751 6.51766C84.7206 6.49784 84.8689 6.50919 85.0094 6.55093C85.1498 6.59266 85.2791 6.66374 85.3879 6.75913C85.4968 6.85452 85.5825 6.97188 85.6391 7.10288C85.6958 7.23388 85.7218 7.37532 85.7155 7.51714C85.7092 7.65896 85.6706 7.7977 85.6025 7.92351C85.5345 8.04932 85.4386 8.15912 85.3216 8.24512C85.2047 8.33111 85.0696 8.39119 84.9259 8.4211C84.7822 8.451 84.6335 8.45 84.4903 8.41816C84.3827 8.39358 84.2695 8.41024 84.1744 8.46466C84.0792 8.51907 84.0097 8.60699 83.9803 8.70992C83.9509 8.81285 83.964 8.92277 84.0168 9.01657C84.0696 9.11037 84.1581 9.18073 84.2635 9.21286C84.6122 9.34583 85.0429 9.55306 85.1967 9.90778C85.2956 10.1356 85.1484 10.5977 84.8292 10.5023L84.7158 11.3117C84.8409 11.298 84.9667 11.3307 85.0677 11.4033C85.1686 11.4759 85.2372 11.5829 85.2595 11.7026C85.2797 11.8348 85.2619 11.9698 85.2079 12.0929C85.154 12.216 85.066 12.3223 84.9536 12.4003C84.3796 12.8731 83.5294 12.7567 82.8394 12.6842C82.2943 12.627 82.2985 13.4516 82.8394 13.5084H82.8394Z" fill="#D5151A"/>
<path d="M137.745 25.7724L136.568 23.2543L135.634 21.2538L134.278 18.3541L133.342 16.3534L132.071 13.6303C132.05 13.5863 132.018 13.5483 131.977 13.5202C131.936 13.492 131.889 13.4747 131.839 13.4699C131.789 13.4651 131.739 13.473 131.693 13.4928C131.647 13.5126 131.608 13.5437 131.579 13.5828L130.267 15.3476L129.252 16.7102L127.781 18.686L126.769 20.0516L125.298 22.0274L124.286 23.3902L123.532 24.4026C123.502 24.4411 123.483 24.4872 123.478 24.5355C123.474 24.5833 123.482 24.6315 123.501 24.6757C123.522 24.7199 123.554 24.758 123.595 24.7861C123.636 24.8143 123.683 24.8316 123.733 24.8361L137.46 26.159C137.502 26.1641 137.545 26.1593 137.586 26.1449C137.626 26.1305 137.662 26.107 137.691 26.0764C137.702 26.0672 137.711 26.0571 137.72 26.046C137.748 26.0065 137.766 25.9607 137.771 25.9129C137.776 25.8647 137.767 25.8159 137.745 25.7724Z" fill="#E52F34"/>
<path d="M134.278 18.3539L129.252 16.71L130.267 15.3475L133.342 16.3532L134.278 18.3539Z" fill="#E6E6E6"/>
<path d="M136.568 23.2543L126.769 20.0515L127.781 18.6859L135.634 21.2537L136.568 23.2543Z" fill="#E6E6E6"/>
<path d="M137.691 26.0764C137.662 26.107 137.626 26.1305 137.586 26.1449C137.545 26.1593 137.502 26.1641 137.46 26.159L130.786 25.5158L124.286 23.3902L125.298 22.0273L137.691 26.0764Z" fill="#E6E6E6"/>
<path d="M131.952 14.5741C133.209 14.5741 134.227 13.5902 134.227 12.3764C134.227 11.1627 133.209 10.1787 131.952 10.1787C130.695 10.1787 129.677 11.1627 129.677 12.3764C129.677 13.5902 130.695 14.5741 131.952 14.5741Z" fill="#E52F34"/>
<path d="M32.4182 22.9466L30.9875 20.5538L29.8527 18.6528L28.2058 15.8974L27.0682 13.9964L25.5237 11.4086C25.4985 11.3668 25.4624 11.3321 25.419 11.308C25.3756 11.2839 25.3264 11.2712 25.2763 11.2712C25.2262 11.2712 25.177 11.2839 25.1336 11.308C25.0902 11.3321 25.0541 11.3668 25.0289 11.4086L23.9054 13.2904L23.035 14.7436L21.7751 16.8507L20.9076 18.3067L19.6476 20.4137L18.7801 21.867L18.1344 22.9466C18.1079 22.9878 18.0941 23.0354 18.0946 23.0839C18.0949 23.132 18.1076 23.1792 18.1316 23.2213C18.1566 23.2633 18.1927 23.2981 18.2361 23.3222C18.2796 23.3463 18.3289 23.3589 18.379 23.3586H32.1735C32.2165 23.3597 32.259 23.3507 32.2976 23.3325C32.3362 23.3144 32.3697 23.2875 32.3954 23.2542C32.405 23.2441 32.4136 23.2331 32.421 23.2213C32.445 23.1792 32.4577 23.132 32.458 23.0839C32.4584 23.0354 32.4446 22.9878 32.4182 22.9466Z" fill="#E52F34"/>
<path d="M28.2058 15.8974L23.0352 14.7438L23.9053 13.2904L27.0682 13.9964L28.2058 15.8974Z" fill="#E6E6E6"/>
<path d="M30.9875 20.5538L20.9075 18.3067L21.7752 16.8507L29.8526 18.6528L30.9875 20.5538Z" fill="#E6E6E6"/>
<path d="M32.3954 23.2544C32.3698 23.2877 32.3362 23.3145 32.2976 23.3327C32.259 23.3508 32.2165 23.3598 32.1736 23.3588H25.4669L18.7801 21.8671L19.6476 20.4138L32.3954 23.2544Z" fill="#E6E6E6"/>
<path d="M25.2764 12.3702C26.533 12.3702 27.5517 11.3862 27.5517 10.1724C27.5517 8.95868 26.533 7.97473 25.2764 7.97473C24.0197 7.97473 23.001 8.95868 23.001 10.1724C23.001 11.3862 24.0197 12.3702 25.2764 12.3702Z" fill="#E52F34"/>
</svg>
