<svg width="157" height="101" viewBox="0 0 157 101" fill="none" xmlns="http://www.w3.org/2000/svg">
<path d="M156.217 99.8584H0V101H156.217V99.8584Z" fill="#85848B"/>
<path d="M123.765 79.7012C123.765 80.5793 118.646 83.1393 112.566 83.1393C106.486 83.1393 101.749 80.5793 101.749 79.7012C101.749 78.823 106.677 79.1058 112.763 79.1058C118.849 79.1058 123.765 78.8215 123.765 79.7012Z" fill="#504F60"/>
<path opacity="0.2" d="M123.765 79.7014C123.765 80.5796 118.646 83.1396 112.566 83.1396C106.486 83.1396 101.749 80.5796 101.749 79.7014" fill="black"/>
<path d="M62.5343 63.5881C63.5211 63.7146 64.5451 63.795 65.4902 63.4884C65.6391 63.4422 65.8028 63.3395 65.7879 63.1907C65.7772 63.1366 65.7543 63.0857 65.7209 63.0418C65.3647 62.5075 65.0653 61.9373 64.8279 61.3406C64.8185 61.3095 64.7991 61.2823 64.7728 61.2632C64.742 61.2521 64.7083 61.2521 64.6776 61.2632C64.2415 61.3778 63.8649 61.6591 63.4318 61.7797C63.211 61.8403 62.9805 61.8575 62.7531 61.8303C62.5566 61.808 62.2887 61.6457 62.1101 61.6666C62.2113 62.317 62.4584 62.9243 62.5343 63.5881Z" fill="#E52F34"/>
<path d="M81.1971 61.9406C81.8476 61.4941 82.5218 61.0252 82.9058 60.3361C82.9332 60.2949 82.9491 60.2471 82.9519 60.1977C82.9454 60.1491 82.9264 60.1029 82.8969 60.0637C82.5311 59.4822 82.0602 58.974 81.5082 58.5649C81.2202 58.7684 80.96 59.0085 80.7342 59.2794C80.5705 59.452 80.1181 59.7259 80.1136 59.9893C80.1136 60.1382 80.2862 60.3108 80.3666 60.4358C80.4753 60.5966 80.578 60.7603 80.6762 60.927C80.7328 61.0089 81.2492 61.9078 81.1971 61.9406Z" fill="#E52F34"/>
<path d="M66.4026 65.5813C66.4142 65.7346 66.3721 65.8872 66.2835 66.0129C66.214 66.0828 66.128 66.134 66.0334 66.1617C64.6537 66.6559 63.0567 66.0397 61.6799 66.5264C61.3971 66.6261 61.1292 66.7705 60.8449 66.8657C60.506 66.9676 60.1564 67.0296 59.8031 67.0503C59.3164 67.0964 58.8267 67.1262 58.3385 67.1396C57.9676 67.1659 57.5948 67.1332 57.2341 67.0428C57.0538 66.9967 56.8851 66.913 56.7392 66.7974C56.5933 66.6817 56.4734 66.5367 56.3872 66.3716C56.3124 66.2236 56.2975 66.0525 56.3456 65.8938C56.3672 65.8394 56.3979 65.7891 56.4364 65.745C56.5297 65.6403 56.6392 65.5514 56.7608 65.4815L57.2684 65.1541C57.5064 64.9858 57.765 64.8487 58.0379 64.7463C58.2388 64.6808 58.4516 64.6525 58.6555 64.5974C59.3685 64.3891 59.9132 63.8235 60.4193 63.2802L61.1099 62.5435C61.1744 62.4624 61.2563 62.3968 61.3495 62.3515C61.4453 62.3195 61.5471 62.3099 61.6472 62.3232C62.318 62.3711 62.9658 62.5882 63.53 62.9543C63.6742 63.0624 63.8299 63.1543 63.9944 63.2281C64.3992 63.3859 64.9186 63.2668 65.2922 63.0674C65.4693 62.9721 65.4306 62.9185 65.5051 62.7489C65.5795 62.5792 65.7611 62.4705 65.9188 62.6253C65.9664 62.6789 66.0002 62.7433 66.0171 62.8129C66.1659 63.304 66.1093 63.8324 66.1093 64.3474C66.105 64.4279 66.1151 64.5086 66.1391 64.5855C66.1771 64.6631 66.2224 64.7369 66.2746 64.8058C66.2852 64.8241 66.2946 64.8429 66.3028 64.8624C66.3939 65.0904 66.4281 65.3371 66.4026 65.5813Z" fill="#514E7F"/>
<path d="M66.4025 65.581C66.4142 65.7344 66.3721 65.887 66.2835 66.0127C66.214 66.0825 66.128 66.1337 66.0334 66.1615C64.6537 66.6556 63.0567 66.0394 61.6799 66.5261C61.3971 66.6259 61.1292 66.7702 60.8449 66.8655C60.506 66.9674 60.1564 67.0293 59.8031 67.05C59.3164 67.0962 58.8267 67.126 58.3385 67.1394C57.9676 67.1656 57.5948 67.133 57.2341 67.0426C57.0538 66.9964 56.8851 66.9128 56.7392 66.7972C56.5933 66.6815 56.4734 66.5364 56.3872 66.3713C56.3124 66.2234 56.2975 66.0523 56.3456 65.8936C56.3672 65.8392 56.3979 65.7888 56.4364 65.7447C56.5167 65.9129 56.5748 66.1362 56.6254 66.2166C56.6938 66.3357 56.7867 66.4388 56.8981 66.5192C57.0095 66.5995 57.1367 66.6552 57.2713 66.6824C57.4728 66.6948 57.6748 66.669 57.8667 66.6065C59.1169 66.2969 60.4461 66.2925 61.6472 65.8236C62.0595 65.6614 62.4524 65.4456 62.8855 65.3473C63.3186 65.2491 63.7785 65.2759 64.225 65.2387C64.9305 65.1821 65.6137 64.9693 66.3088 64.8577C66.3985 65.0875 66.4307 65.3359 66.4025 65.581Z" fill="#464353"/>
<path d="M84.3569 61.8495C84.2914 62.3734 83.9595 62.8244 83.5948 63.2069C83.2302 63.5894 82.8179 63.9332 82.5277 64.3738C82.1705 64.92 82.0097 65.5972 81.5454 66.0586C81.3671 66.2264 81.1668 66.3691 80.95 66.4828C80.7071 66.6261 80.4503 66.7443 80.1835 66.8355C79.4899 67.0573 78.7427 67.0067 78.0179 66.9531C77.7826 66.9509 77.5496 66.906 77.3303 66.8207C77.2304 66.7699 77.1348 66.7112 77.0445 66.645C76.8628 66.5331 76.7099 66.3802 76.598 66.1985C76.543 66.0997 76.5276 65.9838 76.5548 65.874C76.5962 65.7532 76.6674 65.6447 76.7617 65.5585C76.9248 65.3889 77.0999 65.2312 77.2856 65.0867C77.5404 64.9223 77.77 64.7217 77.9673 64.4913C78.0883 64.3093 78.1774 64.108 78.2307 63.896C78.3362 63.5246 78.4005 63.1428 78.4227 62.7574C78.4219 62.5013 78.4484 62.2458 78.5016 61.9953C78.6118 61.6024 78.9035 61.2511 78.8707 60.8448C78.8575 60.7866 78.8627 60.7258 78.8856 60.6707C78.9203 60.6276 78.9686 60.5977 79.0225 60.5858C79.25 60.4952 79.4899 60.4395 79.734 60.4206C79.8564 60.4122 79.9792 60.431 80.0935 60.4758C80.2078 60.5206 80.3107 60.5902 80.3948 60.6796C80.496 60.8016 80.563 60.9773 80.7119 61.0249C80.7856 61.045 80.863 61.0481 80.9381 61.0338C81.3042 60.9966 81.6912 60.9505 81.98 60.7138C82.1134 60.5941 82.2207 60.4481 82.2949 60.2849C82.3692 60.1218 82.4089 59.945 82.4116 59.7657C82.4116 59.6303 82.3506 59.4889 82.5604 59.4681C82.7182 59.4472 82.8432 59.6169 82.9236 59.7211C83.2138 60.1095 83.5115 60.5159 83.6202 60.9892C83.6624 60.9728 83.7073 60.9642 83.7526 60.9639C83.8454 60.9631 83.9371 60.9847 84.0198 61.0269C84.1024 61.0692 84.1737 61.1308 84.2274 61.2065C84.3459 61.3985 84.3919 61.6266 84.3569 61.8495Z" fill="#514E7F"/>
<path d="M84.3569 61.8496C84.2915 62.3735 83.9596 62.8245 83.5949 63.207C83.2302 63.5895 82.818 63.9333 82.5277 64.3739C82.1705 64.9201 82.0098 65.5973 81.5454 66.0587C81.3671 66.2265 81.1669 66.3692 80.9501 66.4829C80.7072 66.6262 80.4503 66.7444 80.1835 66.8357C79.4899 67.0574 78.7428 67.0068 78.0179 66.9532C77.7826 66.951 77.5496 66.9061 77.3303 66.8208C77.2305 66.7701 77.1349 66.7113 77.0445 66.6451C76.8628 66.5333 76.7099 66.3803 76.598 66.1986C76.7375 66.1316 76.8898 66.095 77.0445 66.0915C77.366 66.1093 77.6012 66.413 77.9093 66.5067C78.3484 66.6392 78.7859 66.3296 79.231 66.2239C79.5212 66.1555 79.8263 66.1733 80.1136 66.0751C80.353 65.9826 80.5742 65.8486 80.767 65.6792C81.0313 65.4902 81.2664 65.2636 81.465 65.0064C81.6299 64.7493 81.7671 64.4754 81.8743 64.1893C82.1093 63.6411 82.386 63.1117 82.7019 62.6057C82.7486 62.5256 82.8051 62.4516 82.8701 62.3854C82.94 62.3214 83.0189 62.2768 83.0978 62.2202C83.3955 61.9954 83.519 61.6248 83.6232 61.2617C83.6514 61.1513 83.6908 61.0441 83.7408 60.9417C83.8336 60.9409 83.9252 60.9625 84.0079 61.0047C84.0906 61.047 84.1618 61.1086 84.2156 61.1843C84.3436 61.3808 84.394 61.618 84.3569 61.8496Z" fill="#464353"/>
<path d="M53.1471 15.4449C53.5175 15.7225 53.8224 16.0782 54.0401 16.4867C54.2485 16.8946 55.4496 20.0589 55.3796 20.5188C55.7711 20.1243 57.3145 20.0603 57.7104 19.6659C57.8757 19.5007 58.7672 18.6762 58.9012 18.4841C59.0351 18.2921 60.0293 17.8888 60.138 17.6864C60.5443 16.9586 57.2565 14.2006 57.6777 13.4817C57.701 13.4487 57.713 13.409 57.7119 13.3686C57.7023 13.3347 57.6832 13.3042 57.6569 13.2808C57.3875 13.0054 57.0303 12.8343 56.7058 12.6304C56.3813 12.4264 56.0688 12.1422 55.9809 11.7671C55.6715 11.9095 55.3875 12.1016 55.14 12.3357C54.5367 12.8526 53.9439 13.38 53.3614 13.9178C53.1337 14.1292 52.6931 14.4105 52.5874 14.7126C52.4624 15.0371 52.9298 15.2678 53.1471 15.4449Z" fill="#A1616A"/>
<path d="M58.4695 14.2737C57.9651 14.6127 57.4937 14.9984 57.0615 15.4257C56.6537 15.829 56.2667 16.2964 56.1685 16.8605C56.1268 17.0823 56.1328 17.307 56.0986 17.5317C55.9497 18.5066 55.1073 19.2211 54.7352 20.1334C54.6274 20.415 54.5481 20.7067 54.4985 21.0041C54.394 21.5679 54.3367 22.1395 54.3274 22.7128C54.3184 23.268 54.8632 23.6505 55.0626 24.1684C55.2621 24.6864 55.3157 25.2192 55.4169 25.7506C55.6074 26.7537 55.9572 27.7212 56.3099 28.6827C57.0437 30.7099 59.4221 36.3136 60.1559 38.3423C62.4048 37.7782 68.3911 36.4818 70.3825 35.2926C71.0464 34.8967 65.776 30.43 66.486 30.1219C66.5265 30.1156 66.5651 30.1 66.5986 30.0762C66.6321 30.0524 66.6596 30.0212 66.6789 29.9849C66.6983 29.9487 66.7089 29.9085 66.71 29.8674C66.7112 29.8264 66.7027 29.7856 66.6854 29.7484C65.9754 26.6436 63.7548 24.0925 62.7471 21.0696C62.3974 20.0203 61.7693 19.1243 61.293 18.1271C60.8614 17.2237 60.6307 16.2249 60.1142 15.3662C60.0168 15.1892 59.8894 15.0306 59.7376 14.8973C59.6088 14.7985 59.4696 14.7142 59.3224 14.6458C59.0277 14.5029 58.7538 14.4181 58.4695 14.2737Z" fill="#514E7F"/>
<path d="M53.2661 15.0923C55.2102 15.0923 56.7861 13.5163 56.7861 11.5723C56.7861 9.62821 55.2102 8.05225 53.2661 8.05225C51.3221 8.05225 49.7461 9.62821 49.7461 11.5723C49.7461 13.5163 51.3221 15.0923 53.2661 15.0923Z" fill="#A1616A"/>
<path d="M56.8472 13.2258C57.0227 13.064 57.243 12.9591 57.4792 12.9251C57.7155 12.8911 57.9564 12.9295 58.1704 13.0353C58.4085 13.1588 58.6169 13.4088 58.5633 13.6708L60.3092 13.6976C60.5871 13.69 60.8649 13.7155 61.1367 13.7735C61.4103 13.8331 61.6546 13.9862 61.8273 14.2066C61.8482 14.2349 61.872 14.2691 61.9077 14.2736C61.9368 14.274 61.9651 14.2646 61.9881 14.2468C62.2567 14.1121 62.5592 14.0603 62.8573 14.098C63.8009 14.159 64.6731 14.6308 65.4129 15.2202C65.5463 15.3119 65.6498 15.4408 65.7105 15.5908C65.7716 15.7888 65.6986 16.0373 65.8594 16.1787C65.8594 17.8159 66.422 19.346 66.7971 20.9415C66.864 21.2258 67.1364 21.4774 67.3254 21.7006C67.559 21.9481 67.7496 22.2328 67.8895 22.543C68.208 23.3706 67.769 24.344 68.0785 25.1745C68.2095 25.5257 68.4625 25.8145 68.6739 26.1196C68.9525 26.4719 69.1286 26.8942 69.1829 27.3401C69.1963 27.5395 69.171 27.7405 69.1829 27.9354C69.2029 28.2036 69.2528 28.4687 69.3318 28.7258C69.4588 29.206 69.5917 29.6858 69.7307 30.165C69.9569 30.939 70.2516 31.774 70.9452 32.1863C69.2707 32.4705 67.5055 32.7489 65.91 32.1669C65.6874 32.091 65.4761 31.9853 65.2819 31.8529C64.7059 31.4421 64.4275 30.7395 64.179 30.0757C63.9021 29.3315 63.6208 28.574 63.5643 27.7821C63.5648 27.5303 63.5293 27.2797 63.4586 27.0379C63.2964 26.6063 62.8633 26.3458 62.4703 26.1062C62.0266 25.8631 61.6246 25.5505 61.2796 25.1804C61.1084 24.994 60.9773 24.7745 60.8944 24.5354C60.8114 24.2963 60.7784 24.0427 60.7974 23.7903C60.8272 23.5447 60.9239 23.3081 60.9328 23.061C60.9418 22.8139 60.8316 22.5311 60.595 22.4656C59.376 22.0965 58.794 20.6528 58.5231 19.4085C58.4063 18.7654 58.3539 18.1122 58.3669 17.4587L58.3505 16.1891C58.1823 16.0361 58.047 15.8504 57.9528 15.6434C57.8586 15.4364 57.8076 15.2124 57.8028 14.985C57.8189 14.8524 57.8164 14.7181 57.7953 14.5862C57.7364 14.4249 57.6406 14.2796 57.5155 14.162C57.2464 13.8858 57.021 13.5701 56.8472 13.2258Z" fill="#464353"/>
<path d="M53.0979 17.2506C53.0578 17.6435 53.1471 18.0469 53.0592 18.4324C53.025 18.5812 52.9655 18.7301 52.9223 18.8685C52.7904 19.4233 52.8475 20.0063 53.0845 20.5251C53.3213 21.0387 53.6048 21.5294 53.9314 21.9911C54.0419 22.1487 54.1329 22.3191 54.2023 22.4986C54.2586 22.6871 54.2936 22.8813 54.3065 23.0776C54.3927 23.8658 54.5309 24.6474 54.7203 25.4174C54.887 26.0842 56.7802 31.7846 57.2208 32.313C57.3007 32.43 57.4219 32.5124 57.5601 32.5437C57.6597 32.5475 57.7588 32.527 57.8489 32.4842L58.7419 32.1419C58.8178 32.1186 58.8882 32.0801 58.9488 32.0287C59.0325 31.931 59.0779 31.8062 59.0768 31.6775C59.1408 30.9512 57.2431 25.2105 57.002 24.5243C56.2727 22.4525 55.3022 20.4551 54.8274 18.3103C54.695 17.715 54.625 16.7981 54.1889 16.3234C54.0088 16.1269 54.0699 16.2102 53.854 16.3129C53.745 16.3603 53.6395 16.4155 53.5385 16.4781C53.4122 16.566 53.3071 16.6809 53.2308 16.8145C53.1546 16.9482 53.1092 17.0972 53.0979 17.2506Z" fill="#464353"/>
<path d="M55.8083 21.1811C56.048 22.4477 56.295 23.7113 56.5406 24.9779L60.0353 24.0626C60.0636 23.6964 59.8686 23.3571 59.7376 23.0207C59.4191 22.2214 59.4117 21.3314 59.1542 20.5098C58.9592 19.8847 58.6199 19.3102 58.4368 18.6806C58.3311 18.3144 58.2775 17.9364 58.1734 17.5658C58.0616 17.2018 57.9243 16.8462 57.7626 16.5016C57.5664 16.0018 57.3105 15.5275 57.0005 15.0891C56.554 15.2558 56.0777 15.4493 55.8232 15.8527C55.6927 16.0799 55.6182 16.335 55.6059 16.5968C55.5449 17.3812 55.8292 18.1701 55.7354 18.95C55.6388 19.6927 55.6634 20.4462 55.8083 21.1811Z" fill="#E52F34"/>
<path d="M60.0933 38.0299C60.2898 38.7741 60.0055 39.557 59.7733 40.2937C59.4238 41.4034 59.1854 42.5452 59.0619 43.7021C59.0467 43.9965 58.9875 44.287 58.8863 44.5639C58.7761 44.8124 58.5886 45.0223 58.4606 45.2589C58.1093 45.8811 58.1183 46.6402 58.1942 47.3516C58.2448 47.8204 58.3207 48.2878 58.4144 48.7492C58.529 49.3133 58.6704 49.9027 58.5052 50.4534C58.7821 50.3924 58.9696 50.7511 58.9517 51.0324C58.9339 51.3137 58.8431 51.6277 58.9785 51.8703C59.3209 51.9954 59.3238 52.4657 59.3134 52.8303C59.3191 53.4626 59.399 54.0921 59.5516 54.7057C60.0695 57.1963 60.6192 59.6799 61.2007 62.1565C62.4584 62.5465 63.9274 62.9528 65.127 62.4125C65.3503 62.3128 65.5735 62.1536 65.6241 61.9124C65.6372 61.7825 65.6209 61.6512 65.5765 61.5284L65.008 59.4596C64.8695 58.9595 64.7311 58.443 64.8041 57.9295C64.8591 57.547 65.0258 57.1347 64.8383 56.7969C64.7743 56.6808 64.6731 56.59 64.5987 56.4798C64.301 56.0438 64.4573 55.4603 64.4811 54.9319C64.4904 54.8133 64.4823 54.694 64.4573 54.5777C64.4165 54.4419 64.3595 54.3114 64.2876 54.1892C63.8177 53.277 63.5921 52.2586 63.6327 51.2333C63.6505 51.1025 63.6325 50.9692 63.5806 50.8478C63.5445 50.7977 63.5122 50.745 63.4839 50.69C63.4617 50.5945 63.4727 50.4942 63.5151 50.4058C63.3445 50.2763 63.1906 50.1264 63.0567 49.9593C63.1392 49.9079 63.2091 49.8385 63.2609 49.7563C63.3127 49.674 63.3451 49.5811 63.3557 49.4845C63.3663 49.3878 63.3548 49.2901 63.3221 49.1985C63.2894 49.107 63.2363 49.0241 63.1668 48.9561C63.2275 48.9439 63.2837 48.915 63.329 48.8728C63.3743 48.8306 63.407 48.7767 63.4235 48.717C63.44 48.6574 63.4396 48.5943 63.4224 48.5348C63.4052 48.4753 63.3719 48.4217 63.3261 48.3801C63.2532 48.3295 63.1564 48.3071 63.1043 48.2312C63.024 48.1211 63.0894 47.9678 63.1549 47.8502L63.5017 47.2236C63.7607 46.7577 63.8187 46.1817 64.0971 45.7352C64.496 45.0848 64.7564 44.36 65.0139 43.6426L66.0156 40.8786L66.6898 41.4636C66.9144 41.6351 67.1026 41.8497 67.2435 42.0946C67.3394 42.3368 67.4 42.5914 67.4236 42.8507C67.6707 44.351 68.6143 45.6519 68.9641 47.1298C69.0415 47.4588 69.0936 47.8041 69.2826 48.0854C69.3502 48.1717 69.4109 48.2633 69.4642 48.3592C69.5134 48.5056 69.5391 48.6588 69.5401 48.8132C69.5713 49.1155 69.6672 49.4076 69.8213 49.6695C69.9754 49.9315 70.184 50.1572 70.4331 50.3313C70.765 50.5591 71.1773 50.7154 71.3574 51.0755C71.3934 51.1871 71.4434 51.2936 71.5062 51.3926C71.667 51.586 72.0138 51.6084 72.0822 51.851C72.1209 51.9864 72.0495 52.1487 72.1254 52.2677C72.1685 52.3228 72.2255 52.3655 72.2906 52.3913L73.2595 52.875C74.3431 53.4168 74.8968 54.661 75.696 55.5675C75.972 55.8627 76.2165 56.1859 76.4253 56.5319C76.7706 57.1496 76.9299 57.9251 77.5133 58.318C77.6702 58.3993 77.8129 58.5054 77.936 58.632C78.1191 58.8732 78.0521 59.211 78.0685 59.5147C78.0849 59.8183 78.3171 60.18 78.6058 60.0877C78.5046 60.4554 78.5046 60.8437 78.6058 61.2114C79.8735 61.1463 81.0823 60.6567 82.038 59.8213C82.3208 59.5742 82.5932 59.2586 82.5962 58.8836C82.6005 58.8188 82.586 58.7542 82.5545 58.6975C82.4972 58.6243 82.4218 58.5673 82.3357 58.5323C81.4293 58.0412 81.1569 56.9025 80.6985 55.9783C80.2981 55.1626 79.7057 54.4601 79.2101 53.7025C78.1325 52.0728 77.3972 50.1006 75.7675 49.0245C75.4088 48.7879 74.992 48.578 74.8119 48.1866C74.7122 47.9678 74.7003 47.7178 74.6214 47.4915C74.5425 47.2653 74.3535 47.045 74.1124 47.045C74.2463 46.7176 74.2195 46.3187 74.2285 45.9644C74.2376 45.8072 74.2195 45.6496 74.1749 45.4986C74.113 45.3361 74.0326 45.1813 73.9353 45.0372C73.51 44.3172 73.2974 43.4916 73.3221 42.6558C73.334 42.2256 73.4099 41.7821 73.2804 41.3713C73.2149 41.1644 73.1003 40.9754 73.0214 40.7759C72.9025 40.4146 72.8398 40.0371 72.8354 39.6567L72.746 38.2263C72.7326 37.75 72.6707 37.2762 72.5615 36.8124C72.2638 35.7021 71.9661 31.0509 70.9466 30.527C69.9271 30.003 68.1752 33.5826 67.0277 33.6526C66.52 33.6737 66.0184 33.7705 65.5393 33.9398C64.7758 34.2256 64.1358 34.7584 63.5121 35.2794L61.4016 37.052C60.9551 37.4197 60.586 37.7709 60.0933 38.0299Z" fill="#464353"/>
<path d="M49.9635 7.66375C50.4278 7.0297 51.2256 6.69332 52.0115 6.66504C52.7973 6.63676 53.5713 6.88384 54.2753 7.23361C54.4831 7.35177 54.7052 7.44281 54.9361 7.50449C55.3082 7.5804 55.722 7.47919 56.0584 7.65333C56.5049 7.88998 56.5912 8.49277 56.5525 8.99287C56.5138 9.49297 56.4201 10.0481 56.6865 10.4813C56.781 10.6048 56.867 10.7346 56.944 10.8697C57.0586 11.1272 56.9916 11.4249 56.9231 11.6973C56.749 11.5484 56.6508 11.3237 56.496 11.151C56.3412 10.9784 56.0718 10.8623 55.8798 10.9918C55.6878 11.1213 55.6908 11.3564 55.6803 11.5678C55.6699 11.7791 55.6163 12.0321 55.4169 12.1006C55.3336 12.1196 55.2465 12.1131 55.1669 12.0821C55.0873 12.051 55.0189 11.9968 54.9704 11.9265C54.6295 11.5097 54.7665 10.8444 54.4286 10.4247C54.2366 10.1866 53.9166 10.0705 53.7395 9.82041C53.5996 9.62395 53.5639 9.3739 53.4418 9.16255C53.3198 8.9512 53.0355 8.79641 52.8465 8.94227C52.782 9.0039 52.7281 9.07583 52.6872 9.15511C52.5693 9.32394 52.398 9.44809 52.2008 9.50751C52.0037 9.56693 51.7922 9.55813 51.6007 9.48255C51.4543 9.3927 51.296 9.32405 51.1304 9.27864C51.022 9.27321 50.9142 9.29821 50.8192 9.35081C50.7243 9.40342 50.6459 9.48153 50.5931 9.57632C50.4862 9.7657 50.4347 9.98124 50.4442 10.1985C50.4442 10.4961 50.4978 10.8132 50.3281 11.0513C50.2636 11.1409 50.1828 11.2177 50.09 11.2775C49.8414 11.4368 49.4946 11.544 49.2654 11.3624C49.1877 11.29 49.1299 11.1989 49.0976 11.0978C49.0653 10.9966 49.0595 10.8889 49.0809 10.7849C49.1255 10.5777 49.1842 10.3738 49.2565 10.1746C49.3875 9.71325 49.2163 9.1938 49.3592 8.7592C49.5088 8.36779 49.7122 7.99911 49.9635 7.66375Z" fill="#464353"/>
<path d="M51.8492 18.1643C51.8269 18.2728 51.8383 18.3855 51.882 18.4873C51.9262 18.5566 51.9864 18.6143 52.0576 18.6555C52.5581 18.9673 53.1274 19.1518 53.7157 19.1928C53.7957 19.1942 53.8743 19.2146 53.9449 19.2523C54.0848 19.3446 54.0937 19.55 54.0416 19.7137C53.9722 19.8682 53.9361 20.0355 53.9359 20.2049C53.9791 20.5159 54.3482 20.6514 54.6593 20.6975C55.0954 20.7526 55.5732 20.7243 55.9185 20.4519C56.1524 20.2386 56.3307 19.9714 56.4379 19.6735C57.2922 17.7104 57.5914 15.5403 58.4561 13.5831C58.5217 13.4553 58.5654 13.3174 58.5856 13.1753C58.5948 13.1041 58.5847 13.0318 58.5564 12.9658C58.5281 12.8998 58.4827 12.8427 58.4249 12.8002C58.2641 12.7005 58.0141 12.757 57.9054 12.6007C57.8519 12.5219 57.8578 12.4147 57.8102 12.3313C57.7105 12.1542 57.4485 12.1825 57.2699 12.0798C57.13 12.0054 57.0333 11.8521 56.877 11.8223C56.8003 11.818 56.7236 11.8316 56.653 11.8621C56.5825 11.8926 56.5201 11.9391 56.4706 11.9979C55.9631 12.4713 55.6967 13.1425 55.4139 13.7766C54.9821 14.7485 54.4765 15.6859 53.9017 16.5807C53.9687 16.4765 53.5802 15.6876 53.4284 15.6534C53.162 15.5998 52.8211 16.0672 52.6768 16.2413C52.2237 16.7906 51.9366 17.4577 51.8492 18.1643Z" fill="#E52F34"/>
<path opacity="0.1" d="M57.2565 12.218C57.1496 12.2198 57.0444 12.2456 56.9488 12.2935C56.8532 12.3414 56.7697 12.4103 56.7043 12.4949C56.545 12.7017 56.5138 12.9756 56.4736 13.239C56.3381 14.0737 56.0403 14.8736 55.5969 15.5937" fill="black"/>
<path opacity="0.1" d="M58.0156 12.812C57.868 12.8153 57.7238 12.857 57.5972 12.9329C57.4707 13.0089 57.3661 13.1165 57.2937 13.2451C57.1952 13.4792 57.1339 13.7273 57.1121 13.9804C56.9845 14.5414 56.7384 15.0687 56.3903 15.5268" fill="black"/>
<path d="M93.3884 41.9097V40.0611C93.388 38.7003 92.8471 37.3953 91.8848 36.4332C90.9224 35.4711 89.6173 34.9307 88.2565 34.9307H15.2529C13.8921 34.9307 12.587 35.4711 11.6246 36.4332C10.6622 37.3953 10.1214 38.7003 10.121 40.0611V43.4695L93.3884 41.9097Z" fill="#33323D"/>
<path d="M35.5619 32.764C35.5619 32.764 35.3535 45.692 37.6456 49.9458C39.9377 54.1996 40.92 72.7046 40.92 72.7046C40.92 72.7046 64.9485 75.1902 81.6927 69.7279C98.437 64.2655 134.066 62.0315 134.066 62.0315L128.062 21.5639C128.062 21.5639 98.3998 19.6618 81.526 27.7094C64.6523 35.7571 35.5619 32.764 35.5619 32.764Z" fill="#8DD070"/>
<path opacity="0.1" d="M35.5619 32.764C35.5619 32.764 35.3535 45.692 37.6456 49.9458C39.9377 54.1996 40.92 72.7046 40.92 72.7046C40.92 72.7046 64.9485 75.1902 81.6927 69.7279C98.437 64.2655 134.066 62.0315 134.066 62.0315L128.062 21.5639C128.062 21.5639 98.3998 19.6618 81.526 27.7094C64.6523 35.7571 35.5619 32.764 35.5619 32.764Z" fill="black"/>
<path d="M40.8799 37.4862C40.8799 37.4862 40.1282 48.1534 42.014 51.5618C43.8998 54.9702 43.9876 70.1859 43.9876 70.1859C43.9876 70.1859 65.6123 71.189 80.9947 65.9529C96.3771 60.7168 128.702 57.3203 128.702 57.3203L125.028 24.2262C125.028 24.2262 98.2822 23.9508 82.6721 31.3213C67.062 38.6918 40.8799 37.4862 40.8799 37.4862Z" fill="#8DD070"/>
<path opacity="0.1" d="M82.4345 59.8941C85.5114 59.5108 87.3393 53.8506 86.5174 47.2515C85.6954 40.6524 82.5348 35.6135 79.458 35.9968C76.3811 36.38 74.5532 42.0403 75.3751 48.6393C76.1971 55.2384 79.3577 60.2773 82.4345 59.8941Z" fill="black"/>
<path opacity="0.2" d="M111.8 1.84985C111.8 1.84985 82.9831 9.14292 69.3942 21.9802C55.8053 34.8175 27.1986 40.896 27.1986 40.896C27.1986 40.896 30.9672 53.263 34.453 56.6088C37.9388 59.9547 44.5501 77.2676 44.5501 77.2676C44.5501 77.2676 68.1811 72.2577 82.4398 61.9164C96.6985 51.5751 129.93 38.5146 129.93 38.5146L111.8 1.84985Z" fill="black"/>
<path d="M26.7656 39.0447C26.7656 39.0447 30.5327 51.4131 34.0155 54.759C37.4983 58.1049 44.1126 75.4162 44.1126 75.4162C44.1126 75.4162 67.7466 70.4078 82.0068 60.0665C96.267 49.7253 129.495 36.6692 129.495 36.6692L111.365 0C111.365 0 82.55 7.29306 68.9611 20.1303C55.3722 32.9676 26.7656 39.0447 26.7656 39.0447Z" fill="#8DD070"/>
<path opacity="0.1" d="M26.7656 39.0447C26.7656 39.0447 30.5327 51.4131 34.0155 54.759C37.4983 58.1049 44.1126 75.4162 44.1126 75.4162C44.1126 75.4162 67.7466 70.4078 82.0068 60.0665C96.267 49.7253 129.495 36.6692 129.495 36.6692L111.365 0C111.365 0 82.55 7.29306 68.9611 20.1303C55.3722 32.9676 26.7656 39.0447 26.7656 39.0447Z" fill="black"/>
<path d="M33.2712 41.9085C33.2712 41.9085 35.8298 52.2929 38.6711 54.9571C41.5124 57.6213 46.2618 72.0735 46.2618 72.0735C46.2618 72.0735 67.1497 66.3908 80.1835 56.6866C93.2172 46.9824 122.943 33.8444 122.943 33.8444L109.293 3.46362C109.293 3.46362 83.7541 11.4071 71.158 23.2129C58.5618 35.0188 33.2712 41.9085 33.2712 41.9085Z" fill="#8DD070"/>
<path opacity="0.1" d="M79.7016 50.4828C82.5124 49.1739 82.5153 43.2257 79.708 37.1973C76.9007 31.1688 72.3464 27.3428 69.5356 28.6517C66.7248 29.9607 66.7219 35.9088 69.5292 41.9372C72.3365 47.9657 76.8908 51.7917 79.7016 50.4828Z" fill="black"/>
<path opacity="0.1" d="M95.359 43.7242V95.0733C95.359 95.6565 95.2441 96.2339 95.0209 96.7727C94.7977 97.3115 94.4705 97.801 94.0581 98.2133C93.6457 98.6256 93.156 98.9526 92.6172 99.1756C92.0784 99.3986 91.5009 99.5133 90.9177 99.5131H14.5638C13.3865 99.5127 12.2576 99.0448 11.4253 98.2122C10.593 97.3796 10.1254 96.2506 10.1254 95.0733V38.5476C12.3133 39.3603 12.3133 39.3603 14.5638 39.2918H90.9177C92.094 39.2918 93.2224 39.7585 94.055 40.5895C94.8877 41.4205 95.3566 42.5478 95.359 43.7242Z" fill="black"/>
<path d="M95.359 44.3775V95.7267C95.3586 96.9043 94.8905 98.0336 94.0576 98.8662C93.2248 99.6988 92.0953 100.166 90.9177 100.166H14.5638C13.3865 100.166 12.2576 99.6981 11.4253 98.8656C10.593 98.033 10.1254 96.9039 10.1254 95.7267V39.1995C12.3133 40.0106 12.3133 40.0106 14.5638 39.9437H90.9177C92.0943 39.9437 93.2228 40.4106 94.0555 41.2419C94.8882 42.0732 95.357 43.2009 95.359 44.3775Z" fill="#504F60"/>
<path opacity="0.1" d="M95.1417 63.3618V79.7831H79.2161C77.0576 79.7541 74.9974 78.8762 73.4813 77.3396C71.9653 75.8029 71.1152 73.7311 71.1152 71.5725C71.1152 69.4138 71.9653 67.342 73.4813 65.8054C74.9974 64.2687 77.0576 63.3909 79.2161 63.3618H95.1417Z" fill="black"/>
<path d="M95.359 62.9243V79.3486H79.4333C77.2748 79.3195 75.2146 78.4417 73.6986 76.9051C72.1825 75.3684 71.3325 73.2966 71.3325 71.1379C71.3325 68.9793 72.1825 66.9075 73.6986 65.3708C75.2146 63.8342 77.2748 62.9564 79.4333 62.9273L95.359 62.9243Z" fill="#33323D"/>
<path opacity="0.1" d="M80.1969 74.7748C81.9651 74.7748 83.3984 73.3415 83.3984 71.5733C83.3984 69.8052 81.9651 68.3718 80.1969 68.3718C78.4288 68.3718 76.9954 69.8052 76.9954 71.5733C76.9954 73.3415 78.4288 74.7748 80.1969 74.7748Z" fill="black"/>
<path d="M80.4142 74.3403C82.1824 74.3403 83.6157 72.9069 83.6157 71.1388C83.6157 69.3706 82.1824 67.9373 80.4142 67.9373C78.6461 67.9373 77.2127 69.3706 77.2127 71.1388C77.2127 72.9069 78.6461 74.3403 80.4142 74.3403Z" fill="#E52F34"/>
<path d="M123.003 62.7832C123.129 64.154 122.092 65.4846 122.394 66.8271C122.459 67.1144 122.583 67.3853 122.628 67.6755C122.753 68.4733 122.278 69.2279 121.824 69.8947L117.924 75.616C117.768 75.8675 117.581 76.0985 117.368 76.3036C116.624 76.9675 115.504 76.899 114.525 77.0969C113.836 77.2367 113.186 77.5241 112.62 77.9394C112.596 77.9596 112.581 77.9882 112.578 78.0192C112.574 78.0502 112.583 78.0813 112.602 78.1061C112.764 78.3265 112.978 78.5028 113.226 78.619C113.473 78.7352 113.746 78.7876 114.019 78.7714C114.122 78.9068 114.019 79.1048 113.87 79.2015C113.66 79.3503 113.373 79.3861 113.331 79.7403C113.316 79.8639 113.341 79.9891 113.403 80.0975C113.56 80.3381 113.804 80.5084 114.084 80.5723C115.434 80.9846 116.893 80.2598 117.904 79.273C118.914 78.2862 119.639 77.0404 120.63 76.0357C121.179 75.4806 121.803 75.0043 122.369 74.4655C123.497 73.3909 124.374 72.0841 125.22 70.7758C125.475 70.3814 125.731 69.9765 125.838 69.5196C125.945 69.0627 125.895 68.6013 126.015 68.1592C126.173 67.5788 126.597 67.1174 126.95 66.6307C127.642 65.6781 128.103 64.5127 128.013 63.3398C127.922 62.167 127.194 61.0076 126.087 60.6087C125.743 60.4708 125.365 60.4479 125.008 60.5432C124.554 60.6831 124.219 61.0582 123.909 61.4169L123.165 62.2727C122.979 62.4605 122.833 62.683 122.733 62.9276C122.686 63.0504 122.674 63.1843 122.701 63.3134C122.727 63.4424 122.79 63.5612 122.882 63.6554" fill="#FBBEBE"/>
<path opacity="0.05" d="M123.003 62.7832C123.129 64.154 122.092 65.4846 122.394 66.8271C122.459 67.1144 122.583 67.3853 122.628 67.6755C122.753 68.4733 122.278 69.2279 121.824 69.8947L117.924 75.616C117.768 75.8675 117.581 76.0985 117.368 76.3036C116.624 76.9675 115.504 76.899 114.525 77.0969C113.836 77.2367 113.186 77.5241 112.62 77.9394C112.596 77.9596 112.581 77.9882 112.578 78.0192C112.574 78.0502 112.583 78.0813 112.602 78.1061C112.764 78.3265 112.978 78.5028 113.226 78.619C113.473 78.7352 113.746 78.7876 114.019 78.7714C114.122 78.9068 114.019 79.1048 113.87 79.2015C113.66 79.3503 113.373 79.3861 113.331 79.7403C113.316 79.8639 113.341 79.9891 113.403 80.0975C113.56 80.3381 113.804 80.5084 114.084 80.5723C115.434 80.9846 116.893 80.2598 117.904 79.273C118.914 78.2862 119.639 77.0404 120.63 76.0357C121.179 75.4806 121.803 75.0043 122.369 74.4655C123.497 73.3909 124.374 72.0841 125.22 70.7758C125.475 70.3814 125.731 69.9765 125.838 69.5196C125.945 69.0627 125.895 68.6013 126.015 68.1592C126.173 67.5788 126.597 67.1174 126.95 66.6307C127.642 65.6781 128.103 64.5127 128.013 63.3398C127.922 62.167 127.194 61.0076 126.087 60.6087C125.743 60.4708 125.365 60.4479 125.008 60.5432C124.554 60.6831 124.219 61.0582 123.909 61.4169L123.165 62.2727C122.979 62.4605 122.833 62.683 122.733 62.9276C122.686 63.0504 122.674 63.1843 122.701 63.3134C122.727 63.4424 122.79 63.5612 122.882 63.6554" fill="black"/>
<path d="M125.954 98.0724C125.103 98.5918 124.042 98.6231 123.052 98.5025C122.893 98.4832 122.704 98.4713 122.605 98.5948C122.456 98.7734 122.632 99.0413 122.814 99.1797C123.398 99.6181 124.083 99.9003 124.807 99.9998C125.452 100.091 126.104 100.135 126.756 100.129C128.542 100.161 130.329 100.19 132.086 99.9343C132.19 99.9265 132.292 99.8971 132.384 99.848C132.497 99.7684 132.576 99.6487 132.604 99.5131C132.725 99.0547 132.493 98.5635 132.141 98.245C131.79 97.9265 131.339 97.7494 130.899 97.5782L129.351 96.9754C128.988 96.834 128.406 96.459 128.011 96.4887C127.27 96.5423 126.569 97.7122 125.954 98.0724Z" fill="#3F3D56"/>
<path opacity="0.05" d="M125.954 98.0724C125.103 98.5918 124.042 98.6231 123.052 98.5025C122.893 98.4832 122.704 98.4713 122.605 98.5948C122.456 98.7734 122.632 99.0413 122.814 99.1797C123.398 99.6181 124.083 99.9003 124.807 99.9998C125.452 100.091 126.104 100.135 126.756 100.129C128.542 100.161 130.329 100.19 132.086 99.9343C132.19 99.9265 132.292 99.8971 132.384 99.848C132.497 99.7684 132.576 99.6487 132.604 99.5131C132.725 99.0547 132.493 98.5635 132.141 98.245C131.79 97.9265 131.339 97.7494 130.899 97.5782L129.351 96.9754C128.988 96.834 128.406 96.459 128.011 96.4887C127.27 96.5423 126.569 97.7122 125.954 98.0724Z" fill="black"/>
<path d="M127.039 77.5238C126.395 78.3811 125.728 79.3708 125.887 80.4321C125.974 81.0036 126.294 81.5082 126.529 82.0365C126.847 82.7539 127.014 83.5249 127.178 84.2929C127.419 85.4152 127.661 86.5404 127.809 87.6805C127.977 88.9679 127.187 92.6933 127.114 93.9897C127.096 94.3023 127.059 94.6401 126.841 94.8649C126.756 94.9542 126.643 95.0256 126.605 95.1417C126.582 95.2536 126.6 95.3699 126.657 95.4692C127.02 96.2878 127.763 96.898 128.592 97.2463C129.421 97.5946 131.42 98.1959 132.323 98.2271C132.442 98.2402 132.563 98.2244 132.674 98.181C132.794 98.1077 132.889 97.999 132.945 97.8699C133.593 96.6316 132.97 92.229 132.979 90.8314C132.988 89.666 133.264 88.508 133.213 87.3441C133.171 86.4094 132.915 85.4955 132.831 84.5638C132.682 83.0367 132.962 81.5022 133.243 79.993C133.457 78.835 133.673 77.6771 133.948 76.534C134.117 75.8359 134.311 75.1319 134.693 74.5262C134.99 74.0454 135.408 73.6436 135.755 73.1866C136.718 71.9246 137.145 70.3348 136.946 68.7602C136.925 68.6113 134.713 69.3213 134.518 69.4061C133.723 69.743 132.991 70.2137 132.354 70.7978C131.842 71.286 131.439 71.9379 130.991 72.4841C130.357 73.2571 129.731 74.0355 129.113 74.8194C128.407 75.7154 127.716 76.6168 127.039 77.5238Z" fill="#464353"/>
<path opacity="0.05" d="M127.039 77.4717C126.395 78.329 125.728 79.3202 125.887 80.38C125.974 80.953 126.294 81.4575 126.529 81.9859C126.847 82.7018 127.014 83.4743 127.178 84.2408C127.419 85.3645 127.661 86.4897 127.809 87.6284C127.977 88.9173 127.187 92.6412 127.114 93.9376C127.096 94.2502 127.059 94.5895 126.841 94.8143C126.756 94.9021 126.643 94.9735 126.605 95.0896C126.582 95.2015 126.6 95.3178 126.657 95.417C127.02 96.2371 127.763 96.8459 128.592 97.2031C129.421 97.5603 131.42 97.8714 132.323 97.9012C132.442 97.9143 132.563 97.8984 132.674 97.855C132.795 97.7826 132.889 97.6744 132.945 97.5454C133.593 96.3071 132.97 92.1873 132.979 90.7882C132.988 89.6213 133.264 88.4648 133.213 87.2994C133.171 86.3647 132.915 85.4509 132.831 84.5206C132.682 82.992 132.962 81.4575 133.243 79.9483C133.457 78.7918 133.673 77.6339 133.948 76.4893C134.117 75.7913 134.311 75.0873 134.693 74.4815C134.99 74.0008 135.408 73.5989 135.755 73.142C136.718 71.8801 137.146 70.2901 136.946 68.7155C136.925 68.5667 134.713 69.2766 134.518 69.3615C133.723 69.6994 132.991 70.1705 132.354 70.7546C131.842 71.2413 131.439 71.8932 130.991 72.4394C130.357 73.2124 129.731 73.9913 129.113 74.7762C128.407 75.6653 127.716 76.5637 127.039 77.4717Z" fill="black"/>
<path d="M119.868 58.6421C121.863 58.6421 123.48 57.0248 123.48 55.0298C123.48 53.0348 121.863 51.4175 119.868 51.4175C117.873 51.4175 116.256 53.0348 116.256 55.0298C116.256 57.0248 117.873 58.6421 119.868 58.6421Z" fill="#FBBEBE"/>
<path d="M123.122 54.8781C123.455 55.4104 123.893 55.8701 124.408 56.2296C124.924 56.5891 125.506 56.8412 126.121 56.9707L125.848 57.9605C125.378 59.6602 124.85 61.4582 123.537 62.637C123.686 62.061 123.495 61.4463 123.171 60.9462C122.846 60.4461 122.391 60.0532 121.944 59.6647L119.865 57.8638C119.805 57.8149 119.755 57.7554 119.716 57.6881C119.665 57.5611 119.665 57.4192 119.716 57.2922C119.981 56.4677 120.737 55.9527 121.354 55.396C121.663 55.1082 121.939 54.7867 122.177 54.4375C122.592 53.8451 122.849 54.4405 123.122 54.8781Z" fill="#FBBEBE"/>
<path d="M115.11 51.3983L115.028 50.7196C115.598 50.8684 116.14 50.3832 116.504 49.8816C116.869 49.3801 117.207 48.7892 117.762 48.5793C118.436 48.3263 119.151 48.7281 119.795 49.0675C120.517 49.4679 121.309 49.7256 122.128 49.8266C122.258 49.8309 122.388 49.8519 122.513 49.8891C122.933 50.0379 123.132 50.5648 123.193 51.0426C123.254 51.5203 123.238 52.0279 123.445 52.4536C123.594 52.7765 123.87 53.0162 124.04 53.3347C124.487 54.189 124.055 55.3574 124.521 56.1953L123.363 55.1341C123.257 55.0374 123.108 54.9362 122.991 55.018C122.899 55.0835 122.891 55.2249 122.854 55.338C122.742 55.6685 122.328 55.7667 122.029 55.6357C121.73 55.5047 121.511 55.2205 121.285 54.9615C120.773 54.3572 120.163 53.8258 119.448 53.5684C119.135 53.4513 118.801 53.4021 118.467 53.4242C118.134 53.4463 117.809 53.539 117.514 53.6964C116.973 54.0015 116.577 54.7129 115.915 54.7382C115.007 54.7725 114.629 53.0817 114.209 52.4134C114.363 52.2978 114.471 52.1319 114.515 51.9446C114.558 51.7574 114.534 51.5608 114.447 51.3894C114.509 51.3641 115.096 51.2941 115.11 51.3983Z" fill="#464353"/>
<path d="M70.4301 30.2797C70.1399 30.5379 69.8716 30.8197 69.6279 31.1222C69.3826 31.4289 69.2521 31.8116 69.2588 32.2042C69.2601 32.3181 69.2965 32.4288 69.363 32.5212C69.397 32.5655 69.4439 32.598 69.4973 32.6143C69.5506 32.6306 69.6078 32.6298 69.6607 32.612C69.7205 32.5815 69.7716 32.5365 69.8095 32.4811C69.9668 32.292 70.1337 32.1112 70.3096 31.9393C70.3736 31.8753 70.4584 31.8083 70.5448 31.8321C70.5835 31.8459 70.6182 31.8688 70.646 31.8991C70.7461 31.9857 70.819 32.0994 70.8558 32.2265C70.9079 32.4543 70.7754 32.682 70.6251 32.8606C70.4748 33.0392 70.2977 33.2104 70.2367 33.4351C70.2136 33.4945 70.2136 33.5603 70.2367 33.6197C70.2654 33.6626 70.3056 33.6966 70.3528 33.7179C70.5659 33.8353 70.8022 33.9043 71.045 33.9203C71.2878 33.9362 71.5311 33.8986 71.7578 33.8102C72.0555 33.6896 72.3204 33.4827 72.627 33.3756C72.7598 33.3392 72.8884 33.2894 73.011 33.2267C73.0987 33.1684 73.174 33.0932 73.2325 33.0056C73.291 32.918 73.3315 32.8196 73.3518 32.7162C73.3905 32.5096 73.3981 32.2984 73.3742 32.0896C73.337 31.2811 73.164 30.4845 72.8622 29.7335C72.8447 29.6851 72.8149 29.642 72.7758 29.6085C72.7311 29.5812 72.6794 29.5673 72.627 29.5683C72.246 29.5281 71.6209 29.3331 71.2532 29.4745C71.1246 29.545 71.0137 29.6438 70.9288 29.7633C70.8603 29.8392 70.4301 30.18 70.4301 30.2797Z" fill="#A1616A"/>
<path d="M70.3096 29.9433C70.3096 29.5802 69.8631 28.7035 70.573 28.6455C70.573 28.257 70.0238 28.0159 70.1265 27.6036C70.1593 27.4667 70.2754 27.355 70.2888 27.2151C70.3334 26.8177 69.616 26.6019 69.7351 26.2209C69.7797 26.072 69.9375 25.9857 69.9717 25.8384C70.0521 25.4945 69.4374 25.3412 69.4255 24.9885C69.4255 24.8694 69.4925 24.7578 69.4865 24.6387C69.4865 24.4899 69.357 24.3768 69.2856 24.2473C69.0995 23.9154 69.1903 23.4019 68.851 23.2307C69.0757 23.2501 69.1487 22.9167 69.0564 22.7128C68.9641 22.5089 68.7751 22.3317 68.7736 22.1055C68.7847 22.0235 68.7847 21.9404 68.7736 21.8584C68.7111 21.6411 68.3554 21.6233 68.2958 21.4119C68.2881 21.3308 68.2856 21.2493 68.2884 21.1678C68.2646 20.9996 68.0919 20.8925 67.9297 20.8448C67.7612 20.8162 67.5989 20.7583 67.4504 20.6737C67.3462 20.5948 67.2257 20.4638 67.114 20.5248C67.0724 20.5502 67.0515 20.5978 67.0203 20.6335C66.8863 20.7898 66.6303 20.7213 66.4621 20.6067C65.965 20.2688 65.7179 19.6631 65.6123 19.0722C65.5066 18.4813 65.5096 17.8711 65.3771 17.2861C65.3367 17.1038 65.283 16.9247 65.2164 16.7503C65.1598 16.6015 64.9782 16.3678 64.9663 16.2175C64.9395 15.8751 65.648 16.1088 65.9174 16.1431C66.1789 16.1686 66.4375 16.2184 66.6899 16.2919C66.9592 16.3936 67.223 16.5094 67.4802 16.6387C68.5548 17.1135 69.8527 17.1715 70.7159 17.9693C71.0002 18.2313 71.2398 18.5751 71.609 18.6941C71.7782 18.7266 71.9453 18.7698 72.1091 18.8236C72.5184 19.0156 72.5824 19.5589 72.8056 19.9518C72.8758 20.0556 72.937 20.1651 72.9887 20.2793C73.0317 20.4139 73.0518 20.5547 73.0482 20.696L73.0795 21.7275C73.1301 23.4555 73.1807 25.1879 72.9961 26.9055C72.9366 27.4726 72.8473 28.0561 73.0155 28.6008C73.0601 28.7496 73.1226 28.8895 73.1643 29.0399C73.2011 29.2161 73.2201 29.3956 73.2209 29.5757L73.2447 30.244C73.253 30.2959 73.2413 30.3491 73.2119 30.3928C73.1871 30.413 73.158 30.4274 73.1268 30.4348C73.0956 30.4423 73.0632 30.4427 73.0318 30.436C72.1016 30.3526 71.1609 29.8287 70.2828 30.1457" fill="#464353"/>
<path d="M112.761 81.2923C118.841 81.2923 123.769 80.5799 123.769 79.7012C123.769 78.8225 118.841 78.1101 112.761 78.1101C106.682 78.1101 101.753 78.8225 101.753 79.7012C101.753 80.5799 106.682 81.2923 112.761 81.2923Z" fill="#504F60"/>
<path d="M122.232 79.7788C122.038 78.9497 121.918 78.2219 121.918 78.2219C121.918 78.2219 121.962 77.32 121.557 76.6428V76.4165V74.7495C121.673 74.4468 121.814 74.1545 121.979 73.8759C122.276 73.352 121.979 71.4319 121.979 71.4319C121.979 71.4319 120.867 68.7246 121.136 67.007C121.406 65.2894 118.853 59.3805 118.853 59.3805C118.869 58.8107 118.949 58.2444 119.093 57.6927C119.12 57.5767 119.131 57.4575 119.125 57.3385C119.125 57.3236 119.125 57.3102 119.125 57.2953C119.125 57.2804 119.125 57.3042 119.125 57.3087C119.087 56.176 118.191 54.0536 118.191 54.0536L118.311 50.0082C118.311 50.0082 118.883 47.6268 117.951 44.4193C117.625 43.3016 117.417 42.407 117.284 41.7164C117.269 41.639 117.255 41.5676 117.243 41.4917C119.161 41.194 120.627 40.9559 120.627 40.9559C120.627 40.9559 119.514 36.2987 118.762 35.4831C118.011 34.6675 117.409 32.106 117.409 32.106C117.409 32.106 117.018 28.8181 117.65 27.8566C118.283 26.8951 118.372 25.2371 118.372 25.2371C118.372 25.2371 119.815 24.1952 119.996 23.7234C120.178 23.2516 120.477 22.2097 120.477 21.6575C120.477 21.1053 120.297 20.6157 120.356 20.318C120.416 20.0203 119.935 18.9204 120.176 18.3965C120.239 18.2356 120.271 18.0645 120.272 17.8919C120.272 17.887 120.272 17.882 120.272 17.877C120.274 17.4186 120.231 16.961 120.145 16.5107C119.728 16.1584 119.241 15.8982 118.716 15.7472L118.685 15.6222L118.603 15.2947C118.557 15.2645 118.51 15.2367 118.462 15.2114V15.0923L118.448 14.619L118.674 13.5563C119.121 11.7077 116.652 11.4324 116.652 11.4324C116.502 11.1488 116.253 10.9305 115.952 10.8191C115.457 10.645 115.87 13.5994 116.101 13.7959C116.275 13.9447 116.814 14.8646 117.074 15.32L117.116 15.3944C117.075 15.4311 117.038 15.4709 117.003 15.5135L117.097 16.155L117.112 16.2532C116.948 16.4564 116.815 16.6826 116.717 16.9245C116.717 16.9245 117.164 17.4186 117.079 17.9663C116.994 18.5141 117.217 19.2091 117.228 19.2464C117.201 19.2151 116.884 18.8728 116.567 18.9561C116.25 19.0395 115.364 19.3059 115.364 19.3059C115.364 19.3059 114.703 19.422 114.769 19.5678C114.834 19.7137 114.322 20.3537 114.322 20.3537L112.545 18.6689C112.527 18.6183 112.508 18.5677 112.493 18.52C112.421 18.2771 112.371 18.028 112.344 17.7758C112.538 17.7298 112.728 17.6696 112.913 17.5957C113.1 17.5316 113.268 17.4234 113.404 17.2802C113.584 17.0674 113.618 16.7786 113.691 16.5137C113.831 15.9957 114.138 15.5358 114.351 15.0432C114.711 14.2107 114.827 13.2929 114.686 12.3968C114.658 12.1207 114.565 11.8552 114.413 11.6229C114.123 11.224 113.596 11.0618 113.214 10.7432C112.831 10.4247 112.584 9.93803 112.138 9.70138C111.734 9.48556 111.244 9.51086 110.789 9.58528C109.899 9.73196 109.045 10.0429 108.269 10.5021C108.01 10.651 107.724 10.834 107.427 10.779C107.171 10.7328 106.98 10.5289 106.82 10.3324C106.821 10.3243 106.824 10.3164 106.827 10.3086C106.82 10.3014 106.813 10.2934 106.808 10.2848C106.619 10.7028 106.525 11.157 106.531 11.6154C106.531 11.6869 106.531 11.7643 106.54 11.8283V11.9027C106.54 11.9235 106.54 11.9444 106.54 11.9637C106.54 11.9954 106.535 12.027 106.526 12.0575C106.489 12.1485 106.432 12.2303 106.36 12.2971C106.305 12.3592 106.255 12.4253 106.211 12.4951C106.211 12.4712 106.226 12.4474 106.235 12.4221C106.121 12.5879 106.057 12.7825 106.05 12.9833C106.042 13.1294 106.09 13.2732 106.184 13.3851C106.273 13.4716 106.37 13.5494 106.474 13.6173C106.439 13.8138 106.421 14.013 106.421 14.2127C106.424 14.8045 106.58 15.3855 106.874 15.8994C107.167 16.4133 107.588 16.8428 108.097 17.1463C108.117 17.1954 108.137 17.246 108.156 17.2951C108.384 17.8904 108.555 18.59 108.479 19.23C108.479 19.2761 108.466 19.3238 108.458 19.3699C108.451 19.416 108.414 19.419 108.394 19.4443C108.394 19.4443 105.458 19.4741 104.767 18.849C104.076 18.2238 103.023 20.3775 103.023 20.3775C103.023 20.3775 101.97 20.5814 101.759 20.3775C101.548 20.1736 100.317 20.3492 100.317 20.3492C99.8125 19.9008 99.1563 19.6613 98.4816 19.6795C98.0729 19.3688 97.6218 19.1182 97.1421 18.9353L97.1093 18.9234C96.8976 18.8462 96.6712 18.8177 96.447 18.84C96.447 18.84 95.0033 17.6493 94.5821 17.0063C94.1608 16.3634 92.156 13.9894 92.1471 13.979V13.8644L92.1247 13.5191C92.0652 13.5284 92.005 13.5334 91.9447 13.534C91.9342 13.4997 91.9194 13.4595 91.9045 13.4134C91.789 13.0766 91.6466 12.7496 91.4788 12.4355C91.4788 12.4355 91.4788 11.9994 91.6053 11.8893C91.7318 11.7792 91.5532 10.1791 91.5532 10.1791C91.5532 10.1791 90.2524 7.13839 89.087 9.40816C89.087 9.40816 86.8842 10.8772 88.7327 12.5888C88.7327 12.5888 89.4769 12.946 89.5751 13.2288C89.6436 13.4119 89.8937 13.9254 90.0619 14.2707L90.1378 14.4195L90.1169 14.4374L90.1437 14.7232L90.1556 14.8333C89.8073 15.0313 89.5707 15.2277 89.6287 15.3751C89.7313 15.6272 89.8018 15.8912 89.8386 16.1609C89.8386 16.1609 92.3956 19.3639 92.7261 20.7318C92.7261 20.7318 99.583 24.8069 101.838 25.0972L101.439 27.1288C101.381 27.6801 101.351 28.234 101.35 28.7884C101.379 29.2245 101.079 31.204 101.079 31.204C101.079 31.204 100.687 34.1153 100.357 34.5231C100.027 34.9309 100.086 36.6768 100.086 36.6768C100.008 37.5126 99.8587 38.3401 99.6396 39.1505C99.3092 40.2563 99.5488 41.6256 99.5488 41.6256C99.5488 41.6256 98.4072 44.2452 101.143 42.4696C101.143 42.4696 102.482 42.3862 104.033 42.3326C104.033 42.3832 104.033 42.4353 104.033 42.4815C104.033 42.6809 104.033 42.8967 104.023 43.1229C104.002 44.6232 103.993 46.6951 104.062 48.2549C104.182 51.0203 105.025 56.4931 105.025 56.4931V59.2481C104.97 59.5065 104.943 59.7699 104.944 60.0339C104.926 61.0033 105.184 61.9577 105.688 62.7859L105.9 64.6196C105.9 64.6196 106.394 65.8282 106.403 66.5545C106.401 66.6131 106.394 66.6713 106.382 66.7287C106.363 66.8211 106.355 66.9156 106.358 67.01C106.33 67.8435 106.831 69.8379 106.831 69.8379C106.831 69.8379 106.861 71.8457 107.162 71.9633C107.419 72.063 106.818 73.1198 106.639 73.4234C106.635 73.4048 106.631 73.3859 106.629 73.3668L106.592 73.4264C106.53 73.5889 106.498 73.7614 106.498 73.9354C106.481 74.0725 106.503 74.2116 106.562 74.3365C106.621 74.4614 106.715 74.5669 106.831 74.6409C107.403 74.9906 107.71 75.2809 107.224 75.397C107.046 75.4247 106.869 75.462 106.694 75.5086C106.694 75.4863 106.677 75.4625 106.669 75.4416C106.601 75.4684 106.544 75.5179 106.508 75.582C106.471 75.646 106.459 75.7205 106.471 75.7929C106.476 76.029 106.537 76.2606 106.648 76.4686C107.129 77.5462 107.462 77.957 107.462 77.957L107.693 77.9317C107.659 78.0198 107.614 78.1033 107.559 78.1803C107.471 78.3051 107.355 78.4071 107.22 78.4779C107.094 78.5534 106.953 78.6015 106.808 78.6193C106.645 78.6246 106.485 78.6642 106.338 78.7355C106.191 78.8068 106.061 78.9082 105.956 79.0331C105.659 79.4216 105.468 79.9499 106.06 80.4143L108.211 81.1585C108.211 81.1585 111.911 81.6392 111.715 80.8087C111.518 79.9782 111.399 79.2519 111.399 79.2519C111.415 78.7448 111.313 78.2409 111.102 77.7799C111.063 77.7046 111.019 77.632 110.971 77.5626L111.102 77.5492C111.102 77.5492 111.372 75.714 111.733 75.3657C111.816 75.2854 111.835 75.2169 111.816 75.1752C111.853 75.0755 111.758 75.0174 111.637 74.9832L111.611 75.0561C111.493 75.0305 111.373 75.017 111.252 75.016C111.252 75.016 111.131 74.056 111.523 73.7062C111.554 73.6663 111.577 73.6204 111.59 73.5712C111.604 73.522 111.606 73.4707 111.599 73.4204C111.602 73.2887 111.588 73.1571 111.557 73.029C111.553 73.0372 111.549 73.0452 111.544 73.0528C111.347 72.1806 110.68 70.7949 110.68 70.7949C110.68 70.7949 110.651 69.9227 110.892 69.5729C111.133 69.2232 110.86 64.828 110.86 64.828C110.86 64.828 110.951 62.7041 110.68 61.7143C110.409 60.7245 111.011 59.5591 111.011 59.5591C111.011 59.5591 111.011 59.5368 111.011 59.4966V59.4817L110.977 59.1468C110.976 59.1538 110.976 59.1608 110.977 59.1677C110.916 58.6051 110.801 57.5855 110.716 57.1152C110.596 56.4454 110.747 53.2454 110.747 53.2454L111.288 51.8761L112.251 54.2352L113.273 57.3787C113.273 57.3787 113.779 58.0425 113.791 58.7182C113.791 58.7509 113.791 58.7837 113.791 58.8164C113.783 58.8861 113.779 58.9562 113.779 59.0263C113.761 59.4234 113.87 59.816 114.09 60.147C114.09 60.147 114.361 61.6354 114.782 62.009C115.204 62.3826 115.204 63.1149 115.204 63.1149C115.204 63.1149 115.714 65.27 115.948 65.6451C116.15 65.9636 116.161 66.8358 116.159 67.1082C116.159 67.1573 116.159 67.1856 116.159 67.1856C116.159 67.1856 116.231 67.9566 116.228 68.6025C116.228 68.6829 116.228 68.7603 116.228 68.8332C116.228 68.8278 116.228 68.8223 116.228 68.8169C116.227 68.9933 116.206 69.1692 116.165 69.3408L116.156 69.3705C116.156 69.3333 116.156 69.2976 116.167 69.2619C116.062 69.7006 116.012 70.1505 116.018 70.6014C116.004 71.3754 116.122 72.2922 116.591 72.834C117.403 73.7657 117.914 73.6496 117.914 73.6496C117.914 73.6496 117.524 74.8135 117.042 75.0472C117.023 75.0558 117.006 75.0668 116.991 75.08C116.991 75.0561 116.982 75.0338 116.979 75.0115C116.925 75.0695 116.884 75.1382 116.859 75.2131C116.833 75.2879 116.823 75.3673 116.83 75.4461C116.796 75.9581 117.119 76.7856 117.426 77.1711C117.54 77.2826 117.679 77.3644 117.832 77.4093C117.808 77.4264 117.782 77.4418 117.756 77.4554C117.703 77.4848 117.647 77.5111 117.591 77.5343C117.513 77.5675 117.43 77.5891 117.345 77.5983C117.182 77.6027 117.022 77.6418 116.875 77.7132C116.728 77.7845 116.598 77.8864 116.494 78.0121C116.196 78.399 116.006 78.9274 116.598 79.3918L118.749 80.136C118.749 80.136 122.425 80.6078 122.232 79.7788Z" fill="url(#paint0_linear)"/>
<path d="M108.105 81.1541L106.022 80.4099C105.447 79.9456 105.63 79.4172 105.921 79.0287C106.02 78.9048 106.146 78.8038 106.288 78.7324C106.43 78.661 106.586 78.621 106.745 78.615C106.886 78.597 107.022 78.5487 107.142 78.4736C107.275 78.4018 107.388 78.2998 107.473 78.1759C107.625 77.9346 107.707 77.6558 107.71 77.3707C107.71 77.3707 109.996 76.7009 110.621 77.3707C110.732 77.4919 110.826 77.6288 110.898 77.777C111.105 78.2394 111.207 78.7423 111.195 79.249C111.195 79.249 111.311 79.9753 111.5 80.8059C111.689 81.6364 108.105 81.1541 108.105 81.1541Z" fill="#2D293D"/>
<path d="M118.292 80.1271L116.208 79.3829C115.634 78.9185 115.817 78.3901 116.107 78.0032C116.206 77.8788 116.331 77.7774 116.473 77.706C116.615 77.6345 116.771 77.5948 116.93 77.5894C117.012 77.581 117.093 77.5593 117.168 77.5254C117.223 77.5022 117.277 77.4758 117.329 77.4465C117.911 77.1265 117.896 76.3406 117.896 76.3406C117.896 76.3406 120.181 75.6709 120.807 76.3406C120.891 76.4314 120.965 76.5312 121.026 76.6383C121.418 77.3155 121.374 78.219 121.374 78.219C121.374 78.219 121.491 78.9468 121.672 79.7758C121.854 80.6048 118.292 80.1271 118.292 80.1271Z" fill="#2D293D"/>
<path opacity="0.1" d="M110.622 77.3689C110.734 77.4901 110.827 77.627 110.899 77.7752L107.476 78.1726C107.628 77.9313 107.71 77.6525 107.713 77.3674C107.713 77.3674 109.997 76.6991 110.622 77.3689Z" fill="black"/>
<path opacity="0.1" d="M121.029 76.6413V77.2827C120.496 78.1594 117.92 77.9674 117.171 77.5283C117.226 77.5051 117.28 77.4788 117.332 77.4494C117.914 77.1294 117.899 76.3436 117.899 76.3436C117.899 76.3436 120.184 75.6738 120.81 76.3436C120.894 76.4343 120.968 76.5341 121.029 76.6413Z" fill="black"/>
<path d="M121.435 73.8758C121.276 74.1553 121.14 74.4475 121.029 74.7494V77.049C120.446 78.009 117.42 77.689 117.01 77.1651C116.601 76.6412 116.174 75.2778 116.634 75.0412C117.094 74.8045 117.478 73.6436 117.478 73.6436C117.478 73.6436 116.982 73.7597 116.196 72.8279C115.41 71.8962 115.644 69.8303 115.79 69.3362C115.936 68.8421 115.79 67.1825 115.79 67.1825C115.79 67.1825 115.82 66.0171 115.588 65.6391C115.355 65.261 114.86 63.1088 114.86 63.1088C114.86 63.1088 114.86 62.381 114.452 62.003C114.044 61.6249 113.782 60.1395 113.782 60.1395C113.544 59.7683 113.441 59.326 113.492 58.8878C113.578 58.16 112.996 57.3741 112.996 57.3741L112.007 54.2291L111.075 51.8715L110.551 53.2394C110.551 53.2394 110.402 56.4409 110.523 57.1092C110.643 57.7774 110.82 59.5546 110.82 59.5546C110.82 59.5546 110.238 60.7185 110.5 61.7083C110.762 62.698 110.667 64.8249 110.667 64.8249C110.667 64.8249 110.929 69.2186 110.695 69.5684C110.462 69.9182 110.491 70.7918 110.491 70.7918C110.491 70.7918 111.682 73.3518 111.307 73.7016C110.932 74.0514 111.045 75.0114 111.045 75.0114C111.045 75.0114 111.859 75.0114 111.511 75.3612C111.163 75.7109 110.899 77.5446 110.899 77.5446L107.379 77.9569C107.379 77.9569 107.058 77.5506 106.592 76.4685C106.126 75.3865 106.678 75.5085 107.147 75.3909C107.616 75.2733 107.32 74.9846 106.766 74.6348C106.212 74.2851 106.534 73.4992 106.534 73.4992C106.534 73.4992 107.378 72.0733 107.086 71.9572C106.794 71.8411 106.766 69.8318 106.766 69.8318C106.766 69.8318 106.184 67.4504 106.33 66.8045C106.476 66.1585 105.864 64.6225 105.864 64.6225L105.66 62.7888C105.037 61.7483 104.81 60.5182 105.02 59.3239V56.4959C105.02 56.4959 104.204 51.0247 104.088 48.2592C104.014 46.4881 104.035 44.0709 104.059 42.5632C104.073 41.7178 104.088 41.1567 104.088 41.1567L116.662 39.8469C116.662 39.8469 116.65 40.4274 116.89 41.7148C117.019 42.4054 117.22 43.3 117.536 44.4177C118.438 47.6192 117.886 50.0051 117.886 50.0051L117.768 54.052C117.768 54.052 118.874 56.7579 118.642 57.6896C118.501 58.2429 118.423 58.8099 118.407 59.3804C118.407 59.3804 120.88 65.2893 120.618 67.0069C120.356 68.7245 121.432 71.4318 121.432 71.4318C121.432 71.4318 121.727 73.3519 121.435 73.8758Z" fill="#464353"/>
<path opacity="0.05" d="M114.247 58.7119L118.075 58.2014C118.075 58.2014 115.906 60.4146 114.247 58.7119Z" fill="black"/>
<path opacity="0.1" d="M117.521 54.4614C117.521 54.4614 117.652 55.8158 116.823 56.3249C116.823 56.3249 118.307 56.0927 117.521 54.4614Z" fill="black"/>
<path opacity="0.1" d="M117.286 50.1541C117.286 50.1541 114.086 52.7885 112.922 52.5697C111.758 52.3509 117.286 50.1541 117.286 50.1541Z" fill="black"/>
<path opacity="0.1" d="M109.502 59.9473C109.502 59.9473 107.071 60.4995 106.998 61.4758C106.925 62.4522 109.502 59.9473 109.502 59.9473Z" fill="black"/>
<path opacity="0.05" d="M110.036 72.0869C110.036 72.0869 106.602 72.7269 107.577 73.163C108.552 73.5991 110.154 73.9489 110.154 73.9489C110.154 73.9489 111.262 74.0069 110.036 72.0869Z" fill="black"/>
<g opacity="0.05">
<path opacity="0.05" d="M106.884 73.8565C106.797 73.8026 106.724 73.7299 106.67 73.6438C106.615 73.5577 106.581 73.4605 106.569 73.3594L106.534 73.4204C106.534 73.4204 106.214 74.2063 106.767 74.5545C106.83 74.5947 106.891 74.6349 106.946 74.6736C107.049 74.6543 107.159 74.6394 107.265 74.6126C107.733 74.4965 107.437 74.2063 106.884 73.8565Z" fill="black"/>
<path opacity="0.05" d="M111.307 73.6229C111.402 73.5366 111.399 73.3134 111.341 73.0276C111.193 73.2523 111.149 73.6036 111.146 73.87C111.182 73.7775 111.237 73.6934 111.307 73.6229Z" fill="black"/>
<path opacity="0.05" d="M110.779 59.1421C110.652 59.4864 110.574 59.8465 110.547 60.2122C110.613 59.9596 110.702 59.7135 110.813 59.477L110.779 59.1421Z" fill="black"/>
<path opacity="0.05" d="M118.643 57.6154C118.666 57.5108 118.677 57.4039 118.674 57.2969C118.631 57.5142 118.602 57.7151 118.579 57.8922C118.599 57.8014 118.619 57.7151 118.643 57.6154Z" fill="black"/>
<path opacity="0.05" d="M110.697 69.4909C110.744 69.4195 110.771 69.1784 110.783 68.8435C110.675 69.1026 110.618 69.38 110.615 69.6606C110.635 69.601 110.663 69.544 110.697 69.4909Z" fill="black"/>
<path opacity="0.05" d="M111.411 74.9802C111.231 75.5641 111.097 76.1613 111.011 76.7663L107.491 77.1726C107.491 77.1726 107.169 76.7663 106.703 75.6842C106.666 75.6006 106.633 75.5152 106.604 75.4282C106.392 75.525 106.306 75.7438 106.586 76.3823C107.052 77.4599 107.375 77.8707 107.375 77.8707L110.895 77.4628C110.895 77.4628 111.157 75.6292 111.505 75.2794C111.684 75.1112 111.573 75.0234 111.411 74.9802Z" fill="black"/>
<path opacity="0.05" d="M106.767 69.753C106.767 69.753 106.796 71.7608 107.087 71.8769C107.236 71.545 107.333 71.2294 107.202 71.1773C106.904 71.0612 106.882 69.0519 106.882 69.0519C106.882 69.0519 106.3 66.6705 106.446 66.0246C106.592 65.3786 105.98 63.8426 105.98 63.8426L105.776 62.0089C105.153 60.9684 104.926 59.7383 105.136 58.544V55.716C105.136 55.716 104.321 50.2448 104.204 47.4793C104.13 45.7082 104.151 43.291 104.175 41.7833C104.175 41.5109 104.184 41.2698 104.188 41.0659L104.088 41.0763C104.088 41.0763 104.072 41.636 104.059 42.4829C104.035 43.9906 104.012 46.4077 104.088 48.1774C104.204 50.9428 105.019 56.4156 105.019 56.4156V59.2435C104.81 60.4376 105.037 61.6669 105.66 62.707L105.862 64.5406C105.862 64.5406 106.474 66.0826 106.328 66.7241C106.182 67.3656 106.767 69.753 106.767 69.753Z" fill="black"/>
<path opacity="0.05" d="M117.13 76.3881C116.844 75.9741 116.653 75.5019 116.571 75.0054C116.213 75.3298 116.625 76.589 117.018 77.0891C117.424 77.613 120.452 77.933 121.037 76.9715V76.4178C120.243 77.1963 117.514 76.8837 117.13 76.3881Z" fill="black"/>
<path opacity="0.05" d="M121.553 73.0987C121.393 73.3783 121.257 73.6705 121.145 73.9724V74.3847C121.212 74.2358 121.306 74.0364 121.443 73.8012C121.535 73.572 121.579 73.3262 121.571 73.0793C121.571 73.0793 121.558 73.0927 121.553 73.0987Z" fill="black"/>
<path opacity="0.05" d="M117.308 73.5587C117.419 73.3345 117.515 73.1033 117.595 72.8666C117.595 72.8666 117.1 72.9827 116.314 72.051C115.742 71.3738 115.71 70.0938 115.792 69.2573C115.643 69.753 115.412 71.8188 116.198 72.7506C116.711 73.3593 117.1 73.52 117.308 73.5587Z" fill="black"/>
<path opacity="0.05" d="M115.79 67.1038C115.841 67.6773 115.861 68.2532 115.848 68.8288C115.863 68.7379 115.883 68.648 115.908 68.5594C116.056 68.0638 115.908 66.4057 115.908 66.4057C115.908 66.4057 115.937 65.2403 115.704 64.8623C115.47 64.4842 114.983 62.329 114.983 62.329C114.983 62.329 114.983 61.6012 114.576 61.2232C114.168 60.8451 113.906 59.3597 113.906 59.3597C113.665 58.9893 113.56 58.5471 113.608 58.108C113.696 57.3802 113.114 56.5943 113.114 56.5943L112.124 53.4509L111.192 51.0933L110.667 52.4626C110.667 52.4626 110.667 52.6352 110.649 52.9091L111.075 51.7973L112.007 54.1504L112.996 57.2939C112.996 57.2939 113.578 58.0797 113.49 58.8075C113.442 59.2466 113.548 59.6888 113.788 60.0593C113.788 60.0593 114.05 61.5476 114.458 61.9227C114.866 62.2978 114.864 63.0286 114.864 63.0286C114.864 63.0286 115.36 65.1823 115.592 65.5588C115.824 65.9354 115.79 67.1038 115.79 67.1038Z" fill="black"/>
</g>
<path d="M118.234 13.5517L118.015 14.6144L118.029 15.0877L118.038 15.436L116.823 15.561L116.688 15.3095C116.436 14.8541 115.914 13.9283 115.745 13.7854C115.521 13.5979 115.12 10.642 115.597 10.8176C115.89 10.9308 116.131 11.1488 116.272 11.4293C116.272 11.4293 118.664 11.7032 118.234 13.5517Z" fill="#FFCDD3"/>
<path opacity="0.1" d="M118.037 15.436L116.823 15.561L116.688 15.3095C116.851 15.1235 117.074 14.9999 117.318 14.9597C117.562 14.9196 117.813 14.9653 118.027 15.0892L118.037 15.436Z" fill="black"/>
<path d="M118.344 16.0121L116.743 16.3827L116.708 16.1446L116.618 15.5031C116.618 15.5031 117.252 14.6577 118.168 15.2917L118.249 15.6177L118.344 16.0121Z" fill="#E52F34"/>
<path d="M92.4016 13.6678L90.6915 14.5846L90.5426 14.2631C90.3804 13.9223 90.1378 13.4088 90.0708 13.2213C89.9696 12.9385 89.2567 12.5813 89.2567 12.5813C87.4706 10.8711 89.599 9.4006 89.599 9.4006C90.7272 7.13082 91.9804 10.1716 91.9804 10.1716C91.9804 10.1716 92.156 11.7746 92.0325 11.8817C91.909 11.9889 91.909 12.428 91.909 12.428C92.072 12.7425 92.2098 13.0695 92.3212 13.4058C92.3733 13.5681 92.4016 13.6678 92.4016 13.6678Z" fill="#FFCDD3"/>
<path opacity="0.1" d="M92.4016 13.6677L90.6914 14.5845L90.5426 14.2631C90.7837 14.0606 91.6395 13.37 91.9208 13.3983C92.0551 13.4151 92.1907 13.4186 92.3257 13.4087C92.3733 13.568 92.4016 13.6677 92.4016 13.6677Z" fill="black"/>
<path d="M92.5757 14.1842L90.6542 15.1308L90.6155 14.7186L90.5887 14.4328C90.5887 14.4328 91.7021 13.4787 92.031 13.516C92.1973 13.5401 92.3662 13.5401 92.5326 13.516L92.5549 13.8613L92.5757 14.1842Z" fill="#E52F34"/>
<path d="M113.577 20.6111C113.577 20.6111 105.2 21.5563 106.766 21.0472C107.855 20.6915 108.289 20.0054 108.379 19.2314C108.454 18.5869 108.287 17.8919 108.068 17.2965C107.871 16.7684 107.622 16.2613 107.324 15.7828C107.324 15.7828 113.724 12.2613 112.446 15.4628C112.248 15.9471 112.126 16.4585 112.082 16.9795C112.044 17.4973 112.1 18.0177 112.248 18.5155C112.489 19.3232 112.949 20.0484 113.577 20.6111Z" fill="#FFCDD3"/>
<path opacity="0.1" d="M112.441 15.4582C112.244 15.9424 112.122 16.4538 112.078 16.9748C111.475 17.4824 110.814 17.4482 109.964 17.4482C109.313 17.4482 108.589 17.6059 108.068 17.2919C107.871 16.7637 107.622 16.2566 107.324 15.7782C107.324 15.7782 113.723 12.2567 112.441 15.4582Z" fill="black"/>
<path d="M109.851 17.6715C111.764 17.6715 113.315 16.1209 113.315 14.2081C113.315 12.2953 111.764 10.7446 109.851 10.7446C107.939 10.7446 106.388 12.2953 106.388 14.2081C106.388 16.1209 107.939 17.6715 109.851 17.6715Z" fill="#FFCDD3"/>
<path opacity="0.1" d="M113.577 20.6109C113.577 20.6109 105.2 21.5561 106.766 21.047C107.855 20.6913 108.289 20.0052 108.379 19.2312C108.796 18.7847 109.634 18.4528 110.165 18.2801C110.657 18.1149 111.187 18.1061 111.684 18.2548C111.879 18.3137 112.065 18.3998 112.236 18.5108C112.48 19.3215 112.944 20.0485 113.577 20.6109Z" fill="black"/>
<path opacity="0.1" d="M118.344 16.0121L116.743 16.3827L116.708 16.1446C116.88 15.909 117.12 15.7321 117.395 15.6378C117.671 15.5435 117.969 15.5365 118.249 15.6177L118.344 16.0121Z" fill="black"/>
<path opacity="0.1" d="M92.5757 14.1843L90.6542 15.1309L90.6155 14.7187C91.2379 14.384 91.8847 14.0969 92.5504 13.8599L92.5757 14.1843Z" fill="black"/>
<path opacity="0.1" d="M116.89 41.7178C113.644 42.2357 109.03 42.8966 108.298 42.6733C107.689 42.4888 105.748 42.5081 104.059 42.5661C104.073 41.7207 104.088 41.1596 104.088 41.1596L116.662 39.8499C116.662 39.8499 116.65 40.4303 116.89 41.7178Z" fill="black"/>
<path d="M120.126 40.9557C120.126 40.9557 109.444 42.7894 108.297 42.4441C107.151 42.0988 101.265 42.4724 101.265 42.4724C98.6156 44.248 99.7214 41.6285 99.7214 41.6285C99.7214 41.6285 99.4892 40.2606 99.8092 39.1548C100.024 38.3429 100.171 37.5144 100.248 36.6781C100.248 36.6781 100.19 34.9308 100.51 34.5229C100.83 34.1151 101.21 31.2053 101.21 31.2053C101.21 31.2053 101.5 29.2258 101.472 28.7897C101.443 28.3536 101.558 27.1302 101.558 27.1302L101.938 25.0926C99.7542 24.8023 93.1175 20.7271 93.1175 20.7271C92.7975 19.3593 90.3238 16.1578 90.3238 16.1578C90.2878 15.8886 90.2193 15.6247 90.1199 15.372C89.9457 14.9061 92.5653 13.9744 92.5653 13.9744C92.5653 13.9744 94.5151 16.3558 94.9229 17.0017C95.3307 17.6477 96.7268 18.8354 96.7268 18.8354C96.9437 18.8131 97.1628 18.8416 97.3668 18.9188L97.401 18.9292C97.8689 19.1129 98.3076 19.3635 98.7034 19.6734C99.3597 19.6578 99.9964 19.898 100.479 20.3431C100.479 20.3431 101.67 20.1675 101.877 20.3714C102.083 20.5753 103.099 20.3714 103.099 20.3714C103.099 20.3714 104.117 18.2177 104.786 18.8429C105.456 19.468 108.297 19.4382 108.297 19.4382C108.676 18.9351 109.597 18.5749 110.173 18.3963C110.664 18.2318 111.194 18.223 111.691 18.371C111.905 18.435 112.107 18.5357 112.286 18.6687L114.014 20.3565C114.014 20.3565 114.508 19.715 114.45 19.5707C114.392 19.4263 115.032 19.3087 115.032 19.3087C115.032 19.3087 115.876 19.0468 116.196 18.959C116.516 18.8711 116.81 19.2179 116.836 19.2492C116.826 19.212 116.607 18.505 116.687 17.9692C116.768 17.4334 116.338 16.9273 116.338 16.9273C117.356 14.4239 119.655 16.5195 119.655 16.5195C119.655 16.5195 119.917 17.8873 119.685 18.4112C119.453 18.9351 119.917 20.041 119.859 20.3327C119.801 20.6244 119.977 21.1186 119.977 21.6723C119.977 22.2259 119.679 23.2723 119.511 23.7381C119.343 24.204 117.939 25.2518 117.939 25.2518C117.939 25.2518 117.851 26.9114 117.24 27.8714C116.628 28.8314 117.012 32.1147 117.012 32.1147C117.012 32.1147 117.594 34.6762 118.322 35.4919C119.05 36.3075 120.126 40.9557 120.126 40.9557Z" fill="#3F3D56"/>
<path opacity="0.1" d="M104.554 21.8033C104.554 21.8033 104.234 20.8433 103.942 20.7614C103.653 20.6549 103.371 20.5286 103.099 20.3834L103.286 20.0247C103.286 20.0247 104.379 20.3223 104.554 20.6453C104.73 20.9683 104.554 21.8033 104.554 21.8033Z" fill="black"/>
<path opacity="0.1" d="M98.7034 19.6793C98.6453 19.9769 96.0541 20.2315 96.0541 20.2315L97.3638 18.9187L97.3966 18.9306C97.8663 19.1153 98.3065 19.3675 98.7034 19.6793Z" fill="black"/>
<path d="M91.208 15.9168C91.3362 15.9168 91.4401 15.8128 91.4401 15.6846C91.4401 15.5563 91.3362 15.4524 91.208 15.4524C91.0797 15.4524 90.9758 15.5563 90.9758 15.6846C90.9758 15.8128 91.0797 15.9168 91.208 15.9168Z" fill="#575988"/>
<path d="M91.5056 16.3826C91.6339 16.3826 91.7378 16.2786 91.7378 16.1504C91.7378 16.0222 91.6339 15.9182 91.5056 15.9182C91.3774 15.9182 91.2734 16.0222 91.2734 16.1504C91.2734 16.2786 91.3774 16.3826 91.5056 16.3826Z" fill="#575988"/>
<path d="M91.7974 16.8128C91.9256 16.8128 92.0296 16.7088 92.0296 16.5806C92.0296 16.4523 91.9256 16.3484 91.7974 16.3484C91.6691 16.3484 91.5652 16.4523 91.5652 16.5806C91.5652 16.7088 91.6691 16.8128 91.7974 16.8128Z" fill="#575988"/>
<path d="M92.1024 17.2771C92.2307 17.2771 92.3346 17.1732 92.3346 17.0449C92.3346 16.9167 92.2307 16.8127 92.1024 16.8127C91.9742 16.8127 91.8702 16.9167 91.8702 17.0449C91.8702 17.1732 91.9742 17.2771 92.1024 17.2771Z" fill="#575988"/>
<path d="M119.539 17.2089C119.644 17.2089 119.728 17.1242 119.728 17.0198C119.728 16.9154 119.644 16.8308 119.539 16.8308C119.435 16.8308 119.35 16.9154 119.35 17.0198C119.35 17.1242 119.435 17.2089 119.539 17.2089Z" fill="#575988"/>
<path d="M119.569 17.6388C119.673 17.6388 119.758 17.5542 119.758 17.4498C119.758 17.3454 119.673 17.2607 119.569 17.2607C119.465 17.2607 119.38 17.3454 119.38 17.4498C119.38 17.5542 119.465 17.6388 119.569 17.6388Z" fill="#575988"/>
<path d="M119.594 18.0675C119.699 18.0675 119.783 17.9829 119.783 17.8785C119.783 17.7741 119.699 17.6895 119.594 17.6895C119.49 17.6895 119.405 17.7741 119.405 17.8785C119.405 17.9829 119.49 18.0675 119.594 18.0675Z" fill="#575988"/>
<path opacity="0.1" d="M104.565 29.6915C104.536 29.6573 111.099 37.9431 116.192 33.155C116.196 33.1565 108.149 34.2474 104.565 29.6915Z" fill="black"/>
<path opacity="0.1" d="M100.799 33.999C100.799 33.999 104.725 34.1062 105.136 35.2359V36.4117C105.024 36.4737 104.899 36.5063 104.771 36.5063C104.643 36.5063 104.517 36.4737 104.405 36.4117C104.01 36.1974 101.636 34.9918 100.799 35.5722V33.999Z" fill="black"/>
<path d="M100.872 33.999C100.872 33.999 104.627 34.1017 105.02 35.1793V36.2986C104.913 36.358 104.793 36.3892 104.67 36.3892C104.548 36.3892 104.428 36.358 104.321 36.2986C103.942 36.0961 101.673 34.9456 100.872 35.4993V33.999Z" fill="#3F3D56"/>
<path opacity="0.1" d="M102.942 25.4736C103.343 26.4021 103.855 27.2791 104.465 28.0857C105.129 28.9773 105.933 29.755 106.846 30.3883C106.846 30.3883 103.008 26.0124 102.942 25.4736Z" fill="black"/>
<path opacity="0.1" d="M101.658 20.9116C101.658 20.9116 102.313 23.7395 104.001 24.6995L101.658 20.9116Z" fill="black"/>
<path opacity="0.1" d="M100.653 21.1974C100.637 21.1453 100.071 23.43 102.829 24.6996C102.829 24.6996 101.658 24.3022 100.653 21.1974Z" fill="black"/>
<path opacity="0.1" d="M117.798 19.3014C117.755 19.3014 119.158 20.1945 119.541 20.6112C119.541 20.6112 118.627 19.2419 117.798 19.3014Z" fill="black"/>
<path d="M108.915 17.3472C108.916 17.4227 108.932 17.4974 108.963 17.5664C108.994 17.6353 109.038 17.6972 109.094 17.7479C109.15 17.7987 109.216 17.8373 109.288 17.8614C109.359 17.8854 109.435 17.8943 109.511 17.8875C110.566 17.953 111.666 17.9991 112.636 17.5898C112.818 17.5248 112.982 17.4165 113.112 17.2743C113.285 17.0614 113.319 16.7727 113.389 16.5077C113.526 15.9898 113.818 15.5299 114.028 15.0372C114.383 14.2049 114.502 13.2908 114.372 12.3953C114.344 12.1208 114.253 11.8564 114.107 11.6229C113.827 11.2225 113.316 11.0603 112.946 10.7418C112.575 10.4232 112.337 9.93654 111.904 9.69989C111.514 9.48258 111.036 9.50937 110.597 9.58379C109.733 9.73045 108.906 10.0412 108.159 10.4991C107.908 10.648 107.632 10.8311 107.344 10.776C107.09 10.7284 106.906 10.5155 106.748 10.3161C106.545 10.7924 106.46 11.3106 106.5 11.8268C106.511 11.9025 106.508 11.9796 106.492 12.0545C106.456 12.145 106.4 12.2267 106.33 12.2941C106.069 12.5918 105.907 13.0755 106.165 13.3821C106.276 13.5146 106.449 13.5875 106.558 13.723C106.753 13.9656 106.687 14.3183 106.683 14.6279C106.672 14.736 106.699 14.8445 106.76 14.9345C106.816 14.987 106.885 15.024 106.96 15.042C107.035 15.06 107.113 15.0584 107.187 15.0372C107.335 14.9928 107.489 14.9781 107.643 14.9941C107.804 15.0465 107.943 15.1513 108.039 15.2917C108.519 15.9183 108.71 16.6 108.915 17.3472Z" fill="#2D293D"/>
<g opacity="0.1">
<path opacity="0.1" d="M113.236 17.0105C113.105 17.1528 112.942 17.2611 112.76 17.3261C111.783 17.7324 110.685 17.6863 109.634 17.6237C109.521 17.6249 109.41 17.5999 109.308 17.5508C109.147 17.457 109.086 17.2606 109.037 17.082C108.832 16.3378 108.643 15.6546 108.155 15.034C108.061 14.8908 107.921 14.7834 107.759 14.7288C107.606 14.7144 107.451 14.729 107.303 14.772C107.229 14.7934 107.151 14.7953 107.076 14.7775C107.002 14.7598 106.933 14.723 106.876 14.6708C106.815 14.5807 106.788 14.4723 106.799 14.3642C106.799 14.0516 106.869 13.7019 106.674 13.4593C106.565 13.3238 106.392 13.2509 106.281 13.1169C106.208 13.0182 106.163 12.9015 106.151 12.7794C106.14 12.6573 106.161 12.5342 106.214 12.4233C106.028 12.721 105.949 13.0946 106.165 13.3506C106.276 13.4831 106.449 13.556 106.558 13.6914C106.753 13.9355 106.687 14.2868 106.683 14.5964C106.671 14.7043 106.698 14.8128 106.759 14.903C106.815 14.9557 106.884 14.9929 106.959 15.0109C107.034 15.0289 107.113 15.0271 107.187 15.0057C107.335 14.9613 107.489 14.9466 107.643 14.9625C107.804 15.015 107.943 15.1197 108.039 15.2602C108.525 15.8808 108.716 16.5625 108.921 17.3097C108.945 17.4936 109.037 17.6618 109.179 17.7815C109.281 17.8307 109.393 17.8552 109.506 17.853C110.561 17.9184 111.661 17.9661 112.632 17.5553C112.814 17.4907 112.977 17.3824 113.108 17.2397C113.174 17.1559 113.224 17.0612 113.257 16.9599C113.258 16.9793 113.248 16.9956 113.236 17.0105Z" fill="black"/>
<path opacity="0.1" d="M106.5 11.9636C106.546 11.9128 106.582 11.853 106.605 11.7879C106.619 11.7126 106.619 11.6355 106.605 11.5602C106.576 11.1359 106.631 10.71 106.767 10.307L106.748 10.2847C106.544 10.7603 106.459 11.2781 106.5 11.7939C106.504 11.8504 106.504 11.9071 106.5 11.9636Z" fill="black"/>
</g>
<path opacity="0.1" d="M108.297 19.4455C108.297 19.4455 112.624 20.0201 113.013 19.3696L108.297 19.4455Z" fill="black"/>
<path opacity="0.1" d="M116.708 17.6553C116.708 17.6553 119.114 17.6553 119.642 18.5602L116.708 17.6553Z" fill="black"/>
<path d="M130.165 98.0499C129.451 98.6877 128.524 99.0341 127.568 99.0204C127.324 99.0204 126.986 99.0665 126.984 99.3106C126.99 99.3822 127.015 99.451 127.056 99.51C127.358 100.013 127.835 100.388 128.395 100.562C128.916 100.72 129.473 100.693 130.016 100.665L131.601 100.583C131.899 100.567 132.197 100.552 132.494 100.515C132.792 100.477 133.116 100.416 133.427 100.366C134.192 100.257 134.965 100.221 135.736 100.259C135.941 100.266 136.182 100.259 136.304 100.11C136.426 99.961 136.364 99.6767 136.318 99.4535C136.223 98.9936 136.318 98.5113 136.23 98.0499C136.081 97.2403 135.38 96.6196 134.612 96.3264C133.898 96.0555 132.633 95.7444 131.957 96.1969C131.244 96.6717 130.808 97.465 130.165 98.0499Z" fill="#3F3D56"/>
<path d="M131.74 70.9227C131.879 71.588 132.524 72.0971 132.542 72.7758C132.558 73.3205 132.17 73.7774 131.89 74.2433C131.626 74.7258 131.404 75.2297 131.225 75.7496C130.698 77.1032 130.044 78.4039 129.272 79.6342C128.9 80.2296 128.483 80.8651 128.568 81.5572C128.627 81.8809 128.741 82.192 128.906 82.477L130.022 84.6947C130.266 85.1375 130.458 85.6076 130.592 86.0953C130.689 86.5165 130.698 86.9526 130.754 87.3812C130.93 88.7416 131.568 90.1109 131.19 91.4296C131.158 91.5428 131.041 91.6797 130.951 91.6008C131.32 92.2899 131.616 92.9835 131.588 93.7649C131.573 94.1742 131.448 94.6014 131.598 94.9824C131.662 95.1417 131.774 95.2905 131.772 95.4617C131.772 95.5748 131.72 95.6805 131.708 95.7906C131.677 96.1046 131.966 96.3666 132.265 96.4663C132.564 96.566 132.89 96.5586 133.192 96.6494C133.773 96.8235 134.188 97.3236 134.681 97.6704C135.186 98.0186 135.782 98.2125 136.395 98.2286C136.483 98.2379 136.571 98.2202 136.648 98.178C136.692 98.1397 136.727 98.0926 136.751 98.0397C136.775 97.9868 136.788 97.9295 136.788 97.8713C136.815 97.5934 136.773 97.313 136.666 97.055C136.559 96.797 136.391 96.5693 136.175 96.3919C136.08 96.3327 136.002 96.2509 135.947 96.1538C135.919 96.0678 135.912 95.9765 135.926 95.8873C136.016 94.6674 135.994 93.4418 135.861 92.2259C135.801 91.8406 135.781 91.4499 135.803 91.0605C135.834 90.736 135.932 90.4146 135.897 90.0916C135.861 89.7686 135.696 89.4739 135.599 89.1628C135.426 88.6092 135.474 88.0138 135.45 87.4348C135.42 86.4287 135.19 85.4404 134.96 84.4581C134.87 84.0726 134.77 83.6692 134.497 83.3835C134.265 83.1409 133.89 82.9087 133.978 82.5857C134.027 82.4666 134.099 82.3587 134.191 82.2687C134.299 82.1334 134.378 81.9776 134.423 81.8107C134.469 81.6439 134.48 81.4695 134.456 81.2982C134.554 81.3232 134.657 81.3134 134.749 81.2705C134.84 81.2276 134.914 81.1543 134.957 81.0631C136.77 80.2073 138.232 78.4956 138.884 76.5979C138.922 76.457 138.981 76.3226 139.059 76.199C139.228 75.9639 139.519 75.8627 139.778 75.7332C140.591 75.3239 141.152 74.5574 141.667 73.8072C141.965 73.3726 142.262 72.9231 142.396 72.4111C142.467 72.08 142.5 71.742 142.496 71.4035L142.542 69.6546C142.552 69.5395 142.541 69.4235 142.509 69.3123C142.465 69.2085 142.401 69.1144 142.32 69.0355C141.825 68.512 141.175 68.1614 140.466 68.0353C139.99 67.9504 139.503 67.9668 139.021 67.9266C138.086 67.8492 137.163 67.559 136.228 67.629C134.759 67.7376 133.451 68.7557 132.759 70.0565C132.516 70.5149 132.26 70.9138 131.74 70.9227Z" fill="#464353"/>
<path d="M123.583 59.5516C123.603 59.8216 123.566 60.0927 123.476 60.3479C123.361 60.5919 123.074 60.7825 122.823 60.6827C122.898 60.5116 122.698 60.3166 122.51 60.3374C122.418 60.3587 122.332 60.4021 122.26 60.4638C122.188 60.5255 122.133 60.6037 122.098 60.6917C121.973 60.9416 121.932 61.2247 121.979 61.4999C122.038 61.8422 122.236 62.1711 122.184 62.5149C122.142 62.8007 121.933 63.085 122.044 63.3499C122.117 63.471 122.207 63.5799 122.314 63.6729C122.461 63.854 122.533 64.0847 122.515 64.3173C122.497 64.5499 122.39 64.7668 122.217 64.9231L125.033 64.9797C124.93 65.45 125.141 65.9308 125.383 66.349C126.058 67.4989 126.99 68.4766 128.107 69.2056C129.224 69.9346 130.494 70.395 131.818 70.5507C131.747 70.5925 131.685 70.6497 131.639 70.7182C131.592 70.7866 131.561 70.8646 131.548 70.9465C131.535 71.0284 131.54 71.1122 131.564 71.1917C131.587 71.2713 131.628 71.3446 131.683 71.4065C131.912 71.6342 132.301 71.606 132.588 71.4586C132.875 71.3113 133.1 71.0672 133.362 70.8781C133.824 70.5505 134.388 70.3985 134.953 70.4495C135.306 70.4837 135.648 70.5983 136.002 70.6162C137.044 70.6713 137.937 69.9211 138.94 69.6145C139.671 69.3898 140.5 69.3898 141.113 68.9328C141.378 68.7364 141.596 68.4134 141.518 68.0949C141.454 67.9118 141.353 67.7441 141.22 67.6022C140.868 67.1453 140.659 66.5961 140.406 66.0766C139.905 65.0482 139.215 64.1232 138.372 63.3499C137.735 62.7937 137.061 62.2824 136.353 61.8199C136.182 61.6936 136 61.5835 135.809 61.4909C135.562 61.3823 135.288 61.3302 135.065 61.1933C134.734 60.9849 134.544 60.6173 134.289 60.3211C133.731 59.6692 132.874 59.37 132.186 58.858C131.725 58.5142 131.317 58.0617 130.766 57.8965C130.498 57.8146 130.214 57.8087 129.946 57.7283C129.337 57.5437 128.894 57.0035 128.297 56.7847C127.825 56.612 127.304 56.6567 126.808 56.5956C126.25 56.5267 125.716 56.3235 125.253 56.0033C125.104 55.8818 124.937 55.7844 124.757 55.7145C124.003 55.4853 123.942 56.8903 123.864 57.377C123.765 58.1004 123.583 58.8193 123.583 59.5516Z" fill="#E52F34"/>
<path d="M124.318 64.2638C124.445 65.6361 123.409 66.9653 123.711 68.3093C123.775 68.595 123.899 68.8674 123.943 69.1576C124.07 69.9539 123.594 70.7085 123.14 71.3753L119.24 77.0981C119.083 77.3494 118.897 77.5803 118.683 77.7858C117.939 78.4481 116.82 78.3811 115.841 78.5776C115.153 78.719 114.503 79.0062 113.935 79.42C113.91 79.4398 113.893 79.4688 113.889 79.5007C113.884 79.5327 113.892 79.5652 113.912 79.5912C114.073 79.8114 114.288 79.9876 114.535 80.1038C114.782 80.22 115.054 80.2725 115.327 80.2565C115.43 80.3904 115.327 80.5899 115.186 80.6866C114.977 80.8355 114.689 80.8697 114.647 81.2254C114.633 81.349 114.658 81.474 114.718 81.5826C114.876 81.8225 115.12 81.9921 115.4 82.0559C116.75 82.4697 118.209 81.7434 119.219 80.7566C120.23 79.7698 120.955 78.524 121.946 77.5209C122.495 76.9642 123.119 76.4894 123.684 75.9506C124.813 74.8745 125.691 73.5692 126.536 72.2609C126.791 71.8665 127.048 71.4616 127.154 71.0047C127.259 70.5478 127.21 70.0849 127.331 69.6429C127.489 69.0639 127.913 68.601 128.266 68.1158C128.958 67.1632 129.421 65.9978 129.328 64.8235C129.236 63.6491 128.51 62.4912 127.402 62.0923C127.059 61.9558 126.681 61.9329 126.323 62.0268C125.869 62.1667 125.534 62.5418 125.225 62.902L124.481 63.7563C124.299 63.9455 124.157 64.1685 124.062 64.4127C124.014 64.5357 124.003 64.6699 124.029 64.7993C124.056 64.9286 124.119 65.0476 124.211 65.142" fill="#FBBEBE"/>
<path d="M126.295 58.6348C125.783 58.6646 125.219 58.7152 124.857 59.0814C124.706 59.2495 124.583 59.4416 124.494 59.6499C124.143 60.3658 123.8 61.1145 123.775 61.9123C123.754 62.5493 123.939 63.1729 124.036 63.8025C124.116 64.3264 123.912 64.8607 123.873 65.3906C124.509 65.1956 125.348 64.9307 125.924 64.6018C126.317 64.377 126.697 64.121 127.125 63.9781C127.737 63.7742 128.763 64.127 129.345 64.4098C129.376 64.0019 129.069 63.2905 129.102 62.8812C129.107 62.7089 129.137 62.5383 129.193 62.3751C129.28 62.2026 129.383 62.0386 129.501 61.8855C129.722 61.5253 129.824 61.1043 129.792 60.6826C129.76 60.261 129.595 59.8605 129.321 59.5383C128.804 58.9578 127.996 58.7405 127.225 58.6453C126.74 58.589 126.25 58.5721 125.762 58.5947" fill="#E52F34"/>
<defs>
<linearGradient id="paint0_linear" x1="105.112" y1="81.2925" x2="105.112" y2="8.56127" gradientUnits="userSpaceOnUse">
<stop stop-color="#808080" stop-opacity="0.25"/>
<stop offset="0.54" stop-color="#808080" stop-opacity="0.12"/>
<stop offset="1" stop-color="#808080" stop-opacity="0.1"/>
</linearGradient>
</defs>
</svg>
